M48
METRIC
T1C0.300
T2C0.400
T3C0.500
T4C0.600
T5C0.762
T6C0.800
T7C0.850
T8C0.900
T9C1.000
T10C1.100
T11C1.200
T12C1.600
T13C3.200
T14C1.000
T15C3.500
%
G90
G05
T1
X100.174Y60.281
X100.174Y61.481
X100.174Y62.781
X100.174Y63.881
X101.374Y60.281
X101.374Y61.481
X101.374Y62.781
X101.374Y63.881
T2
X37.62Y27.92
X37.62Y33.0
X37.62Y38.08
X37.62Y43.16
X37.62Y48.24
X37.62Y53.32
X37.62Y58.4
X37.62Y63.48
X39.37Y85.725
X39.37Y88.9
X39.37Y92.71
X39.37Y96.52
X39.37Y99.695
X39.37Y102.87
X39.37Y106.045
X39.37Y109.22
X40.16Y25.38
X40.16Y35.54
X40.16Y45.7
X40.16Y55.86
X40.16Y66.02
X41.91Y83.185
X41.91Y91.44
X41.91Y93.98
X41.91Y111.76
X42.7Y40.62
X42.7Y50.78
X42.7Y60.94
X43.815Y92.075
X44.133Y80.962
X44.133Y113.983
X44.45Y93.98
X44.45Y102.235
X45.24Y25.38
X45.24Y35.54
X45.24Y45.7
X45.24Y55.86
X45.24Y66.02
X45.72Y104.14
X46.99Y100.965
X47.625Y102.87
X47.78Y30.46
X47.78Y40.62
X47.78Y50.78
X47.78Y60.94
X48.133Y120.015
X48.768Y74.93
X49.53Y88.646
X49.53Y91.44
X49.53Y93.98
X49.53Y96.52
X49.53Y99.06
X49.53Y101.6
X49.784Y85.852
X50.32Y25.38
X50.32Y35.54
X50.32Y45.7
X50.32Y55.86
X50.32Y66.02
X50.8Y76.962
X50.8Y120.015
X52.07Y84.074
X52.07Y100.33
X52.832Y50.8
X52.86Y30.46
X52.86Y40.62
X52.998Y78.574
X53.213Y119.507
X54.864Y100.33
X55.118Y117.602
X55.4Y25.38
X55.4Y35.54
X55.4Y45.7
X55.4Y55.86
X55.4Y66.02
X57.492Y116.498
X57.658Y100.33
X57.912Y30.48
X57.94Y40.62
X57.94Y50.78
X57.94Y60.94
X59.778Y116.498
X60.452Y25.146
X60.452Y35.56
X60.452Y45.72
X60.452Y100.33
X60.48Y55.86
X60.48Y66.02
X61.81Y116.498
X62.992Y30.48
X62.992Y40.64
X63.02Y50.78
X63.02Y60.94
X63.5Y100.33
X65.532Y25.146
X65.532Y35.56
X65.532Y45.72
X65.56Y55.86
X65.56Y66.02
X66.548Y100.33
X68.072Y30.48
X68.072Y40.64
X68.072Y50.8
X68.58Y110.744
X69.215Y101.727
X69.85Y104.648
X69.85Y107.95
X70.612Y25.146
X70.612Y35.56
X70.612Y45.72
X70.64Y55.86
X70.64Y66.02
X73.152Y30.48
X73.152Y40.64
X73.152Y50.8
X73.18Y60.94
X75.692Y25.146
X75.692Y35.56
X75.692Y45.72
X75.72Y55.86
X75.72Y66.02
X78.232Y30.48
X78.232Y40.64
X78.232Y50.8
X78.26Y60.94
X80.772Y25.146
X80.772Y35.56
X80.772Y45.72
X80.772Y55.88
X80.8Y66.02
X83.058Y77.978
X83.312Y30.48
X83.312Y40.64
X83.312Y50.8
X83.312Y60.96
X84.582Y71.882
X85.499Y89.007
X85.753Y113.645
X85.852Y25.146
X85.852Y35.56
X85.852Y45.72
X85.852Y55.88
X87.15Y84.328
X88.392Y30.48
X88.392Y40.64
X88.392Y50.8
X88.392Y60.96
X88.42Y79.736
X89.408Y71.882
X90.932Y25.146
X90.932Y35.56
X90.932Y45.72
X90.932Y55.88
X90.96Y121.9
X90.96Y126.98
X91.948Y71.12
X91.948Y72.136
X91.948Y73.152
X92.71Y116.078
X93.472Y30.48
X93.472Y40.64
X93.472Y50.8
X93.472Y60.96
X93.726Y90.678
X93.726Y94.234
X93.726Y98.298
X93.726Y102.108
X93.726Y105.918
X93.742Y76.242
X93.75Y69.62
X93.751Y68.351
X93.753Y67.083
X95.504Y71.12
X95.504Y72.136
X95.504Y73.152
X96.012Y25.146
X96.012Y35.56
X96.012Y45.72
X96.012Y55.88
X96.04Y121.9
X96.04Y126.98
X96.25Y64.75
X96.25Y80.5
X96.266Y75.438
X96.294Y58.527
X97.31Y124.44
X98.552Y30.48
X98.552Y40.64
X98.552Y50.8
X99.75Y91.0
X99.75Y93.75
X99.977Y68.877
X100.076Y75.438
X100.25Y107.75
X101.092Y25.146
X101.092Y35.56
X101.092Y45.72
X101.092Y55.88
X101.25Y101.0
X101.473Y84.328
X101.723Y121.027
X103.0Y93.25
X103.5Y99.25
X103.632Y30.48
X103.632Y40.64
X103.632Y50.8
X103.632Y75.438
X103.75Y84.75
X104.216Y123.284
X104.922Y61.436
X105.25Y101.0
X105.41Y112.522
X106.0Y120.5
X106.172Y25.146
X106.172Y35.56
X106.172Y45.72
X106.172Y55.88
X106.172Y116.84
X107.188Y75.438
X108.0Y93.25
X108.204Y113.284
X108.712Y30.48
X108.712Y50.8
X108.74Y65.829
X108.74Y120.63
X109.912Y69.412
X110.01Y116.82
X110.466Y123.284
X110.744Y45.72
X110.744Y75.438
X110.899Y66.782
X111.0Y84.75
X111.0Y89.5
X111.252Y25.146
X111.252Y35.56
X111.252Y55.88
X112.014Y112.268
X112.5Y93.25
X112.5Y99.25
X112.55Y120.63
X113.03Y74.168
X113.03Y75.184
X113.03Y76.2
X113.05Y108.692
X113.792Y30.48
X113.792Y50.8
X114.554Y86.614
X114.932Y117.083
X114.963Y61.321
X115.316Y81.534
X115.316Y113.284
X115.57Y86.614
X115.824Y75.438
X116.152Y100.15
X116.154Y99.136
X116.155Y98.094
X116.332Y25.146
X116.332Y35.56
X116.586Y86.614
X117.348Y45.212
X117.602Y52.324
X117.856Y50.038
X118.11Y55.626
X118.519Y66.782
X118.618Y74.168
X118.618Y75.184
X118.618Y76.2
X118.872Y30.48
X118.872Y40.64
X119.204Y52.88
X119.75Y55.0
X121.097Y52.875
X121.158Y60.452
X121.158Y63.246
X121.158Y66.294
X121.158Y69.342
X121.158Y74.168
X121.412Y25.146
X121.412Y35.56
X122.038Y84.954
X123.19Y80.264
X123.25Y119.25
X123.444Y74.168
X123.5Y114.75
X124.25Y108.0
X125.73Y60.452
X125.73Y63.246
X125.73Y66.294
X125.75Y52.5
X126.746Y50.038
X127.0Y110.25
X127.25Y39.5
X127.762Y105.41
X127.775Y91.5
X127.79Y113.01
X128.0Y46.5
X128.016Y118.618
X128.778Y76.2
X129.032Y42.203
X129.244Y58.118
X129.25Y44.0
X129.25Y91.5
X129.264Y59.16
X129.286Y60.198
X129.54Y86.868
X129.789Y78.227
X130.048Y64.854
X130.048Y72.898
X130.076Y35.924
X130.076Y38.674
X130.556Y98.552
X130.556Y105.156
X131.085Y64.882
X131.5Y25.75
X131.5Y29.5
X131.831Y78.237
X132.25Y47.0
X132.743Y42.203
X132.842Y96.012
X132.966Y123.284
X133.096Y109.982
X133.208Y51.958
X133.25Y65.25
X133.405Y48.595
X133.604Y85.09
X133.96Y74.836
X134.112Y105.41
X134.366Y63.754
X134.62Y101.6
X134.874Y92.456
X135.08Y44.913
X135.382Y55.372
X135.636Y38.862
X135.825Y70.321
X135.89Y108.712
X136.0Y30.25
X136.144Y54.61
X136.398Y76.299
X136.741Y64.511
X136.906Y72.898
X137.288Y50.836
X137.288Y56.896
X137.668Y82.804
X137.668Y88.138
X137.668Y94.488
X137.668Y97.536
X137.668Y99.06
X137.922Y63.5
X138.458Y37.826
X138.684Y56.133
X138.712Y44.908
X138.75Y27.5
X139.216Y123.284
X139.5Y85.25
X139.5Y104.25
X139.66Y76.299
X139.75Y80.0
X139.75Y91.5
X141.75Y30.25
X141.75Y49.5
X141.986Y64.77
X142.0Y33.75
X142.0Y36.75
X142.0Y44.5
X142.0Y47.25
X142.0Y96.0
X142.5Y119.25
X142.562Y55.372
X142.686Y57.912
X142.75Y41.25
X142.75Y86.75
X142.975Y50.519
X143.369Y54.684
X143.51Y76.454
X144.135Y43.942
X144.186Y59.595
X144.272Y65.786
X144.716Y123.284
X145.039Y76.205
X145.25Y27.5
X145.25Y41.75
X145.288Y77.216
X145.293Y65.791
X145.509Y66.795
X145.542Y78.232
X145.735Y43.942
X146.0Y83.5
X146.0Y115.0
X146.084Y100.666
X146.304Y50.546
X146.5Y87.75
X146.5Y90.5
X146.5Y93.25
X146.5Y96.0
X147.0Y45.75
X147.054Y69.075
X147.066Y70.088
X147.32Y53.086
X147.32Y60.04
X147.5Y77.75
X147.5Y81.75
X147.602Y62.992
X147.75Y36.5
X147.75Y58.0
X147.856Y62.015
X148.0Y84.75
X148.235Y56.265
X148.25Y105.25
X148.5Y30.0
X148.5Y119.0
X149.071Y45.448
X149.352Y60.706
X149.352Y69.85
X149.38Y57.13
X149.5Y82.75
X149.567Y51.562
X149.7Y76.7
X149.7Y80.5
X150.0Y40.75
X150.0Y87.75
X150.067Y48.494
X150.25Y96.75
X150.25Y102.25
X150.622Y51.562
X151.0Y53.25
X151.384Y70.612
X151.396Y29.21
X151.5Y38.25
X151.517Y66.879
X151.55Y76.7
X151.55Y80.5
X151.638Y59.944
X151.652Y58.892
X151.75Y90.25
X152.0Y99.5
X152.0Y105.25
X152.396Y29.214
X152.4Y57.88
X152.408Y56.257
X152.954Y51.814
X153.216Y123.284
X153.45Y76.7
X153.45Y80.5
X153.5Y115.0
X153.6Y52.578
X153.75Y41.5
X153.75Y87.5
X153.75Y96.75
X153.75Y102.25
X153.924Y61.71
X154.402Y72.361
X154.432Y48.006
X154.432Y53.34
X154.432Y56.134
X155.0Y35.25
X155.194Y52.324
X155.25Y40.0
X155.25Y58.75
X155.25Y82.25
X155.3Y76.7
X155.3Y80.5
X155.365Y109.198
X155.448Y31.242
X155.567Y69.088
X155.702Y44.958
X156.21Y63.246
X156.244Y70.609
X156.567Y67.818
X156.627Y52.611
X156.75Y118.75
X156.846Y44.978
X156.972Y64.008
X157.2Y76.7
X157.2Y80.5
X157.226Y27.128
X157.5Y105.25
X157.616Y52.46
X157.734Y42.418
X157.734Y59.436
X157.936Y57.223
X158.0Y69.0
X158.518Y56.41
X158.821Y25.178
X159.05Y76.7
X159.05Y80.5
X159.25Y88.5
X159.25Y92.75
X159.25Y96.75
X159.25Y102.25
X160.048Y66.528
X160.75Y68.5
X160.75Y83.5
X160.81Y65.695
X160.95Y76.7
X160.95Y80.5
X161.0Y105.25
X162.0Y33.5
X162.466Y123.284
X162.5Y82.75
X162.56Y60.452
X162.609Y53.46
X163.0Y90.5
X163.0Y94.75
X163.0Y102.25
X163.115Y59.62
X163.496Y49.518
X163.5Y25.0
X163.514Y51.754
X163.576Y40.132
X163.669Y58.788
X163.948Y35.052
X164.084Y44.069
X164.35Y50.038
X164.75Y73.0
X165.354Y44.069
X165.608Y42.164
X165.862Y38.608
X166.009Y125.837
X166.5Y30.75
X166.878Y35.052
X166.878Y52.324
X167.0Y82.75
X167.025Y125.837
X167.25Y119.75
X167.618Y41.126
X167.64Y42.164
X168.001Y125.837
X168.148Y36.322
X168.176Y94.214
X168.5Y25.0
X169.126Y73.374
X169.126Y77.124
X169.126Y80.624
X169.164Y68.326
X169.164Y71.12
X170.026Y85.598
X170.026Y97.282
X170.632Y39.91
X170.688Y58.928
X170.75Y27.5
X170.942Y88.392
X170.966Y123.284
X171.5Y115.0
X171.704Y40.386
X171.704Y89.662
X172.163Y30.587
X172.25Y100.25
X172.466Y64.516
X172.5Y35.75
X173.228Y96.774
X173.233Y41.915
X173.25Y25.0
X173.482Y64.77
X173.666Y50.038
X173.676Y44.408
X173.736Y56.134
X174.25Y109.25
X174.443Y62.265
X174.498Y44.978
X174.498Y50.8
X174.498Y54.864
X175.26Y43.688
X175.26Y49.53
X175.26Y59.182
X175.5Y40.75
X175.768Y100.076
X175.913Y30.587
X176.0Y35.75
X176.26Y42.926
X176.26Y49.53
X176.276Y61.595
X177.546Y72.39
X177.673Y77.47
X177.8Y82.931
X177.927Y87.757
X178.0Y25.0
X178.5Y50.25
X179.0Y54.75
X179.07Y99.06
X179.451Y60.198
X179.5Y45.25
X181.0Y53.75
X181.25Y27.5
X181.384Y71.1
X181.384Y74.656
X181.384Y78.72
X181.384Y82.784
X181.384Y86.848
X181.384Y90.658
X181.5Y50.25
X181.5Y57.0
X181.864Y100.584
X182.626Y123.284
X183.0Y55.75
X183.25Y30.25
X183.25Y35.5
X183.25Y52.25
X183.5Y59.25
X183.67Y25.38
X183.67Y71.1
X183.75Y48.75
X183.75Y118.25
X185.194Y77.45
X185.194Y102.334
X185.194Y103.35
X185.194Y104.366
X188.115Y77.45
X189.0Y35.5
X189.385Y59.67
X189.385Y73.132
X189.385Y91.42
X190.655Y49.51
X190.655Y81.26
X191.036Y113.518
X191.036Y119.868
X191.925Y73.132
X192.306Y35.032
X194.338Y113.518
X194.338Y119.868
X194.465Y35.54
X194.465Y49.51
X194.465Y59.67
X194.465Y72.941
X194.465Y81.26
X196.116Y98.151
X197.45Y35.032
X197.64Y49.51
X197.64Y81.26
X197.64Y91.42
X197.64Y113.518
X197.894Y119.868
X198.91Y59.67
X198.91Y98.151
X199.25Y32.75
X199.545Y72.941
X200.18Y35.54
X201.704Y98.024
X201.958Y114.788
X202.212Y119.868
X202.72Y53.955
X204.022Y71.068
X204.244Y98.024
X204.752Y44.938
X205.006Y117.328
X205.232Y35.814
X205.26Y53.955
X205.26Y88.245
X206.248Y78.486
X206.75Y33.0
X207.419Y77.45
X208.661Y35.687
X208.798Y78.476
X208.816Y116.566
X209.931Y56.388
X210.086Y100.564
X210.086Y110.216
X210.34Y44.938
X210.34Y78.72
X210.34Y77.45
X211.61Y33.25
X212.88Y49.51
X212.88Y56.495
X212.88Y81.895
X212.88Y88.245
X212.88Y113.264
X213.134Y119.868
X213.642Y97.072
X215.166Y70.338
X215.674Y101.834
X216.436Y113.264
X216.69Y49.51
X216.69Y56.495
X216.69Y81.895
X216.69Y88.245
X216.69Y119.868
X217.452Y97.072
X218.75Y32.5
X219.23Y104.882
X219.738Y70.338
X219.865Y49.51
X219.865Y56.495
X219.865Y81.895
X219.865Y88.245
X219.992Y113.264
X219.992Y119.868
X220.5Y33.0
X220.5Y102.596
X221.262Y97.072
X221.77Y72.37
X221.77Y104.882
X223.04Y88.88
X223.675Y33.0
X223.675Y56.495
X223.675Y82.53
X224.056Y114.788
X224.056Y119.868
X224.31Y104.882
X224.945Y85.705
X224.945Y91.42
X225.326Y66.782
X225.326Y98.532
X225.58Y46.97
X225.58Y50.78
X225.58Y54.59
X225.58Y59.035
X225.58Y78.72
X225.58Y82.53
X225.58Y114.28
X225.58Y110.47
X226.215Y88.245
X226.85Y73.386
X226.85Y104.882
X226.85Y117.836
X227.104Y56.876
X227.485Y51.415
X227.485Y101.58
X227.485Y69.83
X227.485Y114.915
X227.485Y83.165
X228.12Y46.335
X228.12Y78.085
X228.374Y109.962
X228.755Y54.59
X228.755Y59.035
X228.755Y86.34
X228.755Y90.785
X229.136Y64.496
X229.39Y51.415
X229.39Y69.83
X229.39Y96.5
X229.39Y101.58
X229.39Y114.915
X229.39Y83.165
X229.644Y122.916
X230.025Y38.08
X231.93Y38.715
X231.93Y121.011
X231.93Y122.154
X231.93Y123.297
X231.93Y31.984
X231.93Y124.44
X233.2Y25.126
T3
X177.94Y105.41
X178.643Y103.713
X178.643Y107.107
X180.34Y103.01
X180.34Y107.81
X182.037Y103.713
X182.037Y107.107
X182.74Y105.41
X202.832Y49.022
X203.535Y47.325
X203.535Y50.719
X205.232Y46.622
X205.232Y51.422
X206.929Y47.325
X206.929Y50.719
X207.632Y49.022
X78.118Y120.65
X78.821Y118.953
X78.821Y122.347
X80.518Y118.25
X80.518Y123.05
X82.215Y118.953
X82.215Y122.347
X82.918Y120.65
X202.982Y112.443
X203.685Y110.746
X203.685Y114.14
X205.382Y110.043
X205.382Y114.843
X207.079Y110.746
X207.079Y114.14
X207.782Y112.443
X133.617Y117.856
X134.32Y116.159
X134.32Y119.553
X136.017Y115.456
X136.017Y120.256
X137.714Y116.159
X137.714Y119.553
X138.417Y117.856
X123.584Y28.956
X124.287Y27.259
X124.287Y30.653
X125.984Y26.556
X125.984Y31.356
X127.681Y27.259
X127.681Y30.653
X128.384Y28.956
X177.94Y66.04
X178.643Y64.343
X178.643Y67.737
X180.34Y63.64
X180.34Y68.44
X182.037Y64.343
X182.037Y67.737
X182.74Y66.04
X40.272Y30.226
X40.975Y28.529
X40.975Y31.923
X42.672Y27.826
X42.672Y32.626
X44.369Y28.529
X44.369Y31.923
X45.072Y30.226
X50.432Y60.96
X51.135Y59.263
X51.135Y62.657
X52.832Y58.56
X52.832Y63.36
X54.529Y59.263
X54.529Y62.657
X55.232Y60.96
T5
X147.844Y42.974
X149.344Y42.974
X150.844Y42.974
X152.344Y42.974
T6
X73.053Y81.514
X73.053Y84.054
X73.053Y86.594
X80.673Y81.514
X80.673Y84.054
X80.673Y86.594
X144.78Y25.654
X144.78Y33.274
X73.18Y108.565
X73.18Y111.105
X73.18Y113.645
X80.8Y108.565
X80.8Y111.105
X80.8Y113.645
T7
X149.138Y27.878
X154.138Y27.878
T8
X159.413Y30.587
X159.413Y33.127
X159.413Y35.667
X159.413Y38.207
X159.413Y40.747
X159.413Y43.287
X179.733Y30.587
X179.733Y33.127
X179.733Y35.667
X179.733Y38.207
X179.733Y40.747
X179.733Y43.287
T9
X188.115Y30.46
X188.115Y43.16
X190.655Y30.46
X190.655Y43.16
X193.195Y30.46
X193.195Y43.16
X195.735Y30.46
X195.735Y43.16
X198.275Y30.46
X198.275Y43.16
X200.815Y30.46
X200.815Y43.16
X203.355Y30.46
X203.355Y43.16
X205.895Y30.46
X205.895Y43.16
X210.34Y30.46
X210.34Y43.16
X212.88Y30.46
X212.88Y43.16
X215.42Y30.46
X215.42Y43.16
X217.96Y30.46
X217.96Y43.16
X220.5Y30.46
X220.5Y43.16
X223.04Y30.46
X223.04Y43.16
X225.58Y30.46
X225.58Y43.16
X228.12Y30.46
X228.12Y43.16
X188.115Y62.21
X188.115Y74.91
X190.655Y62.21
X190.655Y74.91
X193.195Y62.21
X193.195Y74.91
X195.735Y62.21
X195.735Y74.91
X198.275Y62.21
X198.275Y74.91
X200.815Y62.21
X200.815Y74.91
X203.355Y62.21
X203.355Y74.91
X205.895Y62.21
X205.895Y74.91
X123.952Y89.916
X123.952Y92.456
X123.952Y94.996
X123.952Y97.536
X123.952Y100.076
X126.492Y89.916
X126.492Y92.456
X126.492Y94.996
X126.492Y97.536
X126.492Y100.076
X144.78Y38.1
X133.858Y89.662
X188.115Y93.96
X188.115Y106.66
X190.655Y93.96
X190.655Y106.66
X193.195Y93.96
X193.195Y106.66
X195.735Y93.96
X195.735Y106.66
X198.275Y93.96
X198.275Y106.66
X200.815Y93.96
X200.815Y106.66
X203.355Y93.96
X203.355Y106.66
X205.895Y93.96
X205.895Y106.66
X112.522Y81.534
X210.34Y93.96
X210.34Y106.66
X212.88Y93.96
X212.88Y106.66
X215.42Y93.96
X215.42Y106.66
X217.96Y93.96
X217.96Y106.66
X220.5Y93.96
X220.5Y106.66
X223.04Y93.96
X223.04Y106.66
X225.58Y93.96
X225.58Y106.66
X228.12Y93.96
X228.12Y106.66
X205.74Y118.872
X205.232Y85.344
X97.028Y68.072
X205.74Y56.388
X198.275Y27.178
X200.815Y27.178
X203.355Y27.178
X205.895Y27.178
X68.105Y60.996
X154.0Y92.75
X210.34Y62.21
X210.34Y74.91
X212.88Y62.21
X212.88Y74.91
X215.42Y62.21
X215.42Y74.91
X217.96Y62.21
X217.96Y74.91
X220.5Y62.21
X220.5Y74.91
X223.04Y62.21
X223.04Y74.91
X225.58Y62.21
X225.58Y74.91
X228.12Y62.21
X228.12Y74.91
X112.522Y40.64
X112.522Y43.18
X112.522Y45.72
X112.522Y48.26
X115.062Y40.64
X115.062Y43.18
X115.062Y45.72
X115.062Y48.26
X220.472Y27.178
X223.012Y27.178
X225.552Y27.178
X228.092Y27.178
X93.472Y124.46
T10
X75.184Y93.345
X75.184Y100.965
T11
X166.261Y75.22
X166.261Y78.72
X97.79Y97.028
X101.6Y97.028
X105.41Y97.028
X109.22Y97.028
X166.207Y97.262
X166.207Y100.762
X166.207Y104.262
X211.27Y85.07
X214.77Y85.07
X218.27Y85.07
X221.77Y85.07
X142.494Y80.264
X142.494Y83.764
X189.045Y53.32
X192.545Y53.32
X196.045Y53.32
X199.545Y53.32
X166.261Y65.695
X166.261Y69.195
X166.207Y84.547
X166.207Y88.047
X166.207Y91.547
X189.045Y85.07
X192.545Y85.07
X196.045Y85.07
X199.545Y85.07
X166.271Y56.114
X166.271Y59.614
X97.818Y116.32
X101.628Y116.32
X126.238Y116.185
X129.738Y116.185
X141.125Y67.91
X141.125Y71.41
X141.125Y74.91
X211.27Y116.82
X214.77Y116.82
X218.27Y116.82
X221.77Y116.82
X44.45Y96.195
X44.45Y99.695
X117.051Y116.185
X120.551Y116.185
X142.494Y99.116
X142.494Y102.616
X142.494Y106.116
X160.838Y116.332
X164.338Y116.332
X189.045Y116.82
X192.545Y116.82
X196.045Y116.82
X199.545Y116.82
X44.45Y116.515
X44.45Y120.015
X130.048Y48.824
X130.048Y52.324
X44.45Y74.93
X44.45Y78.43
X142.494Y89.662
X142.494Y93.162
X211.27Y53.32
X214.77Y53.32
X218.27Y53.32
X221.77Y53.32
T12
X64.82Y105.498
X64.82Y110.998
X64.82Y116.498
X56.818Y78.574
X56.818Y84.074
X56.818Y89.574
T13
X42.672Y30.226
X52.832Y60.96
X180.34Y105.41
X205.232Y49.022
X80.518Y120.65
X205.382Y112.443
X136.017Y117.856
X125.984Y28.956
X180.34Y66.04
T14
X166.53Y27.792
X174.53Y27.792
T15
X58.42Y110.998
X63.218Y84.074
T4
X148.138Y25.528G85X148.138Y24.828
G05
X155.138Y24.828G85X155.138Y25.528
G05
T9
X88.769Y58.527G85X84.769Y58.527
G05
X88.769Y66.782G85X84.769Y66.782
G05
T0
M30
