G04 #@! TF.GenerationSoftware,KiCad,Pcbnew,(5.1.8)-1*
G04 #@! TF.CreationDate,2020-12-25T17:55:37+03:00*
G04 #@! TF.ProjectId,3d_print_main,33645f70-7269-46e7-945f-6d61696e2e6b,rev?*
G04 #@! TF.SameCoordinates,Original*
G04 #@! TF.FileFunction,Soldermask,Bot*
G04 #@! TF.FilePolarity,Negative*
%FSLAX46Y46*%
G04 Gerber Fmt 4.6, Leading zero omitted, Abs format (unit mm)*
G04 Created by KiCad (PCBNEW (5.1.8)-1) date 2020-12-25 17:55:37*
%MOMM*%
%LPD*%
G01*
G04 APERTURE LIST*
%ADD10C,6.502000*%
%ADD11C,0.902000*%
%ADD12O,2.302000X2.302000*%
%ADD13C,2.102000*%
%ADD14C,3.602000*%
%ADD15O,4.102000X3.102000*%
%ADD16O,1.902000X3.702000*%
%ADD17O,1.802000X1.802000*%
%ADD18C,1.102000*%
%ADD19C,1.852000*%
%ADD20O,1.702000X1.702000*%
%ADD21O,3.702000X1.902000*%
%ADD22C,1.802000*%
%ADD23O,1.802000X2.052000*%
%ADD24C,0.100000*%
G04 APERTURE END LIST*
D10*
X154813000Y-40894000D03*
D11*
X157213000Y-40894000D03*
X156510056Y-42591056D03*
X154813000Y-43294000D03*
X153115944Y-42591056D03*
X152413000Y-40894000D03*
X153115944Y-39196944D03*
X154813000Y-38494000D03*
X156510056Y-39196944D03*
D10*
X136017000Y-117856000D03*
D11*
X138417000Y-117856000D03*
X137714056Y-119553056D03*
X136017000Y-120256000D03*
X134319944Y-119553056D03*
X133617000Y-117856000D03*
X134319944Y-116158944D03*
X136017000Y-115456000D03*
X137714056Y-116158944D03*
G36*
G01*
X75395000Y-102116000D02*
X73195000Y-102116000D01*
G75*
G02*
X73144000Y-102065000I0J51000D01*
G01*
X73144000Y-99865000D01*
G75*
G02*
X73195000Y-99814000I51000J0D01*
G01*
X75395000Y-99814000D01*
G75*
G02*
X75446000Y-99865000I0J-51000D01*
G01*
X75446000Y-102065000D01*
G75*
G02*
X75395000Y-102116000I-51000J0D01*
G01*
G37*
D12*
X74295000Y-93345000D03*
G36*
G01*
X143625000Y-34378000D02*
X143625000Y-32678000D01*
G75*
G02*
X143676000Y-32627000I51000J0D01*
G01*
X145376000Y-32627000D01*
G75*
G02*
X145427000Y-32678000I0J-51000D01*
G01*
X145427000Y-34378000D01*
G75*
G02*
X145376000Y-34429000I-51000J0D01*
G01*
X143676000Y-34429000D01*
G75*
G02*
X143625000Y-34378000I0J51000D01*
G01*
G37*
D13*
X205895002Y-43160000D03*
X203355002Y-43160000D03*
X200815002Y-43160000D03*
X198275002Y-43160000D03*
X195735002Y-43160000D03*
X193195002Y-43160000D03*
X190655002Y-43160000D03*
X188115002Y-43160000D03*
X188115002Y-30460000D03*
X190655002Y-30460000D03*
X193195002Y-30460000D03*
X195735002Y-30460000D03*
X198275002Y-30460000D03*
X200815002Y-30460000D03*
X203355002Y-30460000D03*
X205895002Y-30460000D03*
X205895000Y-74910000D03*
X203355000Y-74910000D03*
X200815000Y-74910000D03*
X198275000Y-74910000D03*
X195735000Y-74910000D03*
X193195000Y-74910000D03*
X190655000Y-74910000D03*
X188115000Y-74910000D03*
X188115000Y-62210000D03*
X190655000Y-62210000D03*
X193195000Y-62210000D03*
X195735000Y-62210000D03*
X198275000Y-62210000D03*
X200815000Y-62210000D03*
X203355000Y-62210000D03*
X205895000Y-62210000D03*
X228120000Y-43160000D03*
X225580000Y-43160000D03*
X223040000Y-43160000D03*
X220500000Y-43160000D03*
X217960000Y-43160000D03*
X215420000Y-43160000D03*
X212880000Y-43160000D03*
X210340000Y-43160000D03*
X210340000Y-30460000D03*
X212880000Y-30460000D03*
X215420000Y-30460000D03*
X217960000Y-30460000D03*
X220500000Y-30460000D03*
X223040000Y-30460000D03*
X225580000Y-30460000D03*
X228120000Y-30460000D03*
X205895002Y-106660002D03*
X203355002Y-106660002D03*
X200815002Y-106660002D03*
X198275002Y-106660002D03*
X195735002Y-106660002D03*
X193195002Y-106660002D03*
X190655002Y-106660002D03*
X188115002Y-106660002D03*
X188115002Y-93960002D03*
X190655002Y-93960002D03*
X193195002Y-93960002D03*
X195735002Y-93960002D03*
X198275002Y-93960002D03*
X200815002Y-93960002D03*
X203355002Y-93960002D03*
X205895002Y-93960002D03*
X228119998Y-106660000D03*
X225579998Y-106660000D03*
X223039998Y-106660000D03*
X220499998Y-106660000D03*
X217959998Y-106660000D03*
X215419998Y-106660000D03*
X212879998Y-106660000D03*
X210339998Y-106660000D03*
X210339998Y-93960000D03*
X212879998Y-93960000D03*
X215419998Y-93960000D03*
X217959998Y-93960000D03*
X220499998Y-93960000D03*
X223039998Y-93960000D03*
X225579998Y-93960000D03*
X228119998Y-93960000D03*
X228120000Y-74910000D03*
X225580000Y-74910000D03*
X223040000Y-74910000D03*
X220500000Y-74910000D03*
X217960000Y-74910000D03*
X215420000Y-74910000D03*
X212880000Y-74910000D03*
X210340000Y-74910000D03*
X210340000Y-62210000D03*
X212880000Y-62210000D03*
X215420000Y-62210000D03*
X217960000Y-62210000D03*
X220500000Y-62210000D03*
X223040000Y-62210000D03*
X225580000Y-62210000D03*
X228120000Y-62210000D03*
G36*
G01*
X160475501Y-116783000D02*
X159874501Y-116783000D01*
G75*
G02*
X159649001Y-116557500I0J225500D01*
G01*
X159649001Y-116106500D01*
G75*
G02*
X159874501Y-115881000I225500J0D01*
G01*
X160475501Y-115881000D01*
G75*
G02*
X160701001Y-116106500I0J-225500D01*
G01*
X160701001Y-116557500D01*
G75*
G02*
X160475501Y-116783000I-225500J0D01*
G01*
G37*
G36*
G01*
X160475501Y-118433000D02*
X159874501Y-118433000D01*
G75*
G02*
X159649001Y-118207500I0J225500D01*
G01*
X159649001Y-117756500D01*
G75*
G02*
X159874501Y-117531000I225500J0D01*
G01*
X160475501Y-117531000D01*
G75*
G02*
X160701001Y-117756500I0J-225500D01*
G01*
X160701001Y-118207500D01*
G75*
G02*
X160475501Y-118433000I-225500J0D01*
G01*
G37*
G36*
G01*
X163015501Y-116783000D02*
X162414501Y-116783000D01*
G75*
G02*
X162189001Y-116557500I0J225500D01*
G01*
X162189001Y-116106500D01*
G75*
G02*
X162414501Y-115881000I225500J0D01*
G01*
X163015501Y-115881000D01*
G75*
G02*
X163241001Y-116106500I0J-225500D01*
G01*
X163241001Y-116557500D01*
G75*
G02*
X163015501Y-116783000I-225500J0D01*
G01*
G37*
G36*
G01*
X163015501Y-118433000D02*
X162414501Y-118433000D01*
G75*
G02*
X162189001Y-118207500I0J225500D01*
G01*
X162189001Y-117756500D01*
G75*
G02*
X162414501Y-117531000I225500J0D01*
G01*
X163015501Y-117531000D01*
G75*
G02*
X163241001Y-117756500I0J-225500D01*
G01*
X163241001Y-118207500D01*
G75*
G02*
X163015501Y-118433000I-225500J0D01*
G01*
G37*
G36*
G01*
X168863500Y-74769001D02*
X169464500Y-74769001D01*
G75*
G02*
X169690000Y-74994501I0J-225500D01*
G01*
X169690000Y-75445501D01*
G75*
G02*
X169464500Y-75671001I-225500J0D01*
G01*
X168863500Y-75671001D01*
G75*
G02*
X168638000Y-75445501I0J225500D01*
G01*
X168638000Y-74994501D01*
G75*
G02*
X168863500Y-74769001I225500J0D01*
G01*
G37*
G36*
G01*
X168863500Y-73119001D02*
X169464500Y-73119001D01*
G75*
G02*
X169690000Y-73344501I0J-225500D01*
G01*
X169690000Y-73795501D01*
G75*
G02*
X169464500Y-74021001I-225500J0D01*
G01*
X168863500Y-74021001D01*
G75*
G02*
X168638000Y-73795501I0J225500D01*
G01*
X168638000Y-73344501D01*
G75*
G02*
X168863500Y-73119001I225500J0D01*
G01*
G37*
G36*
G01*
X169464500Y-66237001D02*
X168863500Y-66237001D01*
G75*
G02*
X168638000Y-66011501I0J225500D01*
G01*
X168638000Y-65560501D01*
G75*
G02*
X168863500Y-65335001I225500J0D01*
G01*
X169464500Y-65335001D01*
G75*
G02*
X169690000Y-65560501I0J-225500D01*
G01*
X169690000Y-66011501D01*
G75*
G02*
X169464500Y-66237001I-225500J0D01*
G01*
G37*
G36*
G01*
X169464500Y-67887001D02*
X168863500Y-67887001D01*
G75*
G02*
X168638000Y-67661501I0J225500D01*
G01*
X168638000Y-67210501D01*
G75*
G02*
X168863500Y-66985001I225500J0D01*
G01*
X169464500Y-66985001D01*
G75*
G02*
X169690000Y-67210501I0J-225500D01*
G01*
X169690000Y-67661501D01*
G75*
G02*
X169464500Y-67887001I-225500J0D01*
G01*
G37*
G36*
G01*
X169464500Y-56565001D02*
X168863500Y-56565001D01*
G75*
G02*
X168638000Y-56339501I0J225500D01*
G01*
X168638000Y-55888501D01*
G75*
G02*
X168863500Y-55663001I225500J0D01*
G01*
X169464500Y-55663001D01*
G75*
G02*
X169690000Y-55888501I0J-225500D01*
G01*
X169690000Y-56339501D01*
G75*
G02*
X169464500Y-56565001I-225500J0D01*
G01*
G37*
G36*
G01*
X169464500Y-58215001D02*
X168863500Y-58215001D01*
G75*
G02*
X168638000Y-57989501I0J225500D01*
G01*
X168638000Y-57538501D01*
G75*
G02*
X168863500Y-57313001I225500J0D01*
G01*
X169464500Y-57313001D01*
G75*
G02*
X169690000Y-57538501I0J-225500D01*
G01*
X169690000Y-57989501D01*
G75*
G02*
X169464500Y-58215001I-225500J0D01*
G01*
G37*
G36*
G01*
X192894502Y-91369000D02*
X193495502Y-91369000D01*
G75*
G02*
X193721002Y-91594500I0J-225500D01*
G01*
X193721002Y-92045500D01*
G75*
G02*
X193495502Y-92271000I-225500J0D01*
G01*
X192894502Y-92271000D01*
G75*
G02*
X192669002Y-92045500I0J225500D01*
G01*
X192669002Y-91594500D01*
G75*
G02*
X192894502Y-91369000I225500J0D01*
G01*
G37*
G36*
G01*
X192894502Y-89719000D02*
X193495502Y-89719000D01*
G75*
G02*
X193721002Y-89944500I0J-225500D01*
G01*
X193721002Y-90395500D01*
G75*
G02*
X193495502Y-90621000I-225500J0D01*
G01*
X192894502Y-90621000D01*
G75*
G02*
X192669002Y-90395500I0J225500D01*
G01*
X192669002Y-89944500D01*
G75*
G02*
X192894502Y-89719000I225500J0D01*
G01*
G37*
G36*
G01*
X192894500Y-59619000D02*
X193495500Y-59619000D01*
G75*
G02*
X193721000Y-59844500I0J-225500D01*
G01*
X193721000Y-60295500D01*
G75*
G02*
X193495500Y-60521000I-225500J0D01*
G01*
X192894500Y-60521000D01*
G75*
G02*
X192669000Y-60295500I0J225500D01*
G01*
X192669000Y-59844500D01*
G75*
G02*
X192894500Y-59619000I225500J0D01*
G01*
G37*
G36*
G01*
X192894500Y-57969000D02*
X193495500Y-57969000D01*
G75*
G02*
X193721000Y-58194500I0J-225500D01*
G01*
X193721000Y-58645500D01*
G75*
G02*
X193495500Y-58871000I-225500J0D01*
G01*
X192894500Y-58871000D01*
G75*
G02*
X192669000Y-58645500I0J225500D01*
G01*
X192669000Y-58194500D01*
G75*
G02*
X192894500Y-57969000I225500J0D01*
G01*
G37*
G36*
G01*
X215119500Y-59619000D02*
X215720500Y-59619000D01*
G75*
G02*
X215946000Y-59844500I0J-225500D01*
G01*
X215946000Y-60295500D01*
G75*
G02*
X215720500Y-60521000I-225500J0D01*
G01*
X215119500Y-60521000D01*
G75*
G02*
X214894000Y-60295500I0J225500D01*
G01*
X214894000Y-59844500D01*
G75*
G02*
X215119500Y-59619000I225500J0D01*
G01*
G37*
G36*
G01*
X215119500Y-57969000D02*
X215720500Y-57969000D01*
G75*
G02*
X215946000Y-58194500I0J-225500D01*
G01*
X215946000Y-58645500D01*
G75*
G02*
X215720500Y-58871000I-225500J0D01*
G01*
X215119500Y-58871000D01*
G75*
G02*
X214894000Y-58645500I0J225500D01*
G01*
X214894000Y-58194500D01*
G75*
G02*
X215119500Y-57969000I225500J0D01*
G01*
G37*
G36*
G01*
X215091500Y-91369000D02*
X215692500Y-91369000D01*
G75*
G02*
X215918000Y-91594500I0J-225500D01*
G01*
X215918000Y-92045500D01*
G75*
G02*
X215692500Y-92271000I-225500J0D01*
G01*
X215091500Y-92271000D01*
G75*
G02*
X214866000Y-92045500I0J225500D01*
G01*
X214866000Y-91594500D01*
G75*
G02*
X215091500Y-91369000I225500J0D01*
G01*
G37*
G36*
G01*
X215091500Y-89719000D02*
X215692500Y-89719000D01*
G75*
G02*
X215918000Y-89944500I0J-225500D01*
G01*
X215918000Y-90395500D01*
G75*
G02*
X215692500Y-90621000I-225500J0D01*
G01*
X215091500Y-90621000D01*
G75*
G02*
X214866000Y-90395500I0J225500D01*
G01*
X214866000Y-89944500D01*
G75*
G02*
X215091500Y-89719000I225500J0D01*
G01*
G37*
G36*
G01*
X192894502Y-27997000D02*
X193495502Y-27997000D01*
G75*
G02*
X193721002Y-28222500I0J-225500D01*
G01*
X193721002Y-28673500D01*
G75*
G02*
X193495502Y-28899000I-225500J0D01*
G01*
X192894502Y-28899000D01*
G75*
G02*
X192669002Y-28673500I0J225500D01*
G01*
X192669002Y-28222500D01*
G75*
G02*
X192894502Y-27997000I225500J0D01*
G01*
G37*
G36*
G01*
X192894502Y-26347000D02*
X193495502Y-26347000D01*
G75*
G02*
X193721002Y-26572500I0J-225500D01*
G01*
X193721002Y-27023500D01*
G75*
G02*
X193495502Y-27249000I-225500J0D01*
G01*
X192894502Y-27249000D01*
G75*
G02*
X192669002Y-27023500I0J225500D01*
G01*
X192669002Y-26572500D01*
G75*
G02*
X192894502Y-26347000I225500J0D01*
G01*
G37*
G36*
G01*
X215119500Y-27997000D02*
X215720500Y-27997000D01*
G75*
G02*
X215946000Y-28222500I0J-225500D01*
G01*
X215946000Y-28673500D01*
G75*
G02*
X215720500Y-28899000I-225500J0D01*
G01*
X215119500Y-28899000D01*
G75*
G02*
X214894000Y-28673500I0J225500D01*
G01*
X214894000Y-28222500D01*
G75*
G02*
X215119500Y-27997000I225500J0D01*
G01*
G37*
G36*
G01*
X215119500Y-26347000D02*
X215720500Y-26347000D01*
G75*
G02*
X215946000Y-26572500I0J-225500D01*
G01*
X215946000Y-27023500D01*
G75*
G02*
X215720500Y-27249000I-225500J0D01*
G01*
X215119500Y-27249000D01*
G75*
G02*
X214894000Y-27023500I0J225500D01*
G01*
X214894000Y-26572500D01*
G75*
G02*
X215119500Y-26347000I225500J0D01*
G01*
G37*
D14*
X58420000Y-111105000D03*
D15*
X64820000Y-116605000D03*
X64820000Y-105605000D03*
X64820000Y-111105000D03*
D14*
X58398000Y-84054000D03*
D15*
X64798000Y-89554000D03*
X64798000Y-78554000D03*
X64798000Y-84054000D03*
D10*
X180340000Y-66040000D03*
D11*
X182740000Y-66040000D03*
X182037056Y-67737056D03*
X180340000Y-68440000D03*
X178642944Y-67737056D03*
X177940000Y-66040000D03*
X178642944Y-64342944D03*
X180340000Y-63640000D03*
X182037056Y-64342944D03*
D10*
X180340000Y-105410000D03*
D11*
X182740000Y-105410000D03*
X182037056Y-107107056D03*
X180340000Y-107810000D03*
X178642944Y-107107056D03*
X177940000Y-105410000D03*
X178642944Y-103712944D03*
X180340000Y-103010000D03*
X182037056Y-103712944D03*
D10*
X205232000Y-49022000D03*
D11*
X207632000Y-49022000D03*
X206929056Y-50719056D03*
X205232000Y-51422000D03*
X203534944Y-50719056D03*
X202832000Y-49022000D03*
X203534944Y-47324944D03*
X205232000Y-46622000D03*
X206929056Y-47324944D03*
D10*
X205381674Y-112442696D03*
D11*
X207781674Y-112442696D03*
X207078730Y-114139752D03*
X205381674Y-114842696D03*
X203684618Y-114139752D03*
X202981674Y-112442696D03*
X203684618Y-110745640D03*
X205381674Y-110042696D03*
X207078730Y-110745640D03*
D10*
X52832000Y-60960000D03*
D11*
X55232000Y-60960000D03*
X54529056Y-62657056D03*
X52832000Y-63360000D03*
X51134944Y-62657056D03*
X50432000Y-60960000D03*
X51134944Y-59262944D03*
X52832000Y-58560000D03*
X54529056Y-59262944D03*
D10*
X80518000Y-120650000D03*
D11*
X82918000Y-120650000D03*
X82215056Y-122347056D03*
X80518000Y-123050000D03*
X78820944Y-122347056D03*
X78118000Y-120650000D03*
X78820944Y-118952944D03*
X80518000Y-118250000D03*
X82215056Y-118952944D03*
D10*
X42672000Y-30226000D03*
D11*
X45072000Y-30226000D03*
X44369056Y-31923056D03*
X42672000Y-32626000D03*
X40974944Y-31923056D03*
X40272000Y-30226000D03*
X40974944Y-28528944D03*
X42672000Y-27826000D03*
X44369056Y-28528944D03*
G36*
G01*
X130689000Y-114598166D02*
X130689000Y-117771834D01*
G75*
G02*
X130424834Y-118036000I-264166J0D01*
G01*
X129051166Y-118036000D01*
G75*
G02*
X128787000Y-117771834I0J264166D01*
G01*
X128787000Y-114598166D01*
G75*
G02*
X129051166Y-114334000I264166J0D01*
G01*
X130424834Y-114334000D01*
G75*
G02*
X130689000Y-114598166I0J-264166D01*
G01*
G37*
D16*
X126238000Y-116185000D03*
D17*
X157480000Y-120777000D03*
G36*
G01*
X155790000Y-121678000D02*
X154090000Y-121678000D01*
G75*
G02*
X154039000Y-121627000I0J51000D01*
G01*
X154039000Y-119927000D01*
G75*
G02*
X154090000Y-119876000I51000J0D01*
G01*
X155790000Y-119876000D01*
G75*
G02*
X155841000Y-119927000I0J-51000D01*
G01*
X155841000Y-121627000D01*
G75*
G02*
X155790000Y-121678000I-51000J0D01*
G01*
G37*
G36*
G01*
X157700999Y-116056500D02*
X157700999Y-116607500D01*
G75*
G02*
X157450499Y-116858000I-250500J0D01*
G01*
X156949499Y-116858000D01*
G75*
G02*
X156698999Y-116607500I0J250500D01*
G01*
X156698999Y-116056500D01*
G75*
G02*
X156949499Y-115806000I250500J0D01*
G01*
X157450499Y-115806000D01*
G75*
G02*
X157700999Y-116056500I0J-250500D01*
G01*
G37*
G36*
G01*
X159250999Y-116056500D02*
X159250999Y-116607500D01*
G75*
G02*
X159000499Y-116858000I-250500J0D01*
G01*
X158499499Y-116858000D01*
G75*
G02*
X158248999Y-116607500I0J250500D01*
G01*
X158248999Y-116056500D01*
G75*
G02*
X158499499Y-115806000I250500J0D01*
G01*
X159000499Y-115806000D01*
G75*
G02*
X159250999Y-116056500I0J-250500D01*
G01*
G37*
G36*
G01*
X165121500Y-113231000D02*
X164570500Y-113231000D01*
G75*
G02*
X164320000Y-112980500I0J250500D01*
G01*
X164320000Y-112479500D01*
G75*
G02*
X164570500Y-112229000I250500J0D01*
G01*
X165121500Y-112229000D01*
G75*
G02*
X165372000Y-112479500I0J-250500D01*
G01*
X165372000Y-112980500D01*
G75*
G02*
X165121500Y-113231000I-250500J0D01*
G01*
G37*
G36*
G01*
X165121500Y-114781000D02*
X164570500Y-114781000D01*
G75*
G02*
X164320000Y-114530500I0J250500D01*
G01*
X164320000Y-114029500D01*
G75*
G02*
X164570500Y-113779000I250500J0D01*
G01*
X165121500Y-113779000D01*
G75*
G02*
X165372000Y-114029500I0J-250500D01*
G01*
X165372000Y-114530500D01*
G75*
G02*
X165121500Y-114781000I-250500J0D01*
G01*
G37*
G36*
G01*
X163046500Y-76269002D02*
X163597500Y-76269002D01*
G75*
G02*
X163848000Y-76519502I0J-250500D01*
G01*
X163848000Y-77020502D01*
G75*
G02*
X163597500Y-77271002I-250500J0D01*
G01*
X163046500Y-77271002D01*
G75*
G02*
X162796000Y-77020502I0J250500D01*
G01*
X162796000Y-76519502D01*
G75*
G02*
X163046500Y-76269002I250500J0D01*
G01*
G37*
G36*
G01*
X163046500Y-74719002D02*
X163597500Y-74719002D01*
G75*
G02*
X163848000Y-74969502I0J-250500D01*
G01*
X163848000Y-75470502D01*
G75*
G02*
X163597500Y-75721002I-250500J0D01*
G01*
X163046500Y-75721002D01*
G75*
G02*
X162796000Y-75470502I0J250500D01*
G01*
X162796000Y-74969502D01*
G75*
G02*
X163046500Y-74719002I250500J0D01*
G01*
G37*
G36*
G01*
X163046500Y-66743999D02*
X163597500Y-66743999D01*
G75*
G02*
X163848000Y-66994499I0J-250500D01*
G01*
X163848000Y-67495499D01*
G75*
G02*
X163597500Y-67745999I-250500J0D01*
G01*
X163046500Y-67745999D01*
G75*
G02*
X162796000Y-67495499I0J250500D01*
G01*
X162796000Y-66994499D01*
G75*
G02*
X163046500Y-66743999I250500J0D01*
G01*
G37*
G36*
G01*
X163046500Y-65193999D02*
X163597500Y-65193999D01*
G75*
G02*
X163848000Y-65444499I0J-250500D01*
G01*
X163848000Y-65945499D01*
G75*
G02*
X163597500Y-66195999I-250500J0D01*
G01*
X163046500Y-66195999D01*
G75*
G02*
X162796000Y-65945499I0J250500D01*
G01*
X162796000Y-65444499D01*
G75*
G02*
X163046500Y-65193999I250500J0D01*
G01*
G37*
G36*
G01*
X170412500Y-57170000D02*
X170963500Y-57170000D01*
G75*
G02*
X171214000Y-57420500I0J-250500D01*
G01*
X171214000Y-57921500D01*
G75*
G02*
X170963500Y-58172000I-250500J0D01*
G01*
X170412500Y-58172000D01*
G75*
G02*
X170162000Y-57921500I0J250500D01*
G01*
X170162000Y-57420500D01*
G75*
G02*
X170412500Y-57170000I250500J0D01*
G01*
G37*
G36*
G01*
X170412500Y-55620000D02*
X170963500Y-55620000D01*
G75*
G02*
X171214000Y-55870500I0J-250500D01*
G01*
X171214000Y-56371500D01*
G75*
G02*
X170963500Y-56622000I-250500J0D01*
G01*
X170412500Y-56622000D01*
G75*
G02*
X170162000Y-56371500I0J250500D01*
G01*
X170162000Y-55870500D01*
G75*
G02*
X170412500Y-55620000I250500J0D01*
G01*
G37*
G36*
G01*
X152782833Y-105530027D02*
X152782833Y-106831027D01*
G75*
G02*
X152382333Y-107231527I-400500J0D01*
G01*
X151581333Y-107231527D01*
G75*
G02*
X151180833Y-106831027I0J400500D01*
G01*
X151180833Y-105530027D01*
G75*
G02*
X151581333Y-105129527I400500J0D01*
G01*
X152382333Y-105129527D01*
G75*
G02*
X152782833Y-105530027I0J-400500D01*
G01*
G37*
G36*
G01*
X156338833Y-105530027D02*
X156338833Y-106831027D01*
G75*
G02*
X155938333Y-107231527I-400500J0D01*
G01*
X155137333Y-107231527D01*
G75*
G02*
X154736833Y-106831027I0J400500D01*
G01*
X154736833Y-105530027D01*
G75*
G02*
X155137333Y-105129527I400500J0D01*
G01*
X155938333Y-105129527D01*
G75*
G02*
X156338833Y-105530027I0J-400500D01*
G01*
G37*
G36*
G01*
X154560833Y-105180527D02*
X154560833Y-107180527D01*
G75*
G02*
X154509833Y-107231527I-51000J0D01*
G01*
X153009833Y-107231527D01*
G75*
G02*
X152958833Y-107180527I0J51000D01*
G01*
X152958833Y-105180527D01*
G75*
G02*
X153009833Y-105129527I51000J0D01*
G01*
X154509833Y-105129527D01*
G75*
G02*
X154560833Y-105180527I0J-51000D01*
G01*
G37*
D18*
X66962000Y-28300000D03*
X74962000Y-28300000D03*
D19*
X80165000Y-31095000D03*
X80165000Y-33635000D03*
X80165000Y-36175000D03*
X80165000Y-38715000D03*
X80165000Y-41255000D03*
X80165000Y-43795000D03*
X59845000Y-43795000D03*
X59845000Y-41255000D03*
X59845000Y-38715000D03*
X59845000Y-36175000D03*
X59845000Y-33635000D03*
X59845000Y-31095000D03*
G36*
G01*
X204839000Y-57238000D02*
X204839000Y-55538000D01*
G75*
G02*
X204890000Y-55487000I51000J0D01*
G01*
X206590000Y-55487000D01*
G75*
G02*
X206641000Y-55538000I0J-51000D01*
G01*
X206641000Y-57238000D01*
G75*
G02*
X206590000Y-57289000I-51000J0D01*
G01*
X204890000Y-57289000D01*
G75*
G02*
X204839000Y-57238000I0J51000D01*
G01*
G37*
G36*
G01*
X204331000Y-86194000D02*
X204331000Y-84494000D01*
G75*
G02*
X204382000Y-84443000I51000J0D01*
G01*
X206082000Y-84443000D01*
G75*
G02*
X206133000Y-84494000I0J-51000D01*
G01*
X206133000Y-86194000D01*
G75*
G02*
X206082000Y-86245000I-51000J0D01*
G01*
X204382000Y-86245000D01*
G75*
G02*
X204331000Y-86194000I0J51000D01*
G01*
G37*
G36*
G01*
X204839000Y-119722000D02*
X204839000Y-118022000D01*
G75*
G02*
X204890000Y-117971000I51000J0D01*
G01*
X206590000Y-117971000D01*
G75*
G02*
X206641000Y-118022000I0J-51000D01*
G01*
X206641000Y-119722000D01*
G75*
G02*
X206590000Y-119773000I-51000J0D01*
G01*
X204890000Y-119773000D01*
G75*
G02*
X204839000Y-119722000I0J51000D01*
G01*
G37*
G36*
G01*
X67204396Y-61845595D02*
X67204396Y-60145595D01*
G75*
G02*
X67255396Y-60094595I51000J0D01*
G01*
X68955396Y-60094595D01*
G75*
G02*
X69006396Y-60145595I0J-51000D01*
G01*
X69006396Y-61845595D01*
G75*
G02*
X68955396Y-61896595I-51000J0D01*
G01*
X67255396Y-61896595D01*
G75*
G02*
X67204396Y-61845595I0J51000D01*
G01*
G37*
G36*
G01*
X92571000Y-125310000D02*
X92571000Y-123610000D01*
G75*
G02*
X92622000Y-123559000I51000J0D01*
G01*
X94322000Y-123559000D01*
G75*
G02*
X94373000Y-123610000I0J-51000D01*
G01*
X94373000Y-125310000D01*
G75*
G02*
X94322000Y-125361000I-51000J0D01*
G01*
X92622000Y-125361000D01*
G75*
G02*
X92571000Y-125310000I0J51000D01*
G01*
G37*
G36*
G01*
X97143000Y-45046000D02*
X97143000Y-43346000D01*
G75*
G02*
X97194000Y-43295000I51000J0D01*
G01*
X98894000Y-43295000D01*
G75*
G02*
X98945000Y-43346000I0J-51000D01*
G01*
X98945000Y-45046000D01*
G75*
G02*
X98894000Y-45097000I-51000J0D01*
G01*
X97194000Y-45097000D01*
G75*
G02*
X97143000Y-45046000I0J51000D01*
G01*
G37*
G36*
G01*
X129655000Y-95846000D02*
X129655000Y-94146000D01*
G75*
G02*
X129706000Y-94095000I51000J0D01*
G01*
X131406000Y-94095000D01*
G75*
G02*
X131457000Y-94146000I0J-51000D01*
G01*
X131457000Y-95846000D01*
G75*
G02*
X131406000Y-95897000I-51000J0D01*
G01*
X129706000Y-95897000D01*
G75*
G02*
X129655000Y-95846000I0J51000D01*
G01*
G37*
G36*
G01*
X167247000Y-120230000D02*
X167247000Y-118530000D01*
G75*
G02*
X167298000Y-118479000I51000J0D01*
G01*
X168998000Y-118479000D01*
G75*
G02*
X169049000Y-118530000I0J-51000D01*
G01*
X169049000Y-120230000D01*
G75*
G02*
X168998000Y-120281000I-51000J0D01*
G01*
X167298000Y-120281000D01*
G75*
G02*
X167247000Y-120230000I0J51000D01*
G01*
G37*
G36*
G01*
X154166000Y-89623000D02*
X154166000Y-87923000D01*
G75*
G02*
X154217000Y-87872000I51000J0D01*
G01*
X155917000Y-87872000D01*
G75*
G02*
X155968000Y-87923000I0J-51000D01*
G01*
X155968000Y-89623000D01*
G75*
G02*
X155917000Y-89674000I-51000J0D01*
G01*
X154217000Y-89674000D01*
G75*
G02*
X154166000Y-89623000I0J51000D01*
G01*
G37*
G36*
G01*
X107491000Y-114598166D02*
X107491000Y-117771834D01*
G75*
G02*
X107226834Y-118036000I-264166J0D01*
G01*
X105853166Y-118036000D01*
G75*
G02*
X105589000Y-117771834I0J264166D01*
G01*
X105589000Y-114598166D01*
G75*
G02*
X105853166Y-114334000I264166J0D01*
G01*
X107226834Y-114334000D01*
G75*
G02*
X107491000Y-114598166I0J-264166D01*
G01*
G37*
D16*
X103040000Y-116185000D03*
X99540000Y-116185000D03*
X96040000Y-116185000D03*
D20*
X73180000Y-113645000D03*
X80800000Y-108565000D03*
X73180000Y-111105000D03*
X80800000Y-111105000D03*
X73180000Y-108565000D03*
G36*
G01*
X81651000Y-112845000D02*
X81651000Y-114445000D01*
G75*
G02*
X81600000Y-114496000I-51000J0D01*
G01*
X80000000Y-114496000D01*
G75*
G02*
X79949000Y-114445000I0J51000D01*
G01*
X79949000Y-112845000D01*
G75*
G02*
X80000000Y-112794000I51000J0D01*
G01*
X81600000Y-112794000D01*
G75*
G02*
X81651000Y-112845000I0J-51000D01*
G01*
G37*
G36*
G01*
X46036834Y-120966000D02*
X42863166Y-120966000D01*
G75*
G02*
X42599000Y-120701834I0J264166D01*
G01*
X42599000Y-119328166D01*
G75*
G02*
X42863166Y-119064000I264166J0D01*
G01*
X46036834Y-119064000D01*
G75*
G02*
X46301000Y-119328166I0J-264166D01*
G01*
X46301000Y-120701834D01*
G75*
G02*
X46036834Y-120966000I-264166J0D01*
G01*
G37*
D21*
X44450000Y-116515000D03*
G36*
G01*
X222720998Y-51733168D02*
X222720998Y-54906836D01*
G75*
G02*
X222456832Y-55171002I-264166J0D01*
G01*
X221083164Y-55171002D01*
G75*
G02*
X220818998Y-54906836I0J264166D01*
G01*
X220818998Y-51733168D01*
G75*
G02*
X221083164Y-51469002I264166J0D01*
G01*
X222456832Y-51469002D01*
G75*
G02*
X222720998Y-51733168I0J-264166D01*
G01*
G37*
D16*
X218269998Y-53320002D03*
X214769998Y-53320002D03*
X211269998Y-53320002D03*
G36*
G01*
X200496001Y-115233168D02*
X200496001Y-118406836D01*
G75*
G02*
X200231835Y-118671002I-264166J0D01*
G01*
X198858167Y-118671002D01*
G75*
G02*
X198594001Y-118406836I0J264166D01*
G01*
X198594001Y-115233168D01*
G75*
G02*
X198858167Y-114969002I264166J0D01*
G01*
X200231835Y-114969002D01*
G75*
G02*
X200496001Y-115233168I0J-264166D01*
G01*
G37*
X196045001Y-116820002D03*
X192545001Y-116820002D03*
X189045001Y-116820002D03*
G36*
G01*
X222720998Y-115233166D02*
X222720998Y-118406834D01*
G75*
G02*
X222456832Y-118671000I-264166J0D01*
G01*
X221083164Y-118671000D01*
G75*
G02*
X220818998Y-118406834I0J264166D01*
G01*
X220818998Y-115233166D01*
G75*
G02*
X221083164Y-114969000I264166J0D01*
G01*
X222456832Y-114969000D01*
G75*
G02*
X222720998Y-115233166I0J-264166D01*
G01*
G37*
X218269998Y-116820000D03*
X214769998Y-116820000D03*
X211269998Y-116820000D03*
G36*
G01*
X200496000Y-83483167D02*
X200496000Y-86656835D01*
G75*
G02*
X200231834Y-86921001I-264166J0D01*
G01*
X198858166Y-86921001D01*
G75*
G02*
X198594000Y-86656835I0J264166D01*
G01*
X198594000Y-83483167D01*
G75*
G02*
X198858166Y-83219001I264166J0D01*
G01*
X200231834Y-83219001D01*
G75*
G02*
X200496000Y-83483167I0J-264166D01*
G01*
G37*
X196045000Y-85070001D03*
X192545000Y-85070001D03*
X189045000Y-85070001D03*
G36*
G01*
X200496000Y-51733166D02*
X200496000Y-54906834D01*
G75*
G02*
X200231834Y-55171000I-264166J0D01*
G01*
X198858166Y-55171000D01*
G75*
G02*
X198594000Y-54906834I0J264166D01*
G01*
X198594000Y-51733166D01*
G75*
G02*
X198858166Y-51469000I264166J0D01*
G01*
X200231834Y-51469000D01*
G75*
G02*
X200496000Y-51733166I0J-264166D01*
G01*
G37*
X196045000Y-53320000D03*
X192545000Y-53320000D03*
X189045000Y-53320000D03*
G36*
G01*
X222720999Y-83483164D02*
X222720999Y-86656832D01*
G75*
G02*
X222456833Y-86920998I-264166J0D01*
G01*
X221083165Y-86920998D01*
G75*
G02*
X220818999Y-86656832I0J264166D01*
G01*
X220818999Y-83483164D01*
G75*
G02*
X221083165Y-83218998I264166J0D01*
G01*
X222456833Y-83218998D01*
G75*
G02*
X222720999Y-83483164I0J-264166D01*
G01*
G37*
X218269999Y-85069998D03*
X214769999Y-85069998D03*
X211269999Y-85069998D03*
G36*
G01*
X136236165Y-66959003D02*
X139409833Y-66959003D01*
G75*
G02*
X139673999Y-67223169I0J-264166D01*
G01*
X139673999Y-68596837D01*
G75*
G02*
X139409833Y-68861003I-264166J0D01*
G01*
X136236165Y-68861003D01*
G75*
G02*
X135971999Y-68596837I0J264166D01*
G01*
X135971999Y-67223169D01*
G75*
G02*
X136236165Y-66959003I264166J0D01*
G01*
G37*
D21*
X137822999Y-71410003D03*
X137822999Y-74910003D03*
X137822999Y-78410003D03*
G36*
G01*
X139982666Y-96296002D02*
X143156334Y-96296002D01*
G75*
G02*
X143420500Y-96560168I0J-264166D01*
G01*
X143420500Y-97933836D01*
G75*
G02*
X143156334Y-98198002I-264166J0D01*
G01*
X139982666Y-98198002D01*
G75*
G02*
X139718500Y-97933836I0J264166D01*
G01*
X139718500Y-96560168D01*
G75*
G02*
X139982666Y-96296002I264166J0D01*
G01*
G37*
X141569500Y-100747002D03*
X141569500Y-104247002D03*
G36*
G01*
X139982663Y-83595998D02*
X143156331Y-83595998D01*
G75*
G02*
X143420497Y-83860164I0J-264166D01*
G01*
X143420497Y-85233832D01*
G75*
G02*
X143156331Y-85497998I-264166J0D01*
G01*
X139982663Y-85497998D01*
G75*
G02*
X139718497Y-85233832I0J264166D01*
G01*
X139718497Y-83860164D01*
G75*
G02*
X139982663Y-83595998I264166J0D01*
G01*
G37*
X141569497Y-88046998D03*
X141569497Y-91546998D03*
G36*
G01*
X163477666Y-96311001D02*
X166651334Y-96311001D01*
G75*
G02*
X166915500Y-96575167I0J-264166D01*
G01*
X166915500Y-97948835D01*
G75*
G02*
X166651334Y-98213001I-264166J0D01*
G01*
X163477666Y-98213001D01*
G75*
G02*
X163213500Y-97948835I0J264166D01*
G01*
X163213500Y-96575167D01*
G75*
G02*
X163477666Y-96311001I264166J0D01*
G01*
G37*
X165064500Y-100762001D03*
X165064500Y-104262001D03*
G36*
G01*
X163477666Y-83596000D02*
X166651334Y-83596000D01*
G75*
G02*
X166915500Y-83860166I0J-264166D01*
G01*
X166915500Y-85233834D01*
G75*
G02*
X166651334Y-85498000I-264166J0D01*
G01*
X163477666Y-85498000D01*
G75*
G02*
X163213500Y-85233834I0J264166D01*
G01*
X163213500Y-83860166D01*
G75*
G02*
X163477666Y-83596000I264166J0D01*
G01*
G37*
X165064500Y-88047000D03*
X165064500Y-91547000D03*
G36*
G01*
X46036834Y-79381000D02*
X42863166Y-79381000D01*
G75*
G02*
X42599000Y-79116834I0J264166D01*
G01*
X42599000Y-77743166D01*
G75*
G02*
X42863166Y-77479000I264166J0D01*
G01*
X46036834Y-77479000D01*
G75*
G02*
X46301000Y-77743166I0J-264166D01*
G01*
X46301000Y-79116834D01*
G75*
G02*
X46036834Y-79381000I-264166J0D01*
G01*
G37*
X44450000Y-74930000D03*
G36*
G01*
X164674164Y-74269001D02*
X167847832Y-74269001D01*
G75*
G02*
X168111998Y-74533167I0J-264166D01*
G01*
X168111998Y-75906835D01*
G75*
G02*
X167847832Y-76171001I-264166J0D01*
G01*
X164674164Y-76171001D01*
G75*
G02*
X164409998Y-75906835I0J264166D01*
G01*
X164409998Y-74533167D01*
G75*
G02*
X164674164Y-74269001I264166J0D01*
G01*
G37*
X166260998Y-78720001D03*
G36*
G01*
X164674167Y-64743999D02*
X167847835Y-64743999D01*
G75*
G02*
X168112001Y-65008165I0J-264166D01*
G01*
X168112001Y-66381833D01*
G75*
G02*
X167847835Y-66645999I-264166J0D01*
G01*
X164674167Y-66645999D01*
G75*
G02*
X164410001Y-66381833I0J264166D01*
G01*
X164410001Y-65008165D01*
G75*
G02*
X164674167Y-64743999I264166J0D01*
G01*
G37*
X166261001Y-69194999D03*
G36*
G01*
X46036834Y-100646000D02*
X42863166Y-100646000D01*
G75*
G02*
X42599000Y-100381834I0J264166D01*
G01*
X42599000Y-99008166D01*
G75*
G02*
X42863166Y-98744000I264166J0D01*
G01*
X46036834Y-98744000D01*
G75*
G02*
X46301000Y-99008166I0J-264166D01*
G01*
X46301000Y-100381834D01*
G75*
G02*
X46036834Y-100646000I-264166J0D01*
G01*
G37*
X44450000Y-96195000D03*
G36*
G01*
X121502000Y-114598166D02*
X121502000Y-117771834D01*
G75*
G02*
X121237834Y-118036000I-264166J0D01*
G01*
X119864166Y-118036000D01*
G75*
G02*
X119600000Y-117771834I0J264166D01*
G01*
X119600000Y-114598166D01*
G75*
G02*
X119864166Y-114334000I264166J0D01*
G01*
X121237834Y-114334000D01*
G75*
G02*
X121502000Y-114598166I0J-264166D01*
G01*
G37*
D16*
X117051000Y-116185000D03*
G36*
G01*
X123663166Y-46329002D02*
X126836834Y-46329002D01*
G75*
G02*
X127101000Y-46593168I0J-264166D01*
G01*
X127101000Y-47966836D01*
G75*
G02*
X126836834Y-48231002I-264166J0D01*
G01*
X123663166Y-48231002D01*
G75*
G02*
X123399000Y-47966836I0J264166D01*
G01*
X123399000Y-46593168D01*
G75*
G02*
X123663166Y-46329002I264166J0D01*
G01*
G37*
D21*
X125250000Y-50780002D03*
G36*
G01*
X164684167Y-55163001D02*
X167857835Y-55163001D01*
G75*
G02*
X168122001Y-55427167I0J-264166D01*
G01*
X168122001Y-56800835D01*
G75*
G02*
X167857835Y-57065001I-264166J0D01*
G01*
X164684167Y-57065001D01*
G75*
G02*
X164420001Y-56800835I0J264166D01*
G01*
X164420001Y-55427167D01*
G75*
G02*
X164684167Y-55163001I264166J0D01*
G01*
G37*
X166271001Y-59614001D03*
D18*
X179393000Y-121171000D03*
X174993000Y-121171000D03*
D22*
X119408000Y-92182000D03*
X116868000Y-92182000D03*
X114328000Y-92182000D03*
X111788000Y-92182000D03*
X109248000Y-92182000D03*
X106708000Y-92182000D03*
X104168000Y-92182000D03*
X101628000Y-92182000D03*
X99088000Y-92182000D03*
X96548000Y-92182000D03*
X119408000Y-94722000D03*
X116868000Y-94722000D03*
X114328000Y-94722000D03*
X111788000Y-94722000D03*
X109248000Y-94722000D03*
X106708000Y-94722000D03*
X104168000Y-94722000D03*
X101628000Y-94722000D03*
X99088000Y-94722000D03*
G36*
G01*
X97184000Y-95623000D02*
X95912000Y-95623000D01*
G75*
G02*
X95647000Y-95358000I0J265000D01*
G01*
X95647000Y-94086000D01*
G75*
G02*
X95912000Y-93821000I265000J0D01*
G01*
X97184000Y-93821000D01*
G75*
G02*
X97449000Y-94086000I0J-265000D01*
G01*
X97449000Y-95358000D01*
G75*
G02*
X97184000Y-95623000I-265000J0D01*
G01*
G37*
D20*
X73053000Y-86594000D03*
X80673000Y-81514000D03*
X73053000Y-84054000D03*
X80673000Y-84054000D03*
X73053000Y-81514000D03*
G36*
G01*
X81524000Y-85794000D02*
X81524000Y-87394000D01*
G75*
G02*
X81473000Y-87445000I-51000J0D01*
G01*
X79873000Y-87445000D01*
G75*
G02*
X79822000Y-87394000I0J51000D01*
G01*
X79822000Y-85794000D01*
G75*
G02*
X79873000Y-85743000I51000J0D01*
G01*
X81473000Y-85743000D01*
G75*
G02*
X81524000Y-85794000I0J-51000D01*
G01*
G37*
D22*
X144935001Y-114280000D03*
X147475001Y-114280000D03*
X150015001Y-114280000D03*
X152555001Y-114280000D03*
X155095001Y-114280000D03*
X157635001Y-114280000D03*
X160175001Y-114280000D03*
X162715001Y-114280000D03*
X144935001Y-111740000D03*
X147475001Y-111740000D03*
X150015001Y-111740000D03*
X152555001Y-111740000D03*
X155095001Y-111740000D03*
X157635001Y-111740000D03*
X160175001Y-111740000D03*
G36*
G01*
X162079001Y-110839000D02*
X163351001Y-110839000D01*
G75*
G02*
X163616001Y-111104000I0J-265000D01*
G01*
X163616001Y-112376000D01*
G75*
G02*
X163351001Y-112641000I-265000J0D01*
G01*
X162079001Y-112641000D01*
G75*
G02*
X161814001Y-112376000I0J265000D01*
G01*
X161814001Y-111104000D01*
G75*
G02*
X162079001Y-110839000I265000J0D01*
G01*
G37*
D23*
X160095000Y-33635000D03*
X157595000Y-33635000D03*
X155095000Y-33635000D03*
X152595000Y-33635000D03*
G36*
G01*
X149194000Y-34396000D02*
X149194000Y-32874000D01*
G75*
G02*
X149459000Y-32609000I265000J0D01*
G01*
X150731000Y-32609000D01*
G75*
G02*
X150996000Y-32874000I0J-265000D01*
G01*
X150996000Y-34396000D01*
G75*
G02*
X150731000Y-34661000I-265000J0D01*
G01*
X149459000Y-34661000D01*
G75*
G02*
X149194000Y-34396000I0J265000D01*
G01*
G37*
D22*
X170335000Y-33635000D03*
X170335000Y-36175000D03*
X170335000Y-38715000D03*
X170335000Y-41255000D03*
X170335000Y-43795000D03*
X170335000Y-46335000D03*
X172875000Y-33635000D03*
X172875000Y-36175000D03*
X172875000Y-38715000D03*
X172875000Y-41255000D03*
X172875000Y-43795000D03*
G36*
G01*
X173776000Y-45699000D02*
X173776000Y-46971000D01*
G75*
G02*
X173511000Y-47236000I-265000J0D01*
G01*
X172239000Y-47236000D01*
G75*
G02*
X171974000Y-46971000I0J265000D01*
G01*
X171974000Y-45699000D01*
G75*
G02*
X172239000Y-45434000I265000J0D01*
G01*
X173511000Y-45434000D01*
G75*
G02*
X173776000Y-45699000I0J-265000D01*
G01*
G37*
D24*
G36*
X42600990Y-120701638D02*
G01*
X42606046Y-120752975D01*
X42620965Y-120802157D01*
X42645191Y-120847481D01*
X42677793Y-120887207D01*
X42717519Y-120919809D01*
X42762843Y-120944035D01*
X42812025Y-120958954D01*
X42863362Y-120964010D01*
X42864988Y-120965175D01*
X42864792Y-120967165D01*
X42863166Y-120968000D01*
X42779029Y-120968000D01*
X42778833Y-120967990D01*
X42738889Y-120964056D01*
X42738504Y-120963980D01*
X42705995Y-120954119D01*
X42705633Y-120953969D01*
X42675675Y-120937955D01*
X42675349Y-120937737D01*
X42649090Y-120916187D01*
X42648813Y-120915910D01*
X42627263Y-120889651D01*
X42627045Y-120889325D01*
X42611031Y-120859367D01*
X42610881Y-120859005D01*
X42601020Y-120826496D01*
X42600944Y-120826111D01*
X42597010Y-120786167D01*
X42597000Y-120785971D01*
X42597000Y-120701834D01*
X42598000Y-120700102D01*
X42600000Y-120700102D01*
X42600990Y-120701638D01*
G37*
G36*
X46302165Y-120700208D02*
G01*
X46303000Y-120701834D01*
X46303000Y-120785971D01*
X46302990Y-120786167D01*
X46299056Y-120826111D01*
X46298980Y-120826496D01*
X46289119Y-120859005D01*
X46288969Y-120859367D01*
X46272955Y-120889325D01*
X46272737Y-120889651D01*
X46251187Y-120915910D01*
X46250910Y-120916187D01*
X46224651Y-120937737D01*
X46224325Y-120937955D01*
X46194367Y-120953969D01*
X46194005Y-120954119D01*
X46161496Y-120963980D01*
X46161111Y-120964056D01*
X46121167Y-120967990D01*
X46120971Y-120968000D01*
X46036834Y-120968000D01*
X46035102Y-120967000D01*
X46035102Y-120965000D01*
X46036638Y-120964010D01*
X46087975Y-120958954D01*
X46137157Y-120944035D01*
X46182481Y-120919809D01*
X46222207Y-120887207D01*
X46254809Y-120847481D01*
X46279035Y-120802157D01*
X46293954Y-120752975D01*
X46299010Y-120701638D01*
X46300175Y-120700012D01*
X46302165Y-120700208D01*
G37*
G36*
X42864898Y-119063000D02*
G01*
X42864898Y-119065000D01*
X42863362Y-119065990D01*
X42812025Y-119071046D01*
X42762843Y-119085965D01*
X42717519Y-119110191D01*
X42677793Y-119142793D01*
X42645191Y-119182519D01*
X42620965Y-119227843D01*
X42606046Y-119277025D01*
X42600990Y-119328362D01*
X42599825Y-119329988D01*
X42597835Y-119329792D01*
X42597000Y-119328166D01*
X42597000Y-119244029D01*
X42597010Y-119243833D01*
X42600944Y-119203889D01*
X42601020Y-119203504D01*
X42610881Y-119170995D01*
X42611031Y-119170633D01*
X42627045Y-119140675D01*
X42627263Y-119140349D01*
X42648813Y-119114090D01*
X42649090Y-119113813D01*
X42675349Y-119092263D01*
X42675675Y-119092045D01*
X42705633Y-119076031D01*
X42705995Y-119075881D01*
X42738504Y-119066020D01*
X42738889Y-119065944D01*
X42778833Y-119062010D01*
X42779029Y-119062000D01*
X42863166Y-119062000D01*
X42864898Y-119063000D01*
G37*
G36*
X46121167Y-119062010D02*
G01*
X46161111Y-119065944D01*
X46161496Y-119066020D01*
X46194005Y-119075881D01*
X46194367Y-119076031D01*
X46224325Y-119092045D01*
X46224651Y-119092263D01*
X46250910Y-119113813D01*
X46251187Y-119114090D01*
X46272737Y-119140349D01*
X46272955Y-119140675D01*
X46288969Y-119170633D01*
X46289119Y-119170995D01*
X46298980Y-119203504D01*
X46299056Y-119203889D01*
X46302990Y-119243833D01*
X46303000Y-119244029D01*
X46303000Y-119328166D01*
X46302000Y-119329898D01*
X46300000Y-119329898D01*
X46299010Y-119328362D01*
X46293954Y-119277025D01*
X46279035Y-119227843D01*
X46254809Y-119182519D01*
X46222207Y-119142793D01*
X46182481Y-119110191D01*
X46137157Y-119085965D01*
X46087975Y-119071046D01*
X46036638Y-119065990D01*
X46035012Y-119064825D01*
X46035208Y-119062835D01*
X46036834Y-119062000D01*
X46120971Y-119062000D01*
X46121167Y-119062010D01*
G37*
G36*
X198595991Y-118406640D02*
G01*
X198601047Y-118457977D01*
X198615966Y-118507159D01*
X198640192Y-118552483D01*
X198672794Y-118592209D01*
X198712520Y-118624811D01*
X198757844Y-118649037D01*
X198807026Y-118663956D01*
X198858363Y-118669012D01*
X198859989Y-118670177D01*
X198859793Y-118672167D01*
X198858167Y-118673002D01*
X198774030Y-118673002D01*
X198773834Y-118672992D01*
X198733890Y-118669058D01*
X198733505Y-118668982D01*
X198700996Y-118659121D01*
X198700634Y-118658971D01*
X198670676Y-118642957D01*
X198670350Y-118642739D01*
X198644091Y-118621189D01*
X198643814Y-118620912D01*
X198622264Y-118594653D01*
X198622046Y-118594327D01*
X198606032Y-118564369D01*
X198605882Y-118564007D01*
X198596021Y-118531498D01*
X198595945Y-118531113D01*
X198592011Y-118491169D01*
X198592001Y-118490973D01*
X198592001Y-118406836D01*
X198593001Y-118405104D01*
X198595001Y-118405104D01*
X198595991Y-118406640D01*
G37*
G36*
X200497166Y-118405210D02*
G01*
X200498001Y-118406836D01*
X200498001Y-118490973D01*
X200497991Y-118491169D01*
X200494057Y-118531113D01*
X200493981Y-118531498D01*
X200484120Y-118564007D01*
X200483970Y-118564369D01*
X200467956Y-118594327D01*
X200467738Y-118594653D01*
X200446188Y-118620912D01*
X200445911Y-118621189D01*
X200419652Y-118642739D01*
X200419326Y-118642957D01*
X200389368Y-118658971D01*
X200389006Y-118659121D01*
X200356497Y-118668982D01*
X200356112Y-118669058D01*
X200316168Y-118672992D01*
X200315972Y-118673002D01*
X200231835Y-118673002D01*
X200230103Y-118672002D01*
X200230103Y-118670002D01*
X200231639Y-118669012D01*
X200282976Y-118663956D01*
X200332158Y-118649037D01*
X200377482Y-118624811D01*
X200417208Y-118592209D01*
X200449810Y-118552483D01*
X200474036Y-118507159D01*
X200488955Y-118457977D01*
X200494011Y-118406640D01*
X200495176Y-118405014D01*
X200497166Y-118405210D01*
G37*
G36*
X220820988Y-118406640D02*
G01*
X220826044Y-118457975D01*
X220840963Y-118507157D01*
X220865189Y-118552481D01*
X220897791Y-118592207D01*
X220937517Y-118624809D01*
X220982841Y-118649035D01*
X221032023Y-118663954D01*
X221083360Y-118669010D01*
X221084986Y-118670175D01*
X221084790Y-118672165D01*
X221083164Y-118673000D01*
X220999027Y-118673000D01*
X220998831Y-118672990D01*
X220958887Y-118669056D01*
X220958502Y-118668980D01*
X220925993Y-118659119D01*
X220925631Y-118658969D01*
X220895673Y-118642955D01*
X220895347Y-118642737D01*
X220869088Y-118621187D01*
X220868811Y-118620910D01*
X220847261Y-118594651D01*
X220847043Y-118594325D01*
X220831029Y-118564367D01*
X220830879Y-118564005D01*
X220821018Y-118531496D01*
X220820942Y-118531111D01*
X220817008Y-118491167D01*
X220816998Y-118490971D01*
X220816998Y-118406836D01*
X220817998Y-118405104D01*
X220819998Y-118405104D01*
X220820988Y-118406640D01*
G37*
G36*
X222722163Y-118405210D02*
G01*
X222722998Y-118406836D01*
X222722998Y-118490971D01*
X222722988Y-118491167D01*
X222719054Y-118531111D01*
X222718978Y-118531496D01*
X222709117Y-118564005D01*
X222708967Y-118564367D01*
X222692953Y-118594325D01*
X222692735Y-118594651D01*
X222671185Y-118620910D01*
X222670908Y-118621187D01*
X222644649Y-118642737D01*
X222644323Y-118642955D01*
X222614365Y-118658969D01*
X222614003Y-118659119D01*
X222581494Y-118668980D01*
X222581109Y-118669056D01*
X222541165Y-118672990D01*
X222540969Y-118673000D01*
X222456832Y-118673000D01*
X222455100Y-118672000D01*
X222455100Y-118670000D01*
X222456636Y-118669010D01*
X222507973Y-118663954D01*
X222557155Y-118649035D01*
X222602479Y-118624809D01*
X222642205Y-118592207D01*
X222674807Y-118552481D01*
X222699033Y-118507157D01*
X222713952Y-118457975D01*
X222719008Y-118406640D01*
X222720173Y-118405014D01*
X222722163Y-118405210D01*
G37*
G36*
X128788990Y-117771638D02*
G01*
X128794046Y-117822975D01*
X128808965Y-117872157D01*
X128833191Y-117917481D01*
X128865793Y-117957207D01*
X128905519Y-117989809D01*
X128950843Y-118014035D01*
X129000025Y-118028954D01*
X129051362Y-118034010D01*
X129052988Y-118035175D01*
X129052792Y-118037165D01*
X129051166Y-118038000D01*
X128967029Y-118038000D01*
X128966833Y-118037990D01*
X128926889Y-118034056D01*
X128926504Y-118033980D01*
X128893995Y-118024119D01*
X128893633Y-118023969D01*
X128863675Y-118007955D01*
X128863349Y-118007737D01*
X128837090Y-117986187D01*
X128836813Y-117985910D01*
X128815263Y-117959651D01*
X128815045Y-117959325D01*
X128799031Y-117929367D01*
X128798881Y-117929005D01*
X128789020Y-117896496D01*
X128788944Y-117896111D01*
X128785010Y-117856167D01*
X128785000Y-117855971D01*
X128785000Y-117771834D01*
X128786000Y-117770102D01*
X128788000Y-117770102D01*
X128788990Y-117771638D01*
G37*
G36*
X121503165Y-117770208D02*
G01*
X121504000Y-117771834D01*
X121504000Y-117855971D01*
X121503990Y-117856167D01*
X121500056Y-117896111D01*
X121499980Y-117896496D01*
X121490119Y-117929005D01*
X121489969Y-117929367D01*
X121473955Y-117959325D01*
X121473737Y-117959651D01*
X121452187Y-117985910D01*
X121451910Y-117986187D01*
X121425651Y-118007737D01*
X121425325Y-118007955D01*
X121395367Y-118023969D01*
X121395005Y-118024119D01*
X121362496Y-118033980D01*
X121362111Y-118034056D01*
X121322167Y-118037990D01*
X121321971Y-118038000D01*
X121237834Y-118038000D01*
X121236102Y-118037000D01*
X121236102Y-118035000D01*
X121237638Y-118034010D01*
X121288975Y-118028954D01*
X121338157Y-118014035D01*
X121383481Y-117989809D01*
X121423207Y-117957207D01*
X121455809Y-117917481D01*
X121480035Y-117872157D01*
X121494954Y-117822975D01*
X121500010Y-117771638D01*
X121501175Y-117770012D01*
X121503165Y-117770208D01*
G37*
G36*
X119601990Y-117771638D02*
G01*
X119607046Y-117822975D01*
X119621965Y-117872157D01*
X119646191Y-117917481D01*
X119678793Y-117957207D01*
X119718519Y-117989809D01*
X119763843Y-118014035D01*
X119813025Y-118028954D01*
X119864362Y-118034010D01*
X119865988Y-118035175D01*
X119865792Y-118037165D01*
X119864166Y-118038000D01*
X119780029Y-118038000D01*
X119779833Y-118037990D01*
X119739889Y-118034056D01*
X119739504Y-118033980D01*
X119706995Y-118024119D01*
X119706633Y-118023969D01*
X119676675Y-118007955D01*
X119676349Y-118007737D01*
X119650090Y-117986187D01*
X119649813Y-117985910D01*
X119628263Y-117959651D01*
X119628045Y-117959325D01*
X119612031Y-117929367D01*
X119611881Y-117929005D01*
X119602020Y-117896496D01*
X119601944Y-117896111D01*
X119598010Y-117856167D01*
X119598000Y-117855971D01*
X119598000Y-117771834D01*
X119599000Y-117770102D01*
X119601000Y-117770102D01*
X119601990Y-117771638D01*
G37*
G36*
X105590990Y-117771638D02*
G01*
X105596046Y-117822975D01*
X105610965Y-117872157D01*
X105635191Y-117917481D01*
X105667793Y-117957207D01*
X105707519Y-117989809D01*
X105752843Y-118014035D01*
X105802025Y-118028954D01*
X105853362Y-118034010D01*
X105854988Y-118035175D01*
X105854792Y-118037165D01*
X105853166Y-118038000D01*
X105769029Y-118038000D01*
X105768833Y-118037990D01*
X105728889Y-118034056D01*
X105728504Y-118033980D01*
X105695995Y-118024119D01*
X105695633Y-118023969D01*
X105665675Y-118007955D01*
X105665349Y-118007737D01*
X105639090Y-117986187D01*
X105638813Y-117985910D01*
X105617263Y-117959651D01*
X105617045Y-117959325D01*
X105601031Y-117929367D01*
X105600881Y-117929005D01*
X105591020Y-117896496D01*
X105590944Y-117896111D01*
X105587010Y-117856167D01*
X105587000Y-117855971D01*
X105587000Y-117771834D01*
X105588000Y-117770102D01*
X105590000Y-117770102D01*
X105590990Y-117771638D01*
G37*
G36*
X107492165Y-117770208D02*
G01*
X107493000Y-117771834D01*
X107493000Y-117855971D01*
X107492990Y-117856167D01*
X107489056Y-117896111D01*
X107488980Y-117896496D01*
X107479119Y-117929005D01*
X107478969Y-117929367D01*
X107462955Y-117959325D01*
X107462737Y-117959651D01*
X107441187Y-117985910D01*
X107440910Y-117986187D01*
X107414651Y-118007737D01*
X107414325Y-118007955D01*
X107384367Y-118023969D01*
X107384005Y-118024119D01*
X107351496Y-118033980D01*
X107351111Y-118034056D01*
X107311167Y-118037990D01*
X107310971Y-118038000D01*
X107226834Y-118038000D01*
X107225102Y-118037000D01*
X107225102Y-118035000D01*
X107226638Y-118034010D01*
X107277975Y-118028954D01*
X107327157Y-118014035D01*
X107372481Y-117989809D01*
X107412207Y-117957207D01*
X107444809Y-117917481D01*
X107469035Y-117872157D01*
X107483954Y-117822975D01*
X107489010Y-117771638D01*
X107490175Y-117770012D01*
X107492165Y-117770208D01*
G37*
G36*
X130690165Y-117770208D02*
G01*
X130691000Y-117771834D01*
X130691000Y-117855971D01*
X130690990Y-117856167D01*
X130687056Y-117896111D01*
X130686980Y-117896496D01*
X130677119Y-117929005D01*
X130676969Y-117929367D01*
X130660955Y-117959325D01*
X130660737Y-117959651D01*
X130639187Y-117985910D01*
X130638910Y-117986187D01*
X130612651Y-118007737D01*
X130612325Y-118007955D01*
X130582367Y-118023969D01*
X130582005Y-118024119D01*
X130549496Y-118033980D01*
X130549111Y-118034056D01*
X130509167Y-118037990D01*
X130508971Y-118038000D01*
X130424834Y-118038000D01*
X130423102Y-118037000D01*
X130423102Y-118035000D01*
X130424638Y-118034010D01*
X130475975Y-118028954D01*
X130525157Y-118014035D01*
X130570481Y-117989809D01*
X130610207Y-117957207D01*
X130642809Y-117917481D01*
X130667035Y-117872157D01*
X130681954Y-117822975D01*
X130687010Y-117771638D01*
X130688175Y-117770012D01*
X130690165Y-117770208D01*
G37*
G36*
X198859899Y-114968002D02*
G01*
X198859899Y-114970002D01*
X198858363Y-114970992D01*
X198807026Y-114976048D01*
X198757844Y-114990967D01*
X198712520Y-115015193D01*
X198672794Y-115047795D01*
X198640192Y-115087521D01*
X198615966Y-115132845D01*
X198601047Y-115182027D01*
X198595991Y-115233362D01*
X198594826Y-115234988D01*
X198592836Y-115234792D01*
X198592001Y-115233166D01*
X198592001Y-115149031D01*
X198592011Y-115148835D01*
X198595945Y-115108891D01*
X198596021Y-115108506D01*
X198605882Y-115075997D01*
X198606032Y-115075635D01*
X198622046Y-115045677D01*
X198622264Y-115045351D01*
X198643814Y-115019092D01*
X198644091Y-115018815D01*
X198670350Y-114997265D01*
X198670676Y-114997047D01*
X198700634Y-114981033D01*
X198700996Y-114980883D01*
X198733505Y-114971022D01*
X198733890Y-114970946D01*
X198773834Y-114967012D01*
X198774030Y-114967002D01*
X198858167Y-114967002D01*
X198859899Y-114968002D01*
G37*
G36*
X221084896Y-114968000D02*
G01*
X221084896Y-114970000D01*
X221083360Y-114970990D01*
X221032023Y-114976046D01*
X220982841Y-114990965D01*
X220937517Y-115015191D01*
X220897791Y-115047793D01*
X220865189Y-115087519D01*
X220840963Y-115132843D01*
X220826044Y-115182025D01*
X220820988Y-115233362D01*
X220819823Y-115234988D01*
X220817833Y-115234792D01*
X220816998Y-115233166D01*
X220816998Y-115149029D01*
X220817008Y-115148833D01*
X220820942Y-115108889D01*
X220821018Y-115108504D01*
X220830879Y-115075995D01*
X220831029Y-115075633D01*
X220847043Y-115045675D01*
X220847261Y-115045349D01*
X220868811Y-115019090D01*
X220869088Y-115018813D01*
X220895347Y-114997263D01*
X220895673Y-114997045D01*
X220925631Y-114981031D01*
X220925993Y-114980881D01*
X220958502Y-114971020D01*
X220958887Y-114970944D01*
X220998831Y-114967010D01*
X220999027Y-114967000D01*
X221083164Y-114967000D01*
X221084896Y-114968000D01*
G37*
G36*
X222541165Y-114967010D02*
G01*
X222581109Y-114970944D01*
X222581494Y-114971020D01*
X222614003Y-114980881D01*
X222614365Y-114981031D01*
X222644323Y-114997045D01*
X222644649Y-114997263D01*
X222670908Y-115018813D01*
X222671185Y-115019090D01*
X222692735Y-115045349D01*
X222692953Y-115045675D01*
X222708967Y-115075633D01*
X222709117Y-115075995D01*
X222718978Y-115108504D01*
X222719054Y-115108889D01*
X222722988Y-115148833D01*
X222722998Y-115149029D01*
X222722998Y-115233166D01*
X222721998Y-115234898D01*
X222719998Y-115234898D01*
X222719008Y-115233362D01*
X222713952Y-115182025D01*
X222699033Y-115132843D01*
X222674807Y-115087519D01*
X222642205Y-115047793D01*
X222602479Y-115015191D01*
X222557155Y-114990965D01*
X222507973Y-114976046D01*
X222456636Y-114970990D01*
X222455010Y-114969825D01*
X222455206Y-114967835D01*
X222456832Y-114967000D01*
X222540969Y-114967000D01*
X222541165Y-114967010D01*
G37*
G36*
X200316168Y-114967012D02*
G01*
X200356112Y-114970946D01*
X200356497Y-114971022D01*
X200389006Y-114980883D01*
X200389368Y-114981033D01*
X200419326Y-114997047D01*
X200419652Y-114997265D01*
X200445911Y-115018815D01*
X200446188Y-115019092D01*
X200467738Y-115045351D01*
X200467956Y-115045677D01*
X200483970Y-115075635D01*
X200484120Y-115075997D01*
X200493981Y-115108506D01*
X200494057Y-115108891D01*
X200497991Y-115148835D01*
X200498001Y-115149031D01*
X200498001Y-115233166D01*
X200497001Y-115234898D01*
X200495001Y-115234898D01*
X200494011Y-115233362D01*
X200488955Y-115182027D01*
X200474036Y-115132845D01*
X200449810Y-115087521D01*
X200417208Y-115047795D01*
X200377482Y-115015193D01*
X200332158Y-114990967D01*
X200282976Y-114976048D01*
X200231639Y-114970992D01*
X200230013Y-114969827D01*
X200230209Y-114967837D01*
X200231835Y-114967002D01*
X200315972Y-114967002D01*
X200316168Y-114967012D01*
G37*
G36*
X129052898Y-114333000D02*
G01*
X129052898Y-114335000D01*
X129051362Y-114335990D01*
X129000025Y-114341046D01*
X128950843Y-114355965D01*
X128905519Y-114380191D01*
X128865793Y-114412793D01*
X128833191Y-114452519D01*
X128808965Y-114497843D01*
X128794046Y-114547025D01*
X128788990Y-114598362D01*
X128787825Y-114599988D01*
X128785835Y-114599792D01*
X128785000Y-114598166D01*
X128785000Y-114514029D01*
X128785010Y-114513833D01*
X128788944Y-114473889D01*
X128789020Y-114473504D01*
X128798881Y-114440995D01*
X128799031Y-114440633D01*
X128815045Y-114410675D01*
X128815263Y-114410349D01*
X128836813Y-114384090D01*
X128837090Y-114383813D01*
X128863349Y-114362263D01*
X128863675Y-114362045D01*
X128893633Y-114346031D01*
X128893995Y-114345881D01*
X128926504Y-114336020D01*
X128926889Y-114335944D01*
X128966833Y-114332010D01*
X128967029Y-114332000D01*
X129051166Y-114332000D01*
X129052898Y-114333000D01*
G37*
G36*
X105854898Y-114333000D02*
G01*
X105854898Y-114335000D01*
X105853362Y-114335990D01*
X105802025Y-114341046D01*
X105752843Y-114355965D01*
X105707519Y-114380191D01*
X105667793Y-114412793D01*
X105635191Y-114452519D01*
X105610965Y-114497843D01*
X105596046Y-114547025D01*
X105590990Y-114598362D01*
X105589825Y-114599988D01*
X105587835Y-114599792D01*
X105587000Y-114598166D01*
X105587000Y-114514029D01*
X105587010Y-114513833D01*
X105590944Y-114473889D01*
X105591020Y-114473504D01*
X105600881Y-114440995D01*
X105601031Y-114440633D01*
X105617045Y-114410675D01*
X105617263Y-114410349D01*
X105638813Y-114384090D01*
X105639090Y-114383813D01*
X105665349Y-114362263D01*
X105665675Y-114362045D01*
X105695633Y-114346031D01*
X105695995Y-114345881D01*
X105728504Y-114336020D01*
X105728889Y-114335944D01*
X105768833Y-114332010D01*
X105769029Y-114332000D01*
X105853166Y-114332000D01*
X105854898Y-114333000D01*
G37*
G36*
X119865898Y-114333000D02*
G01*
X119865898Y-114335000D01*
X119864362Y-114335990D01*
X119813025Y-114341046D01*
X119763843Y-114355965D01*
X119718519Y-114380191D01*
X119678793Y-114412793D01*
X119646191Y-114452519D01*
X119621965Y-114497843D01*
X119607046Y-114547025D01*
X119601990Y-114598362D01*
X119600825Y-114599988D01*
X119598835Y-114599792D01*
X119598000Y-114598166D01*
X119598000Y-114514029D01*
X119598010Y-114513833D01*
X119601944Y-114473889D01*
X119602020Y-114473504D01*
X119611881Y-114440995D01*
X119612031Y-114440633D01*
X119628045Y-114410675D01*
X119628263Y-114410349D01*
X119649813Y-114384090D01*
X119650090Y-114383813D01*
X119676349Y-114362263D01*
X119676675Y-114362045D01*
X119706633Y-114346031D01*
X119706995Y-114345881D01*
X119739504Y-114336020D01*
X119739889Y-114335944D01*
X119779833Y-114332010D01*
X119780029Y-114332000D01*
X119864166Y-114332000D01*
X119865898Y-114333000D01*
G37*
G36*
X121322167Y-114332010D02*
G01*
X121362111Y-114335944D01*
X121362496Y-114336020D01*
X121395005Y-114345881D01*
X121395367Y-114346031D01*
X121425325Y-114362045D01*
X121425651Y-114362263D01*
X121451910Y-114383813D01*
X121452187Y-114384090D01*
X121473737Y-114410349D01*
X121473955Y-114410675D01*
X121489969Y-114440633D01*
X121490119Y-114440995D01*
X121499980Y-114473504D01*
X121500056Y-114473889D01*
X121503990Y-114513833D01*
X121504000Y-114514029D01*
X121504000Y-114598166D01*
X121503000Y-114599898D01*
X121501000Y-114599898D01*
X121500010Y-114598362D01*
X121494954Y-114547025D01*
X121480035Y-114497843D01*
X121455809Y-114452519D01*
X121423207Y-114412793D01*
X121383481Y-114380191D01*
X121338157Y-114355965D01*
X121288975Y-114341046D01*
X121237638Y-114335990D01*
X121236012Y-114334825D01*
X121236208Y-114332835D01*
X121237834Y-114332000D01*
X121321971Y-114332000D01*
X121322167Y-114332010D01*
G37*
G36*
X130509167Y-114332010D02*
G01*
X130549111Y-114335944D01*
X130549496Y-114336020D01*
X130582005Y-114345881D01*
X130582367Y-114346031D01*
X130612325Y-114362045D01*
X130612651Y-114362263D01*
X130638910Y-114383813D01*
X130639187Y-114384090D01*
X130660737Y-114410349D01*
X130660955Y-114410675D01*
X130676969Y-114440633D01*
X130677119Y-114440995D01*
X130686980Y-114473504D01*
X130687056Y-114473889D01*
X130690990Y-114513833D01*
X130691000Y-114514029D01*
X130691000Y-114598166D01*
X130690000Y-114599898D01*
X130688000Y-114599898D01*
X130687010Y-114598362D01*
X130681954Y-114547025D01*
X130667035Y-114497843D01*
X130642809Y-114452519D01*
X130610207Y-114412793D01*
X130570481Y-114380191D01*
X130525157Y-114355965D01*
X130475975Y-114341046D01*
X130424638Y-114335990D01*
X130423012Y-114334825D01*
X130423208Y-114332835D01*
X130424834Y-114332000D01*
X130508971Y-114332000D01*
X130509167Y-114332010D01*
G37*
G36*
X107311167Y-114332010D02*
G01*
X107351111Y-114335944D01*
X107351496Y-114336020D01*
X107384005Y-114345881D01*
X107384367Y-114346031D01*
X107414325Y-114362045D01*
X107414651Y-114362263D01*
X107440910Y-114383813D01*
X107441187Y-114384090D01*
X107462737Y-114410349D01*
X107462955Y-114410675D01*
X107478969Y-114440633D01*
X107479119Y-114440995D01*
X107488980Y-114473504D01*
X107489056Y-114473889D01*
X107492990Y-114513833D01*
X107493000Y-114514029D01*
X107493000Y-114598166D01*
X107492000Y-114599898D01*
X107490000Y-114599898D01*
X107489010Y-114598362D01*
X107483954Y-114547025D01*
X107469035Y-114497843D01*
X107444809Y-114452519D01*
X107412207Y-114412793D01*
X107372481Y-114380191D01*
X107327157Y-114355965D01*
X107277975Y-114341046D01*
X107226638Y-114335990D01*
X107225012Y-114334825D01*
X107225208Y-114332835D01*
X107226834Y-114332000D01*
X107310971Y-114332000D01*
X107311167Y-114332010D01*
G37*
G36*
X161815991Y-112375804D02*
G01*
X161821063Y-112427304D01*
X161836030Y-112476642D01*
X161860333Y-112522110D01*
X161893039Y-112561962D01*
X161932891Y-112594668D01*
X161978359Y-112618971D01*
X162027697Y-112633938D01*
X162079197Y-112639010D01*
X162080823Y-112640175D01*
X162080627Y-112642165D01*
X162079001Y-112643000D01*
X161996904Y-112643000D01*
X161996708Y-112642990D01*
X161956205Y-112639001D01*
X161955820Y-112638925D01*
X161922768Y-112628899D01*
X161922406Y-112628749D01*
X161891955Y-112612472D01*
X161891629Y-112612254D01*
X161864933Y-112590345D01*
X161864656Y-112590068D01*
X161842747Y-112563372D01*
X161842529Y-112563046D01*
X161826252Y-112532595D01*
X161826102Y-112532233D01*
X161816076Y-112499181D01*
X161816000Y-112498796D01*
X161812011Y-112458293D01*
X161812001Y-112458097D01*
X161812001Y-112376000D01*
X161813001Y-112374268D01*
X161815001Y-112374268D01*
X161815991Y-112375804D01*
G37*
G36*
X163617166Y-112374374D02*
G01*
X163618001Y-112376000D01*
X163618001Y-112458097D01*
X163617991Y-112458293D01*
X163614002Y-112498796D01*
X163613926Y-112499181D01*
X163603900Y-112532233D01*
X163603750Y-112532595D01*
X163587473Y-112563046D01*
X163587255Y-112563372D01*
X163565346Y-112590068D01*
X163565069Y-112590345D01*
X163538373Y-112612254D01*
X163538047Y-112612472D01*
X163507596Y-112628749D01*
X163507234Y-112628899D01*
X163474182Y-112638925D01*
X163473797Y-112639001D01*
X163433294Y-112642990D01*
X163433098Y-112643000D01*
X163351001Y-112643000D01*
X163349269Y-112642000D01*
X163349269Y-112640000D01*
X163350805Y-112639010D01*
X163402305Y-112633938D01*
X163451643Y-112618971D01*
X163497111Y-112594668D01*
X163536963Y-112561962D01*
X163569669Y-112522110D01*
X163593972Y-112476642D01*
X163608939Y-112427304D01*
X163614011Y-112375804D01*
X163615176Y-112374178D01*
X163617166Y-112374374D01*
G37*
G36*
X162080733Y-110838000D02*
G01*
X162080733Y-110840000D01*
X162079197Y-110840990D01*
X162027697Y-110846062D01*
X161978359Y-110861029D01*
X161932891Y-110885332D01*
X161893039Y-110918038D01*
X161860333Y-110957890D01*
X161836030Y-111003358D01*
X161821063Y-111052696D01*
X161815991Y-111104196D01*
X161814826Y-111105822D01*
X161812836Y-111105626D01*
X161812001Y-111104000D01*
X161812001Y-111021903D01*
X161812011Y-111021707D01*
X161816000Y-110981204D01*
X161816076Y-110980819D01*
X161826102Y-110947767D01*
X161826252Y-110947405D01*
X161842529Y-110916954D01*
X161842747Y-110916628D01*
X161864656Y-110889932D01*
X161864933Y-110889655D01*
X161891629Y-110867746D01*
X161891955Y-110867528D01*
X161922406Y-110851251D01*
X161922768Y-110851101D01*
X161955820Y-110841075D01*
X161956205Y-110840999D01*
X161996708Y-110837010D01*
X161996904Y-110837000D01*
X162079001Y-110837000D01*
X162080733Y-110838000D01*
G37*
G36*
X163433294Y-110837010D02*
G01*
X163473797Y-110840999D01*
X163474182Y-110841075D01*
X163507234Y-110851101D01*
X163507596Y-110851251D01*
X163538047Y-110867528D01*
X163538373Y-110867746D01*
X163565069Y-110889655D01*
X163565346Y-110889932D01*
X163587255Y-110916628D01*
X163587473Y-110916954D01*
X163603750Y-110947405D01*
X163603900Y-110947767D01*
X163613926Y-110980819D01*
X163614002Y-110981204D01*
X163617991Y-111021707D01*
X163618001Y-111021903D01*
X163618001Y-111104000D01*
X163617001Y-111105732D01*
X163615001Y-111105732D01*
X163614011Y-111104196D01*
X163608939Y-111052696D01*
X163593972Y-111003358D01*
X163569669Y-110957890D01*
X163536963Y-110918038D01*
X163497111Y-110885332D01*
X163451643Y-110861029D01*
X163402305Y-110846062D01*
X163350805Y-110840990D01*
X163349179Y-110839825D01*
X163349375Y-110837835D01*
X163351001Y-110837000D01*
X163433098Y-110837000D01*
X163433294Y-110837010D01*
G37*
G36*
X155139065Y-105128527D02*
G01*
X155139065Y-105130527D01*
X155137529Y-105131517D01*
X155059594Y-105139192D01*
X154984837Y-105161870D01*
X154915943Y-105198694D01*
X154855558Y-105248252D01*
X154806000Y-105308637D01*
X154769176Y-105377531D01*
X154746498Y-105452288D01*
X154738833Y-105530121D01*
X154738833Y-106830933D01*
X154746498Y-106908766D01*
X154769176Y-106983523D01*
X154806000Y-107052417D01*
X154855558Y-107112802D01*
X154915943Y-107162360D01*
X154984837Y-107199184D01*
X155059594Y-107221862D01*
X155137529Y-107229537D01*
X155139155Y-107230702D01*
X155138959Y-107232692D01*
X155137333Y-107233527D01*
X155080971Y-107233527D01*
X155080775Y-107233517D01*
X155008814Y-107226430D01*
X155008429Y-107226354D01*
X154945141Y-107207155D01*
X154944779Y-107207005D01*
X154886441Y-107175823D01*
X154886115Y-107175605D01*
X154834989Y-107133648D01*
X154834712Y-107133371D01*
X154790369Y-107079338D01*
X154790252Y-107079180D01*
X154780906Y-107065191D01*
X154763859Y-107048144D01*
X154743812Y-107034748D01*
X154721539Y-107025521D01*
X154697889Y-107020816D01*
X154673783Y-107020816D01*
X154650132Y-107025519D01*
X154627858Y-107034745D01*
X154607810Y-107048139D01*
X154590763Y-107065186D01*
X154577367Y-107085233D01*
X154568140Y-107107506D01*
X154563426Y-107131202D01*
X154562831Y-107143311D01*
X154561747Y-107144992D01*
X154559749Y-107144894D01*
X154558833Y-107143213D01*
X154558833Y-105217841D01*
X154559833Y-105216109D01*
X154561833Y-105216109D01*
X154562823Y-105217645D01*
X154565205Y-105241832D01*
X154572205Y-105264907D01*
X154583570Y-105286171D01*
X154598865Y-105304808D01*
X154617502Y-105320103D01*
X154638766Y-105331468D01*
X154661841Y-105338468D01*
X154685832Y-105340831D01*
X154709823Y-105338468D01*
X154732898Y-105331468D01*
X154754162Y-105320103D01*
X154772799Y-105304808D01*
X154788124Y-105286134D01*
X154791786Y-105280023D01*
X154791956Y-105279782D01*
X154834712Y-105227683D01*
X154834989Y-105227406D01*
X154886115Y-105185449D01*
X154886441Y-105185231D01*
X154944779Y-105154049D01*
X154945141Y-105153899D01*
X155008429Y-105134700D01*
X155008814Y-105134624D01*
X155080775Y-105127537D01*
X155080971Y-105127527D01*
X155137333Y-105127527D01*
X155139065Y-105128527D01*
G37*
G36*
X151182823Y-106830831D02*
G01*
X151190498Y-106908766D01*
X151213176Y-106983523D01*
X151250000Y-107052417D01*
X151299558Y-107112802D01*
X151359943Y-107162360D01*
X151428837Y-107199184D01*
X151503594Y-107221862D01*
X151581529Y-107229537D01*
X151583155Y-107230702D01*
X151582959Y-107232692D01*
X151581333Y-107233527D01*
X151524971Y-107233527D01*
X151524775Y-107233517D01*
X151452814Y-107226430D01*
X151452429Y-107226354D01*
X151389141Y-107207155D01*
X151388779Y-107207005D01*
X151330441Y-107175823D01*
X151330115Y-107175605D01*
X151278989Y-107133648D01*
X151278712Y-107133371D01*
X151236755Y-107082245D01*
X151236537Y-107081919D01*
X151205355Y-107023581D01*
X151205205Y-107023219D01*
X151186006Y-106959931D01*
X151185930Y-106959546D01*
X151178843Y-106887585D01*
X151178833Y-106887389D01*
X151178833Y-106831027D01*
X151179833Y-106829295D01*
X151181833Y-106829295D01*
X151182823Y-106830831D01*
G37*
G36*
X152438891Y-105127537D02*
G01*
X152510852Y-105134624D01*
X152511237Y-105134700D01*
X152574525Y-105153899D01*
X152574887Y-105154049D01*
X152633225Y-105185231D01*
X152633551Y-105185449D01*
X152684677Y-105227406D01*
X152684954Y-105227683D01*
X152729297Y-105281716D01*
X152729414Y-105281874D01*
X152738760Y-105295863D01*
X152755807Y-105312910D01*
X152775854Y-105326306D01*
X152798127Y-105335533D01*
X152821777Y-105340238D01*
X152845883Y-105340238D01*
X152869534Y-105335535D01*
X152891808Y-105326309D01*
X152911856Y-105312915D01*
X152928903Y-105295868D01*
X152942299Y-105275821D01*
X152951526Y-105253548D01*
X152956240Y-105229852D01*
X152956835Y-105217743D01*
X152957919Y-105216062D01*
X152959917Y-105216160D01*
X152960833Y-105217841D01*
X152960833Y-107143213D01*
X152959833Y-107144945D01*
X152957833Y-107144945D01*
X152956843Y-107143409D01*
X152954461Y-107119222D01*
X152947461Y-107096147D01*
X152936096Y-107074883D01*
X152920801Y-107056246D01*
X152902164Y-107040951D01*
X152880900Y-107029586D01*
X152857825Y-107022586D01*
X152833834Y-107020223D01*
X152809843Y-107022586D01*
X152786768Y-107029586D01*
X152765504Y-107040951D01*
X152746867Y-107056246D01*
X152731542Y-107074920D01*
X152727880Y-107081031D01*
X152727710Y-107081272D01*
X152684954Y-107133371D01*
X152684677Y-107133648D01*
X152633551Y-107175605D01*
X152633225Y-107175823D01*
X152574887Y-107207005D01*
X152574525Y-107207155D01*
X152511237Y-107226354D01*
X152510852Y-107226430D01*
X152438891Y-107233517D01*
X152438695Y-107233527D01*
X152382333Y-107233527D01*
X152380601Y-107232527D01*
X152380601Y-107230527D01*
X152382137Y-107229537D01*
X152460072Y-107221862D01*
X152534829Y-107199184D01*
X152603723Y-107162360D01*
X152664108Y-107112802D01*
X152713666Y-107052417D01*
X152750490Y-106983523D01*
X152773168Y-106908766D01*
X152780833Y-106830933D01*
X152780833Y-105530121D01*
X152773168Y-105452288D01*
X152750490Y-105377531D01*
X152713666Y-105308637D01*
X152664108Y-105248252D01*
X152603723Y-105198694D01*
X152534829Y-105161870D01*
X152460072Y-105139192D01*
X152382137Y-105131517D01*
X152380511Y-105130352D01*
X152380707Y-105128362D01*
X152382333Y-105127527D01*
X152438695Y-105127527D01*
X152438891Y-105127537D01*
G37*
G36*
X156339998Y-106829401D02*
G01*
X156340833Y-106831027D01*
X156340833Y-106887389D01*
X156340823Y-106887585D01*
X156333736Y-106959546D01*
X156333660Y-106959931D01*
X156314461Y-107023219D01*
X156314311Y-107023581D01*
X156283129Y-107081919D01*
X156282911Y-107082245D01*
X156240954Y-107133371D01*
X156240677Y-107133648D01*
X156189551Y-107175605D01*
X156189225Y-107175823D01*
X156130887Y-107207005D01*
X156130525Y-107207155D01*
X156067237Y-107226354D01*
X156066852Y-107226430D01*
X155994891Y-107233517D01*
X155994695Y-107233527D01*
X155938333Y-107233527D01*
X155936601Y-107232527D01*
X155936601Y-107230527D01*
X155938137Y-107229537D01*
X156016072Y-107221862D01*
X156090829Y-107199184D01*
X156159723Y-107162360D01*
X156220108Y-107112802D01*
X156269666Y-107052417D01*
X156306490Y-106983523D01*
X156329168Y-106908766D01*
X156336843Y-106830831D01*
X156338008Y-106829205D01*
X156339998Y-106829401D01*
G37*
G36*
X151583065Y-105128527D02*
G01*
X151583065Y-105130527D01*
X151581529Y-105131517D01*
X151503594Y-105139192D01*
X151428837Y-105161870D01*
X151359943Y-105198694D01*
X151299558Y-105248252D01*
X151250000Y-105308637D01*
X151213176Y-105377531D01*
X151190498Y-105452288D01*
X151182823Y-105530223D01*
X151181658Y-105531849D01*
X151179668Y-105531653D01*
X151178833Y-105530027D01*
X151178833Y-105473665D01*
X151178843Y-105473469D01*
X151185930Y-105401508D01*
X151186006Y-105401123D01*
X151205205Y-105337835D01*
X151205355Y-105337473D01*
X151236537Y-105279135D01*
X151236755Y-105278809D01*
X151278712Y-105227683D01*
X151278989Y-105227406D01*
X151330115Y-105185449D01*
X151330441Y-105185231D01*
X151388779Y-105154049D01*
X151389141Y-105153899D01*
X151452429Y-105134700D01*
X151452814Y-105134624D01*
X151524775Y-105127537D01*
X151524971Y-105127527D01*
X151581333Y-105127527D01*
X151583065Y-105128527D01*
G37*
G36*
X155994891Y-105127537D02*
G01*
X156066852Y-105134624D01*
X156067237Y-105134700D01*
X156130525Y-105153899D01*
X156130887Y-105154049D01*
X156189225Y-105185231D01*
X156189551Y-105185449D01*
X156240677Y-105227406D01*
X156240954Y-105227683D01*
X156282911Y-105278809D01*
X156283129Y-105279135D01*
X156314311Y-105337473D01*
X156314461Y-105337835D01*
X156333660Y-105401123D01*
X156333736Y-105401508D01*
X156340823Y-105473469D01*
X156340833Y-105473665D01*
X156340833Y-105530027D01*
X156339833Y-105531759D01*
X156337833Y-105531759D01*
X156336843Y-105530223D01*
X156329168Y-105452288D01*
X156306490Y-105377531D01*
X156269666Y-105308637D01*
X156220108Y-105248252D01*
X156159723Y-105198694D01*
X156090829Y-105161870D01*
X156016072Y-105139192D01*
X155938137Y-105131517D01*
X155936511Y-105130352D01*
X155936707Y-105128362D01*
X155938333Y-105127527D01*
X155994695Y-105127527D01*
X155994891Y-105127537D01*
G37*
G36*
X42600990Y-100381638D02*
G01*
X42606046Y-100432975D01*
X42620965Y-100482157D01*
X42645191Y-100527481D01*
X42677793Y-100567207D01*
X42717519Y-100599809D01*
X42762843Y-100624035D01*
X42812025Y-100638954D01*
X42863362Y-100644010D01*
X42864988Y-100645175D01*
X42864792Y-100647165D01*
X42863166Y-100648000D01*
X42779029Y-100648000D01*
X42778833Y-100647990D01*
X42738889Y-100644056D01*
X42738504Y-100643980D01*
X42705995Y-100634119D01*
X42705633Y-100633969D01*
X42675675Y-100617955D01*
X42675349Y-100617737D01*
X42649090Y-100596187D01*
X42648813Y-100595910D01*
X42627263Y-100569651D01*
X42627045Y-100569325D01*
X42611031Y-100539367D01*
X42610881Y-100539005D01*
X42601020Y-100506496D01*
X42600944Y-100506111D01*
X42597010Y-100466167D01*
X42597000Y-100465971D01*
X42597000Y-100381834D01*
X42598000Y-100380102D01*
X42600000Y-100380102D01*
X42600990Y-100381638D01*
G37*
G36*
X46302165Y-100380208D02*
G01*
X46303000Y-100381834D01*
X46303000Y-100465971D01*
X46302990Y-100466167D01*
X46299056Y-100506111D01*
X46298980Y-100506496D01*
X46289119Y-100539005D01*
X46288969Y-100539367D01*
X46272955Y-100569325D01*
X46272737Y-100569651D01*
X46251187Y-100595910D01*
X46250910Y-100596187D01*
X46224651Y-100617737D01*
X46224325Y-100617955D01*
X46194367Y-100633969D01*
X46194005Y-100634119D01*
X46161496Y-100643980D01*
X46161111Y-100644056D01*
X46121167Y-100647990D01*
X46120971Y-100648000D01*
X46036834Y-100648000D01*
X46035102Y-100647000D01*
X46035102Y-100645000D01*
X46036638Y-100644010D01*
X46087975Y-100638954D01*
X46137157Y-100624035D01*
X46182481Y-100599809D01*
X46222207Y-100567207D01*
X46254809Y-100527481D01*
X46279035Y-100482157D01*
X46293954Y-100432975D01*
X46299010Y-100381638D01*
X46300175Y-100380012D01*
X46302165Y-100380208D01*
G37*
G36*
X42864898Y-98743000D02*
G01*
X42864898Y-98745000D01*
X42863362Y-98745990D01*
X42812025Y-98751046D01*
X42762843Y-98765965D01*
X42717519Y-98790191D01*
X42677793Y-98822793D01*
X42645191Y-98862519D01*
X42620965Y-98907843D01*
X42606046Y-98957025D01*
X42600990Y-99008362D01*
X42599825Y-99009988D01*
X42597835Y-99009792D01*
X42597000Y-99008166D01*
X42597000Y-98924029D01*
X42597010Y-98923833D01*
X42600944Y-98883889D01*
X42601020Y-98883504D01*
X42610881Y-98850995D01*
X42611031Y-98850633D01*
X42627045Y-98820675D01*
X42627263Y-98820349D01*
X42648813Y-98794090D01*
X42649090Y-98793813D01*
X42675349Y-98772263D01*
X42675675Y-98772045D01*
X42705633Y-98756031D01*
X42705995Y-98755881D01*
X42738504Y-98746020D01*
X42738889Y-98745944D01*
X42778833Y-98742010D01*
X42779029Y-98742000D01*
X42863166Y-98742000D01*
X42864898Y-98743000D01*
G37*
G36*
X46121167Y-98742010D02*
G01*
X46161111Y-98745944D01*
X46161496Y-98746020D01*
X46194005Y-98755881D01*
X46194367Y-98756031D01*
X46224325Y-98772045D01*
X46224651Y-98772263D01*
X46250910Y-98793813D01*
X46251187Y-98794090D01*
X46272737Y-98820349D01*
X46272955Y-98820675D01*
X46288969Y-98850633D01*
X46289119Y-98850995D01*
X46298980Y-98883504D01*
X46299056Y-98883889D01*
X46302990Y-98923833D01*
X46303000Y-98924029D01*
X46303000Y-99008166D01*
X46302000Y-99009898D01*
X46300000Y-99009898D01*
X46299010Y-99008362D01*
X46293954Y-98957025D01*
X46279035Y-98907843D01*
X46254809Y-98862519D01*
X46222207Y-98822793D01*
X46182481Y-98790191D01*
X46137157Y-98765965D01*
X46087975Y-98751046D01*
X46036638Y-98745990D01*
X46035012Y-98744825D01*
X46035208Y-98742835D01*
X46036834Y-98742000D01*
X46120971Y-98742000D01*
X46121167Y-98742010D01*
G37*
G36*
X166916665Y-97947209D02*
G01*
X166917500Y-97948835D01*
X166917500Y-98032972D01*
X166917490Y-98033168D01*
X166913556Y-98073112D01*
X166913480Y-98073497D01*
X166903619Y-98106006D01*
X166903469Y-98106368D01*
X166887455Y-98136326D01*
X166887237Y-98136652D01*
X166865687Y-98162911D01*
X166865410Y-98163188D01*
X166839151Y-98184738D01*
X166838825Y-98184956D01*
X166808867Y-98200970D01*
X166808505Y-98201120D01*
X166775996Y-98210981D01*
X166775611Y-98211057D01*
X166735667Y-98214991D01*
X166735471Y-98215001D01*
X166651334Y-98215001D01*
X166649602Y-98214001D01*
X166649602Y-98212001D01*
X166651138Y-98211011D01*
X166702475Y-98205955D01*
X166751657Y-98191036D01*
X166796981Y-98166810D01*
X166836707Y-98134208D01*
X166869309Y-98094482D01*
X166893535Y-98049158D01*
X166908454Y-97999976D01*
X166913510Y-97948639D01*
X166914675Y-97947013D01*
X166916665Y-97947209D01*
G37*
G36*
X163215490Y-97948639D02*
G01*
X163220546Y-97999976D01*
X163235465Y-98049158D01*
X163259691Y-98094482D01*
X163292293Y-98134208D01*
X163332019Y-98166810D01*
X163377343Y-98191036D01*
X163426525Y-98205955D01*
X163477862Y-98211011D01*
X163479488Y-98212176D01*
X163479292Y-98214166D01*
X163477666Y-98215001D01*
X163393529Y-98215001D01*
X163393333Y-98214991D01*
X163353389Y-98211057D01*
X163353004Y-98210981D01*
X163320495Y-98201120D01*
X163320133Y-98200970D01*
X163290175Y-98184956D01*
X163289849Y-98184738D01*
X163263590Y-98163188D01*
X163263313Y-98162911D01*
X163241763Y-98136652D01*
X163241545Y-98136326D01*
X163225531Y-98106368D01*
X163225381Y-98106006D01*
X163215520Y-98073497D01*
X163215444Y-98073112D01*
X163211510Y-98033168D01*
X163211500Y-98032972D01*
X163211500Y-97948835D01*
X163212500Y-97947103D01*
X163214500Y-97947103D01*
X163215490Y-97948639D01*
G37*
G36*
X143421665Y-97932210D02*
G01*
X143422500Y-97933836D01*
X143422500Y-98017973D01*
X143422490Y-98018169D01*
X143418556Y-98058113D01*
X143418480Y-98058498D01*
X143408619Y-98091007D01*
X143408469Y-98091369D01*
X143392455Y-98121327D01*
X143392237Y-98121653D01*
X143370687Y-98147912D01*
X143370410Y-98148189D01*
X143344151Y-98169739D01*
X143343825Y-98169957D01*
X143313867Y-98185971D01*
X143313505Y-98186121D01*
X143280996Y-98195982D01*
X143280611Y-98196058D01*
X143240667Y-98199992D01*
X143240471Y-98200002D01*
X143156334Y-98200002D01*
X143154602Y-98199002D01*
X143154602Y-98197002D01*
X143156138Y-98196012D01*
X143207475Y-98190956D01*
X143256657Y-98176037D01*
X143301981Y-98151811D01*
X143341707Y-98119209D01*
X143374309Y-98079483D01*
X143398535Y-98034159D01*
X143413454Y-97984977D01*
X143418510Y-97933640D01*
X143419675Y-97932014D01*
X143421665Y-97932210D01*
G37*
G36*
X139720490Y-97933640D02*
G01*
X139725546Y-97984977D01*
X139740465Y-98034159D01*
X139764691Y-98079483D01*
X139797293Y-98119209D01*
X139837019Y-98151811D01*
X139882343Y-98176037D01*
X139931525Y-98190956D01*
X139982862Y-98196012D01*
X139984488Y-98197177D01*
X139984292Y-98199167D01*
X139982666Y-98200002D01*
X139898529Y-98200002D01*
X139898333Y-98199992D01*
X139858389Y-98196058D01*
X139858004Y-98195982D01*
X139825495Y-98186121D01*
X139825133Y-98185971D01*
X139795175Y-98169957D01*
X139794849Y-98169739D01*
X139768590Y-98148189D01*
X139768313Y-98147912D01*
X139746763Y-98121653D01*
X139746545Y-98121327D01*
X139730531Y-98091369D01*
X139730381Y-98091007D01*
X139720520Y-98058498D01*
X139720444Y-98058113D01*
X139716510Y-98018169D01*
X139716500Y-98017973D01*
X139716500Y-97933836D01*
X139717500Y-97932104D01*
X139719500Y-97932104D01*
X139720490Y-97933640D01*
G37*
G36*
X163479398Y-96310001D02*
G01*
X163479398Y-96312001D01*
X163477862Y-96312991D01*
X163426525Y-96318047D01*
X163377343Y-96332966D01*
X163332019Y-96357192D01*
X163292293Y-96389794D01*
X163259691Y-96429520D01*
X163235465Y-96474844D01*
X163220546Y-96524026D01*
X163215490Y-96575363D01*
X163214325Y-96576989D01*
X163212335Y-96576793D01*
X163211500Y-96575167D01*
X163211500Y-96491030D01*
X163211510Y-96490834D01*
X163215444Y-96450890D01*
X163215520Y-96450505D01*
X163225381Y-96417996D01*
X163225531Y-96417634D01*
X163241545Y-96387676D01*
X163241763Y-96387350D01*
X163263313Y-96361091D01*
X163263590Y-96360814D01*
X163289849Y-96339264D01*
X163290175Y-96339046D01*
X163320133Y-96323032D01*
X163320495Y-96322882D01*
X163353004Y-96313021D01*
X163353389Y-96312945D01*
X163393333Y-96309011D01*
X163393529Y-96309001D01*
X163477666Y-96309001D01*
X163479398Y-96310001D01*
G37*
G36*
X166735667Y-96309011D02*
G01*
X166775611Y-96312945D01*
X166775996Y-96313021D01*
X166808505Y-96322882D01*
X166808867Y-96323032D01*
X166838825Y-96339046D01*
X166839151Y-96339264D01*
X166865410Y-96360814D01*
X166865687Y-96361091D01*
X166887237Y-96387350D01*
X166887455Y-96387676D01*
X166903469Y-96417634D01*
X166903619Y-96417996D01*
X166913480Y-96450505D01*
X166913556Y-96450890D01*
X166917490Y-96490834D01*
X166917500Y-96491030D01*
X166917500Y-96575167D01*
X166916500Y-96576899D01*
X166914500Y-96576899D01*
X166913510Y-96575363D01*
X166908454Y-96524026D01*
X166893535Y-96474844D01*
X166869309Y-96429520D01*
X166836707Y-96389794D01*
X166796981Y-96357192D01*
X166751657Y-96332966D01*
X166702475Y-96318047D01*
X166651138Y-96312991D01*
X166649512Y-96311826D01*
X166649708Y-96309836D01*
X166651334Y-96309001D01*
X166735471Y-96309001D01*
X166735667Y-96309011D01*
G37*
G36*
X139984398Y-96295002D02*
G01*
X139984398Y-96297002D01*
X139982862Y-96297992D01*
X139931525Y-96303048D01*
X139882343Y-96317967D01*
X139837019Y-96342193D01*
X139797293Y-96374795D01*
X139764691Y-96414521D01*
X139740465Y-96459845D01*
X139725546Y-96509027D01*
X139720490Y-96560364D01*
X139719325Y-96561990D01*
X139717335Y-96561794D01*
X139716500Y-96560168D01*
X139716500Y-96476031D01*
X139716510Y-96475835D01*
X139720444Y-96435891D01*
X139720520Y-96435506D01*
X139730381Y-96402997D01*
X139730531Y-96402635D01*
X139746545Y-96372677D01*
X139746763Y-96372351D01*
X139768313Y-96346092D01*
X139768590Y-96345815D01*
X139794849Y-96324265D01*
X139795175Y-96324047D01*
X139825133Y-96308033D01*
X139825495Y-96307883D01*
X139858004Y-96298022D01*
X139858389Y-96297946D01*
X139898333Y-96294012D01*
X139898529Y-96294002D01*
X139982666Y-96294002D01*
X139984398Y-96295002D01*
G37*
G36*
X143240667Y-96294012D02*
G01*
X143280611Y-96297946D01*
X143280996Y-96298022D01*
X143313505Y-96307883D01*
X143313867Y-96308033D01*
X143343825Y-96324047D01*
X143344151Y-96324265D01*
X143370410Y-96345815D01*
X143370687Y-96346092D01*
X143392237Y-96372351D01*
X143392455Y-96372677D01*
X143408469Y-96402635D01*
X143408619Y-96402997D01*
X143418480Y-96435506D01*
X143418556Y-96435891D01*
X143422490Y-96475835D01*
X143422500Y-96476031D01*
X143422500Y-96560168D01*
X143421500Y-96561900D01*
X143419500Y-96561900D01*
X143418510Y-96560364D01*
X143413454Y-96509027D01*
X143398535Y-96459845D01*
X143374309Y-96414521D01*
X143341707Y-96374795D01*
X143301981Y-96342193D01*
X143256657Y-96317967D01*
X143207475Y-96303048D01*
X143156138Y-96297992D01*
X143154512Y-96296827D01*
X143154708Y-96294837D01*
X143156334Y-96294002D01*
X143240471Y-96294002D01*
X143240667Y-96294012D01*
G37*
G36*
X95648990Y-95357804D02*
G01*
X95654062Y-95409304D01*
X95669029Y-95458642D01*
X95693332Y-95504110D01*
X95726038Y-95543962D01*
X95765890Y-95576668D01*
X95811358Y-95600971D01*
X95860696Y-95615938D01*
X95912196Y-95621010D01*
X95913822Y-95622175D01*
X95913626Y-95624165D01*
X95912000Y-95625000D01*
X95829903Y-95625000D01*
X95829707Y-95624990D01*
X95789204Y-95621001D01*
X95788819Y-95620925D01*
X95755767Y-95610899D01*
X95755405Y-95610749D01*
X95724954Y-95594472D01*
X95724628Y-95594254D01*
X95697932Y-95572345D01*
X95697655Y-95572068D01*
X95675746Y-95545372D01*
X95675528Y-95545046D01*
X95659251Y-95514595D01*
X95659101Y-95514233D01*
X95649075Y-95481181D01*
X95648999Y-95480796D01*
X95645010Y-95440293D01*
X95645000Y-95440097D01*
X95645000Y-95358000D01*
X95646000Y-95356268D01*
X95648000Y-95356268D01*
X95648990Y-95357804D01*
G37*
G36*
X97450165Y-95356374D02*
G01*
X97451000Y-95358000D01*
X97451000Y-95440097D01*
X97450990Y-95440293D01*
X97447001Y-95480796D01*
X97446925Y-95481181D01*
X97436899Y-95514233D01*
X97436749Y-95514595D01*
X97420472Y-95545046D01*
X97420254Y-95545372D01*
X97398345Y-95572068D01*
X97398068Y-95572345D01*
X97371372Y-95594254D01*
X97371046Y-95594472D01*
X97340595Y-95610749D01*
X97340233Y-95610899D01*
X97307181Y-95620925D01*
X97306796Y-95621001D01*
X97266293Y-95624990D01*
X97266097Y-95625000D01*
X97184000Y-95625000D01*
X97182268Y-95624000D01*
X97182268Y-95622000D01*
X97183804Y-95621010D01*
X97235304Y-95615938D01*
X97284642Y-95600971D01*
X97330110Y-95576668D01*
X97369962Y-95543962D01*
X97402668Y-95504110D01*
X97426971Y-95458642D01*
X97441938Y-95409304D01*
X97447010Y-95357804D01*
X97448175Y-95356178D01*
X97450165Y-95356374D01*
G37*
G36*
X95913732Y-93820000D02*
G01*
X95913732Y-93822000D01*
X95912196Y-93822990D01*
X95860696Y-93828062D01*
X95811358Y-93843029D01*
X95765890Y-93867332D01*
X95726038Y-93900038D01*
X95693332Y-93939890D01*
X95669029Y-93985358D01*
X95654062Y-94034696D01*
X95648990Y-94086196D01*
X95647825Y-94087822D01*
X95645835Y-94087626D01*
X95645000Y-94086000D01*
X95645000Y-94003903D01*
X95645010Y-94003707D01*
X95648999Y-93963204D01*
X95649075Y-93962819D01*
X95659101Y-93929767D01*
X95659251Y-93929405D01*
X95675528Y-93898954D01*
X95675746Y-93898628D01*
X95697655Y-93871932D01*
X95697932Y-93871655D01*
X95724628Y-93849746D01*
X95724954Y-93849528D01*
X95755405Y-93833251D01*
X95755767Y-93833101D01*
X95788819Y-93823075D01*
X95789204Y-93822999D01*
X95829707Y-93819010D01*
X95829903Y-93819000D01*
X95912000Y-93819000D01*
X95913732Y-93820000D01*
G37*
G36*
X97266293Y-93819010D02*
G01*
X97306796Y-93822999D01*
X97307181Y-93823075D01*
X97340233Y-93833101D01*
X97340595Y-93833251D01*
X97371046Y-93849528D01*
X97371372Y-93849746D01*
X97398068Y-93871655D01*
X97398345Y-93871932D01*
X97420254Y-93898628D01*
X97420472Y-93898954D01*
X97436749Y-93929405D01*
X97436899Y-93929767D01*
X97446925Y-93962819D01*
X97447001Y-93963204D01*
X97450990Y-94003707D01*
X97451000Y-94003903D01*
X97451000Y-94086000D01*
X97450000Y-94087732D01*
X97448000Y-94087732D01*
X97447010Y-94086196D01*
X97441938Y-94034696D01*
X97426971Y-93985358D01*
X97402668Y-93939890D01*
X97369962Y-93900038D01*
X97330110Y-93867332D01*
X97284642Y-93843029D01*
X97235304Y-93828062D01*
X97183804Y-93822990D01*
X97182178Y-93821825D01*
X97182374Y-93819835D01*
X97184000Y-93819000D01*
X97266097Y-93819000D01*
X97266293Y-93819010D01*
G37*
G36*
X200497165Y-86655209D02*
G01*
X200498000Y-86656835D01*
X200498000Y-86740972D01*
X200497990Y-86741168D01*
X200494056Y-86781112D01*
X200493980Y-86781497D01*
X200484119Y-86814006D01*
X200483969Y-86814368D01*
X200467955Y-86844326D01*
X200467737Y-86844652D01*
X200446187Y-86870911D01*
X200445910Y-86871188D01*
X200419651Y-86892738D01*
X200419325Y-86892956D01*
X200389367Y-86908970D01*
X200389005Y-86909120D01*
X200356496Y-86918981D01*
X200356111Y-86919057D01*
X200316167Y-86922991D01*
X200315971Y-86923001D01*
X200231834Y-86923001D01*
X200230102Y-86922001D01*
X200230102Y-86920001D01*
X200231638Y-86919011D01*
X200282975Y-86913955D01*
X200332157Y-86899036D01*
X200377481Y-86874810D01*
X200417207Y-86842208D01*
X200449809Y-86802482D01*
X200474035Y-86757158D01*
X200488954Y-86707976D01*
X200494010Y-86656639D01*
X200495175Y-86655013D01*
X200497165Y-86655209D01*
G37*
G36*
X198595990Y-86656639D02*
G01*
X198601046Y-86707976D01*
X198615965Y-86757158D01*
X198640191Y-86802482D01*
X198672793Y-86842208D01*
X198712519Y-86874810D01*
X198757843Y-86899036D01*
X198807025Y-86913955D01*
X198858362Y-86919011D01*
X198859988Y-86920176D01*
X198859792Y-86922166D01*
X198858166Y-86923001D01*
X198774029Y-86923001D01*
X198773833Y-86922991D01*
X198733889Y-86919057D01*
X198733504Y-86918981D01*
X198700995Y-86909120D01*
X198700633Y-86908970D01*
X198670675Y-86892956D01*
X198670349Y-86892738D01*
X198644090Y-86871188D01*
X198643813Y-86870911D01*
X198622263Y-86844652D01*
X198622045Y-86844326D01*
X198606031Y-86814368D01*
X198605881Y-86814006D01*
X198596020Y-86781497D01*
X198595944Y-86781112D01*
X198592010Y-86741168D01*
X198592000Y-86740972D01*
X198592000Y-86656835D01*
X198593000Y-86655103D01*
X198595000Y-86655103D01*
X198595990Y-86656639D01*
G37*
G36*
X220820989Y-86656639D02*
G01*
X220826045Y-86707973D01*
X220840964Y-86757155D01*
X220865190Y-86802479D01*
X220897792Y-86842205D01*
X220937518Y-86874807D01*
X220982842Y-86899033D01*
X221032024Y-86913952D01*
X221083361Y-86919008D01*
X221084987Y-86920173D01*
X221084791Y-86922163D01*
X221083165Y-86922998D01*
X220999028Y-86922998D01*
X220998832Y-86922988D01*
X220958888Y-86919054D01*
X220958503Y-86918978D01*
X220925994Y-86909117D01*
X220925632Y-86908967D01*
X220895674Y-86892953D01*
X220895348Y-86892735D01*
X220869089Y-86871185D01*
X220868812Y-86870908D01*
X220847262Y-86844649D01*
X220847044Y-86844323D01*
X220831030Y-86814365D01*
X220830880Y-86814003D01*
X220821019Y-86781494D01*
X220820943Y-86781109D01*
X220817009Y-86741165D01*
X220816999Y-86740969D01*
X220816999Y-86656835D01*
X220817999Y-86655103D01*
X220819999Y-86655103D01*
X220820989Y-86656639D01*
G37*
G36*
X222722164Y-86655209D02*
G01*
X222722999Y-86656835D01*
X222722999Y-86740969D01*
X222722989Y-86741165D01*
X222719055Y-86781109D01*
X222718979Y-86781494D01*
X222709118Y-86814003D01*
X222708968Y-86814365D01*
X222692954Y-86844323D01*
X222692736Y-86844649D01*
X222671186Y-86870908D01*
X222670909Y-86871185D01*
X222644650Y-86892735D01*
X222644324Y-86892953D01*
X222614366Y-86908967D01*
X222614004Y-86909117D01*
X222581495Y-86918978D01*
X222581110Y-86919054D01*
X222541166Y-86922988D01*
X222540970Y-86922998D01*
X222456833Y-86922998D01*
X222455101Y-86921998D01*
X222455101Y-86919998D01*
X222456637Y-86919008D01*
X222507974Y-86913952D01*
X222557156Y-86899033D01*
X222602480Y-86874807D01*
X222642206Y-86842205D01*
X222674808Y-86802479D01*
X222699034Y-86757155D01*
X222713953Y-86707973D01*
X222719009Y-86656639D01*
X222720174Y-86655013D01*
X222722164Y-86655209D01*
G37*
G36*
X163215490Y-85233638D02*
G01*
X163220546Y-85284975D01*
X163235465Y-85334157D01*
X163259691Y-85379481D01*
X163292293Y-85419207D01*
X163332019Y-85451809D01*
X163377343Y-85476035D01*
X163426525Y-85490954D01*
X163477862Y-85496010D01*
X163479488Y-85497175D01*
X163479292Y-85499165D01*
X163477666Y-85500000D01*
X163393529Y-85500000D01*
X163393333Y-85499990D01*
X163353389Y-85496056D01*
X163353004Y-85495980D01*
X163320495Y-85486119D01*
X163320133Y-85485969D01*
X163290175Y-85469955D01*
X163289849Y-85469737D01*
X163263590Y-85448187D01*
X163263313Y-85447910D01*
X163241763Y-85421651D01*
X163241545Y-85421325D01*
X163225531Y-85391367D01*
X163225381Y-85391005D01*
X163215520Y-85358496D01*
X163215444Y-85358111D01*
X163211510Y-85318167D01*
X163211500Y-85317971D01*
X163211500Y-85233834D01*
X163212500Y-85232102D01*
X163214500Y-85232102D01*
X163215490Y-85233638D01*
G37*
G36*
X166916665Y-85232208D02*
G01*
X166917500Y-85233834D01*
X166917500Y-85317971D01*
X166917490Y-85318167D01*
X166913556Y-85358111D01*
X166913480Y-85358496D01*
X166903619Y-85391005D01*
X166903469Y-85391367D01*
X166887455Y-85421325D01*
X166887237Y-85421651D01*
X166865687Y-85447910D01*
X166865410Y-85448187D01*
X166839151Y-85469737D01*
X166838825Y-85469955D01*
X166808867Y-85485969D01*
X166808505Y-85486119D01*
X166775996Y-85495980D01*
X166775611Y-85496056D01*
X166735667Y-85499990D01*
X166735471Y-85500000D01*
X166651334Y-85500000D01*
X166649602Y-85499000D01*
X166649602Y-85497000D01*
X166651138Y-85496010D01*
X166702475Y-85490954D01*
X166751657Y-85476035D01*
X166796981Y-85451809D01*
X166836707Y-85419207D01*
X166869309Y-85379481D01*
X166893535Y-85334157D01*
X166908454Y-85284975D01*
X166913510Y-85233638D01*
X166914675Y-85232012D01*
X166916665Y-85232208D01*
G37*
G36*
X143421662Y-85232208D02*
G01*
X143422497Y-85233834D01*
X143422497Y-85317969D01*
X143422487Y-85318165D01*
X143418553Y-85358109D01*
X143418477Y-85358494D01*
X143408616Y-85391003D01*
X143408466Y-85391365D01*
X143392452Y-85421323D01*
X143392234Y-85421649D01*
X143370684Y-85447908D01*
X143370407Y-85448185D01*
X143344148Y-85469735D01*
X143343822Y-85469953D01*
X143313864Y-85485967D01*
X143313502Y-85486117D01*
X143280993Y-85495978D01*
X143280608Y-85496054D01*
X143240664Y-85499988D01*
X143240468Y-85499998D01*
X143156331Y-85499998D01*
X143154599Y-85498998D01*
X143154599Y-85496998D01*
X143156135Y-85496008D01*
X143207472Y-85490952D01*
X143256654Y-85476033D01*
X143301978Y-85451807D01*
X143341704Y-85419205D01*
X143374306Y-85379479D01*
X143398532Y-85334155D01*
X143413451Y-85284973D01*
X143418507Y-85233638D01*
X143419672Y-85232012D01*
X143421662Y-85232208D01*
G37*
G36*
X139720487Y-85233638D02*
G01*
X139725543Y-85284973D01*
X139740462Y-85334155D01*
X139764688Y-85379479D01*
X139797290Y-85419205D01*
X139837016Y-85451807D01*
X139882340Y-85476033D01*
X139931522Y-85490952D01*
X139982859Y-85496008D01*
X139984485Y-85497173D01*
X139984289Y-85499163D01*
X139982663Y-85499998D01*
X139898526Y-85499998D01*
X139898330Y-85499988D01*
X139858386Y-85496054D01*
X139858001Y-85495978D01*
X139825492Y-85486117D01*
X139825130Y-85485967D01*
X139795172Y-85469953D01*
X139794846Y-85469735D01*
X139768587Y-85448185D01*
X139768310Y-85447908D01*
X139746760Y-85421649D01*
X139746542Y-85421323D01*
X139730528Y-85391365D01*
X139730378Y-85391003D01*
X139720517Y-85358494D01*
X139720441Y-85358109D01*
X139716507Y-85318165D01*
X139716497Y-85317969D01*
X139716497Y-85233834D01*
X139717497Y-85232102D01*
X139719497Y-85232102D01*
X139720487Y-85233638D01*
G37*
G36*
X139984395Y-83594998D02*
G01*
X139984395Y-83596998D01*
X139982859Y-83597988D01*
X139931522Y-83603044D01*
X139882340Y-83617963D01*
X139837016Y-83642189D01*
X139797290Y-83674791D01*
X139764688Y-83714517D01*
X139740462Y-83759841D01*
X139725543Y-83809023D01*
X139720487Y-83860360D01*
X139719322Y-83861986D01*
X139717332Y-83861790D01*
X139716497Y-83860164D01*
X139716497Y-83776027D01*
X139716507Y-83775831D01*
X139720441Y-83735887D01*
X139720517Y-83735502D01*
X139730378Y-83702993D01*
X139730528Y-83702631D01*
X139746542Y-83672673D01*
X139746760Y-83672347D01*
X139768310Y-83646088D01*
X139768587Y-83645811D01*
X139794846Y-83624261D01*
X139795172Y-83624043D01*
X139825130Y-83608029D01*
X139825492Y-83607879D01*
X139858001Y-83598018D01*
X139858386Y-83597942D01*
X139898330Y-83594008D01*
X139898526Y-83593998D01*
X139982663Y-83593998D01*
X139984395Y-83594998D01*
G37*
G36*
X163479398Y-83595000D02*
G01*
X163479398Y-83597000D01*
X163477862Y-83597990D01*
X163426525Y-83603046D01*
X163377343Y-83617965D01*
X163332019Y-83642191D01*
X163292293Y-83674793D01*
X163259691Y-83714519D01*
X163235465Y-83759843D01*
X163220546Y-83809025D01*
X163215490Y-83860360D01*
X163214325Y-83861986D01*
X163212335Y-83861790D01*
X163211500Y-83860164D01*
X163211500Y-83776029D01*
X163211510Y-83775833D01*
X163215444Y-83735889D01*
X163215520Y-83735504D01*
X163225381Y-83702995D01*
X163225531Y-83702633D01*
X163241545Y-83672675D01*
X163241763Y-83672349D01*
X163263313Y-83646090D01*
X163263590Y-83645813D01*
X163289849Y-83624263D01*
X163290175Y-83624045D01*
X163320133Y-83608031D01*
X163320495Y-83607881D01*
X163353004Y-83598020D01*
X163353389Y-83597944D01*
X163393333Y-83594010D01*
X163393529Y-83594000D01*
X163477666Y-83594000D01*
X163479398Y-83595000D01*
G37*
G36*
X166735667Y-83594010D02*
G01*
X166775611Y-83597944D01*
X166775996Y-83598020D01*
X166808505Y-83607881D01*
X166808867Y-83608031D01*
X166838825Y-83624045D01*
X166839151Y-83624263D01*
X166865410Y-83645813D01*
X166865687Y-83646090D01*
X166887237Y-83672349D01*
X166887455Y-83672675D01*
X166903469Y-83702633D01*
X166903619Y-83702995D01*
X166913480Y-83735504D01*
X166913556Y-83735889D01*
X166917490Y-83775833D01*
X166917500Y-83776029D01*
X166917500Y-83860164D01*
X166916500Y-83861896D01*
X166914500Y-83861896D01*
X166913510Y-83860360D01*
X166908454Y-83809025D01*
X166893535Y-83759843D01*
X166869309Y-83714519D01*
X166836707Y-83674793D01*
X166796981Y-83642191D01*
X166751657Y-83617965D01*
X166702475Y-83603046D01*
X166651138Y-83597990D01*
X166649512Y-83596825D01*
X166649708Y-83594835D01*
X166651334Y-83594000D01*
X166735471Y-83594000D01*
X166735667Y-83594010D01*
G37*
G36*
X143240664Y-83594008D02*
G01*
X143280608Y-83597942D01*
X143280993Y-83598018D01*
X143313502Y-83607879D01*
X143313864Y-83608029D01*
X143343822Y-83624043D01*
X143344148Y-83624261D01*
X143370407Y-83645811D01*
X143370684Y-83646088D01*
X143392234Y-83672347D01*
X143392452Y-83672673D01*
X143408466Y-83702631D01*
X143408616Y-83702993D01*
X143418477Y-83735502D01*
X143418553Y-83735887D01*
X143422487Y-83775831D01*
X143422497Y-83776027D01*
X143422497Y-83860164D01*
X143421497Y-83861896D01*
X143419497Y-83861896D01*
X143418507Y-83860360D01*
X143413451Y-83809023D01*
X143398532Y-83759841D01*
X143374306Y-83714517D01*
X143341704Y-83674791D01*
X143301978Y-83642189D01*
X143256654Y-83617963D01*
X143207472Y-83603044D01*
X143156135Y-83597988D01*
X143154509Y-83596823D01*
X143154705Y-83594833D01*
X143156331Y-83593998D01*
X143240468Y-83593998D01*
X143240664Y-83594008D01*
G37*
G36*
X198859898Y-83218001D02*
G01*
X198859898Y-83220001D01*
X198858362Y-83220991D01*
X198807025Y-83226047D01*
X198757843Y-83240966D01*
X198712519Y-83265192D01*
X198672793Y-83297794D01*
X198640191Y-83337520D01*
X198615965Y-83382844D01*
X198601046Y-83432026D01*
X198595990Y-83483360D01*
X198594825Y-83484986D01*
X198592835Y-83484790D01*
X198592000Y-83483164D01*
X198592000Y-83399030D01*
X198592010Y-83398834D01*
X198595944Y-83358890D01*
X198596020Y-83358505D01*
X198605881Y-83325996D01*
X198606031Y-83325634D01*
X198622045Y-83295676D01*
X198622263Y-83295350D01*
X198643813Y-83269091D01*
X198644090Y-83268814D01*
X198670349Y-83247264D01*
X198670675Y-83247046D01*
X198700633Y-83231032D01*
X198700995Y-83230882D01*
X198733504Y-83221021D01*
X198733889Y-83220945D01*
X198773833Y-83217011D01*
X198774029Y-83217001D01*
X198858166Y-83217001D01*
X198859898Y-83218001D01*
G37*
G36*
X221084897Y-83217998D02*
G01*
X221084897Y-83219998D01*
X221083361Y-83220988D01*
X221032024Y-83226044D01*
X220982842Y-83240963D01*
X220937518Y-83265189D01*
X220897792Y-83297791D01*
X220865190Y-83337517D01*
X220840964Y-83382841D01*
X220826045Y-83432023D01*
X220820989Y-83483360D01*
X220819824Y-83484986D01*
X220817834Y-83484790D01*
X220816999Y-83483164D01*
X220816999Y-83399027D01*
X220817009Y-83398831D01*
X220820943Y-83358887D01*
X220821019Y-83358502D01*
X220830880Y-83325993D01*
X220831030Y-83325631D01*
X220847044Y-83295673D01*
X220847262Y-83295347D01*
X220868812Y-83269088D01*
X220869089Y-83268811D01*
X220895348Y-83247261D01*
X220895674Y-83247043D01*
X220925632Y-83231029D01*
X220925994Y-83230879D01*
X220958503Y-83221018D01*
X220958888Y-83220942D01*
X220998832Y-83217008D01*
X220999028Y-83216998D01*
X221083165Y-83216998D01*
X221084897Y-83217998D01*
G37*
G36*
X222541166Y-83217008D02*
G01*
X222581110Y-83220942D01*
X222581495Y-83221018D01*
X222614004Y-83230879D01*
X222614366Y-83231029D01*
X222644324Y-83247043D01*
X222644650Y-83247261D01*
X222670909Y-83268811D01*
X222671186Y-83269088D01*
X222692736Y-83295347D01*
X222692954Y-83295673D01*
X222708968Y-83325631D01*
X222709118Y-83325993D01*
X222718979Y-83358502D01*
X222719055Y-83358887D01*
X222722989Y-83398831D01*
X222722999Y-83399027D01*
X222722999Y-83483164D01*
X222721999Y-83484896D01*
X222719999Y-83484896D01*
X222719009Y-83483360D01*
X222713953Y-83432023D01*
X222699034Y-83382841D01*
X222674808Y-83337517D01*
X222642206Y-83297791D01*
X222602480Y-83265189D01*
X222557156Y-83240963D01*
X222507974Y-83226044D01*
X222456637Y-83220988D01*
X222455011Y-83219823D01*
X222455207Y-83217833D01*
X222456833Y-83216998D01*
X222540970Y-83216998D01*
X222541166Y-83217008D01*
G37*
G36*
X200316167Y-83217011D02*
G01*
X200356111Y-83220945D01*
X200356496Y-83221021D01*
X200389005Y-83230882D01*
X200389367Y-83231032D01*
X200419325Y-83247046D01*
X200419651Y-83247264D01*
X200445910Y-83268814D01*
X200446187Y-83269091D01*
X200467737Y-83295350D01*
X200467955Y-83295676D01*
X200483969Y-83325634D01*
X200484119Y-83325996D01*
X200493980Y-83358505D01*
X200494056Y-83358890D01*
X200497990Y-83398834D01*
X200498000Y-83399030D01*
X200498000Y-83483164D01*
X200497000Y-83484896D01*
X200495000Y-83484896D01*
X200494010Y-83483360D01*
X200488954Y-83432026D01*
X200474035Y-83382844D01*
X200449809Y-83337520D01*
X200417207Y-83297794D01*
X200377481Y-83265192D01*
X200332157Y-83240966D01*
X200282975Y-83226047D01*
X200231638Y-83220991D01*
X200230012Y-83219826D01*
X200230208Y-83217836D01*
X200231834Y-83217001D01*
X200315971Y-83217001D01*
X200316167Y-83217011D01*
G37*
G36*
X42600990Y-79116638D02*
G01*
X42606046Y-79167975D01*
X42620965Y-79217157D01*
X42645191Y-79262481D01*
X42677793Y-79302207D01*
X42717519Y-79334809D01*
X42762843Y-79359035D01*
X42812025Y-79373954D01*
X42863362Y-79379010D01*
X42864988Y-79380175D01*
X42864792Y-79382165D01*
X42863166Y-79383000D01*
X42779029Y-79383000D01*
X42778833Y-79382990D01*
X42738889Y-79379056D01*
X42738504Y-79378980D01*
X42705995Y-79369119D01*
X42705633Y-79368969D01*
X42675675Y-79352955D01*
X42675349Y-79352737D01*
X42649090Y-79331187D01*
X42648813Y-79330910D01*
X42627263Y-79304651D01*
X42627045Y-79304325D01*
X42611031Y-79274367D01*
X42610881Y-79274005D01*
X42601020Y-79241496D01*
X42600944Y-79241111D01*
X42597010Y-79201167D01*
X42597000Y-79200971D01*
X42597000Y-79116834D01*
X42598000Y-79115102D01*
X42600000Y-79115102D01*
X42600990Y-79116638D01*
G37*
G36*
X46302165Y-79115208D02*
G01*
X46303000Y-79116834D01*
X46303000Y-79200971D01*
X46302990Y-79201167D01*
X46299056Y-79241111D01*
X46298980Y-79241496D01*
X46289119Y-79274005D01*
X46288969Y-79274367D01*
X46272955Y-79304325D01*
X46272737Y-79304651D01*
X46251187Y-79330910D01*
X46250910Y-79331187D01*
X46224651Y-79352737D01*
X46224325Y-79352955D01*
X46194367Y-79368969D01*
X46194005Y-79369119D01*
X46161496Y-79378980D01*
X46161111Y-79379056D01*
X46121167Y-79382990D01*
X46120971Y-79383000D01*
X46036834Y-79383000D01*
X46035102Y-79382000D01*
X46035102Y-79380000D01*
X46036638Y-79379010D01*
X46087975Y-79373954D01*
X46137157Y-79359035D01*
X46182481Y-79334809D01*
X46222207Y-79302207D01*
X46254809Y-79262481D01*
X46279035Y-79217157D01*
X46293954Y-79167975D01*
X46299010Y-79116638D01*
X46300175Y-79115012D01*
X46302165Y-79115208D01*
G37*
G36*
X42864898Y-77478000D02*
G01*
X42864898Y-77480000D01*
X42863362Y-77480990D01*
X42812025Y-77486046D01*
X42762843Y-77500965D01*
X42717519Y-77525191D01*
X42677793Y-77557793D01*
X42645191Y-77597519D01*
X42620965Y-77642843D01*
X42606046Y-77692025D01*
X42600990Y-77743362D01*
X42599825Y-77744988D01*
X42597835Y-77744792D01*
X42597000Y-77743166D01*
X42597000Y-77659029D01*
X42597010Y-77658833D01*
X42600944Y-77618889D01*
X42601020Y-77618504D01*
X42610881Y-77585995D01*
X42611031Y-77585633D01*
X42627045Y-77555675D01*
X42627263Y-77555349D01*
X42648813Y-77529090D01*
X42649090Y-77528813D01*
X42675349Y-77507263D01*
X42675675Y-77507045D01*
X42705633Y-77491031D01*
X42705995Y-77490881D01*
X42738504Y-77481020D01*
X42738889Y-77480944D01*
X42778833Y-77477010D01*
X42779029Y-77477000D01*
X42863166Y-77477000D01*
X42864898Y-77478000D01*
G37*
G36*
X46121167Y-77477010D02*
G01*
X46161111Y-77480944D01*
X46161496Y-77481020D01*
X46194005Y-77490881D01*
X46194367Y-77491031D01*
X46224325Y-77507045D01*
X46224651Y-77507263D01*
X46250910Y-77528813D01*
X46251187Y-77529090D01*
X46272737Y-77555349D01*
X46272955Y-77555675D01*
X46288969Y-77585633D01*
X46289119Y-77585995D01*
X46298980Y-77618504D01*
X46299056Y-77618889D01*
X46302990Y-77658833D01*
X46303000Y-77659029D01*
X46303000Y-77743166D01*
X46302000Y-77744898D01*
X46300000Y-77744898D01*
X46299010Y-77743362D01*
X46293954Y-77692025D01*
X46279035Y-77642843D01*
X46254809Y-77597519D01*
X46222207Y-77557793D01*
X46182481Y-77525191D01*
X46137157Y-77500965D01*
X46087975Y-77486046D01*
X46036638Y-77480990D01*
X46035012Y-77479825D01*
X46035208Y-77477835D01*
X46036834Y-77477000D01*
X46120971Y-77477000D01*
X46121167Y-77477010D01*
G37*
G36*
X164411988Y-75906639D02*
G01*
X164417044Y-75957976D01*
X164431963Y-76007158D01*
X164456189Y-76052482D01*
X164488791Y-76092208D01*
X164528517Y-76124810D01*
X164573841Y-76149036D01*
X164623023Y-76163955D01*
X164674360Y-76169011D01*
X164675986Y-76170176D01*
X164675790Y-76172166D01*
X164674164Y-76173001D01*
X164590027Y-76173001D01*
X164589831Y-76172991D01*
X164549887Y-76169057D01*
X164549502Y-76168981D01*
X164516993Y-76159120D01*
X164516631Y-76158970D01*
X164486673Y-76142956D01*
X164486347Y-76142738D01*
X164460088Y-76121188D01*
X164459811Y-76120911D01*
X164438261Y-76094652D01*
X164438043Y-76094326D01*
X164422029Y-76064368D01*
X164421879Y-76064006D01*
X164412018Y-76031497D01*
X164411942Y-76031112D01*
X164408008Y-75991168D01*
X164407998Y-75990972D01*
X164407998Y-75906835D01*
X164408998Y-75905103D01*
X164410998Y-75905103D01*
X164411988Y-75906639D01*
G37*
G36*
X168113163Y-75905209D02*
G01*
X168113998Y-75906835D01*
X168113998Y-75990972D01*
X168113988Y-75991168D01*
X168110054Y-76031112D01*
X168109978Y-76031497D01*
X168100117Y-76064006D01*
X168099967Y-76064368D01*
X168083953Y-76094326D01*
X168083735Y-76094652D01*
X168062185Y-76120911D01*
X168061908Y-76121188D01*
X168035649Y-76142738D01*
X168035323Y-76142956D01*
X168005365Y-76158970D01*
X168005003Y-76159120D01*
X167972494Y-76168981D01*
X167972109Y-76169057D01*
X167932165Y-76172991D01*
X167931969Y-76173001D01*
X167847832Y-76173001D01*
X167846100Y-76172001D01*
X167846100Y-76170001D01*
X167847636Y-76169011D01*
X167898973Y-76163955D01*
X167948155Y-76149036D01*
X167993479Y-76124810D01*
X168033205Y-76092208D01*
X168065807Y-76052482D01*
X168090033Y-76007158D01*
X168104952Y-75957976D01*
X168110008Y-75906639D01*
X168111173Y-75905013D01*
X168113163Y-75905209D01*
G37*
G36*
X164675896Y-74268001D02*
G01*
X164675896Y-74270001D01*
X164674360Y-74270991D01*
X164623023Y-74276047D01*
X164573841Y-74290966D01*
X164528517Y-74315192D01*
X164488791Y-74347794D01*
X164456189Y-74387520D01*
X164431963Y-74432844D01*
X164417044Y-74482026D01*
X164411988Y-74533363D01*
X164410823Y-74534989D01*
X164408833Y-74534793D01*
X164407998Y-74533167D01*
X164407998Y-74449030D01*
X164408008Y-74448834D01*
X164411942Y-74408890D01*
X164412018Y-74408505D01*
X164421879Y-74375996D01*
X164422029Y-74375634D01*
X164438043Y-74345676D01*
X164438261Y-74345350D01*
X164459811Y-74319091D01*
X164460088Y-74318814D01*
X164486347Y-74297264D01*
X164486673Y-74297046D01*
X164516631Y-74281032D01*
X164516993Y-74280882D01*
X164549502Y-74271021D01*
X164549887Y-74270945D01*
X164589831Y-74267011D01*
X164590027Y-74267001D01*
X164674164Y-74267001D01*
X164675896Y-74268001D01*
G37*
G36*
X167932165Y-74267011D02*
G01*
X167972109Y-74270945D01*
X167972494Y-74271021D01*
X168005003Y-74280882D01*
X168005365Y-74281032D01*
X168035323Y-74297046D01*
X168035649Y-74297264D01*
X168061908Y-74318814D01*
X168062185Y-74319091D01*
X168083735Y-74345350D01*
X168083953Y-74345676D01*
X168099967Y-74375634D01*
X168100117Y-74375996D01*
X168109978Y-74408505D01*
X168110054Y-74408890D01*
X168113988Y-74448834D01*
X168113998Y-74449030D01*
X168113998Y-74533167D01*
X168112998Y-74534899D01*
X168110998Y-74534899D01*
X168110008Y-74533363D01*
X168104952Y-74482026D01*
X168090033Y-74432844D01*
X168065807Y-74387520D01*
X168033205Y-74347794D01*
X167993479Y-74315192D01*
X167948155Y-74290966D01*
X167898973Y-74276047D01*
X167847636Y-74270991D01*
X167846010Y-74269826D01*
X167846206Y-74267836D01*
X167847832Y-74267001D01*
X167931969Y-74267001D01*
X167932165Y-74267011D01*
G37*
G36*
X139675164Y-68595211D02*
G01*
X139675999Y-68596837D01*
X139675999Y-68680974D01*
X139675989Y-68681170D01*
X139672055Y-68721114D01*
X139671979Y-68721499D01*
X139662118Y-68754008D01*
X139661968Y-68754370D01*
X139645954Y-68784328D01*
X139645736Y-68784654D01*
X139624186Y-68810913D01*
X139623909Y-68811190D01*
X139597650Y-68832740D01*
X139597324Y-68832958D01*
X139567366Y-68848972D01*
X139567004Y-68849122D01*
X139534495Y-68858983D01*
X139534110Y-68859059D01*
X139494166Y-68862993D01*
X139493970Y-68863003D01*
X139409833Y-68863003D01*
X139408101Y-68862003D01*
X139408101Y-68860003D01*
X139409637Y-68859013D01*
X139460974Y-68853957D01*
X139510156Y-68839038D01*
X139555480Y-68814812D01*
X139595206Y-68782210D01*
X139627808Y-68742484D01*
X139652034Y-68697160D01*
X139666953Y-68647978D01*
X139672009Y-68596641D01*
X139673174Y-68595015D01*
X139675164Y-68595211D01*
G37*
G36*
X135973989Y-68596641D02*
G01*
X135979045Y-68647978D01*
X135993964Y-68697160D01*
X136018190Y-68742484D01*
X136050792Y-68782210D01*
X136090518Y-68814812D01*
X136135842Y-68839038D01*
X136185024Y-68853957D01*
X136236361Y-68859013D01*
X136237987Y-68860178D01*
X136237791Y-68862168D01*
X136236165Y-68863003D01*
X136152028Y-68863003D01*
X136151832Y-68862993D01*
X136111888Y-68859059D01*
X136111503Y-68858983D01*
X136078994Y-68849122D01*
X136078632Y-68848972D01*
X136048674Y-68832958D01*
X136048348Y-68832740D01*
X136022089Y-68811190D01*
X136021812Y-68810913D01*
X136000262Y-68784654D01*
X136000044Y-68784328D01*
X135984030Y-68754370D01*
X135983880Y-68754008D01*
X135974019Y-68721499D01*
X135973943Y-68721114D01*
X135970009Y-68681170D01*
X135969999Y-68680974D01*
X135969999Y-68596837D01*
X135970999Y-68595105D01*
X135972999Y-68595105D01*
X135973989Y-68596641D01*
G37*
G36*
X136237897Y-66958003D02*
G01*
X136237897Y-66960003D01*
X136236361Y-66960993D01*
X136185024Y-66966049D01*
X136135842Y-66980968D01*
X136090518Y-67005194D01*
X136050792Y-67037796D01*
X136018190Y-67077522D01*
X135993964Y-67122846D01*
X135979045Y-67172028D01*
X135973989Y-67223365D01*
X135972824Y-67224991D01*
X135970834Y-67224795D01*
X135969999Y-67223169D01*
X135969999Y-67139032D01*
X135970009Y-67138836D01*
X135973943Y-67098892D01*
X135974019Y-67098507D01*
X135983880Y-67065998D01*
X135984030Y-67065636D01*
X136000044Y-67035678D01*
X136000262Y-67035352D01*
X136021812Y-67009093D01*
X136022089Y-67008816D01*
X136048348Y-66987266D01*
X136048674Y-66987048D01*
X136078632Y-66971034D01*
X136078994Y-66970884D01*
X136111503Y-66961023D01*
X136111888Y-66960947D01*
X136151832Y-66957013D01*
X136152028Y-66957003D01*
X136236165Y-66957003D01*
X136237897Y-66958003D01*
G37*
G36*
X139494166Y-66957013D02*
G01*
X139534110Y-66960947D01*
X139534495Y-66961023D01*
X139567004Y-66970884D01*
X139567366Y-66971034D01*
X139597324Y-66987048D01*
X139597650Y-66987266D01*
X139623909Y-67008816D01*
X139624186Y-67009093D01*
X139645736Y-67035352D01*
X139645954Y-67035678D01*
X139661968Y-67065636D01*
X139662118Y-67065998D01*
X139671979Y-67098507D01*
X139672055Y-67098892D01*
X139675989Y-67138836D01*
X139675999Y-67139032D01*
X139675999Y-67223169D01*
X139674999Y-67224901D01*
X139672999Y-67224901D01*
X139672009Y-67223365D01*
X139666953Y-67172028D01*
X139652034Y-67122846D01*
X139627808Y-67077522D01*
X139595206Y-67037796D01*
X139555480Y-67005194D01*
X139510156Y-66980968D01*
X139460974Y-66966049D01*
X139409637Y-66960993D01*
X139408011Y-66959828D01*
X139408207Y-66957838D01*
X139409833Y-66957003D01*
X139493970Y-66957003D01*
X139494166Y-66957013D01*
G37*
G36*
X164411991Y-66381637D02*
G01*
X164417047Y-66432974D01*
X164431966Y-66482156D01*
X164456192Y-66527480D01*
X164488794Y-66567206D01*
X164528520Y-66599808D01*
X164573844Y-66624034D01*
X164623026Y-66638953D01*
X164674363Y-66644009D01*
X164675989Y-66645174D01*
X164675793Y-66647164D01*
X164674167Y-66647999D01*
X164590030Y-66647999D01*
X164589834Y-66647989D01*
X164549890Y-66644055D01*
X164549505Y-66643979D01*
X164516996Y-66634118D01*
X164516634Y-66633968D01*
X164486676Y-66617954D01*
X164486350Y-66617736D01*
X164460091Y-66596186D01*
X164459814Y-66595909D01*
X164438264Y-66569650D01*
X164438046Y-66569324D01*
X164422032Y-66539366D01*
X164421882Y-66539004D01*
X164412021Y-66506495D01*
X164411945Y-66506110D01*
X164408011Y-66466166D01*
X164408001Y-66465970D01*
X164408001Y-66381833D01*
X164409001Y-66380101D01*
X164411001Y-66380101D01*
X164411991Y-66381637D01*
G37*
G36*
X168113166Y-66380207D02*
G01*
X168114001Y-66381833D01*
X168114001Y-66465970D01*
X168113991Y-66466166D01*
X168110057Y-66506110D01*
X168109981Y-66506495D01*
X168100120Y-66539004D01*
X168099970Y-66539366D01*
X168083956Y-66569324D01*
X168083738Y-66569650D01*
X168062188Y-66595909D01*
X168061911Y-66596186D01*
X168035652Y-66617736D01*
X168035326Y-66617954D01*
X168005368Y-66633968D01*
X168005006Y-66634118D01*
X167972497Y-66643979D01*
X167972112Y-66644055D01*
X167932168Y-66647989D01*
X167931972Y-66647999D01*
X167847835Y-66647999D01*
X167846103Y-66646999D01*
X167846103Y-66644999D01*
X167847639Y-66644009D01*
X167898976Y-66638953D01*
X167948158Y-66624034D01*
X167993482Y-66599808D01*
X168033208Y-66567206D01*
X168065810Y-66527480D01*
X168090036Y-66482156D01*
X168104955Y-66432974D01*
X168110011Y-66381637D01*
X168111176Y-66380011D01*
X168113166Y-66380207D01*
G37*
G36*
X164675899Y-64742999D02*
G01*
X164675899Y-64744999D01*
X164674363Y-64745989D01*
X164623026Y-64751045D01*
X164573844Y-64765964D01*
X164528520Y-64790190D01*
X164488794Y-64822792D01*
X164456192Y-64862518D01*
X164431966Y-64907842D01*
X164417047Y-64957024D01*
X164411991Y-65008361D01*
X164410826Y-65009987D01*
X164408836Y-65009791D01*
X164408001Y-65008165D01*
X164408001Y-64924028D01*
X164408011Y-64923832D01*
X164411945Y-64883888D01*
X164412021Y-64883503D01*
X164421882Y-64850994D01*
X164422032Y-64850632D01*
X164438046Y-64820674D01*
X164438264Y-64820348D01*
X164459814Y-64794089D01*
X164460091Y-64793812D01*
X164486350Y-64772262D01*
X164486676Y-64772044D01*
X164516634Y-64756030D01*
X164516996Y-64755880D01*
X164549505Y-64746019D01*
X164549890Y-64745943D01*
X164589834Y-64742009D01*
X164590030Y-64741999D01*
X164674167Y-64741999D01*
X164675899Y-64742999D01*
G37*
G36*
X167932168Y-64742009D02*
G01*
X167972112Y-64745943D01*
X167972497Y-64746019D01*
X168005006Y-64755880D01*
X168005368Y-64756030D01*
X168035326Y-64772044D01*
X168035652Y-64772262D01*
X168061911Y-64793812D01*
X168062188Y-64794089D01*
X168083738Y-64820348D01*
X168083956Y-64820674D01*
X168099970Y-64850632D01*
X168100120Y-64850994D01*
X168109981Y-64883503D01*
X168110057Y-64883888D01*
X168113991Y-64923832D01*
X168114001Y-64924028D01*
X168114001Y-65008165D01*
X168113001Y-65009897D01*
X168111001Y-65009897D01*
X168110011Y-65008361D01*
X168104955Y-64957024D01*
X168090036Y-64907842D01*
X168065810Y-64862518D01*
X168033208Y-64822792D01*
X167993482Y-64790190D01*
X167948158Y-64765964D01*
X167898976Y-64751045D01*
X167847639Y-64745989D01*
X167846013Y-64744824D01*
X167846209Y-64742834D01*
X167847835Y-64741999D01*
X167931972Y-64741999D01*
X167932168Y-64742009D01*
G37*
G36*
X168123166Y-56799209D02*
G01*
X168124001Y-56800835D01*
X168124001Y-56884972D01*
X168123991Y-56885168D01*
X168120057Y-56925112D01*
X168119981Y-56925497D01*
X168110120Y-56958006D01*
X168109970Y-56958368D01*
X168093956Y-56988326D01*
X168093738Y-56988652D01*
X168072188Y-57014911D01*
X168071911Y-57015188D01*
X168045652Y-57036738D01*
X168045326Y-57036956D01*
X168015368Y-57052970D01*
X168015006Y-57053120D01*
X167982497Y-57062981D01*
X167982112Y-57063057D01*
X167942168Y-57066991D01*
X167941972Y-57067001D01*
X167857835Y-57067001D01*
X167856103Y-57066001D01*
X167856103Y-57064001D01*
X167857639Y-57063011D01*
X167908976Y-57057955D01*
X167958158Y-57043036D01*
X168003482Y-57018810D01*
X168043208Y-56986208D01*
X168075810Y-56946482D01*
X168100036Y-56901158D01*
X168114955Y-56851976D01*
X168120011Y-56800639D01*
X168121176Y-56799013D01*
X168123166Y-56799209D01*
G37*
G36*
X164421991Y-56800639D02*
G01*
X164427047Y-56851976D01*
X164441966Y-56901158D01*
X164466192Y-56946482D01*
X164498794Y-56986208D01*
X164538520Y-57018810D01*
X164583844Y-57043036D01*
X164633026Y-57057955D01*
X164684363Y-57063011D01*
X164685989Y-57064176D01*
X164685793Y-57066166D01*
X164684167Y-57067001D01*
X164600030Y-57067001D01*
X164599834Y-57066991D01*
X164559890Y-57063057D01*
X164559505Y-57062981D01*
X164526996Y-57053120D01*
X164526634Y-57052970D01*
X164496676Y-57036956D01*
X164496350Y-57036738D01*
X164470091Y-57015188D01*
X164469814Y-57014911D01*
X164448264Y-56988652D01*
X164448046Y-56988326D01*
X164432032Y-56958368D01*
X164431882Y-56958006D01*
X164422021Y-56925497D01*
X164421945Y-56925112D01*
X164418011Y-56885168D01*
X164418001Y-56884972D01*
X164418001Y-56800835D01*
X164419001Y-56799103D01*
X164421001Y-56799103D01*
X164421991Y-56800639D01*
G37*
G36*
X164685899Y-55162001D02*
G01*
X164685899Y-55164001D01*
X164684363Y-55164991D01*
X164633026Y-55170047D01*
X164583844Y-55184966D01*
X164538520Y-55209192D01*
X164498794Y-55241794D01*
X164466192Y-55281520D01*
X164441966Y-55326844D01*
X164427047Y-55376026D01*
X164421991Y-55427363D01*
X164420826Y-55428989D01*
X164418836Y-55428793D01*
X164418001Y-55427167D01*
X164418001Y-55343030D01*
X164418011Y-55342834D01*
X164421945Y-55302890D01*
X164422021Y-55302505D01*
X164431882Y-55269996D01*
X164432032Y-55269634D01*
X164448046Y-55239676D01*
X164448264Y-55239350D01*
X164469814Y-55213091D01*
X164470091Y-55212814D01*
X164496350Y-55191264D01*
X164496676Y-55191046D01*
X164526634Y-55175032D01*
X164526996Y-55174882D01*
X164559505Y-55165021D01*
X164559890Y-55164945D01*
X164599834Y-55161011D01*
X164600030Y-55161001D01*
X164684167Y-55161001D01*
X164685899Y-55162001D01*
G37*
G36*
X167942168Y-55161011D02*
G01*
X167982112Y-55164945D01*
X167982497Y-55165021D01*
X168015006Y-55174882D01*
X168015368Y-55175032D01*
X168045326Y-55191046D01*
X168045652Y-55191264D01*
X168071911Y-55212814D01*
X168072188Y-55213091D01*
X168093738Y-55239350D01*
X168093956Y-55239676D01*
X168109970Y-55269634D01*
X168110120Y-55269996D01*
X168119981Y-55302505D01*
X168120057Y-55302890D01*
X168123991Y-55342834D01*
X168124001Y-55343030D01*
X168124001Y-55427167D01*
X168123001Y-55428899D01*
X168121001Y-55428899D01*
X168120011Y-55427363D01*
X168114955Y-55376026D01*
X168100036Y-55326844D01*
X168075810Y-55281520D01*
X168043208Y-55241794D01*
X168003482Y-55209192D01*
X167958158Y-55184966D01*
X167908976Y-55170047D01*
X167857639Y-55164991D01*
X167856013Y-55163826D01*
X167856209Y-55161836D01*
X167857835Y-55161001D01*
X167941972Y-55161001D01*
X167942168Y-55161011D01*
G37*
G36*
X220820988Y-54906640D02*
G01*
X220826044Y-54957977D01*
X220840963Y-55007159D01*
X220865189Y-55052483D01*
X220897791Y-55092209D01*
X220937517Y-55124811D01*
X220982841Y-55149037D01*
X221032023Y-55163956D01*
X221083360Y-55169012D01*
X221084986Y-55170177D01*
X221084790Y-55172167D01*
X221083164Y-55173002D01*
X220999027Y-55173002D01*
X220998831Y-55172992D01*
X220958887Y-55169058D01*
X220958502Y-55168982D01*
X220925993Y-55159121D01*
X220925631Y-55158971D01*
X220895673Y-55142957D01*
X220895347Y-55142739D01*
X220869088Y-55121189D01*
X220868811Y-55120912D01*
X220847261Y-55094653D01*
X220847043Y-55094327D01*
X220831029Y-55064369D01*
X220830879Y-55064007D01*
X220821018Y-55031498D01*
X220820942Y-55031113D01*
X220817008Y-54991169D01*
X220816998Y-54990973D01*
X220816998Y-54906836D01*
X220817998Y-54905104D01*
X220819998Y-54905104D01*
X220820988Y-54906640D01*
G37*
G36*
X222722163Y-54905210D02*
G01*
X222722998Y-54906836D01*
X222722998Y-54990973D01*
X222722988Y-54991169D01*
X222719054Y-55031113D01*
X222718978Y-55031498D01*
X222709117Y-55064007D01*
X222708967Y-55064369D01*
X222692953Y-55094327D01*
X222692735Y-55094653D01*
X222671185Y-55120912D01*
X222670908Y-55121189D01*
X222644649Y-55142739D01*
X222644323Y-55142957D01*
X222614365Y-55158971D01*
X222614003Y-55159121D01*
X222581494Y-55168982D01*
X222581109Y-55169058D01*
X222541165Y-55172992D01*
X222540969Y-55173002D01*
X222456832Y-55173002D01*
X222455100Y-55172002D01*
X222455100Y-55170002D01*
X222456636Y-55169012D01*
X222507973Y-55163956D01*
X222557155Y-55149037D01*
X222602479Y-55124811D01*
X222642205Y-55092209D01*
X222674807Y-55052483D01*
X222699033Y-55007159D01*
X222713952Y-54957977D01*
X222719008Y-54906640D01*
X222720173Y-54905014D01*
X222722163Y-54905210D01*
G37*
G36*
X200497165Y-54905210D02*
G01*
X200498000Y-54906836D01*
X200498000Y-54990971D01*
X200497990Y-54991167D01*
X200494056Y-55031111D01*
X200493980Y-55031496D01*
X200484119Y-55064005D01*
X200483969Y-55064367D01*
X200467955Y-55094325D01*
X200467737Y-55094651D01*
X200446187Y-55120910D01*
X200445910Y-55121187D01*
X200419651Y-55142737D01*
X200419325Y-55142955D01*
X200389367Y-55158969D01*
X200389005Y-55159119D01*
X200356496Y-55168980D01*
X200356111Y-55169056D01*
X200316167Y-55172990D01*
X200315971Y-55173000D01*
X200231834Y-55173000D01*
X200230102Y-55172000D01*
X200230102Y-55170000D01*
X200231638Y-55169010D01*
X200282975Y-55163954D01*
X200332157Y-55149035D01*
X200377481Y-55124809D01*
X200417207Y-55092207D01*
X200449809Y-55052481D01*
X200474035Y-55007157D01*
X200488954Y-54957975D01*
X200494010Y-54906640D01*
X200495175Y-54905014D01*
X200497165Y-54905210D01*
G37*
G36*
X198595990Y-54906640D02*
G01*
X198601046Y-54957975D01*
X198615965Y-55007157D01*
X198640191Y-55052481D01*
X198672793Y-55092207D01*
X198712519Y-55124809D01*
X198757843Y-55149035D01*
X198807025Y-55163954D01*
X198858362Y-55169010D01*
X198859988Y-55170175D01*
X198859792Y-55172165D01*
X198858166Y-55173000D01*
X198774029Y-55173000D01*
X198773833Y-55172990D01*
X198733889Y-55169056D01*
X198733504Y-55168980D01*
X198700995Y-55159119D01*
X198700633Y-55158969D01*
X198670675Y-55142955D01*
X198670349Y-55142737D01*
X198644090Y-55121187D01*
X198643813Y-55120910D01*
X198622263Y-55094651D01*
X198622045Y-55094325D01*
X198606031Y-55064367D01*
X198605881Y-55064005D01*
X198596020Y-55031496D01*
X198595944Y-55031111D01*
X198592010Y-54991167D01*
X198592000Y-54990971D01*
X198592000Y-54906836D01*
X198593000Y-54905104D01*
X198595000Y-54905104D01*
X198595990Y-54906640D01*
G37*
G36*
X198859898Y-51468000D02*
G01*
X198859898Y-51470000D01*
X198858362Y-51470990D01*
X198807025Y-51476046D01*
X198757843Y-51490965D01*
X198712519Y-51515191D01*
X198672793Y-51547793D01*
X198640191Y-51587519D01*
X198615965Y-51632843D01*
X198601046Y-51682025D01*
X198595990Y-51733362D01*
X198594825Y-51734988D01*
X198592835Y-51734792D01*
X198592000Y-51733166D01*
X198592000Y-51649029D01*
X198592010Y-51648833D01*
X198595944Y-51608889D01*
X198596020Y-51608504D01*
X198605881Y-51575995D01*
X198606031Y-51575633D01*
X198622045Y-51545675D01*
X198622263Y-51545349D01*
X198643813Y-51519090D01*
X198644090Y-51518813D01*
X198670349Y-51497263D01*
X198670675Y-51497045D01*
X198700633Y-51481031D01*
X198700995Y-51480881D01*
X198733504Y-51471020D01*
X198733889Y-51470944D01*
X198773833Y-51467010D01*
X198774029Y-51467000D01*
X198858166Y-51467000D01*
X198859898Y-51468000D01*
G37*
G36*
X221084896Y-51468002D02*
G01*
X221084896Y-51470002D01*
X221083360Y-51470992D01*
X221032023Y-51476048D01*
X220982841Y-51490967D01*
X220937517Y-51515193D01*
X220897791Y-51547795D01*
X220865189Y-51587521D01*
X220840963Y-51632845D01*
X220826044Y-51682027D01*
X220820988Y-51733362D01*
X220819823Y-51734988D01*
X220817833Y-51734792D01*
X220816998Y-51733166D01*
X220816998Y-51649031D01*
X220817008Y-51648835D01*
X220820942Y-51608891D01*
X220821018Y-51608506D01*
X220830879Y-51575997D01*
X220831029Y-51575635D01*
X220847043Y-51545677D01*
X220847261Y-51545351D01*
X220868811Y-51519092D01*
X220869088Y-51518815D01*
X220895347Y-51497265D01*
X220895673Y-51497047D01*
X220925631Y-51481033D01*
X220925993Y-51480883D01*
X220958502Y-51471022D01*
X220958887Y-51470946D01*
X220998831Y-51467012D01*
X220999027Y-51467002D01*
X221083164Y-51467002D01*
X221084896Y-51468002D01*
G37*
G36*
X222541165Y-51467012D02*
G01*
X222581109Y-51470946D01*
X222581494Y-51471022D01*
X222614003Y-51480883D01*
X222614365Y-51481033D01*
X222644323Y-51497047D01*
X222644649Y-51497265D01*
X222670908Y-51518815D01*
X222671185Y-51519092D01*
X222692735Y-51545351D01*
X222692953Y-51545677D01*
X222708967Y-51575635D01*
X222709117Y-51575997D01*
X222718978Y-51608506D01*
X222719054Y-51608891D01*
X222722988Y-51648835D01*
X222722998Y-51649031D01*
X222722998Y-51733166D01*
X222721998Y-51734898D01*
X222719998Y-51734898D01*
X222719008Y-51733362D01*
X222713952Y-51682027D01*
X222699033Y-51632845D01*
X222674807Y-51587521D01*
X222642205Y-51547795D01*
X222602479Y-51515193D01*
X222557155Y-51490967D01*
X222507973Y-51476048D01*
X222456636Y-51470992D01*
X222455010Y-51469827D01*
X222455206Y-51467837D01*
X222456832Y-51467002D01*
X222540969Y-51467002D01*
X222541165Y-51467012D01*
G37*
G36*
X200316167Y-51467010D02*
G01*
X200356111Y-51470944D01*
X200356496Y-51471020D01*
X200389005Y-51480881D01*
X200389367Y-51481031D01*
X200419325Y-51497045D01*
X200419651Y-51497263D01*
X200445910Y-51518813D01*
X200446187Y-51519090D01*
X200467737Y-51545349D01*
X200467955Y-51545675D01*
X200483969Y-51575633D01*
X200484119Y-51575995D01*
X200493980Y-51608504D01*
X200494056Y-51608889D01*
X200497990Y-51648833D01*
X200498000Y-51649029D01*
X200498000Y-51733166D01*
X200497000Y-51734898D01*
X200495000Y-51734898D01*
X200494010Y-51733362D01*
X200488954Y-51682025D01*
X200474035Y-51632843D01*
X200449809Y-51587519D01*
X200417207Y-51547793D01*
X200377481Y-51515191D01*
X200332157Y-51490965D01*
X200282975Y-51476046D01*
X200231638Y-51470990D01*
X200230012Y-51469825D01*
X200230208Y-51467835D01*
X200231834Y-51467000D01*
X200315971Y-51467000D01*
X200316167Y-51467010D01*
G37*
G36*
X127102165Y-47965210D02*
G01*
X127103000Y-47966836D01*
X127103000Y-48050973D01*
X127102990Y-48051169D01*
X127099056Y-48091113D01*
X127098980Y-48091498D01*
X127089119Y-48124007D01*
X127088969Y-48124369D01*
X127072955Y-48154327D01*
X127072737Y-48154653D01*
X127051187Y-48180912D01*
X127050910Y-48181189D01*
X127024651Y-48202739D01*
X127024325Y-48202957D01*
X126994367Y-48218971D01*
X126994005Y-48219121D01*
X126961496Y-48228982D01*
X126961111Y-48229058D01*
X126921167Y-48232992D01*
X126920971Y-48233002D01*
X126836834Y-48233002D01*
X126835102Y-48232002D01*
X126835102Y-48230002D01*
X126836638Y-48229012D01*
X126887975Y-48223956D01*
X126937157Y-48209037D01*
X126982481Y-48184811D01*
X127022207Y-48152209D01*
X127054809Y-48112483D01*
X127079035Y-48067159D01*
X127093954Y-48017977D01*
X127099010Y-47966640D01*
X127100175Y-47965014D01*
X127102165Y-47965210D01*
G37*
G36*
X123400990Y-47966640D02*
G01*
X123406046Y-48017977D01*
X123420965Y-48067159D01*
X123445191Y-48112483D01*
X123477793Y-48152209D01*
X123517519Y-48184811D01*
X123562843Y-48209037D01*
X123612025Y-48223956D01*
X123663362Y-48229012D01*
X123664988Y-48230177D01*
X123664792Y-48232167D01*
X123663166Y-48233002D01*
X123579029Y-48233002D01*
X123578833Y-48232992D01*
X123538889Y-48229058D01*
X123538504Y-48228982D01*
X123505995Y-48219121D01*
X123505633Y-48218971D01*
X123475675Y-48202957D01*
X123475349Y-48202739D01*
X123449090Y-48181189D01*
X123448813Y-48180912D01*
X123427263Y-48154653D01*
X123427045Y-48154327D01*
X123411031Y-48124369D01*
X123410881Y-48124007D01*
X123401020Y-48091498D01*
X123400944Y-48091113D01*
X123397010Y-48051169D01*
X123397000Y-48050973D01*
X123397000Y-47966836D01*
X123398000Y-47965104D01*
X123400000Y-47965104D01*
X123400990Y-47966640D01*
G37*
G36*
X171975990Y-46970804D02*
G01*
X171981062Y-47022304D01*
X171996029Y-47071642D01*
X172020332Y-47117110D01*
X172053038Y-47156962D01*
X172092890Y-47189668D01*
X172138358Y-47213971D01*
X172187696Y-47228938D01*
X172239196Y-47234010D01*
X172240822Y-47235175D01*
X172240626Y-47237165D01*
X172239000Y-47238000D01*
X172156903Y-47238000D01*
X172156707Y-47237990D01*
X172116204Y-47234001D01*
X172115819Y-47233925D01*
X172082767Y-47223899D01*
X172082405Y-47223749D01*
X172051954Y-47207472D01*
X172051628Y-47207254D01*
X172024932Y-47185345D01*
X172024655Y-47185068D01*
X172002746Y-47158372D01*
X172002528Y-47158046D01*
X171986251Y-47127595D01*
X171986101Y-47127233D01*
X171976075Y-47094181D01*
X171975999Y-47093796D01*
X171972010Y-47053293D01*
X171972000Y-47053097D01*
X171972000Y-46971000D01*
X171973000Y-46969268D01*
X171975000Y-46969268D01*
X171975990Y-46970804D01*
G37*
G36*
X173777165Y-46969374D02*
G01*
X173778000Y-46971000D01*
X173778000Y-47053097D01*
X173777990Y-47053293D01*
X173774001Y-47093796D01*
X173773925Y-47094181D01*
X173763899Y-47127233D01*
X173763749Y-47127595D01*
X173747472Y-47158046D01*
X173747254Y-47158372D01*
X173725345Y-47185068D01*
X173725068Y-47185345D01*
X173698372Y-47207254D01*
X173698046Y-47207472D01*
X173667595Y-47223749D01*
X173667233Y-47223899D01*
X173634181Y-47233925D01*
X173633796Y-47234001D01*
X173593293Y-47237990D01*
X173593097Y-47238000D01*
X173511000Y-47238000D01*
X173509268Y-47237000D01*
X173509268Y-47235000D01*
X173510804Y-47234010D01*
X173562304Y-47228938D01*
X173611642Y-47213971D01*
X173657110Y-47189668D01*
X173696962Y-47156962D01*
X173729668Y-47117110D01*
X173753971Y-47071642D01*
X173768938Y-47022304D01*
X173774010Y-46970804D01*
X173775175Y-46969178D01*
X173777165Y-46969374D01*
G37*
G36*
X123664898Y-46328002D02*
G01*
X123664898Y-46330002D01*
X123663362Y-46330992D01*
X123612025Y-46336048D01*
X123562843Y-46350967D01*
X123517519Y-46375193D01*
X123477793Y-46407795D01*
X123445191Y-46447521D01*
X123420965Y-46492845D01*
X123406046Y-46542027D01*
X123400990Y-46593364D01*
X123399825Y-46594990D01*
X123397835Y-46594794D01*
X123397000Y-46593168D01*
X123397000Y-46509031D01*
X123397010Y-46508835D01*
X123400944Y-46468891D01*
X123401020Y-46468506D01*
X123410881Y-46435997D01*
X123411031Y-46435635D01*
X123427045Y-46405677D01*
X123427263Y-46405351D01*
X123448813Y-46379092D01*
X123449090Y-46378815D01*
X123475349Y-46357265D01*
X123475675Y-46357047D01*
X123505633Y-46341033D01*
X123505995Y-46340883D01*
X123538504Y-46331022D01*
X123538889Y-46330946D01*
X123578833Y-46327012D01*
X123579029Y-46327002D01*
X123663166Y-46327002D01*
X123664898Y-46328002D01*
G37*
G36*
X126921167Y-46327012D02*
G01*
X126961111Y-46330946D01*
X126961496Y-46331022D01*
X126994005Y-46340883D01*
X126994367Y-46341033D01*
X127024325Y-46357047D01*
X127024651Y-46357265D01*
X127050910Y-46378815D01*
X127051187Y-46379092D01*
X127072737Y-46405351D01*
X127072955Y-46405677D01*
X127088969Y-46435635D01*
X127089119Y-46435997D01*
X127098980Y-46468506D01*
X127099056Y-46468891D01*
X127102990Y-46508835D01*
X127103000Y-46509031D01*
X127103000Y-46593168D01*
X127102000Y-46594900D01*
X127100000Y-46594900D01*
X127099010Y-46593364D01*
X127093954Y-46542027D01*
X127079035Y-46492845D01*
X127054809Y-46447521D01*
X127022207Y-46407795D01*
X126982481Y-46375193D01*
X126937157Y-46350967D01*
X126887975Y-46336048D01*
X126836638Y-46330992D01*
X126835012Y-46329827D01*
X126835208Y-46327837D01*
X126836834Y-46327002D01*
X126920971Y-46327002D01*
X126921167Y-46327012D01*
G37*
G36*
X172240732Y-45433000D02*
G01*
X172240732Y-45435000D01*
X172239196Y-45435990D01*
X172187696Y-45441062D01*
X172138358Y-45456029D01*
X172092890Y-45480332D01*
X172053038Y-45513038D01*
X172020332Y-45552890D01*
X171996029Y-45598358D01*
X171981062Y-45647696D01*
X171975990Y-45699196D01*
X171974825Y-45700822D01*
X171972835Y-45700626D01*
X171972000Y-45699000D01*
X171972000Y-45616903D01*
X171972010Y-45616707D01*
X171975999Y-45576204D01*
X171976075Y-45575819D01*
X171986101Y-45542767D01*
X171986251Y-45542405D01*
X172002528Y-45511954D01*
X172002746Y-45511628D01*
X172024655Y-45484932D01*
X172024932Y-45484655D01*
X172051628Y-45462746D01*
X172051954Y-45462528D01*
X172082405Y-45446251D01*
X172082767Y-45446101D01*
X172115819Y-45436075D01*
X172116204Y-45435999D01*
X172156707Y-45432010D01*
X172156903Y-45432000D01*
X172239000Y-45432000D01*
X172240732Y-45433000D01*
G37*
G36*
X173593293Y-45432010D02*
G01*
X173633796Y-45435999D01*
X173634181Y-45436075D01*
X173667233Y-45446101D01*
X173667595Y-45446251D01*
X173698046Y-45462528D01*
X173698372Y-45462746D01*
X173725068Y-45484655D01*
X173725345Y-45484932D01*
X173747254Y-45511628D01*
X173747472Y-45511954D01*
X173763749Y-45542405D01*
X173763899Y-45542767D01*
X173773925Y-45575819D01*
X173774001Y-45576204D01*
X173777990Y-45616707D01*
X173778000Y-45616903D01*
X173778000Y-45699000D01*
X173777000Y-45700732D01*
X173775000Y-45700732D01*
X173774010Y-45699196D01*
X173768938Y-45647696D01*
X173753971Y-45598358D01*
X173729668Y-45552890D01*
X173696962Y-45513038D01*
X173657110Y-45480332D01*
X173611642Y-45456029D01*
X173562304Y-45441062D01*
X173510804Y-45435990D01*
X173509178Y-45434825D01*
X173509374Y-45432835D01*
X173511000Y-45432000D01*
X173593097Y-45432000D01*
X173593293Y-45432010D01*
G37*
G36*
X150997165Y-34394374D02*
G01*
X150998000Y-34396000D01*
X150998000Y-34478097D01*
X150997990Y-34478293D01*
X150994001Y-34518796D01*
X150993925Y-34519181D01*
X150983899Y-34552233D01*
X150983749Y-34552595D01*
X150967472Y-34583046D01*
X150967254Y-34583372D01*
X150945345Y-34610068D01*
X150945068Y-34610345D01*
X150918372Y-34632254D01*
X150918046Y-34632472D01*
X150887595Y-34648749D01*
X150887233Y-34648899D01*
X150854181Y-34658925D01*
X150853796Y-34659001D01*
X150813293Y-34662990D01*
X150813097Y-34663000D01*
X150731000Y-34663000D01*
X150729268Y-34662000D01*
X150729268Y-34660000D01*
X150730804Y-34659010D01*
X150782304Y-34653938D01*
X150831642Y-34638971D01*
X150877110Y-34614668D01*
X150916962Y-34581962D01*
X150949668Y-34542110D01*
X150973971Y-34496642D01*
X150988938Y-34447304D01*
X150994010Y-34395804D01*
X150995175Y-34394178D01*
X150997165Y-34394374D01*
G37*
G36*
X149195990Y-34395804D02*
G01*
X149201062Y-34447304D01*
X149216029Y-34496642D01*
X149240332Y-34542110D01*
X149273038Y-34581962D01*
X149312890Y-34614668D01*
X149358358Y-34638971D01*
X149407696Y-34653938D01*
X149459196Y-34659010D01*
X149460822Y-34660175D01*
X149460626Y-34662165D01*
X149459000Y-34663000D01*
X149376903Y-34663000D01*
X149376707Y-34662990D01*
X149336204Y-34659001D01*
X149335819Y-34658925D01*
X149302767Y-34648899D01*
X149302405Y-34648749D01*
X149271954Y-34632472D01*
X149271628Y-34632254D01*
X149244932Y-34610345D01*
X149244655Y-34610068D01*
X149222746Y-34583372D01*
X149222528Y-34583046D01*
X149206251Y-34552595D01*
X149206101Y-34552233D01*
X149196075Y-34519181D01*
X149195999Y-34518796D01*
X149192010Y-34478293D01*
X149192000Y-34478097D01*
X149192000Y-34396000D01*
X149193000Y-34394268D01*
X149195000Y-34394268D01*
X149195990Y-34395804D01*
G37*
G36*
X149460732Y-32608000D02*
G01*
X149460732Y-32610000D01*
X149459196Y-32610990D01*
X149407696Y-32616062D01*
X149358358Y-32631029D01*
X149312890Y-32655332D01*
X149273038Y-32688038D01*
X149240332Y-32727890D01*
X149216029Y-32773358D01*
X149201062Y-32822696D01*
X149195990Y-32874196D01*
X149194825Y-32875822D01*
X149192835Y-32875626D01*
X149192000Y-32874000D01*
X149192000Y-32791903D01*
X149192010Y-32791707D01*
X149195999Y-32751204D01*
X149196075Y-32750819D01*
X149206101Y-32717767D01*
X149206251Y-32717405D01*
X149222528Y-32686954D01*
X149222746Y-32686628D01*
X149244655Y-32659932D01*
X149244932Y-32659655D01*
X149271628Y-32637746D01*
X149271954Y-32637528D01*
X149302405Y-32621251D01*
X149302767Y-32621101D01*
X149335819Y-32611075D01*
X149336204Y-32610999D01*
X149376707Y-32607010D01*
X149376903Y-32607000D01*
X149459000Y-32607000D01*
X149460732Y-32608000D01*
G37*
G36*
X150813293Y-32607010D02*
G01*
X150853796Y-32610999D01*
X150854181Y-32611075D01*
X150887233Y-32621101D01*
X150887595Y-32621251D01*
X150918046Y-32637528D01*
X150918372Y-32637746D01*
X150945068Y-32659655D01*
X150945345Y-32659932D01*
X150967254Y-32686628D01*
X150967472Y-32686954D01*
X150983749Y-32717405D01*
X150983899Y-32717767D01*
X150993925Y-32750819D01*
X150994001Y-32751204D01*
X150997990Y-32791707D01*
X150998000Y-32791903D01*
X150998000Y-32874000D01*
X150997000Y-32875732D01*
X150995000Y-32875732D01*
X150994010Y-32874196D01*
X150988938Y-32822696D01*
X150973971Y-32773358D01*
X150949668Y-32727890D01*
X150916962Y-32688038D01*
X150877110Y-32655332D01*
X150831642Y-32631029D01*
X150782304Y-32616062D01*
X150730804Y-32610990D01*
X150729178Y-32609825D01*
X150729374Y-32607835D01*
X150731000Y-32607000D01*
X150813097Y-32607000D01*
X150813293Y-32607010D01*
G37*
M02*
