M48
; DRILL file {KiCad (5.1.8)-1} date 12/25/20 17:54:31
; FORMAT={-:-/ absolute / metric / decimal}
; #@! TF.CreationDate,2020-12-25T17:54:31+03:00
; #@! TF.GenerationSoftware,Kicad,Pcbnew,(5.1.8)-1
; #@! TF.FileFunction,Plated,1,2,PTH
FMAT,2
METRIC
T1C0.300
T2C0.400
T3C0.500
T4C0.800
T5C0.900
T6C0.950
T7C1.000
T8C1.100
T9C1.200
T10C1.600
T11C3.200
%
G90
G05
T1
X99.791Y-53.171
X99.791Y-54.371
X99.791Y-55.671
X99.791Y-56.771
X100.991Y-53.171
X100.991Y-54.371
X100.991Y-55.671
X100.991Y-56.771
X99.666Y-33.865
X99.666Y-35.066
X99.666Y-36.365
X99.666Y-37.465
X100.866Y-33.865
X100.866Y-35.066
X100.866Y-36.365
X100.866Y-37.465
T2
X37.62Y-27.92
X37.62Y-33.0
X37.62Y-38.08
X37.62Y-43.16
X37.62Y-48.24
X37.62Y-53.32
X37.62Y-58.4
X37.62Y-63.48
X39.37Y-85.725
X39.37Y-88.9
X39.37Y-92.71
X39.37Y-96.52
X39.37Y-99.695
X39.37Y-102.87
X39.37Y-106.045
X39.37Y-109.22
X40.16Y-25.38
X40.16Y-35.54
X40.16Y-45.7
X40.16Y-55.86
X40.16Y-66.02
X41.91Y-83.185
X41.91Y-91.44
X41.91Y-93.98
X41.91Y-111.76
X42.7Y-40.62
X42.7Y-50.78
X42.7Y-60.94
X43.815Y-92.075
X44.133Y-80.962
X44.133Y-113.983
X44.45Y-93.98
X44.45Y-102.235
X45.24Y-25.38
X45.24Y-35.54
X45.24Y-45.7
X45.24Y-55.86
X45.24Y-66.02
X45.72Y-104.14
X46.99Y-100.965
X47.625Y-102.87
X47.78Y-30.46
X47.78Y-40.62
X47.78Y-50.78
X47.78Y-60.94
X49.53Y-91.44
X49.53Y-93.98
X49.53Y-96.52
X49.53Y-99.06
X49.53Y-101.6
X49.53Y-104.14
X49.53Y-106.68
X49.53Y-109.22
X49.53Y-111.76
X49.582Y-114.248
X50.32Y-25.38
X50.32Y-35.54
X50.32Y-45.7
X50.32Y-55.86
X50.32Y-66.02
X51.175Y-115.83
X51.416Y-89.554
X52.832Y-50.8
X52.86Y-30.46
X52.86Y-40.62
X53.575Y-116.605
X53.956Y-89.554
X55.4Y-25.38
X55.4Y-35.54
X55.4Y-45.7
X55.4Y-55.86
X55.4Y-66.02
X56.115Y-116.605
X56.496Y-89.554
X57.94Y-30.46
X57.94Y-40.62
X57.94Y-50.78
X57.94Y-60.94
X58.655Y-116.605
X59.036Y-89.554
X60.48Y-55.86
X60.48Y-66.02
X61.195Y-116.605
X61.576Y-89.554
X63.02Y-50.78
X63.02Y-60.94
X64.262Y-26.162
X65.532Y-40.64
X65.56Y-33.0
X65.56Y-55.86
X65.56Y-66.02
X65.618Y-39.498
X66.294Y-38.608
X67.564Y-35.814
X68.1Y-50.78
X68.453Y-45.974
X68.862Y-32.746
X69.342Y-40.513
X70.104Y-25.908
X70.104Y-31.996
X70.64Y-55.86
X70.64Y-66.02
X70.866Y-41.656
X71.11Y-36.194
X71.12Y-33.782
X72.136Y-42.926
X72.898Y-30.48
X73.18Y-60.94
X73.262Y-34.688
X74.422Y-41.656
X74.549Y-43.561
X75.085Y-46.97
X75.72Y-33.635
X75.72Y-55.86
X75.72Y-66.02
X76.2Y-31.75
X76.355Y-49.51
X76.99Y-41.255
X77.762Y-34.252
X78.26Y-60.94
X78.486Y-24.638
X78.895Y-47.605
X78.895Y-51.415
X80.8Y-66.02
X81.534Y-28.702
X81.816Y-45.954
X82.07Y-30.714
X84.074Y-66.294
X84.102Y-63.48
X84.292Y-44.747
X84.292Y-50.59
X84.292Y-54.717
X84.356Y-76.688
X85.499Y-89.007
X85.753Y-113.645
X86.106Y-24.638
X86.325Y-36.175
X86.36Y-29.464
X87.15Y-84.562
X88.42Y-79.736
X88.674Y-58.464
X88.674Y-59.464
X88.674Y-60.464
X88.674Y-61.464
X88.674Y-62.464
X88.674Y-63.48
X89.055Y-71.1
X89.408Y-36.068
X90.452Y-63.988
X90.452Y-65.004
X90.452Y-66.02
X90.96Y-69.195
X90.96Y-73.005
X90.96Y-111.74
X90.96Y-116.82
X90.96Y-121.9
X90.96Y-126.98
X91.341Y-42.779
X91.341Y-44.557
X91.341Y-46.589
X91.341Y-48.367
X91.341Y-50.145
X91.341Y-51.923
X91.341Y-53.701
X91.948Y-29.464
X92.202Y-24.638
X93.5Y-114.28
X93.5Y-119.36
X93.726Y-90.678
X93.726Y-94.234
X93.726Y-98.298
X93.726Y-102.108
X93.726Y-105.918
X94.77Y-63.226
X95.377Y-70.612
X95.532Y-63.988
X95.532Y-65.004
X95.532Y-66.02
X95.786Y-32.111
X95.8Y-36.998
X96.04Y-121.9
X96.04Y-126.98
X96.352Y-56.112
X96.421Y-51.161
X96.675Y-69.195
X97.282Y-29.464
X97.31Y-124.44
X97.945Y-86.975
X98.008Y-47.478
X98.58Y-73.64
X98.58Y-76.815
X99.469Y-42.462
X100.076Y-24.638
X100.675Y-66.846
X101.12Y-120.63
X101.755Y-84.435
X101.755Y-87.61
X101.854Y-97.028
X101.854Y-100.584
X101.854Y-104.648
X102.616Y-29.464
X103.152Y-49.319
X103.533Y-66.846
X103.66Y-123.17
X104.168Y-61.892
X104.394Y-97.028
X104.414Y-35.02
X104.498Y-54.301
X104.597Y-44.247
X105.918Y-103.632
X106.835Y-86.975
X107.152Y-66.846
X107.188Y-89.662
X108.204Y-29.464
X108.232Y-39.413
X108.74Y-120.63
X108.93Y-73.703
X109.057Y-57.956
X109.248Y-80.117
X109.375Y-45.065
X109.474Y-24.638
X109.883Y-66.846
X109.947Y-63.162
X110.01Y-116.82
X110.236Y-98.044
X110.391Y-40.366
X110.391Y-59.416
X110.645Y-109.835
X112.014Y-100.584
X112.55Y-120.63
X112.614Y-66.846
X113.538Y-97.79
X113.82Y-48.24
X113.82Y-55.225
X114.455Y-31.095
X114.455Y-34.905
X114.932Y-117.083
X115.28Y-66.846
X115.824Y-78.994
X116.995Y-87.61
X118.011Y-40.366
X118.056Y-59.371
X119.126Y-29.464
X119.247Y-79.389
X119.535Y-74.275
X119.535Y-87.61
X119.979Y-78.624
X120.17Y-72.37
X120.297Y-38.58
X120.297Y-62.972
X120.396Y-24.638
X120.614Y-79.386
X120.805Y-74.275
X121.158Y-34.417
X121.249Y-78.624
X121.313Y-45.827
X121.412Y-80.264
X121.44Y-48.748
X121.44Y-54.336
X121.44Y-58.4
X121.44Y-69.83
X121.886Y-79.386
X122.075Y-72.37
X122.075Y-74.275
X122.49Y-78.627
X122.49Y-80.151
X122.71Y-44.938
X122.837Y-61.511
X123.125Y-79.389
X123.345Y-69.83
X123.599Y-99.296
X123.603Y-96.785
X123.603Y-98.055
X123.76Y-78.627
X123.76Y-80.151
X124.361Y-110.66
X124.361Y-98.659
X124.361Y-99.931
X124.365Y-97.42
X124.46Y-28.917
X124.46Y-35.814
X124.615Y-54.59
X124.615Y-57.765
X124.714Y-64.534
X124.96Y-111.26
X125.123Y-99.296
X125.127Y-96.785
X125.127Y-98.055
X125.249Y-28.167
X125.25Y-38.715
X125.292Y-35.056
X125.595Y-111.895
X125.603Y-72.263
X125.603Y-74.93
X125.631Y-42.203
X126.012Y-44.176
X126.154Y-34.306
X126.249Y-28.167
X127.155Y-38.08
X127.749Y-28.624
X127.762Y-33.528
X127.79Y-113.01
X128.016Y-118.618
X128.298Y-47.478
X128.425Y-36.81
X128.425Y-39.985
X128.524Y-86.868
X128.778Y-32.766
X128.786Y-28.642
X129.06Y-60.94
X129.159Y-81.534
X129.794Y-85.09
X129.799Y-28.655
X129.807Y-31.994
X130.33Y-52.157
X130.33Y-91.42
X130.33Y-99.04
X130.33Y-102.85
X130.33Y-106.66
X130.33Y-110.47
X130.556Y-83.82
X130.658Y-74.836
X131.318Y-28.448
X131.346Y-63.734
X131.473Y-49.891
X131.473Y-50.907
X131.572Y-81.788
X132.235Y-100.945
X132.235Y-104.755
X132.235Y-108.565
X132.523Y-69.977
X132.743Y-42.203
X133.35Y-24.638
X133.505Y-93.325
X133.505Y-97.135
X133.604Y-89.662
X133.73Y-76.708
X133.858Y-64.299
X133.858Y-81.026
X133.886Y-36.556
X134.14Y-27.92
X134.18Y-46.883
X134.736Y-85.852
X134.747Y-112.141
X135.08Y-44.913
X135.98Y-46.903
X136.144Y-64.516
X136.144Y-81.28
X136.553Y-104.247
X136.934Y-58.908
X137.315Y-61.575
X137.668Y-80.555
X137.696Y-107.676
X138.458Y-37.826
X138.621Y-82.185
X138.712Y-44.908
X139.192Y-59.944
X139.22Y-48.494
X139.855Y-27.92
X140.052Y-47.694
X140.236Y-94.531
X140.97Y-24.638
X140.998Y-45.7
X141.097Y-79.805
X141.125Y-69.835
X141.125Y-73.335
X141.125Y-76.815
X141.76Y-59.924
X141.76Y-110.216
X142.494Y-40.386
X142.522Y-43.668
X143.339Y-58.515
X143.387Y-56.515
X143.411Y-48.494
X144.018Y-51.054
X144.023Y-66.548
X144.3Y-27.92
X144.808Y-67.29
X144.808Y-108.946
X145.651Y-68.148
X145.796Y-82.042
X145.824Y-69.576
X146.014Y-91.547
X146.304Y-103.251
X146.459Y-46.482
X146.459Y-48.359
X146.459Y-66.655
X146.812Y-77.978
X146.812Y-78.994
X146.812Y-80.01
X147.067Y-53.955
X147.067Y-57.13
X147.447Y-94.488
X147.602Y-62.992
X147.828Y-24.638
X147.856Y-60.515
X147.856Y-62.015
X148.567Y-51.542
X148.745Y-27.92
X148.872Y-109.2
X149.098Y-46.945
X149.352Y-69.85
X149.38Y-57.13
X149.56Y-68.834
X149.567Y-51.562
X149.606Y-100.457
X149.606Y-52.578
X150.067Y-48.494
X150.114Y-46.99
X150.13Y-54.705
X150.241Y-85.217
X150.241Y-88.519
X150.38Y-68.04
X150.622Y-74.422
X150.622Y-76.2
X150.79Y-72.501
X151.06Y-92.78
X151.13Y-54.705
X151.384Y-97.282
X151.384Y-69.596
X151.511Y-103.378
X151.517Y-66.879
X151.638Y-59.944
X151.638Y-82.042
X151.652Y-58.892
X151.767Y-52.207
X152.019Y-80.264
X152.108Y-46.996
X152.4Y-56.114
X152.4Y-57.88
X152.4Y-70.612
X152.954Y-51.814
X153.18Y-46.963
X153.19Y-27.92
X153.6Y-52.578
X153.76Y-106.181
X153.924Y-60.452
X154.051Y-80.264
X154.178Y-55.245
X154.198Y-57.13
X154.2Y-46.923
X154.614Y-52.64
X154.714Y-63.988
X154.94Y-24.638
X154.94Y-85.852
X155.071Y-96.684
X155.143Y-80.315
X155.194Y-82.002
X155.194Y-103.347
X155.194Y-101.854
X155.538Y-107.927
X155.654Y-52.62
X155.702Y-78.703
X156.238Y-61.702
X156.464Y-54.483
X156.464Y-76.061
X156.696Y-52.6
X157.0Y-62.464
X157.214Y-78.359
X157.238Y-87.884
X157.48Y-74.422
X157.48Y-81.661
X157.48Y-85.471
X157.635Y-27.92
X157.645Y-91.513
X157.734Y-52.578
X157.762Y-63.226
X157.988Y-61.976
X158.242Y-102.362
X158.368Y-72.516
X158.422Y-53.559
X158.508Y-89.154
X159.004Y-36.068
X159.198Y-55.764
X159.231Y-57.787
X159.258Y-74.422
X159.266Y-56.762
X159.794Y-68.04
X160.048Y-66.528
X160.048Y-69.576
X160.401Y-90.424
X160.782Y-102.108
X160.81Y-65.695
X160.81Y-68.814
X160.909Y-82.677
X161.036Y-88.519
X161.544Y-24.638
X162.334Y-109.454
X162.524Y-94.277
X162.56Y-60.452
X163.096Y-32.746
X163.115Y-59.62
X163.669Y-58.788
X164.211Y-38.354
X164.62Y-121.138
X166.906Y-32.746
X167.033Y-94.214
X167.132Y-72.009
X167.795Y-28.555
X167.922Y-121.138
X168.402Y-110.236
X168.656Y-24.638
X168.758Y-45.029
X168.91Y-77.47
X169.164Y-68.326
X169.164Y-110.998
X170.203Y-107.927
X170.688Y-58.928
X170.942Y-54.356
X170.942Y-88.392
X170.97Y-121.138
X171.605Y-28.555
X171.65Y-53.344
X171.704Y-89.662
X172.393Y-52.594
X172.466Y-64.516
X172.94Y-51.757
X173.228Y-116.332
X173.482Y-64.77
X173.736Y-56.134
X173.759Y-51.007
X174.662Y-62.891
X175.034Y-38.842
X175.153Y-36.175
X175.26Y-59.182
X175.288Y-116.058
X175.325Y-50.257
X175.415Y-28.555
X175.418Y-62.237
X176.022Y-24.638
X176.05Y-42.525
X176.276Y-61.595
X176.304Y-111.232
X176.304Y-113.01
X176.468Y-116.566
X177.193Y-112.121
X177.32Y-121.138
X177.546Y-72.39
X177.673Y-77.47
X177.8Y-82.931
X177.918Y-116.566
X177.927Y-87.757
X178.082Y-111.232
X178.082Y-113.01
X178.308Y-97.536
X178.59Y-41.89
X178.59Y-50.78
X179.098Y-116.058
X179.225Y-28.555
X179.451Y-60.198
X179.86Y-31.222
X179.86Y-98.278
X180.495Y-36.175
X180.495Y-48.875
X180.495Y-52.685
X180.622Y-38.842
X180.876Y-99.822
X181.13Y-31.222
X181.13Y-33.627
X181.384Y-71.1
X181.384Y-74.656
X181.384Y-78.72
X181.384Y-82.784
X181.384Y-86.848
X181.384Y-90.658
X181.634Y-26.9
X181.708Y-100.584
X182.372Y-111.506
X182.4Y-45.446
X182.4Y-46.97
X182.4Y-48.494
X182.4Y-53.066
X182.4Y-54.59
X182.4Y-56.114
X182.978Y-117.224
X183.162Y-121.138
X183.67Y-25.38
X183.67Y-71.1
X183.769Y-112.776
X183.924Y-49.51
X183.924Y-50.78
X183.924Y-52.05
X183.924Y-55.606
X183.924Y-89.642
X185.194Y-77.45
X187.734Y-98.278
X188.115Y-77.45
X188.305Y-32.555
X188.496Y-109.962
X188.94Y-35.032
X189.385Y-59.67
X189.385Y-73.132
X189.385Y-91.42
X189.512Y-104.12
X189.936Y-66.354
X189.992Y-68.035
X190.02Y-26.142
X190.621Y-65.626
X190.655Y-49.51
X190.655Y-81.26
X191.008Y-67.31
X191.036Y-113.518
X191.036Y-119.868
X191.176Y-64.794
X191.48Y-32.555
X191.731Y-63.962
X191.925Y-73.132
X192.052Y-104.12
X192.306Y-35.032
X194.338Y-113.518
X194.338Y-119.868
X194.465Y-32.682
X194.465Y-35.54
X194.465Y-49.51
X194.465Y-59.67
X194.465Y-72.941
X194.465Y-81.26
X194.846Y-104.12
X195.862Y-26.142
X196.116Y-98.151
X197.132Y-32.809
X197.132Y-104.12
X197.45Y-35.032
X197.64Y-49.51
X197.64Y-81.26
X197.64Y-91.42
X197.64Y-113.518
X197.894Y-119.868
X198.91Y-59.67
X198.91Y-98.151
X199.545Y-33.0
X199.545Y-72.941
X199.672Y-103.866
X200.18Y-35.54
X200.815Y-89.045
X200.815Y-57.295
X201.704Y-98.024
X201.958Y-114.788
X202.212Y-119.868
X202.72Y-33.0
X202.72Y-53.955
X203.355Y-88.245
X203.355Y-56.495
X203.355Y-59.67
X203.355Y-91.42
X203.355Y-27.92
X203.99Y-25.126
X203.99Y-79.355
X204.022Y-71.068
X204.244Y-98.024
X204.47Y-66.376
X204.752Y-44.938
X205.006Y-117.328
X205.232Y-35.814
X205.232Y-65.532
X205.232Y-68.035
X205.26Y-53.955
X205.26Y-88.245
X206.248Y-67.31
X207.419Y-77.45
X207.8Y-33.0
X208.661Y-35.687
X208.816Y-116.566
X209.931Y-56.388
X210.086Y-100.564
X210.086Y-110.216
X210.34Y-44.938
X210.34Y-78.72
X210.34Y-77.45
X211.61Y-25.126
X211.61Y-33.0
X212.88Y-49.51
X212.88Y-56.495
X212.88Y-81.895
X212.88Y-88.245
X212.88Y-113.264
X213.134Y-119.868
X213.642Y-97.072
X215.166Y-70.338
X215.265Y-33.274
X215.674Y-101.834
X216.436Y-113.264
X216.69Y-49.51
X216.69Y-56.495
X216.69Y-81.895
X216.69Y-88.245
X216.69Y-119.868
X217.452Y-97.072
X217.96Y-58.4
X217.96Y-90.15
X217.96Y-26.65
X219.23Y-104.882
X219.738Y-70.338
X219.865Y-49.51
X219.865Y-56.495
X219.865Y-81.895
X219.865Y-88.245
X219.992Y-113.264
X219.992Y-119.868
X220.5Y-33.0
X220.5Y-102.596
X221.262Y-97.072
X221.77Y-72.37
X221.77Y-104.882
X222.024Y-25.126
X223.04Y-88.88
X223.675Y-33.0
X223.675Y-56.495
X223.675Y-82.53
X224.056Y-114.788
X224.056Y-119.868
X224.31Y-104.882
X224.945Y-85.705
X224.945Y-91.42
X225.326Y-66.782
X225.326Y-98.532
X225.58Y-46.97
X225.58Y-50.78
X225.58Y-54.59
X225.58Y-59.035
X225.58Y-78.72
X225.58Y-82.53
X225.58Y-114.28
X225.58Y-110.47
X226.215Y-88.245
X226.85Y-73.386
X226.85Y-104.882
X226.85Y-117.836
X227.104Y-56.876
X227.485Y-51.415
X227.485Y-101.58
X227.485Y-69.83
X227.485Y-114.915
X227.485Y-83.165
X227.866Y-27.158
X228.12Y-46.335
X228.12Y-78.085
X228.374Y-109.962
X228.755Y-54.59
X228.755Y-59.035
X228.755Y-86.34
X228.755Y-90.785
X229.136Y-64.496
X229.39Y-51.415
X229.39Y-69.83
X229.39Y-96.5
X229.39Y-101.58
X229.39Y-114.915
X229.39Y-83.165
X229.644Y-122.916
X230.025Y-38.08
X231.93Y-38.715
X231.93Y-121.011
X231.93Y-122.154
X231.93Y-123.297
X231.93Y-31.984
X231.93Y-124.44
X233.2Y-25.126
T3
X40.272Y-30.226
X40.975Y-28.529
X40.975Y-31.923
X42.672Y-27.826
X42.672Y-32.626
X44.369Y-28.529
X44.369Y-31.923
X45.072Y-30.226
X152.413Y-40.894
X153.116Y-39.197
X153.116Y-42.591
X154.813Y-38.494
X154.813Y-43.294
X156.51Y-39.197
X156.51Y-42.591
X157.213Y-40.894
X50.432Y-60.96
X51.135Y-59.263
X51.135Y-62.657
X52.832Y-58.56
X52.832Y-63.36
X54.529Y-59.263
X54.529Y-62.657
X55.232Y-60.96
X133.617Y-117.856
X134.32Y-116.159
X134.32Y-119.553
X136.017Y-115.456
X136.017Y-120.256
X137.714Y-116.159
X137.714Y-119.553
X138.417Y-117.856
X78.118Y-120.65
X78.821Y-118.953
X78.821Y-122.347
X80.518Y-118.25
X80.518Y-123.05
X82.215Y-118.953
X82.215Y-122.347
X82.918Y-120.65
X177.94Y-105.41
X178.643Y-103.713
X178.643Y-107.107
X180.34Y-103.01
X180.34Y-107.81
X182.037Y-103.713
X182.037Y-107.107
X182.74Y-105.41
X202.982Y-112.443
X203.685Y-110.746
X203.685Y-114.14
X205.382Y-110.043
X205.382Y-114.843
X207.079Y-110.746
X207.079Y-114.14
X207.782Y-112.443
X177.94Y-66.04
X178.643Y-64.343
X178.643Y-67.737
X180.34Y-63.64
X180.34Y-68.44
X182.037Y-64.343
X182.037Y-67.737
X182.74Y-66.04
X202.832Y-49.022
X203.535Y-47.325
X203.535Y-50.719
X205.232Y-46.622
X205.232Y-51.422
X206.929Y-47.325
X206.929Y-50.719
X207.632Y-49.022
T4
X73.053Y-81.514
X73.053Y-84.054
X73.053Y-86.594
X80.673Y-81.514
X80.673Y-84.054
X80.673Y-86.594
X73.18Y-108.565
X73.18Y-111.105
X73.18Y-113.645
X80.8Y-108.565
X80.8Y-111.105
X80.8Y-113.645
T5
X59.845Y-31.095
X59.845Y-33.635
X59.845Y-36.175
X59.845Y-38.715
X59.845Y-41.255
X59.845Y-43.795
X80.165Y-31.095
X80.165Y-33.635
X80.165Y-36.175
X80.165Y-38.715
X80.165Y-41.255
X80.165Y-43.795
T6
X150.095Y-33.635
X152.595Y-33.635
X155.095Y-33.635
X157.595Y-33.635
X160.095Y-33.635
T7
X155.067Y-88.773
X210.34Y-93.96
X210.34Y-106.66
X212.88Y-93.96
X212.88Y-106.66
X215.42Y-93.96
X215.42Y-106.66
X217.96Y-93.96
X217.96Y-106.66
X220.5Y-93.96
X220.5Y-106.66
X223.04Y-93.96
X223.04Y-106.66
X225.58Y-93.96
X225.58Y-106.66
X228.12Y-93.96
X228.12Y-106.66
X144.526Y-33.528
X205.74Y-118.872
X130.556Y-94.996
X168.148Y-119.38
X154.94Y-120.777
X157.48Y-120.777
X205.232Y-85.344
X205.74Y-56.388
X98.044Y-44.196
X144.935Y-111.74
X144.935Y-114.28
X147.475Y-111.74
X147.475Y-114.28
X150.015Y-111.74
X150.015Y-114.28
X152.555Y-111.74
X152.555Y-114.28
X155.095Y-111.74
X155.095Y-114.28
X157.635Y-111.74
X157.635Y-114.28
X160.175Y-111.74
X160.175Y-114.28
X162.715Y-111.74
X162.715Y-114.28
X170.335Y-33.635
X170.335Y-36.175
X170.335Y-38.715
X170.335Y-41.255
X170.335Y-43.795
X170.335Y-46.335
X172.875Y-33.635
X172.875Y-36.175
X172.875Y-38.715
X172.875Y-41.255
X172.875Y-43.795
X172.875Y-46.335
X96.548Y-92.182
X96.548Y-94.722
X99.088Y-92.182
X99.088Y-94.722
X101.628Y-92.182
X101.628Y-94.722
X104.168Y-92.182
X104.168Y-94.722
X106.708Y-92.182
X106.708Y-94.722
X109.248Y-92.182
X109.248Y-94.722
X111.788Y-92.182
X111.788Y-94.722
X114.328Y-92.182
X114.328Y-94.722
X116.868Y-92.182
X116.868Y-94.722
X119.408Y-92.182
X119.408Y-94.722
X93.472Y-124.46
X188.115Y-30.46
X188.115Y-43.16
X190.655Y-30.46
X190.655Y-43.16
X193.195Y-30.46
X193.195Y-43.16
X195.735Y-30.46
X195.735Y-43.16
X198.275Y-30.46
X198.275Y-43.16
X200.815Y-30.46
X200.815Y-43.16
X203.355Y-30.46
X203.355Y-43.16
X205.895Y-30.46
X205.895Y-43.16
X188.115Y-93.96
X188.115Y-106.66
X190.655Y-93.96
X190.655Y-106.66
X193.195Y-93.96
X193.195Y-106.66
X195.735Y-93.96
X195.735Y-106.66
X198.275Y-93.96
X198.275Y-106.66
X200.815Y-93.96
X200.815Y-106.66
X203.355Y-93.96
X203.355Y-106.66
X205.895Y-93.96
X205.895Y-106.66
X68.105Y-60.996
X210.34Y-30.46
X210.34Y-43.16
X212.88Y-30.46
X212.88Y-43.16
X215.42Y-30.46
X215.42Y-43.16
X217.96Y-30.46
X217.96Y-43.16
X220.5Y-30.46
X220.5Y-43.16
X223.04Y-30.46
X223.04Y-43.16
X225.58Y-30.46
X225.58Y-43.16
X228.12Y-30.46
X228.12Y-43.16
X210.34Y-62.21
X210.34Y-74.91
X212.88Y-62.21
X212.88Y-74.91
X215.42Y-62.21
X215.42Y-74.91
X217.96Y-62.21
X217.96Y-74.91
X220.5Y-62.21
X220.5Y-74.91
X223.04Y-62.21
X223.04Y-74.91
X225.58Y-62.21
X225.58Y-74.91
X228.12Y-62.21
X228.12Y-74.91
X188.115Y-62.21
X188.115Y-74.91
X190.655Y-62.21
X190.655Y-74.91
X193.195Y-62.21
X193.195Y-74.91
X195.735Y-62.21
X195.735Y-74.91
X198.275Y-62.21
X198.275Y-74.91
X200.815Y-62.21
X200.815Y-74.91
X203.355Y-62.21
X203.355Y-74.91
X205.895Y-62.21
X205.895Y-74.91
T8
X74.295Y-93.345
X74.295Y-100.965
T9
X166.261Y-65.695
X166.261Y-69.195
X165.064Y-84.547
X165.064Y-88.047
X165.064Y-91.547
X165.064Y-97.262
X165.064Y-100.762
X165.064Y-104.262
X96.04Y-116.185
X99.54Y-116.185
X103.04Y-116.185
X106.54Y-116.185
X141.57Y-97.247
X141.57Y-100.747
X141.57Y-104.247
X189.045Y-116.82
X192.545Y-116.82
X196.045Y-116.82
X199.545Y-116.82
X126.238Y-116.185
X129.738Y-116.185
X141.569Y-84.547
X141.569Y-88.047
X141.569Y-91.547
X125.25Y-47.28
X125.25Y-50.78
X117.051Y-116.185
X120.551Y-116.185
X44.45Y-74.93
X44.45Y-78.43
X166.271Y-56.114
X166.271Y-59.614
X44.45Y-96.195
X44.45Y-99.695
X189.045Y-53.32
X192.545Y-53.32
X196.045Y-53.32
X199.545Y-53.32
X211.27Y-85.07
X214.77Y-85.07
X218.27Y-85.07
X221.77Y-85.07
X211.27Y-53.32
X214.77Y-53.32
X218.27Y-53.32
X221.77Y-53.32
X137.823Y-67.91
X137.823Y-71.41
X137.823Y-74.91
X137.823Y-78.41
X166.261Y-75.22
X166.261Y-78.72
X44.45Y-116.515
X44.45Y-120.015
X189.045Y-85.07
X192.545Y-85.07
X196.045Y-85.07
X199.545Y-85.07
X211.27Y-116.82
X214.77Y-116.82
X218.27Y-116.82
X221.77Y-116.82
T10
X64.798Y-78.554
X64.798Y-84.054
X64.798Y-89.554
X64.82Y-105.605
X64.82Y-111.105
X64.82Y-116.605
T11
X205.232Y-49.022
X42.672Y-30.226
X154.813Y-40.894
X52.832Y-60.96
X136.017Y-117.856
X80.518Y-120.65
X180.34Y-105.41
X205.382Y-112.443
X180.34Y-66.04
T0
M30
