%FSLAX45Y45*%
G04 Gerber Fmt 4.5, Leading zero omitted, Abs format (unit mm)*
G04 Created by KiCad (PCBNEW (5.1.4-83-g4f57de968)-1) date 2020-04-08 14:10:53*
%MOMM*%
%LPD*%
G04 APERTURE LIST*
%ADD10C,0.100000*%
%ADD11C,0.200000*%
%ADD12C,0.300000*%
G04 APERTURE END LIST*
D10*
X4551700Y-7765100D02*
G75*
G02X4551700Y-7865100I0J-50000D01*
G01*
X4276700Y-7765100D02*
X4551700Y-7765100D01*
X4296700Y-7865100D02*
X4551700Y-7865100D01*
X4296700Y-9365100D02*
G75*
G02X4276700Y-9345100I0J20000D01*
G01*
X4276700Y-7885100D02*
G75*
G02X4296700Y-7865100I20000J0D01*
G01*
X4766700Y-9365100D02*
G75*
G02X4866700Y-9465100I0J-100000D01*
G01*
X4746700Y-9465100D02*
G75*
G02X4766700Y-9485100I0J-20000D01*
G01*
X4276700Y-9465100D02*
G75*
G02X4176700Y-9365100I0J100000D01*
G01*
X4176700Y-7865100D02*
G75*
G02X4276700Y-7765100I100000J0D01*
G01*
X4276700Y-9345100D02*
X4276700Y-7885100D01*
X4176700Y-9365100D02*
X4176700Y-7865100D01*
X4746700Y-9465100D02*
X4276700Y-9465100D01*
X4766700Y-9365100D02*
X4296700Y-9365100D01*
X4866700Y-9465100D02*
X4866700Y-9965100D01*
X4866700Y-9965100D02*
G75*
G02X4766700Y-9965100I-50000J0D01*
G01*
X4766700Y-9485100D02*
X4766700Y-9965100D01*
X4275000Y-10170000D02*
G75*
G02X4295000Y-10150000I20000J0D01*
G01*
X4295000Y-11650000D02*
G75*
G02X4275000Y-11630000I0J20000D01*
G01*
X4745000Y-11750000D02*
G75*
G02X4765000Y-11770000I0J-20000D01*
G01*
X4765000Y-11650000D02*
G75*
G02X4865000Y-11750000I0J-100000D01*
G01*
X4275000Y-11750000D02*
G75*
G02X4175000Y-11650000I0J100000D01*
G01*
X4175000Y-10150000D02*
G75*
G02X4275000Y-10050000I100000J0D01*
G01*
X4550000Y-10050000D02*
G75*
G02X4550000Y-10150000I0J-50000D01*
G01*
X4275000Y-10050000D02*
X4550000Y-10050000D01*
X4295000Y-10150000D02*
X4550000Y-10150000D01*
X4175000Y-11650000D02*
X4175000Y-10150000D01*
X4275000Y-11630000D02*
X4275000Y-10170000D01*
X4765000Y-11650000D02*
X4295000Y-11650000D01*
X4745000Y-11750000D02*
X4275000Y-11750000D01*
X4865000Y-12250000D02*
G75*
G02X4765000Y-12250000I-50000J0D01*
G01*
X4865000Y-11750000D02*
X4865000Y-12250000D01*
X4765000Y-11770000D02*
X4765000Y-12250000D01*
X3480000Y-2360000D02*
X23480000Y-2360000D01*
X3480000Y-12860000D02*
X3480000Y-2360000D01*
X23480000Y-12860000D02*
X3480000Y-12860000D01*
X23480000Y-2360000D02*
X23480000Y-12860000D01*
X8689600Y-9497600D02*
G75*
G02X8791200Y-9599200I0J-101600D01*
G01*
X8791200Y-10132600D02*
G75*
G02X8689600Y-10132600I-50800J0D01*
G01*
X8791200Y-9599200D02*
X8791200Y-10132600D01*
X8689600Y-9599200D02*
X8689600Y-10132600D01*
X8105400Y-9599200D02*
G75*
G02X8105400Y-9497600I0J50800D01*
G01*
X8689600Y-9599200D02*
X8105400Y-9599200D01*
X8105400Y-9497600D02*
X8689600Y-9497600D01*
X7635500Y-10602500D02*
G75*
G02X7729630Y-10479827I127000J0D01*
G01*
X8533466Y-10261764D02*
G75*
G02X8566335Y-10384436I16435J-61336D01*
G01*
X7729630Y-10479828D02*
X8533465Y-10261764D01*
X7762500Y-10602500D02*
X8566335Y-10384436D01*
X7762500Y-11555000D02*
G75*
G02X7635500Y-11555000I-63500J0D01*
G01*
X7635500Y-10602500D02*
X7635500Y-11555000D01*
X7762500Y-11555000D02*
X7762500Y-10602500D01*
X7635500Y-7935500D02*
G75*
G02X7762500Y-7935500I63500J0D01*
G01*
X7762500Y-8888001D02*
G75*
G02X7635500Y-8888000I-63500J0D01*
G01*
X7635500Y-7935500D02*
X7635500Y-8888000D01*
X7762500Y-8888000D02*
X7762500Y-7935500D01*
D11*
X9951600Y-3371550D02*
X9981600Y-3401550D01*
X9981600Y-3371550D02*
X9951600Y-3401550D01*
X9951600Y-3491550D02*
X9981600Y-3521550D01*
X9981600Y-3491550D02*
X9951600Y-3521550D01*
X9951600Y-3621550D02*
X9981600Y-3651550D01*
X9981600Y-3621550D02*
X9951600Y-3651550D01*
X9951600Y-3731550D02*
X9981600Y-3761550D01*
X9981600Y-3731550D02*
X9951600Y-3761550D01*
X10071600Y-3371550D02*
X10101600Y-3401550D01*
X10101600Y-3371550D02*
X10071600Y-3401550D01*
X10071600Y-3491550D02*
X10101600Y-3521550D01*
X10101600Y-3491550D02*
X10071600Y-3521550D01*
X10071600Y-3621550D02*
X10101600Y-3651550D01*
X10101600Y-3621550D02*
X10071600Y-3651550D01*
X10071600Y-3731550D02*
X10101600Y-3761550D01*
X10101600Y-3731550D02*
X10071600Y-3761550D01*
X9964100Y-5302100D02*
X9994100Y-5332100D01*
X9994100Y-5302100D02*
X9964100Y-5332100D01*
X9964100Y-5422100D02*
X9994100Y-5452100D01*
X9994100Y-5422100D02*
X9964100Y-5452100D01*
X9964100Y-5552100D02*
X9994100Y-5582100D01*
X9994100Y-5552100D02*
X9964100Y-5582100D01*
X9964100Y-5662100D02*
X9994100Y-5692100D01*
X9994100Y-5662100D02*
X9964100Y-5692100D01*
X10084100Y-5302100D02*
X10114100Y-5332100D01*
X10114100Y-5302100D02*
X10084100Y-5332100D01*
X10084100Y-5422100D02*
X10114100Y-5452100D01*
X10114100Y-5422100D02*
X10084100Y-5452100D01*
X10084100Y-5552100D02*
X10114100Y-5582100D01*
X10114100Y-5552100D02*
X10084100Y-5582100D01*
X10084100Y-5662100D02*
X10114100Y-5692100D01*
X10114100Y-5662100D02*
X10084100Y-5692100D01*
X3782000Y-2792000D02*
G75*
G03X3782000Y-2792000I-20000J0D01*
G01*
X3782000Y-3300000D02*
G75*
G03X3782000Y-3300000I-20000J0D01*
G01*
X3782000Y-3808000D02*
G75*
G03X3782000Y-3808000I-20000J0D01*
G01*
X3782000Y-4316000D02*
G75*
G03X3782000Y-4316000I-20000J0D01*
G01*
X3782000Y-4824000D02*
G75*
G03X3782000Y-4824000I-20000J0D01*
G01*
X3782000Y-5332000D02*
G75*
G03X3782000Y-5332000I-20000J0D01*
G01*
X3782000Y-5840000D02*
G75*
G03X3782000Y-5840000I-20000J0D01*
G01*
X3782000Y-6348000D02*
G75*
G03X3782000Y-6348000I-20000J0D01*
G01*
X3959800Y-8722900D02*
G75*
G03X3959800Y-8722900I-20000J0D01*
G01*
X3959800Y-10373900D02*
G75*
G03X3959800Y-10373900I-20000J0D01*
G01*
X3959800Y-8151400D02*
G75*
G03X3959800Y-8151400I-20000J0D01*
G01*
X3959800Y-7770400D02*
G75*
G03X3959800Y-7770400I-20000J0D01*
G01*
X3959800Y-8532400D02*
G75*
G03X3959800Y-8532400I-20000J0D01*
G01*
X3959800Y-9103900D02*
G75*
G03X3959800Y-9103900I-20000J0D01*
G01*
X3959800Y-9484900D02*
G75*
G03X3959800Y-9484900I-20000J0D01*
G01*
X3959800Y-10183400D02*
G75*
G03X3959800Y-10183400I-20000J0D01*
G01*
X3959800Y-10564400D02*
G75*
G03X3959800Y-10564400I-20000J0D01*
G01*
X3959800Y-10945400D02*
G75*
G03X3959800Y-10945400I-20000J0D01*
G01*
X3959800Y-11135900D02*
G75*
G03X3959800Y-11135900I-20000J0D01*
G01*
X3959800Y-11516900D02*
G75*
G03X3959800Y-11516900I-20000J0D01*
G01*
X3959800Y-11707400D02*
G75*
G03X3959800Y-11707400I-20000J0D01*
G01*
X3959800Y-11897900D02*
G75*
G03X3959800Y-11897900I-20000J0D01*
G01*
X3959800Y-7579900D02*
G75*
G03X3959800Y-7579900I-20000J0D01*
G01*
X3959800Y-11326400D02*
G75*
G03X3959800Y-11326400I-20000J0D01*
G01*
X3959800Y-7960900D02*
G75*
G03X3959800Y-7960900I-20000J0D01*
G01*
X3959800Y-8341900D02*
G75*
G03X3959800Y-8341900I-20000J0D01*
G01*
X3959800Y-8913400D02*
G75*
G03X3959800Y-8913400I-20000J0D01*
G01*
X3959800Y-9294400D02*
G75*
G03X3959800Y-9294400I-20000J0D01*
G01*
X3959800Y-9992900D02*
G75*
G03X3959800Y-9992900I-20000J0D01*
G01*
X3959800Y-10754900D02*
G75*
G03X3959800Y-10754900I-20000J0D01*
G01*
X4023300Y-9675400D02*
G75*
G03X4023300Y-9675400I-20000J0D01*
G01*
X4023300Y-9802400D02*
G75*
G03X4023300Y-9802400I-20000J0D01*
G01*
X4036000Y-2538000D02*
G75*
G03X4036000Y-2538000I-20000J0D01*
G01*
X4036000Y-3554000D02*
G75*
G03X4036000Y-3554000I-20000J0D01*
G01*
X4036000Y-4570000D02*
G75*
G03X4036000Y-4570000I-20000J0D01*
G01*
X4036000Y-5586000D02*
G75*
G03X4036000Y-5586000I-20000J0D01*
G01*
X4036000Y-6602000D02*
G75*
G03X4036000Y-6602000I-20000J0D01*
G01*
X4086800Y-7452900D02*
G75*
G03X4086800Y-7452900I-20000J0D01*
G01*
X4086800Y-12024900D02*
G75*
G03X4086800Y-12024900I-20000J0D01*
G01*
X4213800Y-9738900D02*
G75*
G03X4213800Y-9738900I-20000J0D01*
G01*
X4213800Y-9738900D02*
G75*
G03X4213800Y-9738900I-20000J0D01*
G01*
X4277300Y-7452900D02*
G75*
G03X4277300Y-7452900I-20000J0D01*
G01*
X4277300Y-12024900D02*
G75*
G03X4277300Y-12024900I-20000J0D01*
G01*
X4290000Y-4062000D02*
G75*
G03X4290000Y-4062000I-20000J0D01*
G01*
X4290000Y-5078000D02*
G75*
G03X4290000Y-5078000I-20000J0D01*
G01*
X4290000Y-6094000D02*
G75*
G03X4290000Y-6094000I-20000J0D01*
G01*
X4404300Y-9738900D02*
G75*
G03X4404300Y-9738900I-20000J0D01*
G01*
X4404300Y-9738900D02*
G75*
G03X4404300Y-9738900I-20000J0D01*
G01*
X4467800Y-12024900D02*
G75*
G03X4467800Y-12024900I-20000J0D01*
G01*
X4467800Y-7452900D02*
G75*
G03X4467800Y-7452900I-20000J0D01*
G01*
X4544000Y-2538000D02*
G75*
G03X4544000Y-2538000I-20000J0D01*
G01*
X4544000Y-3554000D02*
G75*
G03X4544000Y-3554000I-20000J0D01*
G01*
X4544000Y-4570000D02*
G75*
G03X4544000Y-4570000I-20000J0D01*
G01*
X4544000Y-5586000D02*
G75*
G03X4544000Y-5586000I-20000J0D01*
G01*
X4544000Y-6602000D02*
G75*
G03X4544000Y-6602000I-20000J0D01*
G01*
X4798000Y-3046000D02*
G75*
G03X4798000Y-3046000I-20000J0D01*
G01*
X4798000Y-4062000D02*
G75*
G03X4798000Y-4062000I-20000J0D01*
G01*
X4798000Y-5078000D02*
G75*
G03X4798000Y-5078000I-20000J0D01*
G01*
X4798000Y-6094000D02*
G75*
G03X4798000Y-6094000I-20000J0D01*
G01*
X5052000Y-2538000D02*
G75*
G03X5052000Y-2538000I-20000J0D01*
G01*
X5052000Y-3554000D02*
G75*
G03X5052000Y-3554000I-20000J0D01*
G01*
X5052000Y-4570000D02*
G75*
G03X5052000Y-4570000I-20000J0D01*
G01*
X5052000Y-5586000D02*
G75*
G03X5052000Y-5586000I-20000J0D01*
G01*
X5052000Y-6602000D02*
G75*
G03X5052000Y-6602000I-20000J0D01*
G01*
X5229800Y-9738900D02*
G75*
G03X5229800Y-9738900I-20000J0D01*
G01*
X5303200Y-5080000D02*
G75*
G03X5303200Y-5080000I-20000J0D01*
G01*
X5306000Y-3046000D02*
G75*
G03X5306000Y-3046000I-20000J0D01*
G01*
X5306000Y-4062000D02*
G75*
G03X5306000Y-4062000I-20000J0D01*
G01*
X5306000Y-6094000D02*
G75*
G03X5306000Y-6094000I-20000J0D01*
G01*
X5325050Y-11929650D02*
G75*
G03X5325050Y-11929650I-20000J0D01*
G01*
X5325050Y-7548150D02*
G75*
G03X5325050Y-7548150I-20000J0D01*
G01*
X5420300Y-7706900D02*
G75*
G03X5420300Y-7706900I-20000J0D01*
G01*
X5420300Y-7897400D02*
G75*
G03X5420300Y-7897400I-20000J0D01*
G01*
X5420300Y-9738900D02*
G75*
G03X5420300Y-9738900I-20000J0D01*
G01*
X5420300Y-11580400D02*
G75*
G03X5420300Y-11580400I-20000J0D01*
G01*
X5420300Y-11770900D02*
G75*
G03X5420300Y-11770900I-20000J0D01*
G01*
X5560000Y-2538000D02*
G75*
G03X5560000Y-2538000I-20000J0D01*
G01*
X5560000Y-3554000D02*
G75*
G03X5560000Y-3554000I-20000J0D01*
G01*
X5560000Y-4570000D02*
G75*
G03X5560000Y-4570000I-20000J0D01*
G01*
X5560000Y-5586000D02*
G75*
G03X5560000Y-5586000I-20000J0D01*
G01*
X5560000Y-6602000D02*
G75*
G03X5560000Y-6602000I-20000J0D01*
G01*
X5610800Y-9738900D02*
G75*
G03X5610800Y-9738900I-20000J0D01*
G01*
X5801300Y-9738900D02*
G75*
G03X5801300Y-9738900I-20000J0D01*
G01*
X5814000Y-3046000D02*
G75*
G03X5814000Y-3046000I-20000J0D01*
G01*
X5814000Y-4062000D02*
G75*
G03X5814000Y-4062000I-20000J0D01*
G01*
X5814000Y-5078000D02*
G75*
G03X5814000Y-5078000I-20000J0D01*
G01*
X5814000Y-6094000D02*
G75*
G03X5814000Y-6094000I-20000J0D01*
G01*
X5991800Y-11250200D02*
G75*
G03X5991800Y-11250200I-20000J0D01*
G01*
X5991800Y-9916700D02*
G75*
G03X5991800Y-9916700I-20000J0D01*
G01*
X5991800Y-10488200D02*
G75*
G03X5991800Y-10488200I-20000J0D01*
G01*
X5991800Y-9738900D02*
G75*
G03X5991800Y-9738900I-20000J0D01*
G01*
X5991800Y-10869200D02*
G75*
G03X5991800Y-10869200I-20000J0D01*
G01*
X5991800Y-11059700D02*
G75*
G03X5991800Y-11059700I-20000J0D01*
G01*
X5991800Y-10107200D02*
G75*
G03X5991800Y-10107200I-20000J0D01*
G01*
X5991800Y-10297700D02*
G75*
G03X5991800Y-10297700I-20000J0D01*
G01*
X5991800Y-10678700D02*
G75*
G03X5991800Y-10678700I-20000J0D01*
G01*
X5991800Y-11440700D02*
G75*
G03X5991800Y-11440700I-20000J0D01*
G01*
X6068000Y-4570000D02*
G75*
G03X6068000Y-4570000I-20000J0D01*
G01*
X6068000Y-5586000D02*
G75*
G03X6068000Y-5586000I-20000J0D01*
G01*
X6068000Y-6602000D02*
G75*
G03X6068000Y-6602000I-20000J0D01*
G01*
X6144200Y-11542300D02*
G75*
G03X6144200Y-11542300I-20000J0D01*
G01*
X6182300Y-9738900D02*
G75*
G03X6182300Y-9738900I-20000J0D01*
G01*
X6309300Y-9611900D02*
G75*
G03X6309300Y-9611900I-20000J0D01*
G01*
X6322000Y-5078000D02*
G75*
G03X6322000Y-5078000I-20000J0D01*
G01*
X6322000Y-6094000D02*
G75*
G03X6322000Y-6094000I-20000J0D01*
G01*
X6334700Y-11542300D02*
G75*
G03X6334700Y-11542300I-20000J0D01*
G01*
X6436300Y-9103900D02*
G75*
G03X6436300Y-9103900I-20000J0D01*
G01*
X6436300Y-9294400D02*
G75*
G03X6436300Y-9294400I-20000J0D01*
G01*
X6436300Y-9484900D02*
G75*
G03X6436300Y-9484900I-20000J0D01*
G01*
X6436417Y-11415417D02*
G75*
G03X6436417Y-11415417I-20000J0D01*
G01*
X6512500Y-2601500D02*
G75*
G03X6512500Y-2601500I-20000J0D01*
G01*
X6576000Y-3300000D02*
G75*
G03X6576000Y-3300000I-20000J0D01*
G01*
X6576000Y-3681000D02*
G75*
G03X6576000Y-3681000I-20000J0D01*
G01*
X6576000Y-4570000D02*
G75*
G03X6576000Y-4570000I-20000J0D01*
G01*
X6576000Y-5586000D02*
G75*
G03X6576000Y-5586000I-20000J0D01*
G01*
X6576000Y-6602000D02*
G75*
G03X6576000Y-6602000I-20000J0D01*
G01*
X6830000Y-5078000D02*
G75*
G03X6830000Y-5078000I-20000J0D01*
G01*
X6906200Y-3274600D02*
G75*
G03X6906200Y-3274600I-20000J0D01*
G01*
X6957000Y-2919000D02*
G75*
G03X6957000Y-2919000I-20000J0D01*
G01*
X7016200Y-3731800D02*
G75*
G03X7016200Y-3731800I-20000J0D01*
G01*
X7084000Y-2601500D02*
G75*
G03X7084000Y-2601500I-20000J0D01*
G01*
X7084000Y-4570000D02*
G75*
G03X7084000Y-4570000I-20000J0D01*
G01*
X7084000Y-5586000D02*
G75*
G03X7084000Y-5586000I-20000J0D01*
G01*
X7084000Y-6602000D02*
G75*
G03X7084000Y-6602000I-20000J0D01*
G01*
X7131023Y-3619390D02*
G75*
G03X7131023Y-3619390I-20000J0D01*
G01*
X7236400Y-4087400D02*
G75*
G03X7236400Y-4087400I-20000J0D01*
G01*
X7274500Y-2919000D02*
G75*
G03X7274500Y-2919000I-20000J0D01*
G01*
X7338000Y-6094000D02*
G75*
G03X7338000Y-6094000I-20000J0D01*
G01*
X7528500Y-4697000D02*
G75*
G03X7528500Y-4697000I-20000J0D01*
G01*
X7592000Y-2601500D02*
G75*
G03X7592000Y-2601500I-20000J0D01*
G01*
X7592000Y-3363500D02*
G75*
G03X7592000Y-3363500I-20000J0D01*
G01*
X7592000Y-5586000D02*
G75*
G03X7592000Y-5586000I-20000J0D01*
G01*
X7592000Y-6602000D02*
G75*
G03X7592000Y-6602000I-20000J0D01*
G01*
X7655500Y-4951000D02*
G75*
G03X7655500Y-4951000I-20000J0D01*
G01*
X7719000Y-4125500D02*
G75*
G03X7719000Y-4125500I-20000J0D01*
G01*
X7846000Y-6094000D02*
G75*
G03X7846000Y-6094000I-20000J0D01*
G01*
X7909500Y-4760500D02*
G75*
G03X7909500Y-4760500I-20000J0D01*
G01*
X7909500Y-5141500D02*
G75*
G03X7909500Y-5141500I-20000J0D01*
G01*
X8100000Y-6602000D02*
G75*
G03X8100000Y-6602000I-20000J0D01*
G01*
X8201600Y-4595400D02*
G75*
G03X8201600Y-4595400I-20000J0D01*
G01*
X8227000Y-2538000D02*
G75*
G03X8227000Y-2538000I-20000J0D01*
G01*
X8227000Y-3071400D02*
G75*
G03X8227000Y-3071400I-20000J0D01*
G01*
X8430200Y-6348000D02*
G75*
G03X8430200Y-6348000I-20000J0D01*
G01*
X8449250Y-4474750D02*
G75*
G03X8449250Y-4474750I-20000J0D01*
G01*
X8449250Y-5058950D02*
G75*
G03X8449250Y-5058950I-20000J0D01*
G01*
X8449250Y-5471700D02*
G75*
G03X8449250Y-5471700I-20000J0D01*
G01*
X8455600Y-7668800D02*
G75*
G03X8455600Y-7668800I-20000J0D01*
G01*
X8569900Y-8900700D02*
G75*
G03X8569900Y-8900700I-20000J0D01*
G01*
X8595300Y-11364500D02*
G75*
G03X8595300Y-11364500I-20000J0D01*
G01*
X8652450Y-3617500D02*
G75*
G03X8652450Y-3617500I-20000J0D01*
G01*
X8671500Y-2538000D02*
G75*
G03X8671500Y-2538000I-20000J0D01*
G01*
X8735000Y-8456200D02*
G75*
G03X8735000Y-8456200I-20000J0D01*
G01*
X8862000Y-7973600D02*
G75*
G03X8862000Y-7973600I-20000J0D01*
G01*
X8887400Y-5846399D02*
G75*
G03X8887400Y-5846399I-20000J0D01*
G01*
X8887400Y-5946399D02*
G75*
G03X8887400Y-5946399I-20000J0D01*
G01*
X8887400Y-6046399D02*
G75*
G03X8887400Y-6046399I-20000J0D01*
G01*
X8887400Y-6146400D02*
G75*
G03X8887400Y-6146400I-20000J0D01*
G01*
X8887400Y-6246400D02*
G75*
G03X8887400Y-6246400I-20000J0D01*
G01*
X8887400Y-6348000D02*
G75*
G03X8887400Y-6348000I-20000J0D01*
G01*
X8925500Y-7110000D02*
G75*
G03X8925500Y-7110000I-20000J0D01*
G01*
X9065200Y-6398800D02*
G75*
G03X9065200Y-6398800I-20000J0D01*
G01*
X9065200Y-6500400D02*
G75*
G03X9065200Y-6500400I-20000J0D01*
G01*
X9065200Y-6602000D02*
G75*
G03X9065200Y-6602000I-20000J0D01*
G01*
X9116000Y-2538000D02*
G75*
G03X9116000Y-2538000I-20000J0D01*
G01*
X9116000Y-6919500D02*
G75*
G03X9116000Y-6919500I-20000J0D01*
G01*
X9116000Y-7300500D02*
G75*
G03X9116000Y-7300500I-20000J0D01*
G01*
X9116000Y-11174000D02*
G75*
G03X9116000Y-11174000I-20000J0D01*
G01*
X9116000Y-11682000D02*
G75*
G03X9116000Y-11682000I-20000J0D01*
G01*
X9116000Y-12190000D02*
G75*
G03X9116000Y-12190000I-20000J0D01*
G01*
X9116000Y-12698000D02*
G75*
G03X9116000Y-12698000I-20000J0D01*
G01*
X9154100Y-4277900D02*
G75*
G03X9154100Y-4277900I-20000J0D01*
G01*
X9154100Y-4455700D02*
G75*
G03X9154100Y-4455700I-20000J0D01*
G01*
X9154100Y-4658900D02*
G75*
G03X9154100Y-4658900I-20000J0D01*
G01*
X9154100Y-4836700D02*
G75*
G03X9154100Y-4836700I-20000J0D01*
G01*
X9154100Y-5014500D02*
G75*
G03X9154100Y-5014500I-20000J0D01*
G01*
X9154100Y-5192300D02*
G75*
G03X9154100Y-5192300I-20000J0D01*
G01*
X9154100Y-5370100D02*
G75*
G03X9154100Y-5370100I-20000J0D01*
G01*
X9370000Y-11428000D02*
G75*
G03X9370000Y-11428000I-20000J0D01*
G01*
X9370000Y-11936000D02*
G75*
G03X9370000Y-11936000I-20000J0D01*
G01*
X9497000Y-6322600D02*
G75*
G03X9497000Y-6322600I-20000J0D01*
G01*
X9497000Y-7110000D02*
G75*
G03X9497000Y-7110000I-20000J0D01*
G01*
X9560500Y-2538000D02*
G75*
G03X9560500Y-2538000I-20000J0D01*
G01*
X9573200Y-6398800D02*
G75*
G03X9573200Y-6398800I-20000J0D01*
G01*
X9573200Y-6500400D02*
G75*
G03X9573200Y-6500400I-20000J0D01*
G01*
X9573200Y-6602000D02*
G75*
G03X9573200Y-6602000I-20000J0D01*
G01*
X9598600Y-3211100D02*
G75*
G03X9598600Y-3211100I-20000J0D01*
G01*
X9600012Y-3699755D02*
G75*
G03X9600012Y-3699755I-20000J0D01*
G01*
X9624000Y-12190000D02*
G75*
G03X9624000Y-12190000I-20000J0D01*
G01*
X9624000Y-12698000D02*
G75*
G03X9624000Y-12698000I-20000J0D01*
G01*
X9655232Y-5611158D02*
G75*
G03X9655232Y-5611158I-20000J0D01*
G01*
X9662100Y-5116100D02*
G75*
G03X9662100Y-5116100I-20000J0D01*
G01*
X9687500Y-6919500D02*
G75*
G03X9687500Y-6919500I-20000J0D01*
G01*
X9751000Y-12444000D02*
G75*
G03X9751000Y-12444000I-20000J0D01*
G01*
X9814500Y-8697500D02*
G75*
G03X9814500Y-8697500I-20000J0D01*
G01*
X9820850Y-4747800D02*
G75*
G03X9820850Y-4747800I-20000J0D01*
G01*
X9878000Y-7364000D02*
G75*
G03X9878000Y-7364000I-20000J0D01*
G01*
X9878000Y-7681500D02*
G75*
G03X9878000Y-7681500I-20000J0D01*
G01*
X9966900Y-4246150D02*
G75*
G03X9966900Y-4246150I-20000J0D01*
G01*
X10005000Y-2538000D02*
G75*
G03X10005000Y-2538000I-20000J0D01*
G01*
X10087550Y-6684550D02*
G75*
G03X10087550Y-6684550I-20000J0D01*
G01*
X10132000Y-12063000D02*
G75*
G03X10132000Y-12063000I-20000J0D01*
G01*
X10195500Y-8443500D02*
G75*
G03X10195500Y-8443500I-20000J0D01*
G01*
X10195500Y-8761000D02*
G75*
G03X10195500Y-8761000I-20000J0D01*
G01*
X10335200Y-4931950D02*
G75*
G03X10335200Y-4931950I-20000J0D01*
G01*
X10373300Y-6684550D02*
G75*
G03X10373300Y-6684550I-20000J0D01*
G01*
X10386000Y-12317000D02*
G75*
G03X10386000Y-12317000I-20000J0D01*
G01*
X10436800Y-6189250D02*
G75*
G03X10436800Y-6189250I-20000J0D01*
G01*
X10449500Y-2538000D02*
G75*
G03X10449500Y-2538000I-20000J0D01*
G01*
X10461386Y-3502038D02*
G75*
G03X10461386Y-3502038I-20000J0D01*
G01*
X10469842Y-5430073D02*
G75*
G03X10469842Y-5430073I-20000J0D01*
G01*
X10703500Y-8697500D02*
G75*
G03X10703500Y-8697500I-20000J0D01*
G01*
X10735250Y-6684550D02*
G75*
G03X10735250Y-6684550I-20000J0D01*
G01*
X10843200Y-3941350D02*
G75*
G03X10843200Y-3941350I-20000J0D01*
G01*
X10894000Y-2538000D02*
G75*
G03X10894000Y-2538000I-20000J0D01*
G01*
X10894000Y-12063000D02*
G75*
G03X10894000Y-12063000I-20000J0D01*
G01*
X10913050Y-7370350D02*
G75*
G03X10913050Y-7370350I-20000J0D01*
G01*
X10925750Y-5795550D02*
G75*
G03X10925750Y-5795550I-20000J0D01*
G01*
X10944800Y-8011700D02*
G75*
G03X10944800Y-8011700I-20000J0D01*
G01*
X10957500Y-4506500D02*
G75*
G03X10957500Y-4506500I-20000J0D01*
G01*
X11008300Y-6684550D02*
G75*
G03X11008300Y-6684550I-20000J0D01*
G01*
X11014650Y-6316250D02*
G75*
G03X11014650Y-6316250I-20000J0D01*
G01*
X11021000Y-11682000D02*
G75*
G03X11021000Y-11682000I-20000J0D01*
G01*
X11059100Y-4036600D02*
G75*
G03X11059100Y-4036600I-20000J0D01*
G01*
X11059100Y-5941600D02*
G75*
G03X11059100Y-5941600I-20000J0D01*
G01*
X11084500Y-10983500D02*
G75*
G03X11084500Y-10983500I-20000J0D01*
G01*
X11275000Y-12063000D02*
G75*
G03X11275000Y-12063000I-20000J0D01*
G01*
X11281350Y-6684550D02*
G75*
G03X11281350Y-6684550I-20000J0D01*
G01*
X11338500Y-2538000D02*
G75*
G03X11338500Y-2538000I-20000J0D01*
G01*
X11402000Y-4824000D02*
G75*
G03X11402000Y-4824000I-20000J0D01*
G01*
X11402000Y-5522500D02*
G75*
G03X11402000Y-5522500I-20000J0D01*
G01*
X11465500Y-3109500D02*
G75*
G03X11465500Y-3109500I-20000J0D01*
G01*
X11465500Y-3490500D02*
G75*
G03X11465500Y-3490500I-20000J0D01*
G01*
X11513230Y-11708310D02*
G75*
G03X11513230Y-11708310I-20000J0D01*
G01*
X11548050Y-6684550D02*
G75*
G03X11548050Y-6684550I-20000J0D01*
G01*
X11719500Y-8761000D02*
G75*
G03X11719500Y-8761000I-20000J0D01*
G01*
X11821100Y-4036600D02*
G75*
G03X11821100Y-4036600I-20000J0D01*
G01*
X11825600Y-5937100D02*
G75*
G03X11825600Y-5937100I-20000J0D01*
G01*
X11944683Y-7938878D02*
G75*
G03X11944683Y-7938878I-20000J0D01*
G01*
X11973500Y-7427500D02*
G75*
G03X11973500Y-7427500I-20000J0D01*
G01*
X11973500Y-8761000D02*
G75*
G03X11973500Y-8761000I-20000J0D01*
G01*
X12017864Y-7862351D02*
G75*
G03X12017864Y-7862351I-20000J0D01*
G01*
X12037000Y-7237000D02*
G75*
G03X12037000Y-7237000I-20000J0D01*
G01*
X12049700Y-6297200D02*
G75*
G03X12049700Y-6297200I-20000J0D01*
G01*
X12081364Y-7938551D02*
G75*
G03X12081364Y-7938551I-20000J0D01*
G01*
X12100500Y-7427500D02*
G75*
G03X12100500Y-7427500I-20000J0D01*
G01*
X12144864Y-7862351D02*
G75*
G03X12144864Y-7862351I-20000J0D01*
G01*
X12151300Y-4582700D02*
G75*
G03X12151300Y-4582700I-20000J0D01*
G01*
X12161200Y-8026400D02*
G75*
G03X12161200Y-8026400I-20000J0D01*
G01*
X12164000Y-4874800D02*
G75*
G03X12164000Y-4874800I-20000J0D01*
G01*
X12164000Y-5433600D02*
G75*
G03X12164000Y-5433600I-20000J0D01*
G01*
X12164000Y-5840000D02*
G75*
G03X12164000Y-5840000I-20000J0D01*
G01*
X12164000Y-6983000D02*
G75*
G03X12164000Y-6983000I-20000J0D01*
G01*
X12208564Y-7938551D02*
G75*
G03X12208564Y-7938551I-20000J0D01*
G01*
X12227500Y-7237000D02*
G75*
G03X12227500Y-7237000I-20000J0D01*
G01*
X12227500Y-7427500D02*
G75*
G03X12227500Y-7427500I-20000J0D01*
G01*
X12268984Y-7862736D02*
G75*
G03X12268984Y-7862736I-20000J0D01*
G01*
X12268984Y-8015136D02*
G75*
G03X12268984Y-8015136I-20000J0D01*
G01*
X12291000Y-4493800D02*
G75*
G03X12291000Y-4493800I-20000J0D01*
G01*
X12303700Y-6151150D02*
G75*
G03X12303700Y-6151150I-20000J0D01*
G01*
X12332484Y-7938936D02*
G75*
G03X12332484Y-7938936I-20000J0D01*
G01*
X12354500Y-6983000D02*
G75*
G03X12354500Y-6983000I-20000J0D01*
G01*
X12379900Y-9929600D02*
G75*
G03X12379900Y-9929600I-20000J0D01*
G01*
X12380285Y-9678480D02*
G75*
G03X12380285Y-9678480I-20000J0D01*
G01*
X12380285Y-9805480D02*
G75*
G03X12380285Y-9805480I-20000J0D01*
G01*
X12395983Y-7862736D02*
G75*
G03X12395983Y-7862736I-20000J0D01*
G01*
X12395984Y-8015136D02*
G75*
G03X12395984Y-8015136I-20000J0D01*
G01*
X12456100Y-9865900D02*
G75*
G03X12456100Y-9865900I-20000J0D01*
G01*
X12456100Y-9993100D02*
G75*
G03X12456100Y-9993100I-20000J0D01*
G01*
X12456485Y-9741980D02*
G75*
G03X12456485Y-9741980I-20000J0D01*
G01*
X12481500Y-5459000D02*
G75*
G03X12481500Y-5459000I-20000J0D01*
G01*
X12481500Y-5776500D02*
G75*
G03X12481500Y-5776500I-20000J0D01*
G01*
X12481500Y-6602000D02*
G75*
G03X12481500Y-6602000I-20000J0D01*
G01*
X12481500Y-6983000D02*
G75*
G03X12481500Y-6983000I-20000J0D01*
G01*
X12532300Y-9929600D02*
G75*
G03X12532300Y-9929600I-20000J0D01*
G01*
X12532685Y-9678480D02*
G75*
G03X12532685Y-9678480I-20000J0D01*
G01*
X12532685Y-9805480D02*
G75*
G03X12532685Y-9805480I-20000J0D01*
G01*
X12545000Y-3363500D02*
G75*
G03X12545000Y-3363500I-20000J0D01*
G01*
X12545000Y-3617500D02*
G75*
G03X12545000Y-3617500I-20000J0D01*
G01*
X12545000Y-3871500D02*
G75*
G03X12545000Y-3871500I-20000J0D01*
G01*
X12545000Y-11555000D02*
G75*
G03X12545000Y-11555000I-20000J0D01*
G01*
X12545000Y-12063000D02*
G75*
G03X12545000Y-12063000I-20000J0D01*
G01*
X12583100Y-4220339D02*
G75*
G03X12583100Y-4220339I-20000J0D01*
G01*
X12608500Y-6613500D02*
G75*
G03X12608500Y-6613500I-20000J0D01*
G01*
X12608500Y-6983000D02*
G75*
G03X12608500Y-6983000I-20000J0D01*
G01*
X12621200Y-4417600D02*
G75*
G03X12621200Y-4417600I-20000J0D01*
G01*
X12646600Y-2942516D02*
G75*
G03X12646600Y-2942516I-20000J0D01*
G01*
X12672000Y-3503200D02*
G75*
G03X12672000Y-3503200I-20000J0D01*
G01*
X12672000Y-5611400D02*
G75*
G03X12672000Y-5611400I-20000J0D01*
G01*
X12722800Y-6983000D02*
G75*
G03X12722800Y-6983000I-20000J0D01*
G01*
X12735500Y-3808000D02*
G75*
G03X12735500Y-3808000I-20000J0D01*
G01*
X12772767Y-2867515D02*
G75*
G03X12772767Y-2867515I-20000J0D01*
G01*
X12773600Y-3401600D02*
G75*
G03X12773600Y-3401600I-20000J0D01*
G01*
X12799000Y-11301000D02*
G75*
G03X12799000Y-11301000I-20000J0D01*
G01*
X12799000Y-11809000D02*
G75*
G03X12799000Y-11809000I-20000J0D01*
G01*
X12849800Y-4747800D02*
G75*
G03X12849800Y-4747800I-20000J0D01*
G01*
X12862500Y-3681000D02*
G75*
G03X12862500Y-3681000I-20000J0D01*
G01*
X12862500Y-3998500D02*
G75*
G03X12862500Y-3998500I-20000J0D01*
G01*
X12875200Y-2817400D02*
G75*
G03X12875200Y-2817400I-20000J0D01*
G01*
X12875200Y-3325400D02*
G75*
G03X12875200Y-3325400I-20000J0D01*
G01*
X12926000Y-6094000D02*
G75*
G03X12926000Y-6094000I-20000J0D01*
G01*
X12951400Y-5967000D02*
G75*
G03X12951400Y-5967000I-20000J0D01*
G01*
X12976800Y-8303800D02*
G75*
G03X12976800Y-8303800I-20000J0D01*
G01*
X13053000Y-5215702D02*
G75*
G03X13053000Y-5215702I-20000J0D01*
G01*
X13053000Y-9142000D02*
G75*
G03X13053000Y-9142000I-20000J0D01*
G01*
X13053000Y-9904000D02*
G75*
G03X13053000Y-9904000I-20000J0D01*
G01*
X13053000Y-10285000D02*
G75*
G03X13053000Y-10285000I-20000J0D01*
G01*
X13053000Y-10666000D02*
G75*
G03X13053000Y-10666000I-20000J0D01*
G01*
X13053000Y-11047000D02*
G75*
G03X13053000Y-11047000I-20000J0D01*
G01*
X13053000Y-11555000D02*
G75*
G03X13053000Y-11555000I-20000J0D01*
G01*
X13053000Y-12063000D02*
G75*
G03X13053000Y-12063000I-20000J0D01*
G01*
X13154600Y-5205000D02*
G75*
G03X13154600Y-5205000I-20000J0D01*
G01*
X13154600Y-6373400D02*
G75*
G03X13154600Y-6373400I-20000J0D01*
G01*
X13167300Y-4989100D02*
G75*
G03X13167300Y-4989100I-20000J0D01*
G01*
X13167300Y-5090700D02*
G75*
G03X13167300Y-5090700I-20000J0D01*
G01*
X13180000Y-2919000D02*
G75*
G03X13180000Y-2919000I-20000J0D01*
G01*
X13243500Y-10094500D02*
G75*
G03X13243500Y-10094500I-20000J0D01*
G01*
X13243500Y-10475500D02*
G75*
G03X13243500Y-10475500I-20000J0D01*
G01*
X13243500Y-10856500D02*
G75*
G03X13243500Y-10856500I-20000J0D01*
G01*
X13272300Y-6973700D02*
G75*
G03X13272300Y-6973700I-20000J0D01*
G01*
X13294300Y-4220339D02*
G75*
G03X13294300Y-4220339I-20000J0D01*
G01*
X13307000Y-11301000D02*
G75*
G03X13307000Y-11301000I-20000J0D01*
G01*
X13307000Y-11809000D02*
G75*
G03X13307000Y-11809000I-20000J0D01*
G01*
X13370500Y-9332500D02*
G75*
G03X13370500Y-9332500I-20000J0D01*
G01*
X13370500Y-9713500D02*
G75*
G03X13370500Y-9713500I-20000J0D01*
G01*
X13408600Y-3655600D02*
G75*
G03X13408600Y-3655600I-20000J0D01*
G01*
X13432089Y-4588463D02*
G75*
G03X13432089Y-4588463I-20000J0D01*
G01*
X13434000Y-2792000D02*
G75*
G03X13434000Y-2792000I-20000J0D01*
G01*
X13437989Y-4688289D02*
G75*
G03X13437989Y-4688289I-20000J0D01*
G01*
X13484800Y-8303800D02*
G75*
G03X13484800Y-8303800I-20000J0D01*
G01*
X13527989Y-4491348D02*
G75*
G03X13527989Y-4491348I-20000J0D01*
G01*
X13527989Y-10353589D02*
G75*
G03X13527989Y-10353589I-20000J0D01*
G01*
X13561000Y-11555000D02*
G75*
G03X13561000Y-11555000I-20000J0D01*
G01*
X13561000Y-12063000D02*
G75*
G03X13561000Y-12063000I-20000J0D01*
G01*
X13617989Y-4590339D02*
G75*
G03X13617989Y-4590339I-20000J0D01*
G01*
X13617989Y-4690339D02*
G75*
G03X13617989Y-4690339I-20000J0D01*
G01*
X13662600Y-6957600D02*
G75*
G03X13662600Y-6957600I-20000J0D01*
G01*
X13675300Y-10424700D02*
G75*
G03X13675300Y-10424700I-20000J0D01*
G01*
X13713400Y-5890800D02*
G75*
G03X13713400Y-5890800I-20000J0D01*
G01*
X13713400Y-6263499D02*
G75*
G03X13713400Y-6263499I-20000J0D01*
G01*
X13713400Y-6363500D02*
G75*
G03X13713400Y-6363500I-20000J0D01*
G01*
X13713400Y-6463500D02*
G75*
G03X13713400Y-6463500I-20000J0D01*
G01*
X13751500Y-6157500D02*
G75*
G03X13751500Y-6157500I-20000J0D01*
G01*
X13789600Y-10767600D02*
G75*
G03X13789600Y-10767600I-20000J0D01*
G01*
X13815000Y-7313200D02*
G75*
G03X13815000Y-7313200I-20000J0D01*
G01*
X13815000Y-7668800D02*
G75*
G03X13815000Y-7668800I-20000J0D01*
G01*
X13815000Y-11809000D02*
G75*
G03X13815000Y-11809000I-20000J0D01*
G01*
X13865800Y-3782600D02*
G75*
G03X13865800Y-3782600I-20000J0D01*
G01*
X13882058Y-8218458D02*
G75*
G03X13882058Y-8218458I-20000J0D01*
G01*
X13891200Y-4490825D02*
G75*
G03X13891200Y-4490825I-20000J0D01*
G01*
X13942000Y-4849400D02*
G75*
G03X13942000Y-4849400I-20000J0D01*
G01*
X14005500Y-2792000D02*
G75*
G03X14005500Y-2792000I-20000J0D01*
G01*
X14025205Y-4769400D02*
G75*
G03X14025205Y-4769400I-20000J0D01*
G01*
X14043600Y-9453150D02*
G75*
G03X14043600Y-9453150I-20000J0D01*
G01*
X14069000Y-12063000D02*
G75*
G03X14069000Y-12063000I-20000J0D01*
G01*
X14119800Y-4570000D02*
G75*
G03X14119800Y-4570000I-20000J0D01*
G01*
X14125205Y-4769400D02*
G75*
G03X14125205Y-4769400I-20000J0D01*
G01*
X14132500Y-6792500D02*
G75*
G03X14132500Y-6792500I-20000J0D01*
G01*
X14132500Y-6983500D02*
G75*
G03X14132500Y-6983500I-20000J0D01*
G01*
X14132500Y-7333500D02*
G75*
G03X14132500Y-7333500I-20000J0D01*
G01*
X14132500Y-7681500D02*
G75*
G03X14132500Y-7681500I-20000J0D01*
G01*
X14170600Y-11351800D02*
G75*
G03X14170600Y-11351800I-20000J0D01*
G01*
X14196000Y-5992400D02*
G75*
G03X14196000Y-5992400I-20000J0D01*
G01*
X14196000Y-11021600D02*
G75*
G03X14196000Y-11021600I-20000J0D01*
G01*
X14272200Y-4366800D02*
G75*
G03X14272200Y-4366800I-20000J0D01*
G01*
X14323000Y-3490500D02*
G75*
G03X14323000Y-3490500I-20000J0D01*
G01*
X14323000Y-6792500D02*
G75*
G03X14323000Y-6792500I-20000J0D01*
G01*
X14348400Y-4087400D02*
G75*
G03X14348400Y-4087400I-20000J0D01*
G01*
X14353938Y-5851500D02*
G75*
G03X14353938Y-5851500I-20000J0D01*
G01*
X14358700Y-5651500D02*
G75*
G03X14358700Y-5651500I-20000J0D01*
G01*
X14361100Y-4849400D02*
G75*
G03X14361100Y-4849400I-20000J0D01*
G01*
X14373800Y-8202200D02*
G75*
G03X14373800Y-8202200I-20000J0D01*
G01*
X14432200Y-8613700D02*
G75*
G03X14432200Y-8613700I-20000J0D01*
G01*
X14450000Y-2792000D02*
G75*
G03X14450000Y-2792000I-20000J0D01*
G01*
X14500800Y-6729000D02*
G75*
G03X14500800Y-6729000I-20000J0D01*
G01*
X14500800Y-10894600D02*
G75*
G03X14500800Y-10894600I-20000J0D01*
G01*
X14513500Y-3300000D02*
G75*
G03X14513500Y-3300000I-20000J0D01*
G01*
X14514174Y-8203907D02*
G75*
G03X14514174Y-8203907I-20000J0D01*
G01*
X14526200Y-5052600D02*
G75*
G03X14526200Y-5052600I-20000J0D01*
G01*
X14585104Y-6814818D02*
G75*
G03X14585104Y-6814818I-20000J0D01*
G01*
X14602400Y-6957600D02*
G75*
G03X14602400Y-6957600I-20000J0D01*
G01*
X14627800Y-10246900D02*
G75*
G03X14627800Y-10246900I-20000J0D01*
G01*
X14627800Y-11656600D02*
G75*
G03X14627800Y-11656600I-20000J0D01*
G01*
X14640500Y-9484900D02*
G75*
G03X14640500Y-9484900I-20000J0D01*
G01*
X14665900Y-4506500D02*
G75*
G03X14665900Y-4506500I-20000J0D01*
G01*
X14665900Y-4660339D02*
G75*
G03X14665900Y-4660339I-20000J0D01*
G01*
X14665900Y-6665500D02*
G75*
G03X14665900Y-6665500I-20000J0D01*
G01*
X14672250Y-7821200D02*
G75*
G03X14672250Y-7821200I-20000J0D01*
G01*
X14672250Y-8062500D02*
G75*
G03X14672250Y-8062500I-20000J0D01*
G01*
X14689620Y-7252453D02*
G75*
G03X14689620Y-7252453I-20000J0D01*
G01*
X14726700Y-5395500D02*
G75*
G03X14726700Y-5395500I-20000J0D01*
G01*
X14726700Y-5713000D02*
G75*
G03X14726700Y-5713000I-20000J0D01*
G01*
X14780200Y-6322600D02*
G75*
G03X14780200Y-6322600I-20000J0D01*
G01*
X14801882Y-6957926D02*
G75*
G03X14801882Y-6957926I-20000J0D01*
G01*
X14805600Y-5851499D02*
G75*
G03X14805600Y-5851499I-20000J0D01*
G01*
X14805600Y-5951500D02*
G75*
G03X14805600Y-5951500I-20000J0D01*
G01*
X14805600Y-6051500D02*
G75*
G03X14805600Y-6051500I-20000J0D01*
G01*
X14805600Y-6201500D02*
G75*
G03X14805600Y-6201500I-20000J0D01*
G01*
X14831000Y-3681000D02*
G75*
G03X14831000Y-3681000I-20000J0D01*
G01*
X14876700Y-5154200D02*
G75*
G03X14876700Y-5154200I-20000J0D01*
G01*
X14876700Y-6785289D02*
G75*
G03X14876700Y-6785289I-20000J0D01*
G01*
X14881800Y-11936000D02*
G75*
G03X14881800Y-11936000I-20000J0D01*
G01*
X14891752Y-9037812D02*
G75*
G03X14891752Y-9037812I-20000J0D01*
G01*
X14894500Y-2792000D02*
G75*
G03X14894500Y-2792000I-20000J0D01*
G01*
X14900195Y-8730930D02*
G75*
G03X14900195Y-8730930I-20000J0D01*
G01*
X14907200Y-4468400D02*
G75*
G03X14907200Y-4468400I-20000J0D01*
G01*
X14907200Y-10920000D02*
G75*
G03X14907200Y-10920000I-20000J0D01*
G01*
X14958000Y-5713000D02*
G75*
G03X14958000Y-5713000I-20000J0D01*
G01*
X14958000Y-6856000D02*
G75*
G03X14958000Y-6856000I-20000J0D01*
G01*
X14976700Y-5204870D02*
G75*
G03X14976700Y-5204870I-20000J0D01*
G01*
X14983400Y-8786400D02*
G75*
G03X14983400Y-8786400I-20000J0D01*
G01*
X14983400Y-8968000D02*
G75*
G03X14983400Y-8968000I-20000J0D01*
G01*
X15008800Y-4671600D02*
G75*
G03X15008800Y-4671600I-20000J0D01*
G01*
X15023838Y-5313404D02*
G75*
G03X15023838Y-5313404I-20000J0D01*
G01*
X15026700Y-4849400D02*
G75*
G03X15026700Y-4849400I-20000J0D01*
G01*
X15033000Y-5470500D02*
G75*
G03X15033000Y-5470500I-20000J0D01*
G01*
X15059600Y-4468400D02*
G75*
G03X15059600Y-4468400I-20000J0D01*
G01*
X15072300Y-6386100D02*
G75*
G03X15072300Y-6386100I-20000J0D01*
G01*
X15073499Y-6804000D02*
G75*
G03X15073499Y-6804000I-20000J0D01*
G01*
X15078650Y-9503950D02*
G75*
G03X15078650Y-9503950I-20000J0D01*
G01*
X15085000Y-6954000D02*
G75*
G03X15085000Y-6954000I-20000J0D01*
G01*
X15127184Y-9930665D02*
G75*
G03X15127184Y-9930665I-20000J0D01*
G01*
X15133000Y-5470500D02*
G75*
G03X15133000Y-5470500I-20000J0D01*
G01*
X15142150Y-7249700D02*
G75*
G03X15142150Y-7249700I-20000J0D01*
G01*
X15142150Y-7821200D02*
G75*
G03X15142150Y-7821200I-20000J0D01*
G01*
X15142150Y-8011700D02*
G75*
G03X15142150Y-8011700I-20000J0D01*
G01*
X15142150Y-7440200D02*
G75*
G03X15142150Y-7440200I-20000J0D01*
G01*
X15142150Y-7630700D02*
G75*
G03X15142150Y-7630700I-20000J0D01*
G01*
X15161200Y-10259600D02*
G75*
G03X15161200Y-10259600I-20000J0D01*
G01*
X15163434Y-5181834D02*
G75*
G03X15163434Y-5181834I-20000J0D01*
G01*
X15171650Y-6687883D02*
G75*
G03X15171650Y-6687883I-20000J0D01*
G01*
X15186600Y-4506500D02*
G75*
G03X15186600Y-4506500I-20000J0D01*
G01*
X15192950Y-9732550D02*
G75*
G03X15192950Y-9732550I-20000J0D01*
G01*
X15225950Y-9053100D02*
G75*
G03X15225950Y-9053100I-20000J0D01*
G01*
X15228450Y-9929400D02*
G75*
G03X15228450Y-9929400I-20000J0D01*
G01*
X15275500Y-3681000D02*
G75*
G03X15275500Y-3681000I-20000J0D01*
G01*
X15288200Y-5611400D02*
G75*
G03X15288200Y-5611400I-20000J0D01*
G01*
X15288200Y-10894600D02*
G75*
G03X15288200Y-10894600I-20000J0D01*
G01*
X15305950Y-8988300D02*
G75*
G03X15305950Y-8988300I-20000J0D01*
G01*
X15305950Y-8010400D02*
G75*
G03X15305950Y-8010400I-20000J0D01*
G01*
X15313600Y-5179600D02*
G75*
G03X15313600Y-5179600I-20000J0D01*
G01*
X15339000Y-2792000D02*
G75*
G03X15339000Y-2792000I-20000J0D01*
G01*
X15339000Y-11986800D02*
G75*
G03X15339000Y-11986800I-20000J0D01*
G01*
X15370750Y-10145300D02*
G75*
G03X15370750Y-10145300I-20000J0D01*
G01*
X15389800Y-11656600D02*
G75*
G03X15389800Y-11656600I-20000J0D01*
G01*
X15395983Y-10618053D02*
G75*
G03X15395983Y-10618053I-20000J0D01*
G01*
X15402500Y-5586000D02*
G75*
G03X15402500Y-5586000I-20000J0D01*
G01*
X15402500Y-6030500D02*
G75*
G03X15402500Y-6030500I-20000J0D01*
G01*
X15402500Y-9254700D02*
G75*
G03X15402500Y-9254700I-20000J0D01*
G01*
X15408850Y-8138700D02*
G75*
G03X15408850Y-8138700I-20000J0D01*
G01*
X15408850Y-8716550D02*
G75*
G03X15408850Y-8716550I-20000J0D01*
G01*
X15466000Y-12088400D02*
G75*
G03X15466000Y-12088400I-20000J0D01*
G01*
X15491400Y-6398800D02*
G75*
G03X15491400Y-6398800I-20000J0D01*
G01*
X15510450Y-7821200D02*
G75*
G03X15510450Y-7821200I-20000J0D01*
G01*
X15510450Y-8888000D02*
G75*
G03X15510450Y-8888000I-20000J0D01*
G01*
X15516800Y-9523000D02*
G75*
G03X15516800Y-9523000I-20000J0D01*
G01*
X15573847Y-10792716D02*
G75*
G03X15573847Y-10792716I-20000J0D01*
G01*
X15590450Y-7634500D02*
G75*
G03X15590450Y-7634500I-20000J0D01*
G01*
X15590450Y-8815600D02*
G75*
G03X15590450Y-8815600I-20000J0D01*
G01*
X15593000Y-5255800D02*
G75*
G03X15593000Y-5255800I-20000J0D01*
G01*
X15593000Y-12168400D02*
G75*
G03X15593000Y-12168400I-20000J0D01*
G01*
X15643800Y-6170200D02*
G75*
G03X15643800Y-6170200I-20000J0D01*
G01*
X15670450Y-7435100D02*
G75*
G03X15670450Y-7435100I-20000J0D01*
G01*
X15670450Y-8743200D02*
G75*
G03X15670450Y-8743200I-20000J0D01*
G01*
X15677783Y-4341399D02*
G75*
G03X15677783Y-4341399I-20000J0D01*
G01*
X15681900Y-10081800D02*
G75*
G03X15681900Y-10081800I-20000J0D01*
G01*
X15703832Y-4824000D02*
G75*
G03X15703832Y-4824000I-20000J0D01*
G01*
X15713650Y-5605050D02*
G75*
G03X15713650Y-5605050I-20000J0D01*
G01*
X15720000Y-3681000D02*
G75*
G03X15720000Y-3681000I-20000J0D01*
G01*
X15720000Y-6246400D02*
G75*
G03X15720000Y-6246400I-20000J0D01*
G01*
X15732700Y-9770650D02*
G75*
G03X15732700Y-9770650I-20000J0D01*
G01*
X15750450Y-8670800D02*
G75*
G03X15750450Y-8670800I-20000J0D01*
G01*
X15750450Y-7248400D02*
G75*
G03X15750450Y-7248400I-20000J0D01*
G01*
X15783500Y-2792000D02*
G75*
G03X15783500Y-2792000I-20000J0D01*
G01*
X15796200Y-6322600D02*
G75*
G03X15796200Y-6322600I-20000J0D01*
G01*
X15821600Y-4824000D02*
G75*
G03X15821600Y-4824000I-20000J0D01*
G01*
X15821600Y-11682000D02*
G75*
G03X15821600Y-11682000I-20000J0D01*
G01*
X15826700Y-6729000D02*
G75*
G03X15826700Y-6729000I-20000J0D01*
G01*
X15847000Y-6030500D02*
G75*
G03X15847000Y-6030500I-20000J0D01*
G01*
X15862183Y-5355939D02*
G75*
G03X15862183Y-5355939I-20000J0D01*
G01*
X15864950Y-10132600D02*
G75*
G03X15864950Y-10132600I-20000J0D01*
G01*
X15864950Y-10259600D02*
G75*
G03X15864950Y-10259600I-20000J0D01*
G01*
X15900269Y-7226031D02*
G75*
G03X15900269Y-7226031I-20000J0D01*
G01*
X15936249Y-6273000D02*
G75*
G03X15936249Y-6273000I-20000J0D01*
G01*
X15939803Y-5576388D02*
G75*
G03X15939803Y-5576388I-20000J0D01*
G01*
X15947691Y-4823901D02*
G75*
G03X15947691Y-4823901I-20000J0D01*
G01*
X15947971Y-4620602D02*
G75*
G03X15947971Y-4620602I-20000J0D01*
G01*
X15950428Y-4720572D02*
G75*
G03X15950428Y-4720572I-20000J0D01*
G01*
X15961300Y-8519700D02*
G75*
G03X15961300Y-8519700I-20000J0D01*
G01*
X15972500Y-12088400D02*
G75*
G03X15972500Y-12088400I-20000J0D01*
G01*
X15974000Y-5776500D02*
G75*
G03X15974000Y-5776500I-20000J0D01*
G01*
X15999400Y-6804000D02*
G75*
G03X15999400Y-6804000I-20000J0D01*
G01*
X16024800Y-6652800D02*
G75*
G03X16024800Y-6652800I-20000J0D01*
G01*
X16024800Y-6957600D02*
G75*
G03X16024800Y-6957600I-20000J0D01*
G01*
X16075600Y-4620800D02*
G75*
G03X16075600Y-4620800I-20000J0D01*
G01*
X16101000Y-6569500D02*
G75*
G03X16101000Y-6569500I-20000J0D01*
G01*
X16101000Y-6881400D02*
G75*
G03X16101000Y-6881400I-20000J0D01*
G01*
X16101000Y-12168400D02*
G75*
G03X16101000Y-12168400I-20000J0D01*
G01*
X16132750Y-10094500D02*
G75*
G03X16132750Y-10094500I-20000J0D01*
G01*
X16177200Y-4544600D02*
G75*
G03X16177200Y-4544600I-20000J0D01*
G01*
X16178811Y-6489500D02*
G75*
G03X16178811Y-6489500I-20000J0D01*
G01*
X16253400Y-7033976D02*
G75*
G03X16253400Y-7033976I-20000J0D01*
G01*
X16253400Y-10945400D02*
G75*
G03X16253400Y-10945400I-20000J0D01*
G01*
X16272450Y-9427750D02*
G75*
G03X16272450Y-9427750I-20000J0D01*
G01*
X16276445Y-5608490D02*
G75*
G03X16276445Y-5608490I-20000J0D01*
G01*
X16278800Y-11783600D02*
G75*
G03X16278800Y-11783600I-20000J0D01*
G01*
X16278811Y-6489500D02*
G75*
G03X16278811Y-6489500I-20000J0D01*
G01*
X16319218Y-5728352D02*
G75*
G03X16319218Y-5728352I-20000J0D01*
G01*
X16329600Y-3274600D02*
G75*
G03X16329600Y-3274600I-20000J0D01*
G01*
X16380400Y-6489500D02*
G75*
G03X16380400Y-6489500I-20000J0D01*
G01*
X16392788Y-5796084D02*
G75*
G03X16392788Y-5796084I-20000J0D01*
G01*
X16404600Y-7262400D02*
G75*
G03X16404600Y-7262400I-20000J0D01*
G01*
X16404600Y-7362400D02*
G75*
G03X16404600Y-7362400I-20000J0D01*
G01*
X16404600Y-7462401D02*
G75*
G03X16404600Y-7462401I-20000J0D01*
G01*
X16431200Y-6652800D02*
G75*
G03X16431200Y-6652800I-20000J0D01*
G01*
X16431200Y-7795800D02*
G75*
G03X16431200Y-7795800I-20000J0D01*
G01*
X16472376Y-5890400D02*
G75*
G03X16472376Y-5890400I-20000J0D01*
G01*
X16482000Y-12113800D02*
G75*
G03X16482000Y-12113800I-20000J0D01*
G01*
X16532800Y-11529600D02*
G75*
G03X16532800Y-11529600I-20000J0D01*
G01*
X16583600Y-7999000D02*
G75*
G03X16583600Y-7999000I-20000J0D01*
G01*
X16609000Y-6665500D02*
G75*
G03X16609000Y-6665500I-20000J0D01*
G01*
X16609000Y-7618000D02*
G75*
G03X16609000Y-7618000I-20000J0D01*
G01*
X16622376Y-5729682D02*
G75*
G03X16622376Y-5729682I-20000J0D01*
G01*
X16622879Y-6424200D02*
G75*
G03X16622879Y-6424200I-20000J0D01*
G01*
X16710600Y-3274600D02*
G75*
G03X16710600Y-3274600I-20000J0D01*
G01*
X16710600Y-7211600D02*
G75*
G03X16710600Y-7211600I-20000J0D01*
G01*
X16715645Y-5765751D02*
G75*
G03X16715645Y-5765751I-20000J0D01*
G01*
X16715680Y-5960650D02*
G75*
G03X16715680Y-5960650I-20000J0D01*
G01*
X16723300Y-9421400D02*
G75*
G03X16723300Y-9421400I-20000J0D01*
G01*
X16765998Y-11160686D02*
G75*
G03X16765998Y-11160686I-20000J0D01*
G01*
X16799500Y-2855500D02*
G75*
G03X16799500Y-2855500I-20000J0D01*
G01*
X16809000Y-6424200D02*
G75*
G03X16809000Y-6424200I-20000J0D01*
G01*
X16809000Y-6652660D02*
G75*
G03X16809000Y-6652660I-20000J0D01*
G01*
X16812200Y-7084600D02*
G75*
G03X16812200Y-7084600I-20000J0D01*
G01*
X16812200Y-12113800D02*
G75*
G03X16812200Y-12113800I-20000J0D01*
G01*
X16837600Y-4239800D02*
G75*
G03X16837600Y-4239800I-20000J0D01*
G01*
X16837600Y-4506500D02*
G75*
G03X16837600Y-4506500I-20000J0D01*
G01*
X16913800Y-7999000D02*
G75*
G03X16913800Y-7999000I-20000J0D01*
G01*
X16913800Y-11631200D02*
G75*
G03X16913800Y-11631200I-20000J0D01*
G01*
X16939200Y-6489500D02*
G75*
G03X16939200Y-6489500I-20000J0D01*
G01*
X16964600Y-7211600D02*
G75*
G03X16964600Y-7211600I-20000J0D01*
G01*
X17022320Y-5610684D02*
G75*
G03X17022320Y-5610684I-20000J0D01*
G01*
X17040800Y-5484400D02*
G75*
G03X17040800Y-5484400I-20000J0D01*
G01*
X17090400Y-8811800D02*
G75*
G03X17090400Y-8811800I-20000J0D01*
G01*
X17090400Y-8913400D02*
G75*
G03X17090400Y-8913400I-20000J0D01*
G01*
X17091600Y-9827800D02*
G75*
G03X17091600Y-9827800I-20000J0D01*
G01*
X17091600Y-10640600D02*
G75*
G03X17091600Y-10640600I-20000J0D01*
G01*
X17101467Y-9030533D02*
G75*
G03X17101467Y-9030533I-20000J0D01*
G01*
X17111511Y-5409400D02*
G75*
G03X17111511Y-5409400I-20000J0D01*
G01*
X17117000Y-6754400D02*
G75*
G03X17117000Y-6754400I-20000J0D01*
G01*
X17117000Y-11809000D02*
G75*
G03X17117000Y-11809000I-20000J0D01*
G01*
X17117000Y-12113800D02*
G75*
G03X17117000Y-12113800I-20000J0D01*
G01*
X17167800Y-9345200D02*
G75*
G03X17167800Y-9345200I-20000J0D01*
G01*
X17167800Y-11230079D02*
G75*
G03X17167800Y-11230079I-20000J0D01*
G01*
X17180500Y-2855500D02*
G75*
G03X17180500Y-2855500I-20000J0D01*
G01*
X17184965Y-5334400D02*
G75*
G03X17184965Y-5334400I-20000J0D01*
G01*
X17193200Y-10945400D02*
G75*
G03X17193200Y-10945400I-20000J0D01*
G01*
X17244000Y-8253000D02*
G75*
G03X17244000Y-8253000I-20000J0D01*
G01*
X17259252Y-5259400D02*
G75*
G03X17259252Y-5259400I-20000J0D01*
G01*
X17313954Y-5175688D02*
G75*
G03X17313954Y-5175688I-20000J0D01*
G01*
X17395892Y-5100688D02*
G75*
G03X17395892Y-5100688I-20000J0D01*
G01*
X17421800Y-7211600D02*
G75*
G03X17421800Y-7211600I-20000J0D01*
G01*
X17421800Y-10259600D02*
G75*
G03X17421800Y-10259600I-20000J0D01*
G01*
X17472600Y-8583200D02*
G75*
G03X17472600Y-8583200I-20000J0D01*
G01*
X17498000Y-9650000D02*
G75*
G03X17498000Y-9650000I-20000J0D01*
G01*
X17523400Y-3884200D02*
G75*
G03X17523400Y-3884200I-20000J0D01*
G01*
X17548800Y-11605800D02*
G75*
G03X17548800Y-11605800I-20000J0D01*
G01*
X17552515Y-5025688D02*
G75*
G03X17552515Y-5025688I-20000J0D01*
G01*
X17561500Y-2855500D02*
G75*
G03X17561500Y-2855500I-20000J0D01*
G01*
X17599600Y-10640600D02*
G75*
G03X17599600Y-10640600I-20000J0D01*
G01*
X17625000Y-4252500D02*
G75*
G03X17625000Y-4252500I-20000J0D01*
G01*
X17650400Y-11123200D02*
G75*
G03X17650400Y-11123200I-20000J0D01*
G01*
X17650400Y-11301000D02*
G75*
G03X17650400Y-11301000I-20000J0D01*
G01*
X17666800Y-11656600D02*
G75*
G03X17666800Y-11656600I-20000J0D01*
G01*
X17675800Y-9726200D02*
G75*
G03X17675800Y-9726200I-20000J0D01*
G01*
X17726600Y-7694200D02*
G75*
G03X17726600Y-7694200I-20000J0D01*
G01*
X17739300Y-11212100D02*
G75*
G03X17739300Y-11212100I-20000J0D01*
G01*
X17752000Y-8253000D02*
G75*
G03X17752000Y-8253000I-20000J0D01*
G01*
X17752000Y-8811800D02*
G75*
G03X17752000Y-8811800I-20000J0D01*
G01*
X17752000Y-12113800D02*
G75*
G03X17752000Y-12113800I-20000J0D01*
G01*
X17777400Y-10005600D02*
G75*
G03X17777400Y-10005600I-20000J0D01*
G01*
X17811800Y-11656600D02*
G75*
G03X17811800Y-11656600I-20000J0D01*
G01*
X17828200Y-11123200D02*
G75*
G03X17828200Y-11123200I-20000J0D01*
G01*
X17828200Y-11301000D02*
G75*
G03X17828200Y-11301000I-20000J0D01*
G01*
X17853600Y-6640100D02*
G75*
G03X17853600Y-6640100I-20000J0D01*
G01*
X17879000Y-4189000D02*
G75*
G03X17879000Y-4189000I-20000J0D01*
G01*
X17879000Y-5078000D02*
G75*
G03X17879000Y-5078000I-20000J0D01*
G01*
X17904400Y-10386600D02*
G75*
G03X17904400Y-10386600I-20000J0D01*
G01*
X17910750Y-6544850D02*
G75*
G03X17910750Y-6544850I-20000J0D01*
G01*
X17929800Y-11605800D02*
G75*
G03X17929800Y-11605800I-20000J0D01*
G01*
X17942500Y-2855500D02*
G75*
G03X17942500Y-2855500I-20000J0D01*
G01*
X17942500Y-6030500D02*
G75*
G03X17942500Y-6030500I-20000J0D01*
G01*
X17969193Y-6446584D02*
G75*
G03X17969193Y-6446584I-20000J0D01*
G01*
X18006000Y-3122200D02*
G75*
G03X18006000Y-3122200I-20000J0D01*
G01*
X18006000Y-9827800D02*
G75*
G03X18006000Y-9827800I-20000J0D01*
G01*
X18031400Y-6348000D02*
G75*
G03X18031400Y-6348000I-20000J0D01*
G01*
X18069500Y-4887500D02*
G75*
G03X18069500Y-4887500I-20000J0D01*
G01*
X18069500Y-5268500D02*
G75*
G03X18069500Y-5268500I-20000J0D01*
G01*
X18082200Y-3884200D02*
G75*
G03X18082200Y-3884200I-20000J0D01*
G01*
X18107600Y-10056400D02*
G75*
G03X18107600Y-10056400I-20000J0D01*
G01*
X18107600Y-10767600D02*
G75*
G03X18107600Y-10767600I-20000J0D01*
G01*
X18133000Y-3122200D02*
G75*
G03X18133000Y-3122200I-20000J0D01*
G01*
X18133000Y-11047000D02*
G75*
G03X18133000Y-11047000I-20000J0D01*
G01*
X18158400Y-6678200D02*
G75*
G03X18158400Y-6678200I-20000J0D01*
G01*
X18158400Y-7110000D02*
G75*
G03X18158400Y-7110000I-20000J0D01*
G01*
X18158400Y-7465600D02*
G75*
G03X18158400Y-7465600I-20000J0D01*
G01*
X18158400Y-7872000D02*
G75*
G03X18158400Y-7872000I-20000J0D01*
G01*
X18158400Y-8278400D02*
G75*
G03X18158400Y-8278400I-20000J0D01*
G01*
X18158400Y-8684800D02*
G75*
G03X18158400Y-8684800I-20000J0D01*
G01*
X18158400Y-9065800D02*
G75*
G03X18158400Y-9065800I-20000J0D01*
G01*
X18190762Y-10132600D02*
G75*
G03X18190762Y-10132600I-20000J0D01*
G01*
X18260000Y-4544600D02*
G75*
G03X18260000Y-4544600I-20000J0D01*
G01*
X18260000Y-4697000D02*
G75*
G03X18260000Y-4697000I-20000J0D01*
G01*
X18260000Y-4849400D02*
G75*
G03X18260000Y-4849400I-20000J0D01*
G01*
X18260000Y-5306600D02*
G75*
G03X18260000Y-5306600I-20000J0D01*
G01*
X18260000Y-5459000D02*
G75*
G03X18260000Y-5459000I-20000J0D01*
G01*
X18260000Y-5611400D02*
G75*
G03X18260000Y-5611400I-20000J0D01*
G01*
X18260000Y-10475500D02*
G75*
G03X18260000Y-10475500I-20000J0D01*
G01*
X18285400Y-10208800D02*
G75*
G03X18285400Y-10208800I-20000J0D01*
G01*
X18317845Y-11722353D02*
G75*
G03X18317845Y-11722353I-20000J0D01*
G01*
X18336200Y-12113800D02*
G75*
G03X18336200Y-12113800I-20000J0D01*
G01*
X18361600Y-10335800D02*
G75*
G03X18361600Y-10335800I-20000J0D01*
G01*
X18387000Y-2538000D02*
G75*
G03X18387000Y-2538000I-20000J0D01*
G01*
X18387000Y-6678200D02*
G75*
G03X18387000Y-6678200I-20000J0D01*
G01*
X18387000Y-7110000D02*
G75*
G03X18387000Y-7110000I-20000J0D01*
G01*
X18412400Y-4951000D02*
G75*
G03X18412400Y-4951000I-20000J0D01*
G01*
X18412400Y-5078000D02*
G75*
G03X18412400Y-5078000I-20000J0D01*
G01*
X18412400Y-5205000D02*
G75*
G03X18412400Y-5205000I-20000J0D01*
G01*
X18412400Y-5560600D02*
G75*
G03X18412400Y-5560600I-20000J0D01*
G01*
X18412400Y-8964200D02*
G75*
G03X18412400Y-8964200I-20000J0D01*
G01*
X18539400Y-7745000D02*
G75*
G03X18539400Y-7745000I-20000J0D01*
G01*
X18771500Y-7004600D02*
G75*
G03X18771500Y-7004600I-20000J0D01*
G01*
X18793400Y-9827800D02*
G75*
G03X18793400Y-9827800I-20000J0D01*
G01*
X18826194Y-6920883D02*
G75*
G03X18826194Y-6920883I-20000J0D01*
G01*
X18831500Y-7745000D02*
G75*
G03X18831500Y-7745000I-20000J0D01*
G01*
X18850550Y-3255550D02*
G75*
G03X18850550Y-3255550I-20000J0D01*
G01*
X18869600Y-10996200D02*
G75*
G03X18869600Y-10996200I-20000J0D01*
G01*
X18895000Y-6830600D02*
G75*
G03X18895000Y-6830600I-20000J0D01*
G01*
X18914050Y-3503200D02*
G75*
G03X18914050Y-3503200I-20000J0D01*
G01*
X18958500Y-5967000D02*
G75*
G03X18958500Y-5967000I-20000J0D01*
G01*
X18958500Y-7313200D02*
G75*
G03X18958500Y-7313200I-20000J0D01*
G01*
X18958500Y-9142000D02*
G75*
G03X18958500Y-9142000I-20000J0D01*
G01*
X18971200Y-6729000D02*
G75*
G03X18971200Y-6729000I-20000J0D01*
G01*
X18971200Y-10412000D02*
G75*
G03X18971200Y-10412000I-20000J0D01*
G01*
X19022000Y-2614200D02*
G75*
G03X19022000Y-2614200I-20000J0D01*
G01*
X19026670Y-6645795D02*
G75*
G03X19026670Y-6645795I-20000J0D01*
G01*
X19082140Y-6562590D02*
G75*
G03X19082140Y-6562590I-20000J0D01*
G01*
X19085500Y-4951000D02*
G75*
G03X19085500Y-4951000I-20000J0D01*
G01*
X19085500Y-8126000D02*
G75*
G03X19085500Y-8126000I-20000J0D01*
G01*
X19123600Y-11351800D02*
G75*
G03X19123600Y-11351800I-20000J0D01*
G01*
X19123600Y-11986800D02*
G75*
G03X19123600Y-11986800I-20000J0D01*
G01*
X19137610Y-6479384D02*
G75*
G03X19137610Y-6479384I-20000J0D01*
G01*
X19168050Y-3255550D02*
G75*
G03X19168050Y-3255550I-20000J0D01*
G01*
X19193080Y-6396179D02*
G75*
G03X19193080Y-6396179I-20000J0D01*
G01*
X19212500Y-7313200D02*
G75*
G03X19212500Y-7313200I-20000J0D01*
G01*
X19225200Y-10412000D02*
G75*
G03X19225200Y-10412000I-20000J0D01*
G01*
X19250600Y-3503200D02*
G75*
G03X19250600Y-3503200I-20000J0D01*
G01*
X19339500Y-9142000D02*
G75*
G03X19339500Y-9142000I-20000J0D01*
G01*
X19453800Y-11351800D02*
G75*
G03X19453800Y-11351800I-20000J0D01*
G01*
X19453800Y-11986800D02*
G75*
G03X19453800Y-11986800I-20000J0D01*
G01*
X19466500Y-3268250D02*
G75*
G03X19466500Y-3268250I-20000J0D01*
G01*
X19466500Y-3554000D02*
G75*
G03X19466500Y-3554000I-20000J0D01*
G01*
X19466500Y-4951000D02*
G75*
G03X19466500Y-4951000I-20000J0D01*
G01*
X19466500Y-5967000D02*
G75*
G03X19466500Y-5967000I-20000J0D01*
G01*
X19466500Y-7294150D02*
G75*
G03X19466500Y-7294150I-20000J0D01*
G01*
X19466500Y-8126000D02*
G75*
G03X19466500Y-8126000I-20000J0D01*
G01*
X19504600Y-10412000D02*
G75*
G03X19504600Y-10412000I-20000J0D01*
G01*
X19606200Y-2614200D02*
G75*
G03X19606200Y-2614200I-20000J0D01*
G01*
X19631600Y-9815100D02*
G75*
G03X19631600Y-9815100I-20000J0D01*
G01*
X19733200Y-3280950D02*
G75*
G03X19733200Y-3280950I-20000J0D01*
G01*
X19733200Y-10412000D02*
G75*
G03X19733200Y-10412000I-20000J0D01*
G01*
X19758600Y-7186200D02*
G75*
G03X19758600Y-7186200I-20000J0D01*
G01*
X19764950Y-3503200D02*
G75*
G03X19764950Y-3503200I-20000J0D01*
G01*
X19784000Y-4951000D02*
G75*
G03X19784000Y-4951000I-20000J0D01*
G01*
X19784000Y-8126000D02*
G75*
G03X19784000Y-8126000I-20000J0D01*
G01*
X19784000Y-9142000D02*
G75*
G03X19784000Y-9142000I-20000J0D01*
G01*
X19784000Y-11351800D02*
G75*
G03X19784000Y-11351800I-20000J0D01*
G01*
X19809400Y-11986800D02*
G75*
G03X19809400Y-11986800I-20000J0D01*
G01*
X19814070Y-7102995D02*
G75*
G03X19814070Y-7102995I-20000J0D01*
G01*
X19885600Y-7008400D02*
G75*
G03X19885600Y-7008400I-20000J0D01*
G01*
X19911000Y-5967000D02*
G75*
G03X19911000Y-5967000I-20000J0D01*
G01*
X19911000Y-9815100D02*
G75*
G03X19911000Y-9815100I-20000J0D01*
G01*
X19974500Y-3300000D02*
G75*
G03X19974500Y-3300000I-20000J0D01*
G01*
X19974500Y-7294150D02*
G75*
G03X19974500Y-7294150I-20000J0D01*
G01*
X19987200Y-10386600D02*
G75*
G03X19987200Y-10386600I-20000J0D01*
G01*
X20012600Y-6830600D02*
G75*
G03X20012600Y-6830600I-20000J0D01*
G01*
X20038000Y-3554000D02*
G75*
G03X20038000Y-3554000I-20000J0D01*
G01*
X20068070Y-6747395D02*
G75*
G03X20068070Y-6747395I-20000J0D01*
G01*
X20101500Y-8904500D02*
G75*
G03X20101500Y-8904500I-20000J0D01*
G01*
X20101500Y-5729500D02*
G75*
G03X20101500Y-5729500I-20000J0D01*
G01*
X20190400Y-9802400D02*
G75*
G03X20190400Y-9802400I-20000J0D01*
G01*
X20215800Y-11478800D02*
G75*
G03X20215800Y-11478800I-20000J0D01*
G01*
X20241200Y-11986800D02*
G75*
G03X20241200Y-11986800I-20000J0D01*
G01*
X20292000Y-3300000D02*
G75*
G03X20292000Y-3300000I-20000J0D01*
G01*
X20292000Y-5395500D02*
G75*
G03X20292000Y-5395500I-20000J0D01*
G01*
X20292000Y-9726200D02*
G75*
G03X20292000Y-9726200I-20000J0D01*
G01*
X20292000Y-9980200D02*
G75*
G03X20292000Y-9980200I-20000J0D01*
G01*
X20355500Y-8824500D02*
G75*
G03X20355500Y-8824500I-20000J0D01*
G01*
X20355500Y-5649500D02*
G75*
G03X20355500Y-5649500I-20000J0D01*
G01*
X20355500Y-5967000D02*
G75*
G03X20355500Y-5967000I-20000J0D01*
G01*
X20355500Y-9142000D02*
G75*
G03X20355500Y-9142000I-20000J0D01*
G01*
X20355500Y-2792000D02*
G75*
G03X20355500Y-2792000I-20000J0D01*
G01*
X20419000Y-2512600D02*
G75*
G03X20419000Y-2512600I-20000J0D01*
G01*
X20419000Y-7935500D02*
G75*
G03X20419000Y-7935500I-20000J0D01*
G01*
X20422175Y-7106825D02*
G75*
G03X20422175Y-7106825I-20000J0D01*
G01*
X20444400Y-9802400D02*
G75*
G03X20444400Y-9802400I-20000J0D01*
G01*
X20495200Y-4493800D02*
G75*
G03X20495200Y-4493800I-20000J0D01*
G01*
X20520600Y-11732800D02*
G75*
G03X20520600Y-11732800I-20000J0D01*
G01*
X20546000Y-5395500D02*
G75*
G03X20546000Y-5395500I-20000J0D01*
G01*
X20546000Y-8824500D02*
G75*
G03X20546000Y-8824500I-20000J0D01*
G01*
X20761900Y-7745000D02*
G75*
G03X20761900Y-7745000I-20000J0D01*
G01*
X20800000Y-3300000D02*
G75*
G03X20800000Y-3300000I-20000J0D01*
G01*
X20901600Y-11656600D02*
G75*
G03X20901600Y-11656600I-20000J0D01*
G01*
X21028600Y-10056400D02*
G75*
G03X21028600Y-10056400I-20000J0D01*
G01*
X21028600Y-11021600D02*
G75*
G03X21028600Y-11021600I-20000J0D01*
G01*
X21054000Y-4493800D02*
G75*
G03X21054000Y-4493800I-20000J0D01*
G01*
X21054000Y-7872000D02*
G75*
G03X21054000Y-7872000I-20000J0D01*
G01*
X21054000Y-7745000D02*
G75*
G03X21054000Y-7745000I-20000J0D01*
G01*
X21181000Y-2512600D02*
G75*
G03X21181000Y-2512600I-20000J0D01*
G01*
X21181000Y-3300000D02*
G75*
G03X21181000Y-3300000I-20000J0D01*
G01*
X21308000Y-4951000D02*
G75*
G03X21308000Y-4951000I-20000J0D01*
G01*
X21308000Y-5649500D02*
G75*
G03X21308000Y-5649500I-20000J0D01*
G01*
X21308000Y-8189500D02*
G75*
G03X21308000Y-8189500I-20000J0D01*
G01*
X21308000Y-8824500D02*
G75*
G03X21308000Y-8824500I-20000J0D01*
G01*
X21308000Y-11326400D02*
G75*
G03X21308000Y-11326400I-20000J0D01*
G01*
X21333400Y-11986800D02*
G75*
G03X21333400Y-11986800I-20000J0D01*
G01*
X21384200Y-9707150D02*
G75*
G03X21384200Y-9707150I-20000J0D01*
G01*
X21536600Y-7033800D02*
G75*
G03X21536600Y-7033800I-20000J0D01*
G01*
X21587400Y-10183400D02*
G75*
G03X21587400Y-10183400I-20000J0D01*
G01*
X21663600Y-11326400D02*
G75*
G03X21663600Y-11326400I-20000J0D01*
G01*
X21689000Y-4951000D02*
G75*
G03X21689000Y-4951000I-20000J0D01*
G01*
X21689000Y-5649500D02*
G75*
G03X21689000Y-5649500I-20000J0D01*
G01*
X21689000Y-8189500D02*
G75*
G03X21689000Y-8189500I-20000J0D01*
G01*
X21689000Y-8824500D02*
G75*
G03X21689000Y-8824500I-20000J0D01*
G01*
X21689000Y-11986800D02*
G75*
G03X21689000Y-11986800I-20000J0D01*
G01*
X21765200Y-9707150D02*
G75*
G03X21765200Y-9707150I-20000J0D01*
G01*
X21816000Y-5840000D02*
G75*
G03X21816000Y-5840000I-20000J0D01*
G01*
X21816000Y-9015000D02*
G75*
G03X21816000Y-9015000I-20000J0D01*
G01*
X21816000Y-2665000D02*
G75*
G03X21816000Y-2665000I-20000J0D01*
G01*
X21943000Y-10488200D02*
G75*
G03X21943000Y-10488200I-20000J0D01*
G01*
X21993800Y-7033800D02*
G75*
G03X21993800Y-7033800I-20000J0D01*
G01*
X22006500Y-4951000D02*
G75*
G03X22006500Y-4951000I-20000J0D01*
G01*
X22006500Y-5649500D02*
G75*
G03X22006500Y-5649500I-20000J0D01*
G01*
X22006500Y-8189500D02*
G75*
G03X22006500Y-8189500I-20000J0D01*
G01*
X22006500Y-8824500D02*
G75*
G03X22006500Y-8824500I-20000J0D01*
G01*
X22019200Y-11326400D02*
G75*
G03X22019200Y-11326400I-20000J0D01*
G01*
X22019200Y-11986800D02*
G75*
G03X22019200Y-11986800I-20000J0D01*
G01*
X22070000Y-3300000D02*
G75*
G03X22070000Y-3300000I-20000J0D01*
G01*
X22070000Y-10259600D02*
G75*
G03X22070000Y-10259600I-20000J0D01*
G01*
X22146200Y-9707150D02*
G75*
G03X22146200Y-9707150I-20000J0D01*
G01*
X22197000Y-7237000D02*
G75*
G03X22197000Y-7237000I-20000J0D01*
G01*
X22197000Y-10488200D02*
G75*
G03X22197000Y-10488200I-20000J0D01*
G01*
X22222400Y-2512600D02*
G75*
G03X22222400Y-2512600I-20000J0D01*
G01*
X22324000Y-8888000D02*
G75*
G03X22324000Y-8888000I-20000J0D01*
G01*
X22387500Y-3300000D02*
G75*
G03X22387500Y-3300000I-20000J0D01*
G01*
X22387500Y-5649500D02*
G75*
G03X22387500Y-5649500I-20000J0D01*
G01*
X22387500Y-8253000D02*
G75*
G03X22387500Y-8253000I-20000J0D01*
G01*
X22425600Y-11478800D02*
G75*
G03X22425600Y-11478800I-20000J0D01*
G01*
X22425600Y-11986800D02*
G75*
G03X22425600Y-11986800I-20000J0D01*
G01*
X22451000Y-10488200D02*
G75*
G03X22451000Y-10488200I-20000J0D01*
G01*
X22514500Y-8570500D02*
G75*
G03X22514500Y-8570500I-20000J0D01*
G01*
X22514500Y-9142000D02*
G75*
G03X22514500Y-9142000I-20000J0D01*
G01*
X22552600Y-6678200D02*
G75*
G03X22552600Y-6678200I-20000J0D01*
G01*
X22552600Y-9853200D02*
G75*
G03X22552600Y-9853200I-20000J0D01*
G01*
X22578000Y-4697000D02*
G75*
G03X22578000Y-4697000I-20000J0D01*
G01*
X22578000Y-5078000D02*
G75*
G03X22578000Y-5078000I-20000J0D01*
G01*
X22578000Y-5459000D02*
G75*
G03X22578000Y-5459000I-20000J0D01*
G01*
X22578000Y-5903500D02*
G75*
G03X22578000Y-5903500I-20000J0D01*
G01*
X22578000Y-7872000D02*
G75*
G03X22578000Y-7872000I-20000J0D01*
G01*
X22578000Y-8253000D02*
G75*
G03X22578000Y-8253000I-20000J0D01*
G01*
X22578000Y-11428000D02*
G75*
G03X22578000Y-11428000I-20000J0D01*
G01*
X22578000Y-11047000D02*
G75*
G03X22578000Y-11047000I-20000J0D01*
G01*
X22641500Y-8824500D02*
G75*
G03X22641500Y-8824500I-20000J0D01*
G01*
X22705000Y-7338600D02*
G75*
G03X22705000Y-7338600I-20000J0D01*
G01*
X22705000Y-10488200D02*
G75*
G03X22705000Y-10488200I-20000J0D01*
G01*
X22705000Y-11783600D02*
G75*
G03X22705000Y-11783600I-20000J0D01*
G01*
X22730400Y-5687600D02*
G75*
G03X22730400Y-5687600I-20000J0D01*
G01*
X22768500Y-5141500D02*
G75*
G03X22768500Y-5141500I-20000J0D01*
G01*
X22768500Y-10158000D02*
G75*
G03X22768500Y-10158000I-20000J0D01*
G01*
X22768500Y-6983000D02*
G75*
G03X22768500Y-6983000I-20000J0D01*
G01*
X22768500Y-11491500D02*
G75*
G03X22768500Y-11491500I-20000J0D01*
G01*
X22768500Y-8316500D02*
G75*
G03X22768500Y-8316500I-20000J0D01*
G01*
X22806600Y-2715800D02*
G75*
G03X22806600Y-2715800I-20000J0D01*
G01*
X22832000Y-4633500D02*
G75*
G03X22832000Y-4633500I-20000J0D01*
G01*
X22832000Y-7808500D02*
G75*
G03X22832000Y-7808500I-20000J0D01*
G01*
X22857400Y-10996200D02*
G75*
G03X22857400Y-10996200I-20000J0D01*
G01*
X22895500Y-5459000D02*
G75*
G03X22895500Y-5459000I-20000J0D01*
G01*
X22895500Y-5903500D02*
G75*
G03X22895500Y-5903500I-20000J0D01*
G01*
X22895500Y-8634000D02*
G75*
G03X22895500Y-8634000I-20000J0D01*
G01*
X22895500Y-9078500D02*
G75*
G03X22895500Y-9078500I-20000J0D01*
G01*
X22933600Y-6449600D02*
G75*
G03X22933600Y-6449600I-20000J0D01*
G01*
X22959000Y-5141500D02*
G75*
G03X22959000Y-5141500I-20000J0D01*
G01*
X22959000Y-6983000D02*
G75*
G03X22959000Y-6983000I-20000J0D01*
G01*
X22959000Y-9650000D02*
G75*
G03X22959000Y-9650000I-20000J0D01*
G01*
X22959000Y-10158000D02*
G75*
G03X22959000Y-10158000I-20000J0D01*
G01*
X22959000Y-11491500D02*
G75*
G03X22959000Y-11491500I-20000J0D01*
G01*
X22959000Y-8316500D02*
G75*
G03X22959000Y-8316500I-20000J0D01*
G01*
X22984400Y-12291600D02*
G75*
G03X22984400Y-12291600I-20000J0D01*
G01*
X23022500Y-3808000D02*
G75*
G03X23022500Y-3808000I-20000J0D01*
G01*
X23213000Y-3871500D02*
G75*
G03X23213000Y-3871500I-20000J0D01*
G01*
X23213000Y-12101100D02*
G75*
G03X23213000Y-12101100I-20000J0D01*
G01*
X23213000Y-12215400D02*
G75*
G03X23213000Y-12215400I-20000J0D01*
G01*
X23213000Y-12329700D02*
G75*
G03X23213000Y-12329700I-20000J0D01*
G01*
X23213000Y-3198400D02*
G75*
G03X23213000Y-3198400I-20000J0D01*
G01*
X23213000Y-12444000D02*
G75*
G03X23213000Y-12444000I-20000J0D01*
G01*
X23340000Y-2512600D02*
G75*
G03X23340000Y-2512600I-20000J0D01*
G01*
X20300000Y-4849800D02*
X20300000Y-4899800D01*
X20275000Y-4874800D02*
X20325000Y-4874800D01*
X20370294Y-4680094D02*
X20370294Y-4730094D01*
X20345294Y-4705094D02*
X20395294Y-4705094D01*
X20370294Y-5019506D02*
X20370294Y-5069506D01*
X20345294Y-5044506D02*
X20395294Y-5044506D01*
X20540000Y-4609800D02*
X20540000Y-4659800D01*
X20515000Y-4634800D02*
X20565000Y-4634800D01*
X20540000Y-5089800D02*
X20540000Y-5139800D01*
X20515000Y-5114800D02*
X20565000Y-5114800D01*
X20709706Y-4680094D02*
X20709706Y-4730094D01*
X20684706Y-4705094D02*
X20734706Y-4705094D01*
X20709706Y-5019506D02*
X20709706Y-5069506D01*
X20684706Y-5044506D02*
X20734706Y-5044506D01*
X20780000Y-4849800D02*
X20780000Y-4899800D01*
X20755000Y-4874800D02*
X20805000Y-4874800D01*
X3940000Y-3035000D02*
X3940000Y-3085000D01*
X3915000Y-3060000D02*
X3965000Y-3060000D01*
X4010294Y-2865294D02*
X4010294Y-2915294D01*
X3985294Y-2890294D02*
X4035294Y-2890294D01*
X4010294Y-3204706D02*
X4010294Y-3254706D01*
X3985294Y-3229706D02*
X4035294Y-3229706D01*
X4180000Y-2795000D02*
X4180000Y-2845000D01*
X4155000Y-2820000D02*
X4205000Y-2820000D01*
X4180000Y-3275000D02*
X4180000Y-3325000D01*
X4155000Y-3300000D02*
X4205000Y-3300000D01*
X4349706Y-2865294D02*
X4349706Y-2915294D01*
X4324706Y-2890294D02*
X4374706Y-2890294D01*
X4349706Y-3204706D02*
X4349706Y-3254706D01*
X4324706Y-3229706D02*
X4374706Y-3229706D01*
X4420000Y-3035000D02*
X4420000Y-3085000D01*
X4395000Y-3060000D02*
X4445000Y-3060000D01*
X12940000Y-8735000D02*
X12940000Y-8785000D01*
X12915000Y-8760000D02*
X12965000Y-8760000D01*
X13010294Y-8565294D02*
X13010294Y-8615294D01*
X12985294Y-8590294D02*
X13035294Y-8590294D01*
X13010294Y-8904706D02*
X13010294Y-8954706D01*
X12985294Y-8929706D02*
X13035294Y-8929706D01*
X13180000Y-8495000D02*
X13180000Y-8545000D01*
X13155000Y-8520000D02*
X13205000Y-8520000D01*
X13180000Y-8975000D02*
X13180000Y-9025000D01*
X13155000Y-9000000D02*
X13205000Y-9000000D01*
X13349706Y-8565294D02*
X13349706Y-8615294D01*
X13324706Y-8590294D02*
X13374706Y-8590294D01*
X13349706Y-8904706D02*
X13349706Y-8954706D01*
X13324706Y-8929706D02*
X13374706Y-8929706D01*
X13420000Y-8735000D02*
X13420000Y-8785000D01*
X13395000Y-8760000D02*
X13445000Y-8760000D01*
X20300000Y-11185000D02*
X20300000Y-11235000D01*
X20275000Y-11210000D02*
X20325000Y-11210000D01*
X20370294Y-11015294D02*
X20370294Y-11065294D01*
X20345294Y-11040294D02*
X20395294Y-11040294D01*
X20370294Y-11354706D02*
X20370294Y-11404706D01*
X20345294Y-11379706D02*
X20395294Y-11379706D01*
X20540000Y-10945000D02*
X20540000Y-10995000D01*
X20515000Y-10970000D02*
X20565000Y-10970000D01*
X20540000Y-11425000D02*
X20540000Y-11475000D01*
X20515000Y-11450000D02*
X20565000Y-11450000D01*
X20709706Y-11015294D02*
X20709706Y-11065294D01*
X20684706Y-11040294D02*
X20734706Y-11040294D01*
X20709706Y-11354706D02*
X20709706Y-11404706D01*
X20684706Y-11379706D02*
X20734706Y-11379706D01*
X20780000Y-11185000D02*
X20780000Y-11235000D01*
X20755000Y-11210000D02*
X20805000Y-11210000D01*
X7440000Y-12035000D02*
X7440000Y-12085000D01*
X7415000Y-12060000D02*
X7465000Y-12060000D01*
X7510294Y-11865294D02*
X7510294Y-11915294D01*
X7485294Y-11890294D02*
X7535294Y-11890294D01*
X7510294Y-12204706D02*
X7510294Y-12254706D01*
X7485294Y-12229706D02*
X7535294Y-12229706D01*
X7680000Y-11795000D02*
X7680000Y-11845000D01*
X7655000Y-11820000D02*
X7705000Y-11820000D01*
X7680000Y-12275000D02*
X7680000Y-12325000D01*
X7655000Y-12300000D02*
X7705000Y-12300000D01*
X7849706Y-11865294D02*
X7849706Y-11915294D01*
X7824706Y-11890294D02*
X7874706Y-11890294D01*
X7849706Y-12204706D02*
X7849706Y-12254706D01*
X7824706Y-12229706D02*
X7874706Y-12229706D01*
X7920000Y-12035000D02*
X7920000Y-12085000D01*
X7895000Y-12060000D02*
X7945000Y-12060000D01*
X7333584Y-8179684D02*
X7333584Y-8123115D01*
X7277015Y-8123115D01*
X7277015Y-8179684D01*
X7333584Y-8179684D01*
X7333584Y-8433685D02*
X7333584Y-8377115D01*
X7277015Y-8377115D01*
X7277015Y-8433685D01*
X7333584Y-8433685D01*
X7333584Y-8687685D02*
X7333584Y-8631116D01*
X7277015Y-8631116D01*
X7277015Y-8687685D01*
X7333584Y-8687685D01*
X8095584Y-8179684D02*
X8095584Y-8123115D01*
X8039015Y-8123115D01*
X8039015Y-8179684D01*
X8095584Y-8179684D01*
X8095584Y-8433685D02*
X8095584Y-8377115D01*
X8039015Y-8377115D01*
X8039015Y-8433685D01*
X8095584Y-8433685D01*
X8095584Y-8687685D02*
X8095584Y-8631116D01*
X8039015Y-8631116D01*
X8039015Y-8687685D01*
X8095584Y-8687685D01*
X7346284Y-10884785D02*
X7346284Y-10828216D01*
X7289715Y-10828216D01*
X7289715Y-10884785D01*
X7346284Y-10884785D01*
X7346284Y-11138785D02*
X7346284Y-11082216D01*
X7289715Y-11082216D01*
X7289715Y-11138785D01*
X7346284Y-11138785D01*
X7346284Y-11392784D02*
X7346284Y-11336215D01*
X7289715Y-11336215D01*
X7289715Y-11392784D01*
X7346284Y-11392784D01*
X8108284Y-10884785D02*
X8108284Y-10828216D01*
X8051715Y-10828216D01*
X8051715Y-10884785D01*
X8108284Y-10884785D01*
X8108284Y-11138785D02*
X8108284Y-11082216D01*
X8051715Y-11082216D01*
X8051715Y-11138785D01*
X8108284Y-11138785D01*
X8108284Y-11392784D02*
X8108284Y-11336215D01*
X8051715Y-11336215D01*
X8051715Y-11392784D01*
X8108284Y-11392784D01*
X5984500Y-3154500D02*
X6029500Y-3109500D01*
X5984500Y-3064500D01*
X5939500Y-3109500D01*
X5984500Y-3154500D01*
X5984500Y-3408500D02*
X6029500Y-3363500D01*
X5984500Y-3318500D01*
X5939500Y-3363500D01*
X5984500Y-3408500D01*
X5984500Y-3662500D02*
X6029500Y-3617500D01*
X5984500Y-3572500D01*
X5939500Y-3617500D01*
X5984500Y-3662500D01*
X5984500Y-3916500D02*
X6029500Y-3871500D01*
X5984500Y-3826500D01*
X5939500Y-3871500D01*
X5984500Y-3916500D01*
X5984500Y-4170500D02*
X6029500Y-4125500D01*
X5984500Y-4080500D01*
X5939500Y-4125500D01*
X5984500Y-4170500D01*
X5984500Y-4424500D02*
X6029500Y-4379500D01*
X5984500Y-4334500D01*
X5939500Y-4379500D01*
X5984500Y-4424500D01*
X8016500Y-3154500D02*
X8061500Y-3109500D01*
X8016500Y-3064500D01*
X7971500Y-3109500D01*
X8016500Y-3154500D01*
X8016500Y-3408500D02*
X8061500Y-3363500D01*
X8016500Y-3318500D01*
X7971500Y-3363500D01*
X8016500Y-3408500D01*
X8016500Y-3662500D02*
X8061500Y-3617500D01*
X8016500Y-3572500D01*
X7971500Y-3617500D01*
X8016500Y-3662500D01*
X8016500Y-3916500D02*
X8061500Y-3871500D01*
X8016500Y-3826500D01*
X7971500Y-3871500D01*
X8016500Y-3916500D01*
X8016500Y-4170500D02*
X8061500Y-4125500D01*
X8016500Y-4080500D01*
X7971500Y-4125500D01*
X8016500Y-4170500D01*
X8016500Y-4424500D02*
X8061500Y-4379500D01*
X8016500Y-4334500D01*
X7971500Y-4379500D01*
X8016500Y-4424500D01*
X14962000Y-3316000D02*
X15057000Y-3411000D01*
X15057000Y-3316000D02*
X14962000Y-3411000D01*
X15057000Y-3363500D02*
G75*
G03X15057000Y-3363500I-47500J0D01*
G01*
X15212000Y-3316000D02*
X15307000Y-3411000D01*
X15307000Y-3316000D02*
X15212000Y-3411000D01*
X15307000Y-3363500D02*
G75*
G03X15307000Y-3363500I-47500J0D01*
G01*
X15462000Y-3316000D02*
X15557000Y-3411000D01*
X15557000Y-3316000D02*
X15462000Y-3411000D01*
X15557000Y-3363500D02*
G75*
G03X15557000Y-3363500I-47500J0D01*
G01*
X15712000Y-3316000D02*
X15807000Y-3411000D01*
X15807000Y-3316000D02*
X15712000Y-3411000D01*
X15807000Y-3363500D02*
G75*
G03X15807000Y-3363500I-47500J0D01*
G01*
X15962000Y-3316000D02*
X16057000Y-3411000D01*
X16057000Y-3316000D02*
X15962000Y-3411000D01*
X16057000Y-3363500D02*
G75*
G03X16057000Y-3363500I-47500J0D01*
G01*
X20473200Y-8484400D02*
X20573200Y-8584400D01*
X20573200Y-8484400D02*
X20473200Y-8584400D01*
X20523200Y-8484400D02*
X20523200Y-8584400D01*
X20473200Y-8534400D02*
X20573200Y-8534400D01*
X18761500Y-2996000D02*
X18861500Y-3096000D01*
X18861500Y-2996000D02*
X18761500Y-3096000D01*
X18811500Y-2996000D02*
X18811500Y-3096000D01*
X18761500Y-3046000D02*
X18861500Y-3046000D01*
X18761500Y-4266000D02*
X18861500Y-4366000D01*
X18861500Y-4266000D02*
X18761500Y-4366000D01*
X18811500Y-4266000D02*
X18811500Y-4366000D01*
X18761500Y-4316000D02*
X18861500Y-4316000D01*
X19015500Y-2996000D02*
X19115500Y-3096000D01*
X19115500Y-2996000D02*
X19015500Y-3096000D01*
X19065500Y-2996000D02*
X19065500Y-3096000D01*
X19015500Y-3046000D02*
X19115500Y-3046000D01*
X19015500Y-4266000D02*
X19115500Y-4366000D01*
X19115500Y-4266000D02*
X19015500Y-4366000D01*
X19065500Y-4266000D02*
X19065500Y-4366000D01*
X19015500Y-4316000D02*
X19115500Y-4316000D01*
X19269500Y-2996000D02*
X19369500Y-3096000D01*
X19369500Y-2996000D02*
X19269500Y-3096000D01*
X19319500Y-2996000D02*
X19319500Y-3096000D01*
X19269500Y-3046000D02*
X19369500Y-3046000D01*
X19269500Y-4266000D02*
X19369500Y-4366000D01*
X19369500Y-4266000D02*
X19269500Y-4366000D01*
X19319500Y-4266000D02*
X19319500Y-4366000D01*
X19269500Y-4316000D02*
X19369500Y-4316000D01*
X19523500Y-2996000D02*
X19623500Y-3096000D01*
X19623500Y-2996000D02*
X19523500Y-3096000D01*
X19573500Y-2996000D02*
X19573500Y-3096000D01*
X19523500Y-3046000D02*
X19623500Y-3046000D01*
X19523500Y-4266000D02*
X19623500Y-4366000D01*
X19623500Y-4266000D02*
X19523500Y-4366000D01*
X19573500Y-4266000D02*
X19573500Y-4366000D01*
X19523500Y-4316000D02*
X19623500Y-4316000D01*
X19777500Y-2996000D02*
X19877500Y-3096000D01*
X19877500Y-2996000D02*
X19777500Y-3096000D01*
X19827500Y-2996000D02*
X19827500Y-3096000D01*
X19777500Y-3046000D02*
X19877500Y-3046000D01*
X19777500Y-4266000D02*
X19877500Y-4366000D01*
X19877500Y-4266000D02*
X19777500Y-4366000D01*
X19827500Y-4266000D02*
X19827500Y-4366000D01*
X19777500Y-4316000D02*
X19877500Y-4316000D01*
X20031500Y-2996000D02*
X20131500Y-3096000D01*
X20131500Y-2996000D02*
X20031500Y-3096000D01*
X20081500Y-2996000D02*
X20081500Y-3096000D01*
X20031500Y-3046000D02*
X20131500Y-3046000D01*
X20031500Y-4266000D02*
X20131500Y-4366000D01*
X20131500Y-4266000D02*
X20031500Y-4366000D01*
X20081500Y-4266000D02*
X20081500Y-4366000D01*
X20031500Y-4316000D02*
X20131500Y-4316000D01*
X20285500Y-2996000D02*
X20385500Y-3096000D01*
X20385500Y-2996000D02*
X20285500Y-3096000D01*
X20335500Y-2996000D02*
X20335500Y-3096000D01*
X20285500Y-3046000D02*
X20385500Y-3046000D01*
X20285500Y-4266000D02*
X20385500Y-4366000D01*
X20385500Y-4266000D02*
X20285500Y-4366000D01*
X20335500Y-4266000D02*
X20335500Y-4366000D01*
X20285500Y-4316000D02*
X20385500Y-4316000D01*
X20539500Y-2996000D02*
X20639500Y-3096000D01*
X20639500Y-2996000D02*
X20539500Y-3096000D01*
X20589500Y-2996000D02*
X20589500Y-3096000D01*
X20539500Y-3046000D02*
X20639500Y-3046000D01*
X20539500Y-3504000D02*
X20639500Y-3604000D01*
X20639500Y-3504000D02*
X20539500Y-3604000D01*
X20589500Y-3504000D02*
X20589500Y-3604000D01*
X20539500Y-3554000D02*
X20639500Y-3554000D01*
X20539500Y-4266000D02*
X20639500Y-4366000D01*
X20639500Y-4266000D02*
X20539500Y-4366000D01*
X20589500Y-4266000D02*
X20589500Y-4366000D01*
X20539500Y-4316000D02*
X20639500Y-4316000D01*
X20984000Y-6171000D02*
X21084000Y-6271000D01*
X21084000Y-6171000D02*
X20984000Y-6271000D01*
X21034000Y-6171000D02*
X21034000Y-6271000D01*
X20984000Y-6221000D02*
X21084000Y-6221000D01*
X20984000Y-7441000D02*
X21084000Y-7541000D01*
X21084000Y-7441000D02*
X20984000Y-7541000D01*
X21034000Y-7441000D02*
X21034000Y-7541000D01*
X20984000Y-7491000D02*
X21084000Y-7491000D01*
X21238000Y-6171000D02*
X21338000Y-6271000D01*
X21338000Y-6171000D02*
X21238000Y-6271000D01*
X21288000Y-6171000D02*
X21288000Y-6271000D01*
X21238000Y-6221000D02*
X21338000Y-6221000D01*
X21238000Y-7441000D02*
X21338000Y-7541000D01*
X21338000Y-7441000D02*
X21238000Y-7541000D01*
X21288000Y-7441000D02*
X21288000Y-7541000D01*
X21238000Y-7491000D02*
X21338000Y-7491000D01*
X21492000Y-6171000D02*
X21592000Y-6271000D01*
X21592000Y-6171000D02*
X21492000Y-6271000D01*
X21542000Y-6171000D02*
X21542000Y-6271000D01*
X21492000Y-6221000D02*
X21592000Y-6221000D01*
X21492000Y-7441000D02*
X21592000Y-7541000D01*
X21592000Y-7441000D02*
X21492000Y-7541000D01*
X21542000Y-7441000D02*
X21542000Y-7541000D01*
X21492000Y-7491000D02*
X21592000Y-7491000D01*
X21746000Y-6171000D02*
X21846000Y-6271000D01*
X21846000Y-6171000D02*
X21746000Y-6271000D01*
X21796000Y-6171000D02*
X21796000Y-6271000D01*
X21746000Y-6221000D02*
X21846000Y-6221000D01*
X21746000Y-7441000D02*
X21846000Y-7541000D01*
X21846000Y-7441000D02*
X21746000Y-7541000D01*
X21796000Y-7441000D02*
X21796000Y-7541000D01*
X21746000Y-7491000D02*
X21846000Y-7491000D01*
X22000000Y-6171000D02*
X22100000Y-6271000D01*
X22100000Y-6171000D02*
X22000000Y-6271000D01*
X22050000Y-6171000D02*
X22050000Y-6271000D01*
X22000000Y-6221000D02*
X22100000Y-6221000D01*
X22000000Y-7441000D02*
X22100000Y-7541000D01*
X22100000Y-7441000D02*
X22000000Y-7541000D01*
X22050000Y-7441000D02*
X22050000Y-7541000D01*
X22000000Y-7491000D02*
X22100000Y-7491000D01*
X22254000Y-6171000D02*
X22354000Y-6271000D01*
X22354000Y-6171000D02*
X22254000Y-6271000D01*
X22304000Y-6171000D02*
X22304000Y-6271000D01*
X22254000Y-6221000D02*
X22354000Y-6221000D01*
X22254000Y-7441000D02*
X22354000Y-7541000D01*
X22354000Y-7441000D02*
X22254000Y-7541000D01*
X22304000Y-7441000D02*
X22304000Y-7541000D01*
X22254000Y-7491000D02*
X22354000Y-7491000D01*
X22508000Y-6171000D02*
X22608000Y-6271000D01*
X22608000Y-6171000D02*
X22508000Y-6271000D01*
X22558000Y-6171000D02*
X22558000Y-6271000D01*
X22508000Y-6221000D02*
X22608000Y-6221000D01*
X22508000Y-7441000D02*
X22608000Y-7541000D01*
X22608000Y-7441000D02*
X22508000Y-7541000D01*
X22558000Y-7441000D02*
X22558000Y-7541000D01*
X22508000Y-7491000D02*
X22608000Y-7491000D01*
X22762000Y-6171000D02*
X22862000Y-6271000D01*
X22862000Y-6171000D02*
X22762000Y-6271000D01*
X22812000Y-6171000D02*
X22812000Y-6271000D01*
X22762000Y-6221000D02*
X22862000Y-6221000D01*
X22762000Y-6679000D02*
X22862000Y-6779000D01*
X22862000Y-6679000D02*
X22762000Y-6779000D01*
X22812000Y-6679000D02*
X22812000Y-6779000D01*
X22762000Y-6729000D02*
X22862000Y-6729000D01*
X22762000Y-7441000D02*
X22862000Y-7541000D01*
X22862000Y-7441000D02*
X22762000Y-7541000D01*
X22812000Y-7441000D02*
X22812000Y-7541000D01*
X22762000Y-7491000D02*
X22862000Y-7491000D01*
X16764800Y-11888000D02*
X16864800Y-11988000D01*
X16864800Y-11888000D02*
X16764800Y-11988000D01*
X16814800Y-11888000D02*
X16814800Y-11988000D01*
X16764800Y-11938000D02*
X16864800Y-11938000D01*
X14428000Y-3607600D02*
X14528000Y-3707600D01*
X14528000Y-3607600D02*
X14428000Y-3707600D01*
X14478000Y-3607600D02*
X14478000Y-3707600D01*
X14428000Y-3657600D02*
X14528000Y-3657600D01*
X6760540Y-6049559D02*
X6860540Y-6149559D01*
X6860540Y-6049559D02*
X6760540Y-6149559D01*
X6810540Y-6049559D02*
X6810540Y-6149559D01*
X6760540Y-6099559D02*
X6860540Y-6099559D01*
X18761500Y-9346000D02*
X18861500Y-9446000D01*
X18861500Y-9346000D02*
X18761500Y-9446000D01*
X18811500Y-9346000D02*
X18811500Y-9446000D01*
X18761500Y-9396000D02*
X18861500Y-9396000D01*
X18761500Y-10616000D02*
X18861500Y-10716000D01*
X18861500Y-10616000D02*
X18761500Y-10716000D01*
X18811500Y-10616000D02*
X18811500Y-10716000D01*
X18761500Y-10666000D02*
X18861500Y-10666000D01*
X19015500Y-9346000D02*
X19115500Y-9446000D01*
X19115500Y-9346000D02*
X19015500Y-9446000D01*
X19065500Y-9346000D02*
X19065500Y-9446000D01*
X19015500Y-9396000D02*
X19115500Y-9396000D01*
X19015500Y-10616000D02*
X19115500Y-10716000D01*
X19115500Y-10616000D02*
X19015500Y-10716000D01*
X19065500Y-10616000D02*
X19065500Y-10716000D01*
X19015500Y-10666000D02*
X19115500Y-10666000D01*
X19269500Y-9346000D02*
X19369500Y-9446000D01*
X19369500Y-9346000D02*
X19269500Y-9446000D01*
X19319500Y-9346000D02*
X19319500Y-9446000D01*
X19269500Y-9396000D02*
X19369500Y-9396000D01*
X19269500Y-10616000D02*
X19369500Y-10716000D01*
X19369500Y-10616000D02*
X19269500Y-10716000D01*
X19319500Y-10616000D02*
X19319500Y-10716000D01*
X19269500Y-10666000D02*
X19369500Y-10666000D01*
X19523500Y-9346000D02*
X19623500Y-9446000D01*
X19623500Y-9346000D02*
X19523500Y-9446000D01*
X19573500Y-9346000D02*
X19573500Y-9446000D01*
X19523500Y-9396000D02*
X19623500Y-9396000D01*
X19523500Y-10616000D02*
X19623500Y-10716000D01*
X19623500Y-10616000D02*
X19523500Y-10716000D01*
X19573500Y-10616000D02*
X19573500Y-10716000D01*
X19523500Y-10666000D02*
X19623500Y-10666000D01*
X19777500Y-9346000D02*
X19877500Y-9446000D01*
X19877500Y-9346000D02*
X19777500Y-9446000D01*
X19827500Y-9346000D02*
X19827500Y-9446000D01*
X19777500Y-9396000D02*
X19877500Y-9396000D01*
X19777500Y-10616000D02*
X19877500Y-10716000D01*
X19877500Y-10616000D02*
X19777500Y-10716000D01*
X19827500Y-10616000D02*
X19827500Y-10716000D01*
X19777500Y-10666000D02*
X19877500Y-10666000D01*
X20031500Y-9346000D02*
X20131500Y-9446000D01*
X20131500Y-9346000D02*
X20031500Y-9446000D01*
X20081500Y-9346000D02*
X20081500Y-9446000D01*
X20031500Y-9396000D02*
X20131500Y-9396000D01*
X20031500Y-10616000D02*
X20131500Y-10716000D01*
X20131500Y-10616000D02*
X20031500Y-10716000D01*
X20081500Y-10616000D02*
X20081500Y-10716000D01*
X20031500Y-10666000D02*
X20131500Y-10666000D01*
X20285500Y-9346000D02*
X20385500Y-9446000D01*
X20385500Y-9346000D02*
X20285500Y-9446000D01*
X20335500Y-9346000D02*
X20335500Y-9446000D01*
X20285500Y-9396000D02*
X20385500Y-9396000D01*
X20285500Y-10616000D02*
X20385500Y-10716000D01*
X20385500Y-10616000D02*
X20285500Y-10716000D01*
X20335500Y-10616000D02*
X20335500Y-10716000D01*
X20285500Y-10666000D02*
X20385500Y-10666000D01*
X20539500Y-9346000D02*
X20639500Y-9446000D01*
X20639500Y-9346000D02*
X20539500Y-9446000D01*
X20589500Y-9346000D02*
X20589500Y-9446000D01*
X20539500Y-9396000D02*
X20639500Y-9396000D01*
X20539500Y-9854000D02*
X20639500Y-9954000D01*
X20639500Y-9854000D02*
X20539500Y-9954000D01*
X20589500Y-9854000D02*
X20589500Y-9954000D01*
X20539500Y-9904000D02*
X20639500Y-9904000D01*
X20539500Y-10616000D02*
X20639500Y-10716000D01*
X20639500Y-10616000D02*
X20539500Y-10716000D01*
X20589500Y-10616000D02*
X20589500Y-10716000D01*
X20539500Y-10666000D02*
X20639500Y-10666000D01*
X20984000Y-2996000D02*
X21084000Y-3096000D01*
X21084000Y-2996000D02*
X20984000Y-3096000D01*
X21034000Y-2996000D02*
X21034000Y-3096000D01*
X20984000Y-3046000D02*
X21084000Y-3046000D01*
X20984000Y-4266000D02*
X21084000Y-4366000D01*
X21084000Y-4266000D02*
X20984000Y-4366000D01*
X21034000Y-4266000D02*
X21034000Y-4366000D01*
X20984000Y-4316000D02*
X21084000Y-4316000D01*
X21238000Y-2996000D02*
X21338000Y-3096000D01*
X21338000Y-2996000D02*
X21238000Y-3096000D01*
X21288000Y-2996000D02*
X21288000Y-3096000D01*
X21238000Y-3046000D02*
X21338000Y-3046000D01*
X21238000Y-4266000D02*
X21338000Y-4366000D01*
X21338000Y-4266000D02*
X21238000Y-4366000D01*
X21288000Y-4266000D02*
X21288000Y-4366000D01*
X21238000Y-4316000D02*
X21338000Y-4316000D01*
X21492000Y-2996000D02*
X21592000Y-3096000D01*
X21592000Y-2996000D02*
X21492000Y-3096000D01*
X21542000Y-2996000D02*
X21542000Y-3096000D01*
X21492000Y-3046000D02*
X21592000Y-3046000D01*
X21492000Y-4266000D02*
X21592000Y-4366000D01*
X21592000Y-4266000D02*
X21492000Y-4366000D01*
X21542000Y-4266000D02*
X21542000Y-4366000D01*
X21492000Y-4316000D02*
X21592000Y-4316000D01*
X21746000Y-2996000D02*
X21846000Y-3096000D01*
X21846000Y-2996000D02*
X21746000Y-3096000D01*
X21796000Y-2996000D02*
X21796000Y-3096000D01*
X21746000Y-3046000D02*
X21846000Y-3046000D01*
X21746000Y-4266000D02*
X21846000Y-4366000D01*
X21846000Y-4266000D02*
X21746000Y-4366000D01*
X21796000Y-4266000D02*
X21796000Y-4366000D01*
X21746000Y-4316000D02*
X21846000Y-4316000D01*
X22000000Y-2996000D02*
X22100000Y-3096000D01*
X22100000Y-2996000D02*
X22000000Y-3096000D01*
X22050000Y-2996000D02*
X22050000Y-3096000D01*
X22000000Y-3046000D02*
X22100000Y-3046000D01*
X22000000Y-4266000D02*
X22100000Y-4366000D01*
X22100000Y-4266000D02*
X22000000Y-4366000D01*
X22050000Y-4266000D02*
X22050000Y-4366000D01*
X22000000Y-4316000D02*
X22100000Y-4316000D01*
X22254000Y-2996000D02*
X22354000Y-3096000D01*
X22354000Y-2996000D02*
X22254000Y-3096000D01*
X22304000Y-2996000D02*
X22304000Y-3096000D01*
X22254000Y-3046000D02*
X22354000Y-3046000D01*
X22254000Y-4266000D02*
X22354000Y-4366000D01*
X22354000Y-4266000D02*
X22254000Y-4366000D01*
X22304000Y-4266000D02*
X22304000Y-4366000D01*
X22254000Y-4316000D02*
X22354000Y-4316000D01*
X22508000Y-2996000D02*
X22608000Y-3096000D01*
X22608000Y-2996000D02*
X22508000Y-3096000D01*
X22558000Y-2996000D02*
X22558000Y-3096000D01*
X22508000Y-3046000D02*
X22608000Y-3046000D01*
X22508000Y-4266000D02*
X22608000Y-4366000D01*
X22608000Y-4266000D02*
X22508000Y-4366000D01*
X22558000Y-4266000D02*
X22558000Y-4366000D01*
X22508000Y-4316000D02*
X22608000Y-4316000D01*
X22762000Y-2996000D02*
X22862000Y-3096000D01*
X22862000Y-2996000D02*
X22762000Y-3096000D01*
X22812000Y-2996000D02*
X22812000Y-3096000D01*
X22762000Y-3046000D02*
X22862000Y-3046000D01*
X22762000Y-3504000D02*
X22862000Y-3604000D01*
X22862000Y-3504000D02*
X22762000Y-3604000D01*
X22812000Y-3504000D02*
X22812000Y-3604000D01*
X22762000Y-3554000D02*
X22862000Y-3554000D01*
X22762000Y-4266000D02*
X22862000Y-4366000D01*
X22862000Y-4266000D02*
X22762000Y-4366000D01*
X22812000Y-4266000D02*
X22812000Y-4366000D01*
X22762000Y-4316000D02*
X22862000Y-4316000D01*
X20984000Y-9346000D02*
X21084000Y-9446000D01*
X21084000Y-9346000D02*
X20984000Y-9446000D01*
X21034000Y-9346000D02*
X21034000Y-9446000D01*
X20984000Y-9396000D02*
X21084000Y-9396000D01*
X20984000Y-10616000D02*
X21084000Y-10716000D01*
X21084000Y-10616000D02*
X20984000Y-10716000D01*
X21034000Y-10616000D02*
X21034000Y-10716000D01*
X20984000Y-10666000D02*
X21084000Y-10666000D01*
X21238000Y-9346000D02*
X21338000Y-9446000D01*
X21338000Y-9346000D02*
X21238000Y-9446000D01*
X21288000Y-9346000D02*
X21288000Y-9446000D01*
X21238000Y-9396000D02*
X21338000Y-9396000D01*
X21238000Y-10616000D02*
X21338000Y-10716000D01*
X21338000Y-10616000D02*
X21238000Y-10716000D01*
X21288000Y-10616000D02*
X21288000Y-10716000D01*
X21238000Y-10666000D02*
X21338000Y-10666000D01*
X21492000Y-9346000D02*
X21592000Y-9446000D01*
X21592000Y-9346000D02*
X21492000Y-9446000D01*
X21542000Y-9346000D02*
X21542000Y-9446000D01*
X21492000Y-9396000D02*
X21592000Y-9396000D01*
X21492000Y-10616000D02*
X21592000Y-10716000D01*
X21592000Y-10616000D02*
X21492000Y-10716000D01*
X21542000Y-10616000D02*
X21542000Y-10716000D01*
X21492000Y-10666000D02*
X21592000Y-10666000D01*
X21746000Y-9346000D02*
X21846000Y-9446000D01*
X21846000Y-9346000D02*
X21746000Y-9446000D01*
X21796000Y-9346000D02*
X21796000Y-9446000D01*
X21746000Y-9396000D02*
X21846000Y-9396000D01*
X21746000Y-10616000D02*
X21846000Y-10716000D01*
X21846000Y-10616000D02*
X21746000Y-10716000D01*
X21796000Y-10616000D02*
X21796000Y-10716000D01*
X21746000Y-10666000D02*
X21846000Y-10666000D01*
X22000000Y-9346000D02*
X22100000Y-9446000D01*
X22100000Y-9346000D02*
X22000000Y-9446000D01*
X22050000Y-9346000D02*
X22050000Y-9446000D01*
X22000000Y-9396000D02*
X22100000Y-9396000D01*
X22000000Y-10616000D02*
X22100000Y-10716000D01*
X22100000Y-10616000D02*
X22000000Y-10716000D01*
X22050000Y-10616000D02*
X22050000Y-10716000D01*
X22000000Y-10666000D02*
X22100000Y-10666000D01*
X22254000Y-9346000D02*
X22354000Y-9446000D01*
X22354000Y-9346000D02*
X22254000Y-9446000D01*
X22304000Y-9346000D02*
X22304000Y-9446000D01*
X22254000Y-9396000D02*
X22354000Y-9396000D01*
X22254000Y-10616000D02*
X22354000Y-10716000D01*
X22354000Y-10616000D02*
X22254000Y-10716000D01*
X22304000Y-10616000D02*
X22304000Y-10716000D01*
X22254000Y-10666000D02*
X22354000Y-10666000D01*
X22508000Y-9346000D02*
X22608000Y-9446000D01*
X22608000Y-9346000D02*
X22508000Y-9446000D01*
X22558000Y-9346000D02*
X22558000Y-9446000D01*
X22508000Y-9396000D02*
X22608000Y-9396000D01*
X22508000Y-10616000D02*
X22608000Y-10716000D01*
X22608000Y-10616000D02*
X22508000Y-10716000D01*
X22558000Y-10616000D02*
X22558000Y-10716000D01*
X22508000Y-10666000D02*
X22608000Y-10666000D01*
X22762000Y-9346000D02*
X22862000Y-9446000D01*
X22862000Y-9346000D02*
X22762000Y-9446000D01*
X22812000Y-9346000D02*
X22812000Y-9446000D01*
X22762000Y-9396000D02*
X22862000Y-9396000D01*
X22762000Y-9854000D02*
X22862000Y-9954000D01*
X22862000Y-9854000D02*
X22762000Y-9954000D01*
X22812000Y-9854000D02*
X22812000Y-9954000D01*
X22762000Y-9904000D02*
X22862000Y-9904000D01*
X22762000Y-10616000D02*
X22862000Y-10716000D01*
X22862000Y-10616000D02*
X22762000Y-10716000D01*
X22812000Y-10616000D02*
X22812000Y-10716000D01*
X22762000Y-10666000D02*
X22862000Y-10666000D01*
X18761500Y-6171000D02*
X18861500Y-6271000D01*
X18861500Y-6171000D02*
X18761500Y-6271000D01*
X18811500Y-6171000D02*
X18811500Y-6271000D01*
X18761500Y-6221000D02*
X18861500Y-6221000D01*
X18761500Y-7441000D02*
X18861500Y-7541000D01*
X18861500Y-7441000D02*
X18761500Y-7541000D01*
X18811500Y-7441000D02*
X18811500Y-7541000D01*
X18761500Y-7491000D02*
X18861500Y-7491000D01*
X19015500Y-6171000D02*
X19115500Y-6271000D01*
X19115500Y-6171000D02*
X19015500Y-6271000D01*
X19065500Y-6171000D02*
X19065500Y-6271000D01*
X19015500Y-6221000D02*
X19115500Y-6221000D01*
X19015500Y-7441000D02*
X19115500Y-7541000D01*
X19115500Y-7441000D02*
X19015500Y-7541000D01*
X19065500Y-7441000D02*
X19065500Y-7541000D01*
X19015500Y-7491000D02*
X19115500Y-7491000D01*
X19269500Y-6171000D02*
X19369500Y-6271000D01*
X19369500Y-6171000D02*
X19269500Y-6271000D01*
X19319500Y-6171000D02*
X19319500Y-6271000D01*
X19269500Y-6221000D02*
X19369500Y-6221000D01*
X19269500Y-7441000D02*
X19369500Y-7541000D01*
X19369500Y-7441000D02*
X19269500Y-7541000D01*
X19319500Y-7441000D02*
X19319500Y-7541000D01*
X19269500Y-7491000D02*
X19369500Y-7491000D01*
X19523500Y-6171000D02*
X19623500Y-6271000D01*
X19623500Y-6171000D02*
X19523500Y-6271000D01*
X19573500Y-6171000D02*
X19573500Y-6271000D01*
X19523500Y-6221000D02*
X19623500Y-6221000D01*
X19523500Y-7441000D02*
X19623500Y-7541000D01*
X19623500Y-7441000D02*
X19523500Y-7541000D01*
X19573500Y-7441000D02*
X19573500Y-7541000D01*
X19523500Y-7491000D02*
X19623500Y-7491000D01*
X19777500Y-6171000D02*
X19877500Y-6271000D01*
X19877500Y-6171000D02*
X19777500Y-6271000D01*
X19827500Y-6171000D02*
X19827500Y-6271000D01*
X19777500Y-6221000D02*
X19877500Y-6221000D01*
X19777500Y-7441000D02*
X19877500Y-7541000D01*
X19877500Y-7441000D02*
X19777500Y-7541000D01*
X19827500Y-7441000D02*
X19827500Y-7541000D01*
X19777500Y-7491000D02*
X19877500Y-7491000D01*
X20031500Y-6171000D02*
X20131500Y-6271000D01*
X20131500Y-6171000D02*
X20031500Y-6271000D01*
X20081500Y-6171000D02*
X20081500Y-6271000D01*
X20031500Y-6221000D02*
X20131500Y-6221000D01*
X20031500Y-7441000D02*
X20131500Y-7541000D01*
X20131500Y-7441000D02*
X20031500Y-7541000D01*
X20081500Y-7441000D02*
X20081500Y-7541000D01*
X20031500Y-7491000D02*
X20131500Y-7491000D01*
X20285500Y-6171000D02*
X20385500Y-6271000D01*
X20385500Y-6171000D02*
X20285500Y-6271000D01*
X20335500Y-6171000D02*
X20335500Y-6271000D01*
X20285500Y-6221000D02*
X20385500Y-6221000D01*
X20285500Y-7441000D02*
X20385500Y-7541000D01*
X20385500Y-7441000D02*
X20285500Y-7541000D01*
X20335500Y-7441000D02*
X20335500Y-7541000D01*
X20285500Y-7491000D02*
X20385500Y-7491000D01*
X20539500Y-6171000D02*
X20639500Y-6271000D01*
X20639500Y-6171000D02*
X20539500Y-6271000D01*
X20589500Y-6171000D02*
X20589500Y-6271000D01*
X20539500Y-6221000D02*
X20639500Y-6221000D01*
X20539500Y-6679000D02*
X20639500Y-6779000D01*
X20639500Y-6679000D02*
X20539500Y-6779000D01*
X20589500Y-6679000D02*
X20589500Y-6779000D01*
X20539500Y-6729000D02*
X20639500Y-6729000D01*
X20539500Y-7441000D02*
X20639500Y-7541000D01*
X20639500Y-7441000D02*
X20539500Y-7541000D01*
X20589500Y-7441000D02*
X20589500Y-7541000D01*
X20539500Y-7491000D02*
X20639500Y-7491000D01*
X9754400Y-4369600D02*
X9854400Y-4469600D01*
X9854400Y-4369600D02*
X9754400Y-4469600D01*
X9804400Y-4369600D02*
X9804400Y-4469600D01*
X9754400Y-4419600D02*
X9854400Y-4419600D01*
X13005600Y-9449600D02*
X13105600Y-9549600D01*
X13105600Y-9449600D02*
X13005600Y-9549600D01*
X13055600Y-9449600D02*
X13055600Y-9549600D01*
X13005600Y-9499600D02*
X13105600Y-9499600D01*
X20524000Y-5588800D02*
X20624000Y-5688800D01*
X20624000Y-5588800D02*
X20524000Y-5688800D01*
X20574000Y-5588800D02*
X20574000Y-5688800D01*
X20524000Y-5638800D02*
X20624000Y-5638800D01*
X15901200Y-8941600D02*
X16001200Y-9041600D01*
X16001200Y-8941600D02*
X15901200Y-9041600D01*
X15951200Y-8941600D02*
X15951200Y-9041600D01*
X15901200Y-8991600D02*
X16001200Y-8991600D01*
X20524000Y-11837200D02*
X20624000Y-11937200D01*
X20624000Y-11837200D02*
X20524000Y-11937200D01*
X20574000Y-11837200D02*
X20574000Y-11937200D01*
X20524000Y-11887200D02*
X20624000Y-11887200D01*
X9297200Y-12396000D02*
X9397200Y-12496000D01*
X9397200Y-12396000D02*
X9297200Y-12496000D01*
X9347200Y-12396000D02*
X9347200Y-12496000D01*
X9297200Y-12446000D02*
X9397200Y-12446000D01*
X16982700Y-3312700D02*
X17084300Y-3414300D01*
X17084300Y-3312700D02*
X16982700Y-3414300D01*
X17069421Y-3399421D02*
X17069421Y-3327579D01*
X16997579Y-3327579D01*
X16997579Y-3399421D01*
X17069421Y-3399421D01*
X16982700Y-3566700D02*
X17084300Y-3668300D01*
X17084300Y-3566700D02*
X16982700Y-3668300D01*
X17069421Y-3653421D02*
X17069421Y-3581579D01*
X16997579Y-3581579D01*
X16997579Y-3653421D01*
X17069421Y-3653421D01*
X16982700Y-3820700D02*
X17084300Y-3922300D01*
X17084300Y-3820700D02*
X16982700Y-3922300D01*
X17069421Y-3907421D02*
X17069421Y-3835579D01*
X16997579Y-3835579D01*
X16997579Y-3907421D01*
X17069421Y-3907421D01*
X16982700Y-4074700D02*
X17084300Y-4176300D01*
X17084300Y-4074700D02*
X16982700Y-4176300D01*
X17069421Y-4161421D02*
X17069421Y-4089579D01*
X16997579Y-4089579D01*
X16997579Y-4161421D01*
X17069421Y-4161421D01*
X16982700Y-4328700D02*
X17084300Y-4430300D01*
X17084300Y-4328700D02*
X16982700Y-4430300D01*
X17069421Y-4415421D02*
X17069421Y-4343579D01*
X16997579Y-4343579D01*
X16997579Y-4415421D01*
X17069421Y-4415421D01*
X16982700Y-4582700D02*
X17084300Y-4684300D01*
X17084300Y-4582700D02*
X16982700Y-4684300D01*
X17069421Y-4669421D02*
X17069421Y-4597579D01*
X16997579Y-4597579D01*
X16997579Y-4669421D01*
X17069421Y-4669421D01*
X17236700Y-3312700D02*
X17338300Y-3414300D01*
X17338300Y-3312700D02*
X17236700Y-3414300D01*
X17323421Y-3399421D02*
X17323421Y-3327579D01*
X17251579Y-3327579D01*
X17251579Y-3399421D01*
X17323421Y-3399421D01*
X17236700Y-3566700D02*
X17338300Y-3668300D01*
X17338300Y-3566700D02*
X17236700Y-3668300D01*
X17323421Y-3653421D02*
X17323421Y-3581579D01*
X17251579Y-3581579D01*
X17251579Y-3653421D01*
X17323421Y-3653421D01*
X17236700Y-3820700D02*
X17338300Y-3922300D01*
X17338300Y-3820700D02*
X17236700Y-3922300D01*
X17323421Y-3907421D02*
X17323421Y-3835579D01*
X17251579Y-3835579D01*
X17251579Y-3907421D01*
X17323421Y-3907421D01*
X17236700Y-4074700D02*
X17338300Y-4176300D01*
X17338300Y-4074700D02*
X17236700Y-4176300D01*
X17323421Y-4161421D02*
X17323421Y-4089579D01*
X17251579Y-4089579D01*
X17251579Y-4161421D01*
X17323421Y-4161421D01*
X17236700Y-4328700D02*
X17338300Y-4430300D01*
X17338300Y-4328700D02*
X17236700Y-4430300D01*
X17323421Y-4415421D02*
X17323421Y-4343579D01*
X17251579Y-4343579D01*
X17251579Y-4415421D01*
X17323421Y-4415421D01*
X17236700Y-4582700D02*
X17338300Y-4684300D01*
X17338300Y-4582700D02*
X17236700Y-4684300D01*
X17323421Y-4669421D02*
X17323421Y-4597579D01*
X17251579Y-4597579D01*
X17251579Y-4669421D01*
X17323421Y-4669421D01*
X14442700Y-11123200D02*
X14544300Y-11224800D01*
X14544300Y-11123200D02*
X14442700Y-11224800D01*
X14529421Y-11209921D02*
X14529421Y-11138079D01*
X14457579Y-11138079D01*
X14457579Y-11209921D01*
X14529421Y-11209921D01*
X14442700Y-11377200D02*
X14544300Y-11478800D01*
X14544300Y-11377200D02*
X14442700Y-11478800D01*
X14529421Y-11463921D02*
X14529421Y-11392079D01*
X14457579Y-11392079D01*
X14457579Y-11463921D01*
X14529421Y-11463921D01*
X14696700Y-11123200D02*
X14798300Y-11224800D01*
X14798300Y-11123200D02*
X14696700Y-11224800D01*
X14783421Y-11209921D02*
X14783421Y-11138079D01*
X14711579Y-11138079D01*
X14711579Y-11209921D01*
X14783421Y-11209921D01*
X14696700Y-11377200D02*
X14798300Y-11478800D01*
X14798300Y-11377200D02*
X14696700Y-11478800D01*
X14783421Y-11463921D02*
X14783421Y-11392079D01*
X14711579Y-11392079D01*
X14711579Y-11463921D01*
X14783421Y-11463921D01*
X14950700Y-11123200D02*
X15052300Y-11224800D01*
X15052300Y-11123200D02*
X14950700Y-11224800D01*
X15037421Y-11209921D02*
X15037421Y-11138079D01*
X14965579Y-11138079D01*
X14965579Y-11209921D01*
X15037421Y-11209921D01*
X14950700Y-11377200D02*
X15052300Y-11478800D01*
X15052300Y-11377200D02*
X14950700Y-11478800D01*
X15037421Y-11463921D02*
X15037421Y-11392079D01*
X14965579Y-11392079D01*
X14965579Y-11463921D01*
X15037421Y-11463921D01*
X15204700Y-11123200D02*
X15306300Y-11224800D01*
X15306300Y-11123200D02*
X15204700Y-11224800D01*
X15291421Y-11209921D02*
X15291421Y-11138079D01*
X15219579Y-11138079D01*
X15219579Y-11209921D01*
X15291421Y-11209921D01*
X15204700Y-11377200D02*
X15306300Y-11478800D01*
X15306300Y-11377200D02*
X15204700Y-11478800D01*
X15291421Y-11463921D02*
X15291421Y-11392079D01*
X15219579Y-11392079D01*
X15219579Y-11463921D01*
X15291421Y-11463921D01*
X15458700Y-11123200D02*
X15560300Y-11224800D01*
X15560300Y-11123200D02*
X15458700Y-11224800D01*
X15545421Y-11209921D02*
X15545421Y-11138079D01*
X15473579Y-11138079D01*
X15473579Y-11209921D01*
X15545421Y-11209921D01*
X15458700Y-11377200D02*
X15560300Y-11478800D01*
X15560300Y-11377200D02*
X15458700Y-11478800D01*
X15545421Y-11463921D02*
X15545421Y-11392079D01*
X15473579Y-11392079D01*
X15473579Y-11463921D01*
X15545421Y-11463921D01*
X15712700Y-11123200D02*
X15814300Y-11224800D01*
X15814300Y-11123200D02*
X15712700Y-11224800D01*
X15799421Y-11209921D02*
X15799421Y-11138079D01*
X15727579Y-11138079D01*
X15727579Y-11209921D01*
X15799421Y-11209921D01*
X15712700Y-11377200D02*
X15814300Y-11478800D01*
X15814300Y-11377200D02*
X15712700Y-11478800D01*
X15799421Y-11463921D02*
X15799421Y-11392079D01*
X15727579Y-11392079D01*
X15727579Y-11463921D01*
X15799421Y-11463921D01*
X15966700Y-11123200D02*
X16068300Y-11224800D01*
X16068300Y-11123200D02*
X15966700Y-11224800D01*
X16053421Y-11209921D02*
X16053421Y-11138079D01*
X15981579Y-11138079D01*
X15981579Y-11209921D01*
X16053421Y-11209921D01*
X15966700Y-11377200D02*
X16068300Y-11478800D01*
X16068300Y-11377200D02*
X15966700Y-11478800D01*
X16053421Y-11463921D02*
X16053421Y-11392079D01*
X15981579Y-11392079D01*
X15981579Y-11463921D01*
X16053421Y-11463921D01*
X16220700Y-11123200D02*
X16322300Y-11224800D01*
X16322300Y-11123200D02*
X16220700Y-11224800D01*
X16307421Y-11209921D02*
X16307421Y-11138079D01*
X16235579Y-11138079D01*
X16235579Y-11209921D01*
X16307421Y-11209921D01*
X16220700Y-11377200D02*
X16322300Y-11478800D01*
X16322300Y-11377200D02*
X16220700Y-11478800D01*
X16307421Y-11463921D02*
X16307421Y-11392079D01*
X16235579Y-11392079D01*
X16235579Y-11463921D01*
X16307421Y-11463921D01*
X9604000Y-9167400D02*
X9705600Y-9269000D01*
X9705600Y-9167400D02*
X9604000Y-9269000D01*
X9690721Y-9254121D02*
X9690721Y-9182279D01*
X9618879Y-9182279D01*
X9618879Y-9254121D01*
X9690721Y-9254121D01*
X9604000Y-9421400D02*
X9705600Y-9523000D01*
X9705600Y-9421400D02*
X9604000Y-9523000D01*
X9690721Y-9508121D02*
X9690721Y-9436279D01*
X9618879Y-9436279D01*
X9618879Y-9508121D01*
X9690721Y-9508121D01*
X9858000Y-9167400D02*
X9959600Y-9269000D01*
X9959600Y-9167400D02*
X9858000Y-9269000D01*
X9944721Y-9254121D02*
X9944721Y-9182279D01*
X9872879Y-9182279D01*
X9872879Y-9254121D01*
X9944721Y-9254121D01*
X9858000Y-9421400D02*
X9959600Y-9523000D01*
X9959600Y-9421400D02*
X9858000Y-9523000D01*
X9944721Y-9508121D02*
X9944721Y-9436279D01*
X9872879Y-9436279D01*
X9872879Y-9508121D01*
X9944721Y-9508121D01*
X10112000Y-9167400D02*
X10213600Y-9269000D01*
X10213600Y-9167400D02*
X10112000Y-9269000D01*
X10198721Y-9254121D02*
X10198721Y-9182279D01*
X10126879Y-9182279D01*
X10126879Y-9254121D01*
X10198721Y-9254121D01*
X10112000Y-9421400D02*
X10213600Y-9523000D01*
X10213600Y-9421400D02*
X10112000Y-9523000D01*
X10198721Y-9508121D02*
X10198721Y-9436279D01*
X10126879Y-9436279D01*
X10126879Y-9508121D01*
X10198721Y-9508121D01*
X10366000Y-9167400D02*
X10467600Y-9269000D01*
X10467600Y-9167400D02*
X10366000Y-9269000D01*
X10452721Y-9254121D02*
X10452721Y-9182279D01*
X10380879Y-9182279D01*
X10380879Y-9254121D01*
X10452721Y-9254121D01*
X10366000Y-9421400D02*
X10467600Y-9523000D01*
X10467600Y-9421400D02*
X10366000Y-9523000D01*
X10452721Y-9508121D02*
X10452721Y-9436279D01*
X10380879Y-9436279D01*
X10380879Y-9508121D01*
X10452721Y-9508121D01*
X10620000Y-9167400D02*
X10721600Y-9269000D01*
X10721600Y-9167400D02*
X10620000Y-9269000D01*
X10706721Y-9254121D02*
X10706721Y-9182279D01*
X10634879Y-9182279D01*
X10634879Y-9254121D01*
X10706721Y-9254121D01*
X10620000Y-9421400D02*
X10721600Y-9523000D01*
X10721600Y-9421400D02*
X10620000Y-9523000D01*
X10706721Y-9508121D02*
X10706721Y-9436279D01*
X10634879Y-9436279D01*
X10634879Y-9508121D01*
X10706721Y-9508121D01*
X10874000Y-9167400D02*
X10975600Y-9269000D01*
X10975600Y-9167400D02*
X10874000Y-9269000D01*
X10960721Y-9254121D02*
X10960721Y-9182279D01*
X10888879Y-9182279D01*
X10888879Y-9254121D01*
X10960721Y-9254121D01*
X10874000Y-9421400D02*
X10975600Y-9523000D01*
X10975600Y-9421400D02*
X10874000Y-9523000D01*
X10960721Y-9508121D02*
X10960721Y-9436279D01*
X10888879Y-9436279D01*
X10888879Y-9508121D01*
X10960721Y-9508121D01*
X11128000Y-9167400D02*
X11229600Y-9269000D01*
X11229600Y-9167400D02*
X11128000Y-9269000D01*
X11214721Y-9254121D02*
X11214721Y-9182279D01*
X11142879Y-9182279D01*
X11142879Y-9254121D01*
X11214721Y-9254121D01*
X11128000Y-9421400D02*
X11229600Y-9523000D01*
X11229600Y-9421400D02*
X11128000Y-9523000D01*
X11214721Y-9508121D02*
X11214721Y-9436279D01*
X11142879Y-9436279D01*
X11142879Y-9508121D01*
X11214721Y-9508121D01*
X11382000Y-9167400D02*
X11483600Y-9269000D01*
X11483600Y-9167400D02*
X11382000Y-9269000D01*
X11468721Y-9254121D02*
X11468721Y-9182279D01*
X11396879Y-9182279D01*
X11396879Y-9254121D01*
X11468721Y-9254121D01*
X11382000Y-9421400D02*
X11483600Y-9523000D01*
X11483600Y-9421400D02*
X11382000Y-9523000D01*
X11468721Y-9508121D02*
X11468721Y-9436279D01*
X11396879Y-9436279D01*
X11396879Y-9508121D01*
X11468721Y-9508121D01*
X11636000Y-9167400D02*
X11737600Y-9269000D01*
X11737600Y-9167400D02*
X11636000Y-9269000D01*
X11722721Y-9254121D02*
X11722721Y-9182279D01*
X11650879Y-9182279D01*
X11650879Y-9254121D01*
X11722721Y-9254121D01*
X11636000Y-9421400D02*
X11737600Y-9523000D01*
X11737600Y-9421400D02*
X11636000Y-9523000D01*
X11722721Y-9508121D02*
X11722721Y-9436279D01*
X11650879Y-9436279D01*
X11650879Y-9508121D01*
X11722721Y-9508121D01*
X11890000Y-9167400D02*
X11991600Y-9269000D01*
X11991600Y-9167400D02*
X11890000Y-9269000D01*
X11976721Y-9254121D02*
X11976721Y-9182279D01*
X11904879Y-9182279D01*
X11904879Y-9254121D01*
X11976721Y-9254121D01*
X11890000Y-9421400D02*
X11991600Y-9523000D01*
X11991600Y-9421400D02*
X11890000Y-9523000D01*
X11976721Y-9508121D02*
X11976721Y-9436279D01*
X11904879Y-9436279D01*
X11904879Y-9508121D01*
X11976721Y-9508121D01*
X6361300Y-10611000D02*
X6471300Y-10721000D01*
X6471300Y-10611000D02*
X6361300Y-10721000D01*
X6416300Y-10721000D02*
X6471300Y-10666000D01*
X6416300Y-10611000D01*
X6361300Y-10666000D01*
X6416300Y-10721000D01*
X6361300Y-10865000D02*
X6471300Y-10975000D01*
X6471300Y-10865000D02*
X6361300Y-10975000D01*
X6416300Y-10975000D02*
X6471300Y-10920000D01*
X6416300Y-10865000D01*
X6361300Y-10920000D01*
X6416300Y-10975000D01*
X6361300Y-11119000D02*
X6471300Y-11229000D01*
X6471300Y-11119000D02*
X6361300Y-11229000D01*
X6416300Y-11229000D02*
X6471300Y-11174000D01*
X6416300Y-11119000D01*
X6361300Y-11174000D01*
X6416300Y-11229000D01*
X6361300Y-8286900D02*
X6471300Y-8396900D01*
X6471300Y-8286900D02*
X6361300Y-8396900D01*
X6416300Y-8396900D02*
X6471300Y-8341900D01*
X6416300Y-8286900D01*
X6361300Y-8341900D01*
X6416300Y-8396900D01*
X6361300Y-8540900D02*
X6471300Y-8650900D01*
X6471300Y-8540900D02*
X6361300Y-8650900D01*
X6416300Y-8650900D02*
X6471300Y-8595900D01*
X6416300Y-8540900D01*
X6361300Y-8595900D01*
X6416300Y-8650900D01*
X6361300Y-8794900D02*
X6471300Y-8904900D01*
X6471300Y-8794900D02*
X6361300Y-8904900D01*
X6416300Y-8904900D02*
X6471300Y-8849900D01*
X6416300Y-8794900D01*
X6361300Y-8849900D01*
X6416300Y-8904900D01*
X17389100Y-5551400D02*
X17389100Y-5671400D01*
X17329100Y-5611400D02*
X17449100Y-5611400D01*
X17449100Y-5611400D02*
G75*
G03X17449100Y-5611400I-60000J0D01*
G01*
X17389100Y-5901400D02*
X17389100Y-6021400D01*
X17329100Y-5961400D02*
X17449100Y-5961400D01*
X17449100Y-5961400D02*
G75*
G03X17449100Y-5961400I-60000J0D01*
G01*
X18904500Y-8447000D02*
X18904500Y-8567000D01*
X18844500Y-8507000D02*
X18964500Y-8507000D01*
X18964500Y-8507000D02*
G75*
G03X18964500Y-8507000I-60000J0D01*
G01*
X19254500Y-8447000D02*
X19254500Y-8567000D01*
X19194500Y-8507000D02*
X19314500Y-8507000D01*
X19314500Y-8507000D02*
G75*
G03X19314500Y-8507000I-60000J0D01*
G01*
X19604500Y-8447000D02*
X19604500Y-8567000D01*
X19544500Y-8507000D02*
X19664500Y-8507000D01*
X19664500Y-8507000D02*
G75*
G03X19664500Y-8507000I-60000J0D01*
G01*
X19954500Y-8447000D02*
X19954500Y-8567000D01*
X19894500Y-8507000D02*
X20014500Y-8507000D01*
X20014500Y-8507000D02*
G75*
G03X20014500Y-8507000I-60000J0D01*
G01*
X12525000Y-4668000D02*
X12525000Y-4788000D01*
X12465000Y-4728000D02*
X12585000Y-4728000D01*
X12585000Y-4728000D02*
G75*
G03X12585000Y-4728000I-60000J0D01*
G01*
X12525000Y-5018000D02*
X12525000Y-5138000D01*
X12465000Y-5078000D02*
X12585000Y-5078000D01*
X12585000Y-5078000D02*
G75*
G03X12585000Y-5078000I-60000J0D01*
G01*
X21127000Y-5272000D02*
X21127000Y-5392000D01*
X21067000Y-5332000D02*
X21187000Y-5332000D01*
X21187000Y-5332000D02*
G75*
G03X21187000Y-5332000I-60000J0D01*
G01*
X21477000Y-5272000D02*
X21477000Y-5392000D01*
X21417000Y-5332000D02*
X21537000Y-5332000D01*
X21537000Y-5332000D02*
G75*
G03X21537000Y-5332000I-60000J0D01*
G01*
X21827000Y-5272000D02*
X21827000Y-5392000D01*
X21767000Y-5332000D02*
X21887000Y-5332000D01*
X21887000Y-5332000D02*
G75*
G03X21887000Y-5332000I-60000J0D01*
G01*
X22177000Y-5272000D02*
X22177000Y-5392000D01*
X22117000Y-5332000D02*
X22237000Y-5332000D01*
X22237000Y-5332000D02*
G75*
G03X22237000Y-5332000I-60000J0D01*
G01*
X18904500Y-5272000D02*
X18904500Y-5392000D01*
X18844500Y-5332000D02*
X18964500Y-5332000D01*
X18964500Y-5332000D02*
G75*
G03X18964500Y-5332000I-60000J0D01*
G01*
X19254500Y-5272000D02*
X19254500Y-5392000D01*
X19194500Y-5332000D02*
X19314500Y-5332000D01*
X19314500Y-5332000D02*
G75*
G03X19314500Y-5332000I-60000J0D01*
G01*
X19604500Y-5272000D02*
X19604500Y-5392000D01*
X19544500Y-5332000D02*
X19664500Y-5332000D01*
X19664500Y-5332000D02*
G75*
G03X19664500Y-5332000I-60000J0D01*
G01*
X19954500Y-5272000D02*
X19954500Y-5392000D01*
X19894500Y-5332000D02*
X20014500Y-5332000D01*
X20014500Y-5332000D02*
G75*
G03X20014500Y-5332000I-60000J0D01*
G01*
X14156950Y-8394700D02*
X14156950Y-8514700D01*
X14096950Y-8454700D02*
X14216950Y-8454700D01*
X14216950Y-8454700D02*
G75*
G03X14216950Y-8454700I-60000J0D01*
G01*
X14156950Y-8744700D02*
X14156950Y-8864700D01*
X14096950Y-8804700D02*
X14216950Y-8804700D01*
X14216950Y-8804700D02*
G75*
G03X14216950Y-8804700I-60000J0D01*
G01*
X14156950Y-9094700D02*
X14156950Y-9214700D01*
X14096950Y-9154700D02*
X14216950Y-9154700D01*
X14216950Y-9154700D02*
G75*
G03X14216950Y-9154700I-60000J0D01*
G01*
X17388100Y-7462000D02*
X17388100Y-7582000D01*
X17328100Y-7522000D02*
X17448100Y-7522000D01*
X17448100Y-7522000D02*
G75*
G03X17448100Y-7522000I-60000J0D01*
G01*
X17388100Y-7812000D02*
X17388100Y-7932000D01*
X17328100Y-7872000D02*
X17448100Y-7872000D01*
X17448100Y-7872000D02*
G75*
G03X17448100Y-7872000I-60000J0D01*
G01*
X4638300Y-11964900D02*
X4638300Y-12084900D01*
X4578300Y-12024900D02*
X4698300Y-12024900D01*
X4698300Y-12024900D02*
G75*
G03X4698300Y-12024900I-60000J0D01*
G01*
X4988300Y-11964900D02*
X4988300Y-12084900D01*
X4928300Y-12024900D02*
X5048300Y-12024900D01*
X5048300Y-12024900D02*
G75*
G03X5048300Y-12024900I-60000J0D01*
G01*
X17388100Y-6509500D02*
X17388100Y-6629500D01*
X17328100Y-6569500D02*
X17448100Y-6569500D01*
X17448100Y-6569500D02*
G75*
G03X17448100Y-6569500I-60000J0D01*
G01*
X17388100Y-6859500D02*
X17388100Y-6979500D01*
X17328100Y-6919500D02*
X17448100Y-6919500D01*
X17448100Y-6919500D02*
G75*
G03X17448100Y-6919500I-60000J0D01*
G01*
X4638300Y-7392900D02*
X4638300Y-7512900D01*
X4578300Y-7452900D02*
X4698300Y-7452900D01*
X4698300Y-7452900D02*
G75*
G03X4698300Y-7452900I-60000J0D01*
G01*
X4988300Y-7392900D02*
X4988300Y-7512900D01*
X4928300Y-7452900D02*
X5048300Y-7452900D01*
X5048300Y-7452900D02*
G75*
G03X5048300Y-7452900I-60000J0D01*
G01*
X21127000Y-11622000D02*
X21127000Y-11742000D01*
X21067000Y-11682000D02*
X21187000Y-11682000D01*
X21187000Y-11682000D02*
G75*
G03X21187000Y-11682000I-60000J0D01*
G01*
X21477000Y-11622000D02*
X21477000Y-11742000D01*
X21417000Y-11682000D02*
X21537000Y-11682000D01*
X21537000Y-11682000D02*
G75*
G03X21537000Y-11682000I-60000J0D01*
G01*
X21827000Y-11622000D02*
X21827000Y-11742000D01*
X21767000Y-11682000D02*
X21887000Y-11682000D01*
X21887000Y-11682000D02*
G75*
G03X21887000Y-11682000I-60000J0D01*
G01*
X22177000Y-11622000D02*
X22177000Y-11742000D01*
X22117000Y-11682000D02*
X22237000Y-11682000D01*
X22237000Y-11682000D02*
G75*
G03X22237000Y-11682000I-60000J0D01*
G01*
X7279900Y-9323300D02*
X7279900Y-9443300D01*
X7219900Y-9383300D02*
X7339900Y-9383300D01*
X7339900Y-9383300D02*
G75*
G03X7339900Y-9383300I-60000J0D01*
G01*
X7279900Y-10073300D02*
X7279900Y-10193300D01*
X7219900Y-10133300D02*
X7339900Y-10133300D01*
X7339900Y-10133300D02*
G75*
G03X7339900Y-10133300I-60000J0D01*
G01*
X9604000Y-11558500D02*
X9604000Y-11678500D01*
X9544000Y-11618500D02*
X9664000Y-11618500D01*
X9664000Y-11618500D02*
G75*
G03X9664000Y-11618500I-60000J0D01*
G01*
X9954000Y-11558500D02*
X9954000Y-11678500D01*
X9894000Y-11618500D02*
X10014000Y-11618500D01*
X10014000Y-11618500D02*
G75*
G03X10014000Y-11618500I-60000J0D01*
G01*
X10304000Y-11558500D02*
X10304000Y-11678500D01*
X10244000Y-11618500D02*
X10364000Y-11618500D01*
X10364000Y-11618500D02*
G75*
G03X10364000Y-11618500I-60000J0D01*
G01*
X10654000Y-11558500D02*
X10654000Y-11678500D01*
X10594000Y-11618500D02*
X10714000Y-11618500D01*
X10714000Y-11618500D02*
G75*
G03X10714000Y-11618500I-60000J0D01*
G01*
X11705100Y-11558500D02*
X11705100Y-11678500D01*
X11645100Y-11618500D02*
X11765100Y-11618500D01*
X11765100Y-11618500D02*
G75*
G03X11765100Y-11618500I-60000J0D01*
G01*
X12055100Y-11558500D02*
X12055100Y-11678500D01*
X11995100Y-11618500D02*
X12115100Y-11618500D01*
X12115100Y-11618500D02*
G75*
G03X12115100Y-11618500I-60000J0D01*
G01*
X16506450Y-8394700D02*
X16506450Y-8514700D01*
X16446450Y-8454700D02*
X16566450Y-8454700D01*
X16566450Y-8454700D02*
G75*
G03X16566450Y-8454700I-60000J0D01*
G01*
X16506450Y-8744700D02*
X16506450Y-8864700D01*
X16446450Y-8804700D02*
X16566450Y-8804700D01*
X16566450Y-8804700D02*
G75*
G03X16566450Y-8804700I-60000J0D01*
G01*
X16506450Y-9094700D02*
X16506450Y-9214700D01*
X16446450Y-9154700D02*
X16566450Y-9154700D01*
X16566450Y-9154700D02*
G75*
G03X16566450Y-9154700I-60000J0D01*
G01*
X16506450Y-9666200D02*
X16506450Y-9786200D01*
X16446450Y-9726200D02*
X16566450Y-9726200D01*
X16566450Y-9726200D02*
G75*
G03X16566450Y-9726200I-60000J0D01*
G01*
X16506450Y-10016200D02*
X16506450Y-10136200D01*
X16446450Y-10076200D02*
X16566450Y-10076200D01*
X16566450Y-10076200D02*
G75*
G03X16566450Y-10076200I-60000J0D01*
G01*
X16506450Y-10366200D02*
X16506450Y-10486200D01*
X16446450Y-10426200D02*
X16566450Y-10426200D01*
X16566450Y-10426200D02*
G75*
G03X16566450Y-10426200I-60000J0D01*
G01*
X4638300Y-9678900D02*
X4638300Y-9798900D01*
X4578300Y-9738900D02*
X4698300Y-9738900D01*
X4698300Y-9738900D02*
G75*
G03X4698300Y-9738900I-60000J0D01*
G01*
X4988300Y-9678900D02*
X4988300Y-9798900D01*
X4928300Y-9738900D02*
X5048300Y-9738900D01*
X5048300Y-9738900D02*
G75*
G03X5048300Y-9738900I-60000J0D01*
G01*
X14156950Y-9664700D02*
X14156950Y-9784700D01*
X14096950Y-9724700D02*
X14216950Y-9724700D01*
X14216950Y-9724700D02*
G75*
G03X14216950Y-9724700I-60000J0D01*
G01*
X14156950Y-10014700D02*
X14156950Y-10134700D01*
X14096950Y-10074700D02*
X14216950Y-10074700D01*
X14216950Y-10074700D02*
G75*
G03X14216950Y-10074700I-60000J0D01*
G01*
X14156950Y-10364700D02*
X14156950Y-10484700D01*
X14096950Y-10424700D02*
X14216950Y-10424700D01*
X14216950Y-10424700D02*
G75*
G03X14216950Y-10424700I-60000J0D01*
G01*
X13782300Y-6731000D02*
X13782300Y-6851000D01*
X13722300Y-6791000D02*
X13842300Y-6791000D01*
X13842300Y-6791000D02*
G75*
G03X13842300Y-6791000I-60000J0D01*
G01*
X13782300Y-7081000D02*
X13782300Y-7201000D01*
X13722300Y-7141000D02*
X13842300Y-7141000D01*
X13842300Y-7141000D02*
G75*
G03X13842300Y-7141000I-60000J0D01*
G01*
X13782300Y-7431000D02*
X13782300Y-7551000D01*
X13722300Y-7491000D02*
X13842300Y-7491000D01*
X13842300Y-7491000D02*
G75*
G03X13842300Y-7491000I-60000J0D01*
G01*
X13782300Y-7781000D02*
X13782300Y-7901000D01*
X13722300Y-7841000D02*
X13842300Y-7841000D01*
X13842300Y-7841000D02*
G75*
G03X13842300Y-7841000I-60000J0D01*
G01*
X21127000Y-8447000D02*
X21127000Y-8567000D01*
X21067000Y-8507000D02*
X21187000Y-8507000D01*
X21187000Y-8507000D02*
G75*
G03X21187000Y-8507000I-60000J0D01*
G01*
X21477000Y-8447000D02*
X21477000Y-8567000D01*
X21417000Y-8507000D02*
X21537000Y-8507000D01*
X21537000Y-8507000D02*
G75*
G03X21537000Y-8507000I-60000J0D01*
G01*
X21827000Y-8447000D02*
X21827000Y-8567000D01*
X21767000Y-8507000D02*
X21887000Y-8507000D01*
X21887000Y-8507000D02*
G75*
G03X21887000Y-8507000I-60000J0D01*
G01*
X22177000Y-8447000D02*
X22177000Y-8567000D01*
X22117000Y-8507000D02*
X22237000Y-8507000D01*
X22237000Y-8507000D02*
G75*
G03X22237000Y-8507000I-60000J0D01*
G01*
X18904500Y-11622000D02*
X18904500Y-11742000D01*
X18844500Y-11682000D02*
X18964500Y-11682000D01*
X18964500Y-11682000D02*
G75*
G03X18964500Y-11682000I-60000J0D01*
G01*
X19254500Y-11622000D02*
X19254500Y-11742000D01*
X19194500Y-11682000D02*
X19314500Y-11682000D01*
X19314500Y-11682000D02*
G75*
G03X19314500Y-11682000I-60000J0D01*
G01*
X19604500Y-11622000D02*
X19604500Y-11742000D01*
X19544500Y-11682000D02*
X19664500Y-11682000D01*
X19664500Y-11682000D02*
G75*
G03X19664500Y-11682000I-60000J0D01*
G01*
X19954500Y-11622000D02*
X19954500Y-11742000D01*
X19894500Y-11682000D02*
X20014500Y-11682000D01*
X20014500Y-11682000D02*
G75*
G03X20014500Y-11682000I-60000J0D01*
G01*
X6474962Y-7663962D02*
X6474962Y-7572038D01*
X6383038Y-7572038D01*
X6383038Y-7663962D01*
X6474962Y-7663962D01*
X6494000Y-7618000D02*
G75*
G03X6494000Y-7618000I-65000J0D01*
G01*
X6982962Y-7663962D02*
X6982962Y-7572038D01*
X6891038Y-7572038D01*
X6891038Y-7663962D01*
X6982962Y-7663962D01*
X7002000Y-7618000D02*
G75*
G03X7002000Y-7618000I-65000J0D01*
G01*
X20540000Y-5034800D02*
X20700000Y-4874800D01*
X20540000Y-4714800D01*
X20380000Y-4874800D01*
X20540000Y-5034800D01*
X20700000Y-4874800D02*
G75*
G03X20700000Y-4874800I-160000J0D01*
G01*
X4180000Y-3220000D02*
X4340000Y-3060000D01*
X4180000Y-2900000D01*
X4020000Y-3060000D01*
X4180000Y-3220000D01*
X4340000Y-3060000D02*
G75*
G03X4340000Y-3060000I-160000J0D01*
G01*
X13180000Y-8920000D02*
X13340000Y-8760000D01*
X13180000Y-8600000D01*
X13020000Y-8760000D01*
X13180000Y-8920000D01*
X13340000Y-8760000D02*
G75*
G03X13340000Y-8760000I-160000J0D01*
G01*
X20540000Y-11370000D02*
X20700000Y-11210000D01*
X20540000Y-11050000D01*
X20380000Y-11210000D01*
X20540000Y-11370000D01*
X20700000Y-11210000D02*
G75*
G03X20700000Y-11210000I-160000J0D01*
G01*
X7680000Y-12220000D02*
X7840000Y-12060000D01*
X7680000Y-11900000D01*
X7520000Y-12060000D01*
X7680000Y-12220000D01*
X7840000Y-12060000D02*
G75*
G03X7840000Y-12060000I-160000J0D01*
G01*
X6696200Y-2780000D02*
X6696200Y-2880000D01*
X6646200Y-2830000D02*
X6746200Y-2830000D01*
X6731556Y-2865356D02*
X6731556Y-2794644D01*
X6660844Y-2794644D01*
X6660844Y-2865356D01*
X6731556Y-2865356D01*
X7496200Y-2780000D02*
X7496200Y-2880000D01*
X7446200Y-2830000D02*
X7546200Y-2830000D01*
X7531556Y-2865356D02*
X7531556Y-2794644D01*
X7460844Y-2794644D01*
X7460844Y-2865356D01*
X7531556Y-2865356D01*
X17499300Y-12067100D02*
X17499300Y-12167100D01*
X17449300Y-12117100D02*
X17549300Y-12117100D01*
X17534656Y-12152456D02*
X17534656Y-12081744D01*
X17463944Y-12081744D01*
X17463944Y-12152456D01*
X17534656Y-12152456D01*
X17939300Y-12067100D02*
X17939300Y-12167100D01*
X17889300Y-12117100D02*
X17989300Y-12117100D01*
X17974656Y-12152456D02*
X17974656Y-12081744D01*
X17903944Y-12081744D01*
X17903944Y-12152456D01*
X17974656Y-12152456D01*
D12*
X3761428Y-13330714D02*
X3761428Y-13030714D01*
X3832857Y-13030714D01*
X3875714Y-13045000D01*
X3904286Y-13073571D01*
X3918571Y-13102143D01*
X3932857Y-13159286D01*
X3932857Y-13202143D01*
X3918571Y-13259286D01*
X3904286Y-13287857D01*
X3875714Y-13316429D01*
X3832857Y-13330714D01*
X3761428Y-13330714D01*
X4061428Y-13330714D02*
X4061428Y-13130714D01*
X4061428Y-13187857D02*
X4075714Y-13159286D01*
X4090000Y-13145000D01*
X4118571Y-13130714D01*
X4147143Y-13130714D01*
X4247143Y-13330714D02*
X4247143Y-13130714D01*
X4247143Y-13030714D02*
X4232857Y-13045000D01*
X4247143Y-13059286D01*
X4261428Y-13045000D01*
X4247143Y-13030714D01*
X4247143Y-13059286D01*
X4432857Y-13330714D02*
X4404286Y-13316429D01*
X4390000Y-13287857D01*
X4390000Y-13030714D01*
X4590000Y-13330714D02*
X4561428Y-13316429D01*
X4547143Y-13287857D01*
X4547143Y-13030714D01*
X4932857Y-13330714D02*
X4932857Y-13030714D01*
X5032857Y-13245000D01*
X5132857Y-13030714D01*
X5132857Y-13330714D01*
X5404286Y-13330714D02*
X5404286Y-13173571D01*
X5390000Y-13145000D01*
X5361428Y-13130714D01*
X5304286Y-13130714D01*
X5275714Y-13145000D01*
X5404286Y-13316429D02*
X5375714Y-13330714D01*
X5304286Y-13330714D01*
X5275714Y-13316429D01*
X5261428Y-13287857D01*
X5261428Y-13259286D01*
X5275714Y-13230714D01*
X5304286Y-13216429D01*
X5375714Y-13216429D01*
X5404286Y-13202143D01*
X5547143Y-13130714D02*
X5547143Y-13430714D01*
X5547143Y-13145000D02*
X5575714Y-13130714D01*
X5632857Y-13130714D01*
X5661428Y-13145000D01*
X5675714Y-13159286D01*
X5690000Y-13187857D01*
X5690000Y-13273571D01*
X5675714Y-13302143D01*
X5661428Y-13316429D01*
X5632857Y-13330714D01*
X5575714Y-13330714D01*
X5547143Y-13316429D01*
X5818571Y-13302143D02*
X5832857Y-13316429D01*
X5818571Y-13330714D01*
X5804286Y-13316429D01*
X5818571Y-13302143D01*
X5818571Y-13330714D01*
X5818571Y-13145000D02*
X5832857Y-13159286D01*
X5818571Y-13173571D01*
X5804286Y-13159286D01*
X5818571Y-13145000D01*
X5818571Y-13173571D01*
X3445000Y-13810000D02*
X3475000Y-13840000D01*
X3475000Y-13810000D02*
X3445000Y-13840000D01*
X3818571Y-13660714D02*
X3847143Y-13660714D01*
X3875714Y-13675000D01*
X3890000Y-13689286D01*
X3904286Y-13717857D01*
X3918571Y-13775000D01*
X3918571Y-13846429D01*
X3904286Y-13903571D01*
X3890000Y-13932143D01*
X3875714Y-13946429D01*
X3847143Y-13960714D01*
X3818571Y-13960714D01*
X3790000Y-13946429D01*
X3775714Y-13932143D01*
X3761428Y-13903571D01*
X3747143Y-13846429D01*
X3747143Y-13775000D01*
X3761428Y-13717857D01*
X3775714Y-13689286D01*
X3790000Y-13675000D01*
X3818571Y-13660714D01*
X4047143Y-13932143D02*
X4061428Y-13946429D01*
X4047143Y-13960714D01*
X4032857Y-13946429D01*
X4047143Y-13932143D01*
X4047143Y-13960714D01*
X4161428Y-13660714D02*
X4347143Y-13660714D01*
X4247143Y-13775000D01*
X4290000Y-13775000D01*
X4318571Y-13789286D01*
X4332857Y-13803571D01*
X4347143Y-13832143D01*
X4347143Y-13903571D01*
X4332857Y-13932143D01*
X4318571Y-13946429D01*
X4290000Y-13960714D01*
X4204286Y-13960714D01*
X4175714Y-13946429D01*
X4161428Y-13932143D01*
X4532857Y-13660714D02*
X4561428Y-13660714D01*
X4590000Y-13675000D01*
X4604286Y-13689286D01*
X4618571Y-13717857D01*
X4632857Y-13775000D01*
X4632857Y-13846429D01*
X4618571Y-13903571D01*
X4604286Y-13932143D01*
X4590000Y-13946429D01*
X4561428Y-13960714D01*
X4532857Y-13960714D01*
X4504286Y-13946429D01*
X4490000Y-13932143D01*
X4475714Y-13903571D01*
X4461428Y-13846429D01*
X4461428Y-13775000D01*
X4475714Y-13717857D01*
X4490000Y-13689286D01*
X4504286Y-13675000D01*
X4532857Y-13660714D01*
X4761428Y-13960714D02*
X4761428Y-13760714D01*
X4761428Y-13789286D02*
X4775714Y-13775000D01*
X4804286Y-13760714D01*
X4847143Y-13760714D01*
X4875714Y-13775000D01*
X4890000Y-13803571D01*
X4890000Y-13960714D01*
X4890000Y-13803571D02*
X4904286Y-13775000D01*
X4932857Y-13760714D01*
X4975714Y-13760714D01*
X5004286Y-13775000D01*
X5018571Y-13803571D01*
X5018571Y-13960714D01*
X5161428Y-13960714D02*
X5161428Y-13760714D01*
X5161428Y-13789286D02*
X5175714Y-13775000D01*
X5204286Y-13760714D01*
X5247143Y-13760714D01*
X5275714Y-13775000D01*
X5290000Y-13803571D01*
X5290000Y-13960714D01*
X5290000Y-13803571D02*
X5304286Y-13775000D01*
X5332857Y-13760714D01*
X5375714Y-13760714D01*
X5404286Y-13775000D01*
X5418571Y-13803571D01*
X5418571Y-13960714D01*
X6004286Y-13646429D02*
X5747143Y-14032143D01*
X6390000Y-13660714D02*
X6418571Y-13660714D01*
X6447143Y-13675000D01*
X6461428Y-13689286D01*
X6475714Y-13717857D01*
X6490000Y-13775000D01*
X6490000Y-13846429D01*
X6475714Y-13903571D01*
X6461428Y-13932143D01*
X6447143Y-13946429D01*
X6418571Y-13960714D01*
X6390000Y-13960714D01*
X6361428Y-13946429D01*
X6347143Y-13932143D01*
X6332857Y-13903571D01*
X6318571Y-13846429D01*
X6318571Y-13775000D01*
X6332857Y-13717857D01*
X6347143Y-13689286D01*
X6361428Y-13675000D01*
X6390000Y-13660714D01*
X6618571Y-13932143D02*
X6632857Y-13946429D01*
X6618571Y-13960714D01*
X6604286Y-13946429D01*
X6618571Y-13932143D01*
X6618571Y-13960714D01*
X6818571Y-13660714D02*
X6847143Y-13660714D01*
X6875714Y-13675000D01*
X6890000Y-13689286D01*
X6904286Y-13717857D01*
X6918571Y-13775000D01*
X6918571Y-13846429D01*
X6904286Y-13903571D01*
X6890000Y-13932143D01*
X6875714Y-13946429D01*
X6847143Y-13960714D01*
X6818571Y-13960714D01*
X6790000Y-13946429D01*
X6775714Y-13932143D01*
X6761428Y-13903571D01*
X6747143Y-13846429D01*
X6747143Y-13775000D01*
X6761428Y-13717857D01*
X6775714Y-13689286D01*
X6790000Y-13675000D01*
X6818571Y-13660714D01*
X7204286Y-13960714D02*
X7032857Y-13960714D01*
X7118571Y-13960714D02*
X7118571Y-13660714D01*
X7090000Y-13703571D01*
X7061428Y-13732143D01*
X7032857Y-13746429D01*
X7318571Y-13689286D02*
X7332857Y-13675000D01*
X7361428Y-13660714D01*
X7432857Y-13660714D01*
X7461428Y-13675000D01*
X7475714Y-13689286D01*
X7490000Y-13717857D01*
X7490000Y-13746429D01*
X7475714Y-13789286D01*
X7304286Y-13960714D01*
X7490000Y-13960714D01*
X7604286Y-13660714D02*
X7604286Y-13717857D01*
X7718571Y-13660714D02*
X7718571Y-13717857D01*
X8161428Y-14075000D02*
X8147143Y-14060714D01*
X8118571Y-14017857D01*
X8104286Y-13989286D01*
X8090000Y-13946429D01*
X8075714Y-13875000D01*
X8075714Y-13817857D01*
X8090000Y-13746429D01*
X8104286Y-13703571D01*
X8118571Y-13675000D01*
X8147143Y-13632143D01*
X8161428Y-13617857D01*
X8432857Y-13960714D02*
X8261428Y-13960714D01*
X8347143Y-13960714D02*
X8347143Y-13660714D01*
X8318571Y-13703571D01*
X8290000Y-13732143D01*
X8261428Y-13746429D01*
X8690000Y-13660714D02*
X8632857Y-13660714D01*
X8604286Y-13675000D01*
X8590000Y-13689286D01*
X8561428Y-13732143D01*
X8547143Y-13789286D01*
X8547143Y-13903571D01*
X8561428Y-13932143D01*
X8575714Y-13946429D01*
X8604286Y-13960714D01*
X8661428Y-13960714D01*
X8690000Y-13946429D01*
X8704286Y-13932143D01*
X8718571Y-13903571D01*
X8718571Y-13832143D01*
X8704286Y-13803571D01*
X8690000Y-13789286D01*
X8661428Y-13775000D01*
X8604286Y-13775000D01*
X8575714Y-13789286D01*
X8561428Y-13803571D01*
X8547143Y-13832143D01*
X9075714Y-13960714D02*
X9075714Y-13660714D01*
X9204286Y-13960714D02*
X9204286Y-13803571D01*
X9190000Y-13775000D01*
X9161428Y-13760714D01*
X9118571Y-13760714D01*
X9090000Y-13775000D01*
X9075714Y-13789286D01*
X9390000Y-13960714D02*
X9361428Y-13946429D01*
X9347143Y-13932143D01*
X9332857Y-13903571D01*
X9332857Y-13817857D01*
X9347143Y-13789286D01*
X9361428Y-13775000D01*
X9390000Y-13760714D01*
X9432857Y-13760714D01*
X9461428Y-13775000D01*
X9475714Y-13789286D01*
X9490000Y-13817857D01*
X9490000Y-13903571D01*
X9475714Y-13932143D01*
X9461428Y-13946429D01*
X9432857Y-13960714D01*
X9390000Y-13960714D01*
X9661428Y-13960714D02*
X9632857Y-13946429D01*
X9618571Y-13917857D01*
X9618571Y-13660714D01*
X9890000Y-13946429D02*
X9861428Y-13960714D01*
X9804286Y-13960714D01*
X9775714Y-13946429D01*
X9761428Y-13917857D01*
X9761428Y-13803571D01*
X9775714Y-13775000D01*
X9804286Y-13760714D01*
X9861428Y-13760714D01*
X9890000Y-13775000D01*
X9904286Y-13803571D01*
X9904286Y-13832143D01*
X9761428Y-13860714D01*
X10018571Y-13946429D02*
X10047143Y-13960714D01*
X10104286Y-13960714D01*
X10132857Y-13946429D01*
X10147143Y-13917857D01*
X10147143Y-13903571D01*
X10132857Y-13875000D01*
X10104286Y-13860714D01*
X10061428Y-13860714D01*
X10032857Y-13846429D01*
X10018571Y-13817857D01*
X10018571Y-13803571D01*
X10032857Y-13775000D01*
X10061428Y-13760714D01*
X10104286Y-13760714D01*
X10132857Y-13775000D01*
X10247143Y-14075000D02*
X10261428Y-14060714D01*
X10290000Y-14017857D01*
X10304286Y-13989286D01*
X10318571Y-13946429D01*
X10332857Y-13875000D01*
X10332857Y-13817857D01*
X10318571Y-13746429D01*
X10304286Y-13703571D01*
X10290000Y-13675000D01*
X10261428Y-13632143D01*
X10247143Y-13617857D01*
X3475000Y-14221000D02*
G75*
G03X3475000Y-14221000I-20000J0D01*
G01*
X3818571Y-14056714D02*
X3847143Y-14056714D01*
X3875714Y-14071000D01*
X3890000Y-14085286D01*
X3904286Y-14113857D01*
X3918571Y-14171000D01*
X3918571Y-14242429D01*
X3904286Y-14299571D01*
X3890000Y-14328143D01*
X3875714Y-14342429D01*
X3847143Y-14356714D01*
X3818571Y-14356714D01*
X3790000Y-14342429D01*
X3775714Y-14328143D01*
X3761428Y-14299571D01*
X3747143Y-14242429D01*
X3747143Y-14171000D01*
X3761428Y-14113857D01*
X3775714Y-14085286D01*
X3790000Y-14071000D01*
X3818571Y-14056714D01*
X4047143Y-14328143D02*
X4061428Y-14342429D01*
X4047143Y-14356714D01*
X4032857Y-14342429D01*
X4047143Y-14328143D01*
X4047143Y-14356714D01*
X4318571Y-14156714D02*
X4318571Y-14356714D01*
X4247143Y-14042429D02*
X4175714Y-14256714D01*
X4361428Y-14256714D01*
X4532857Y-14056714D02*
X4561428Y-14056714D01*
X4590000Y-14071000D01*
X4604286Y-14085286D01*
X4618571Y-14113857D01*
X4632857Y-14171000D01*
X4632857Y-14242429D01*
X4618571Y-14299571D01*
X4604286Y-14328143D01*
X4590000Y-14342429D01*
X4561428Y-14356714D01*
X4532857Y-14356714D01*
X4504286Y-14342429D01*
X4490000Y-14328143D01*
X4475714Y-14299571D01*
X4461428Y-14242429D01*
X4461428Y-14171000D01*
X4475714Y-14113857D01*
X4490000Y-14085286D01*
X4504286Y-14071000D01*
X4532857Y-14056714D01*
X4761428Y-14356714D02*
X4761428Y-14156714D01*
X4761428Y-14185286D02*
X4775714Y-14171000D01*
X4804286Y-14156714D01*
X4847143Y-14156714D01*
X4875714Y-14171000D01*
X4890000Y-14199571D01*
X4890000Y-14356714D01*
X4890000Y-14199571D02*
X4904286Y-14171000D01*
X4932857Y-14156714D01*
X4975714Y-14156714D01*
X5004286Y-14171000D01*
X5018571Y-14199571D01*
X5018571Y-14356714D01*
X5161428Y-14356714D02*
X5161428Y-14156714D01*
X5161428Y-14185286D02*
X5175714Y-14171000D01*
X5204286Y-14156714D01*
X5247143Y-14156714D01*
X5275714Y-14171000D01*
X5290000Y-14199571D01*
X5290000Y-14356714D01*
X5290000Y-14199571D02*
X5304286Y-14171000D01*
X5332857Y-14156714D01*
X5375714Y-14156714D01*
X5404286Y-14171000D01*
X5418571Y-14199571D01*
X5418571Y-14356714D01*
X6004286Y-14042429D02*
X5747143Y-14428143D01*
X6390000Y-14056714D02*
X6418571Y-14056714D01*
X6447143Y-14071000D01*
X6461428Y-14085286D01*
X6475714Y-14113857D01*
X6490000Y-14171000D01*
X6490000Y-14242429D01*
X6475714Y-14299571D01*
X6461428Y-14328143D01*
X6447143Y-14342429D01*
X6418571Y-14356714D01*
X6390000Y-14356714D01*
X6361428Y-14342429D01*
X6347143Y-14328143D01*
X6332857Y-14299571D01*
X6318571Y-14242429D01*
X6318571Y-14171000D01*
X6332857Y-14113857D01*
X6347143Y-14085286D01*
X6361428Y-14071000D01*
X6390000Y-14056714D01*
X6618571Y-14328143D02*
X6632857Y-14342429D01*
X6618571Y-14356714D01*
X6604286Y-14342429D01*
X6618571Y-14328143D01*
X6618571Y-14356714D01*
X6818571Y-14056714D02*
X6847143Y-14056714D01*
X6875714Y-14071000D01*
X6890000Y-14085286D01*
X6904286Y-14113857D01*
X6918571Y-14171000D01*
X6918571Y-14242429D01*
X6904286Y-14299571D01*
X6890000Y-14328143D01*
X6875714Y-14342429D01*
X6847143Y-14356714D01*
X6818571Y-14356714D01*
X6790000Y-14342429D01*
X6775714Y-14328143D01*
X6761428Y-14299571D01*
X6747143Y-14242429D01*
X6747143Y-14171000D01*
X6761428Y-14113857D01*
X6775714Y-14085286D01*
X6790000Y-14071000D01*
X6818571Y-14056714D01*
X7204286Y-14356714D02*
X7032857Y-14356714D01*
X7118571Y-14356714D02*
X7118571Y-14056714D01*
X7090000Y-14099571D01*
X7061428Y-14128143D01*
X7032857Y-14142429D01*
X7461428Y-14056714D02*
X7404286Y-14056714D01*
X7375714Y-14071000D01*
X7361428Y-14085286D01*
X7332857Y-14128143D01*
X7318571Y-14185286D01*
X7318571Y-14299571D01*
X7332857Y-14328143D01*
X7347143Y-14342429D01*
X7375714Y-14356714D01*
X7432857Y-14356714D01*
X7461428Y-14342429D01*
X7475714Y-14328143D01*
X7490000Y-14299571D01*
X7490000Y-14228143D01*
X7475714Y-14199571D01*
X7461428Y-14185286D01*
X7432857Y-14171000D01*
X7375714Y-14171000D01*
X7347143Y-14185286D01*
X7332857Y-14199571D01*
X7318571Y-14228143D01*
X7604286Y-14056714D02*
X7604286Y-14113857D01*
X7718571Y-14056714D02*
X7718571Y-14113857D01*
X8161428Y-14471000D02*
X8147143Y-14456714D01*
X8118571Y-14413857D01*
X8104286Y-14385286D01*
X8090000Y-14342429D01*
X8075714Y-14271000D01*
X8075714Y-14213857D01*
X8090000Y-14142429D01*
X8104286Y-14099571D01*
X8118571Y-14071000D01*
X8147143Y-14028143D01*
X8161428Y-14013857D01*
X8318571Y-14185286D02*
X8290000Y-14171000D01*
X8275714Y-14156714D01*
X8261428Y-14128143D01*
X8261428Y-14113857D01*
X8275714Y-14085286D01*
X8290000Y-14071000D01*
X8318571Y-14056714D01*
X8375714Y-14056714D01*
X8404286Y-14071000D01*
X8418571Y-14085286D01*
X8432857Y-14113857D01*
X8432857Y-14128143D01*
X8418571Y-14156714D01*
X8404286Y-14171000D01*
X8375714Y-14185286D01*
X8318571Y-14185286D01*
X8290000Y-14199571D01*
X8275714Y-14213857D01*
X8261428Y-14242429D01*
X8261428Y-14299571D01*
X8275714Y-14328143D01*
X8290000Y-14342429D01*
X8318571Y-14356714D01*
X8375714Y-14356714D01*
X8404286Y-14342429D01*
X8418571Y-14328143D01*
X8432857Y-14299571D01*
X8432857Y-14242429D01*
X8418571Y-14213857D01*
X8404286Y-14199571D01*
X8375714Y-14185286D01*
X8618571Y-14056714D02*
X8647143Y-14056714D01*
X8675714Y-14071000D01*
X8690000Y-14085286D01*
X8704286Y-14113857D01*
X8718571Y-14171000D01*
X8718571Y-14242429D01*
X8704286Y-14299571D01*
X8690000Y-14328143D01*
X8675714Y-14342429D01*
X8647143Y-14356714D01*
X8618571Y-14356714D01*
X8590000Y-14342429D01*
X8575714Y-14328143D01*
X8561428Y-14299571D01*
X8547143Y-14242429D01*
X8547143Y-14171000D01*
X8561428Y-14113857D01*
X8575714Y-14085286D01*
X8590000Y-14071000D01*
X8618571Y-14056714D01*
X8990000Y-14056714D02*
X8847143Y-14056714D01*
X8832857Y-14199571D01*
X8847143Y-14185286D01*
X8875714Y-14171000D01*
X8947143Y-14171000D01*
X8975714Y-14185286D01*
X8990000Y-14199571D01*
X9004286Y-14228143D01*
X9004286Y-14299571D01*
X8990000Y-14328143D01*
X8975714Y-14342429D01*
X8947143Y-14356714D01*
X8875714Y-14356714D01*
X8847143Y-14342429D01*
X8832857Y-14328143D01*
X9361428Y-14356714D02*
X9361428Y-14056714D01*
X9490000Y-14356714D02*
X9490000Y-14199571D01*
X9475714Y-14171000D01*
X9447143Y-14156714D01*
X9404286Y-14156714D01*
X9375714Y-14171000D01*
X9361428Y-14185286D01*
X9675714Y-14356714D02*
X9647143Y-14342429D01*
X9632857Y-14328143D01*
X9618571Y-14299571D01*
X9618571Y-14213857D01*
X9632857Y-14185286D01*
X9647143Y-14171000D01*
X9675714Y-14156714D01*
X9718571Y-14156714D01*
X9747143Y-14171000D01*
X9761428Y-14185286D01*
X9775714Y-14213857D01*
X9775714Y-14299571D01*
X9761428Y-14328143D01*
X9747143Y-14342429D01*
X9718571Y-14356714D01*
X9675714Y-14356714D01*
X9947143Y-14356714D02*
X9918571Y-14342429D01*
X9904286Y-14313857D01*
X9904286Y-14056714D01*
X10175714Y-14342429D02*
X10147143Y-14356714D01*
X10090000Y-14356714D01*
X10061428Y-14342429D01*
X10047143Y-14313857D01*
X10047143Y-14199571D01*
X10061428Y-14171000D01*
X10090000Y-14156714D01*
X10147143Y-14156714D01*
X10175714Y-14171000D01*
X10190000Y-14199571D01*
X10190000Y-14228143D01*
X10047143Y-14256714D01*
X10304286Y-14342429D02*
X10332857Y-14356714D01*
X10390000Y-14356714D01*
X10418571Y-14342429D01*
X10432857Y-14313857D01*
X10432857Y-14299571D01*
X10418571Y-14271000D01*
X10390000Y-14256714D01*
X10347143Y-14256714D01*
X10318571Y-14242429D01*
X10304286Y-14213857D01*
X10304286Y-14199571D01*
X10318571Y-14171000D01*
X10347143Y-14156714D01*
X10390000Y-14156714D01*
X10418571Y-14171000D01*
X10532857Y-14471000D02*
X10547143Y-14456714D01*
X10575714Y-14413857D01*
X10590000Y-14385286D01*
X10604286Y-14342429D01*
X10618571Y-14271000D01*
X10618571Y-14213857D01*
X10604286Y-14142429D01*
X10590000Y-14099571D01*
X10575714Y-14071000D01*
X10547143Y-14028143D01*
X10532857Y-14013857D01*
X3450000Y-14592000D02*
X3450000Y-14642000D01*
X3425000Y-14617000D02*
X3475000Y-14617000D01*
X3818571Y-14452714D02*
X3847143Y-14452714D01*
X3875714Y-14467000D01*
X3890000Y-14481286D01*
X3904286Y-14509857D01*
X3918571Y-14567000D01*
X3918571Y-14638429D01*
X3904286Y-14695571D01*
X3890000Y-14724143D01*
X3875714Y-14738429D01*
X3847143Y-14752714D01*
X3818571Y-14752714D01*
X3790000Y-14738429D01*
X3775714Y-14724143D01*
X3761428Y-14695571D01*
X3747143Y-14638429D01*
X3747143Y-14567000D01*
X3761428Y-14509857D01*
X3775714Y-14481286D01*
X3790000Y-14467000D01*
X3818571Y-14452714D01*
X4047143Y-14724143D02*
X4061428Y-14738429D01*
X4047143Y-14752714D01*
X4032857Y-14738429D01*
X4047143Y-14724143D01*
X4047143Y-14752714D01*
X4332857Y-14452714D02*
X4190000Y-14452714D01*
X4175714Y-14595571D01*
X4190000Y-14581286D01*
X4218571Y-14567000D01*
X4290000Y-14567000D01*
X4318571Y-14581286D01*
X4332857Y-14595571D01*
X4347143Y-14624143D01*
X4347143Y-14695571D01*
X4332857Y-14724143D01*
X4318571Y-14738429D01*
X4290000Y-14752714D01*
X4218571Y-14752714D01*
X4190000Y-14738429D01*
X4175714Y-14724143D01*
X4532857Y-14452714D02*
X4561428Y-14452714D01*
X4590000Y-14467000D01*
X4604286Y-14481286D01*
X4618571Y-14509857D01*
X4632857Y-14567000D01*
X4632857Y-14638429D01*
X4618571Y-14695571D01*
X4604286Y-14724143D01*
X4590000Y-14738429D01*
X4561428Y-14752714D01*
X4532857Y-14752714D01*
X4504286Y-14738429D01*
X4490000Y-14724143D01*
X4475714Y-14695571D01*
X4461428Y-14638429D01*
X4461428Y-14567000D01*
X4475714Y-14509857D01*
X4490000Y-14481286D01*
X4504286Y-14467000D01*
X4532857Y-14452714D01*
X4761428Y-14752714D02*
X4761428Y-14552714D01*
X4761428Y-14581286D02*
X4775714Y-14567000D01*
X4804286Y-14552714D01*
X4847143Y-14552714D01*
X4875714Y-14567000D01*
X4890000Y-14595571D01*
X4890000Y-14752714D01*
X4890000Y-14595571D02*
X4904286Y-14567000D01*
X4932857Y-14552714D01*
X4975714Y-14552714D01*
X5004286Y-14567000D01*
X5018571Y-14595571D01*
X5018571Y-14752714D01*
X5161428Y-14752714D02*
X5161428Y-14552714D01*
X5161428Y-14581286D02*
X5175714Y-14567000D01*
X5204286Y-14552714D01*
X5247143Y-14552714D01*
X5275714Y-14567000D01*
X5290000Y-14595571D01*
X5290000Y-14752714D01*
X5290000Y-14595571D02*
X5304286Y-14567000D01*
X5332857Y-14552714D01*
X5375714Y-14552714D01*
X5404286Y-14567000D01*
X5418571Y-14595571D01*
X5418571Y-14752714D01*
X6004286Y-14438429D02*
X5747143Y-14824143D01*
X6390000Y-14452714D02*
X6418571Y-14452714D01*
X6447143Y-14467000D01*
X6461428Y-14481286D01*
X6475714Y-14509857D01*
X6490000Y-14567000D01*
X6490000Y-14638429D01*
X6475714Y-14695571D01*
X6461428Y-14724143D01*
X6447143Y-14738429D01*
X6418571Y-14752714D01*
X6390000Y-14752714D01*
X6361428Y-14738429D01*
X6347143Y-14724143D01*
X6332857Y-14695571D01*
X6318571Y-14638429D01*
X6318571Y-14567000D01*
X6332857Y-14509857D01*
X6347143Y-14481286D01*
X6361428Y-14467000D01*
X6390000Y-14452714D01*
X6618571Y-14724143D02*
X6632857Y-14738429D01*
X6618571Y-14752714D01*
X6604286Y-14738429D01*
X6618571Y-14724143D01*
X6618571Y-14752714D01*
X6818571Y-14452714D02*
X6847143Y-14452714D01*
X6875714Y-14467000D01*
X6890000Y-14481286D01*
X6904286Y-14509857D01*
X6918571Y-14567000D01*
X6918571Y-14638429D01*
X6904286Y-14695571D01*
X6890000Y-14724143D01*
X6875714Y-14738429D01*
X6847143Y-14752714D01*
X6818571Y-14752714D01*
X6790000Y-14738429D01*
X6775714Y-14724143D01*
X6761428Y-14695571D01*
X6747143Y-14638429D01*
X6747143Y-14567000D01*
X6761428Y-14509857D01*
X6775714Y-14481286D01*
X6790000Y-14467000D01*
X6818571Y-14452714D01*
X7032857Y-14481286D02*
X7047143Y-14467000D01*
X7075714Y-14452714D01*
X7147143Y-14452714D01*
X7175714Y-14467000D01*
X7190000Y-14481286D01*
X7204286Y-14509857D01*
X7204286Y-14538429D01*
X7190000Y-14581286D01*
X7018571Y-14752714D01*
X7204286Y-14752714D01*
X7390000Y-14452714D02*
X7418571Y-14452714D01*
X7447143Y-14467000D01*
X7461428Y-14481286D01*
X7475714Y-14509857D01*
X7490000Y-14567000D01*
X7490000Y-14638429D01*
X7475714Y-14695571D01*
X7461428Y-14724143D01*
X7447143Y-14738429D01*
X7418571Y-14752714D01*
X7390000Y-14752714D01*
X7361428Y-14738429D01*
X7347143Y-14724143D01*
X7332857Y-14695571D01*
X7318571Y-14638429D01*
X7318571Y-14567000D01*
X7332857Y-14509857D01*
X7347143Y-14481286D01*
X7361428Y-14467000D01*
X7390000Y-14452714D01*
X7604286Y-14452714D02*
X7604286Y-14509857D01*
X7718571Y-14452714D02*
X7718571Y-14509857D01*
X8161428Y-14867000D02*
X8147143Y-14852714D01*
X8118571Y-14809857D01*
X8104286Y-14781286D01*
X8090000Y-14738429D01*
X8075714Y-14667000D01*
X8075714Y-14609857D01*
X8090000Y-14538429D01*
X8104286Y-14495571D01*
X8118571Y-14467000D01*
X8147143Y-14424143D01*
X8161428Y-14409857D01*
X8404286Y-14552714D02*
X8404286Y-14752714D01*
X8332857Y-14438429D02*
X8261428Y-14652714D01*
X8447143Y-14652714D01*
X8618571Y-14452714D02*
X8647143Y-14452714D01*
X8675714Y-14467000D01*
X8690000Y-14481286D01*
X8704286Y-14509857D01*
X8718571Y-14567000D01*
X8718571Y-14638429D01*
X8704286Y-14695571D01*
X8690000Y-14724143D01*
X8675714Y-14738429D01*
X8647143Y-14752714D01*
X8618571Y-14752714D01*
X8590000Y-14738429D01*
X8575714Y-14724143D01*
X8561428Y-14695571D01*
X8547143Y-14638429D01*
X8547143Y-14567000D01*
X8561428Y-14509857D01*
X8575714Y-14481286D01*
X8590000Y-14467000D01*
X8618571Y-14452714D01*
X9075714Y-14752714D02*
X9075714Y-14452714D01*
X9204286Y-14752714D02*
X9204286Y-14595571D01*
X9190000Y-14567000D01*
X9161428Y-14552714D01*
X9118571Y-14552714D01*
X9090000Y-14567000D01*
X9075714Y-14581286D01*
X9390000Y-14752714D02*
X9361428Y-14738429D01*
X9347143Y-14724143D01*
X9332857Y-14695571D01*
X9332857Y-14609857D01*
X9347143Y-14581286D01*
X9361428Y-14567000D01*
X9390000Y-14552714D01*
X9432857Y-14552714D01*
X9461428Y-14567000D01*
X9475714Y-14581286D01*
X9490000Y-14609857D01*
X9490000Y-14695571D01*
X9475714Y-14724143D01*
X9461428Y-14738429D01*
X9432857Y-14752714D01*
X9390000Y-14752714D01*
X9661428Y-14752714D02*
X9632857Y-14738429D01*
X9618571Y-14709857D01*
X9618571Y-14452714D01*
X9890000Y-14738429D02*
X9861428Y-14752714D01*
X9804286Y-14752714D01*
X9775714Y-14738429D01*
X9761428Y-14709857D01*
X9761428Y-14595571D01*
X9775714Y-14567000D01*
X9804286Y-14552714D01*
X9861428Y-14552714D01*
X9890000Y-14567000D01*
X9904286Y-14595571D01*
X9904286Y-14624143D01*
X9761428Y-14652714D01*
X10018571Y-14738429D02*
X10047143Y-14752714D01*
X10104286Y-14752714D01*
X10132857Y-14738429D01*
X10147143Y-14709857D01*
X10147143Y-14695571D01*
X10132857Y-14667000D01*
X10104286Y-14652714D01*
X10061428Y-14652714D01*
X10032857Y-14638429D01*
X10018571Y-14609857D01*
X10018571Y-14595571D01*
X10032857Y-14567000D01*
X10061428Y-14552714D01*
X10104286Y-14552714D01*
X10132857Y-14567000D01*
X10247143Y-14867000D02*
X10261428Y-14852714D01*
X10290000Y-14809857D01*
X10304286Y-14781286D01*
X10318571Y-14738429D01*
X10332857Y-14667000D01*
X10332857Y-14609857D01*
X10318571Y-14538429D01*
X10304286Y-14495571D01*
X10290000Y-14467000D01*
X10261428Y-14424143D01*
X10247143Y-14409857D01*
X3463284Y-15041285D02*
X3463284Y-14984716D01*
X3406715Y-14984716D01*
X3406715Y-15041285D01*
X3463284Y-15041285D01*
X3818571Y-14848714D02*
X3847143Y-14848714D01*
X3875714Y-14863000D01*
X3890000Y-14877286D01*
X3904286Y-14905857D01*
X3918571Y-14963000D01*
X3918571Y-15034429D01*
X3904286Y-15091571D01*
X3890000Y-15120143D01*
X3875714Y-15134429D01*
X3847143Y-15148714D01*
X3818571Y-15148714D01*
X3790000Y-15134429D01*
X3775714Y-15120143D01*
X3761428Y-15091571D01*
X3747143Y-15034429D01*
X3747143Y-14963000D01*
X3761428Y-14905857D01*
X3775714Y-14877286D01*
X3790000Y-14863000D01*
X3818571Y-14848714D01*
X4047143Y-15120143D02*
X4061428Y-15134429D01*
X4047143Y-15148714D01*
X4032857Y-15134429D01*
X4047143Y-15120143D01*
X4047143Y-15148714D01*
X4232857Y-14977286D02*
X4204286Y-14963000D01*
X4190000Y-14948714D01*
X4175714Y-14920143D01*
X4175714Y-14905857D01*
X4190000Y-14877286D01*
X4204286Y-14863000D01*
X4232857Y-14848714D01*
X4290000Y-14848714D01*
X4318571Y-14863000D01*
X4332857Y-14877286D01*
X4347143Y-14905857D01*
X4347143Y-14920143D01*
X4332857Y-14948714D01*
X4318571Y-14963000D01*
X4290000Y-14977286D01*
X4232857Y-14977286D01*
X4204286Y-14991571D01*
X4190000Y-15005857D01*
X4175714Y-15034429D01*
X4175714Y-15091571D01*
X4190000Y-15120143D01*
X4204286Y-15134429D01*
X4232857Y-15148714D01*
X4290000Y-15148714D01*
X4318571Y-15134429D01*
X4332857Y-15120143D01*
X4347143Y-15091571D01*
X4347143Y-15034429D01*
X4332857Y-15005857D01*
X4318571Y-14991571D01*
X4290000Y-14977286D01*
X4532857Y-14848714D02*
X4561428Y-14848714D01*
X4590000Y-14863000D01*
X4604286Y-14877286D01*
X4618571Y-14905857D01*
X4632857Y-14963000D01*
X4632857Y-15034429D01*
X4618571Y-15091571D01*
X4604286Y-15120143D01*
X4590000Y-15134429D01*
X4561428Y-15148714D01*
X4532857Y-15148714D01*
X4504286Y-15134429D01*
X4490000Y-15120143D01*
X4475714Y-15091571D01*
X4461428Y-15034429D01*
X4461428Y-14963000D01*
X4475714Y-14905857D01*
X4490000Y-14877286D01*
X4504286Y-14863000D01*
X4532857Y-14848714D01*
X4761428Y-15148714D02*
X4761428Y-14948714D01*
X4761428Y-14977286D02*
X4775714Y-14963000D01*
X4804286Y-14948714D01*
X4847143Y-14948714D01*
X4875714Y-14963000D01*
X4890000Y-14991571D01*
X4890000Y-15148714D01*
X4890000Y-14991571D02*
X4904286Y-14963000D01*
X4932857Y-14948714D01*
X4975714Y-14948714D01*
X5004286Y-14963000D01*
X5018571Y-14991571D01*
X5018571Y-15148714D01*
X5161428Y-15148714D02*
X5161428Y-14948714D01*
X5161428Y-14977286D02*
X5175714Y-14963000D01*
X5204286Y-14948714D01*
X5247143Y-14948714D01*
X5275714Y-14963000D01*
X5290000Y-14991571D01*
X5290000Y-15148714D01*
X5290000Y-14991571D02*
X5304286Y-14963000D01*
X5332857Y-14948714D01*
X5375714Y-14948714D01*
X5404286Y-14963000D01*
X5418571Y-14991571D01*
X5418571Y-15148714D01*
X6004286Y-14834429D02*
X5747143Y-15220143D01*
X6390000Y-14848714D02*
X6418571Y-14848714D01*
X6447143Y-14863000D01*
X6461428Y-14877286D01*
X6475714Y-14905857D01*
X6490000Y-14963000D01*
X6490000Y-15034429D01*
X6475714Y-15091571D01*
X6461428Y-15120143D01*
X6447143Y-15134429D01*
X6418571Y-15148714D01*
X6390000Y-15148714D01*
X6361428Y-15134429D01*
X6347143Y-15120143D01*
X6332857Y-15091571D01*
X6318571Y-15034429D01*
X6318571Y-14963000D01*
X6332857Y-14905857D01*
X6347143Y-14877286D01*
X6361428Y-14863000D01*
X6390000Y-14848714D01*
X6618571Y-15120143D02*
X6632857Y-15134429D01*
X6618571Y-15148714D01*
X6604286Y-15134429D01*
X6618571Y-15120143D01*
X6618571Y-15148714D01*
X6818571Y-14848714D02*
X6847143Y-14848714D01*
X6875714Y-14863000D01*
X6890000Y-14877286D01*
X6904286Y-14905857D01*
X6918571Y-14963000D01*
X6918571Y-15034429D01*
X6904286Y-15091571D01*
X6890000Y-15120143D01*
X6875714Y-15134429D01*
X6847143Y-15148714D01*
X6818571Y-15148714D01*
X6790000Y-15134429D01*
X6775714Y-15120143D01*
X6761428Y-15091571D01*
X6747143Y-15034429D01*
X6747143Y-14963000D01*
X6761428Y-14905857D01*
X6775714Y-14877286D01*
X6790000Y-14863000D01*
X6818571Y-14848714D01*
X7018571Y-14848714D02*
X7204286Y-14848714D01*
X7104286Y-14963000D01*
X7147143Y-14963000D01*
X7175714Y-14977286D01*
X7190000Y-14991571D01*
X7204286Y-15020143D01*
X7204286Y-15091571D01*
X7190000Y-15120143D01*
X7175714Y-15134429D01*
X7147143Y-15148714D01*
X7061428Y-15148714D01*
X7032857Y-15134429D01*
X7018571Y-15120143D01*
X7490000Y-15148714D02*
X7318571Y-15148714D01*
X7404286Y-15148714D02*
X7404286Y-14848714D01*
X7375714Y-14891571D01*
X7347143Y-14920143D01*
X7318571Y-14934429D01*
X7604286Y-14848714D02*
X7604286Y-14905857D01*
X7718571Y-14848714D02*
X7718571Y-14905857D01*
X8161428Y-15263000D02*
X8147143Y-15248714D01*
X8118571Y-15205857D01*
X8104286Y-15177286D01*
X8090000Y-15134429D01*
X8075714Y-15063000D01*
X8075714Y-15005857D01*
X8090000Y-14934429D01*
X8104286Y-14891571D01*
X8118571Y-14863000D01*
X8147143Y-14820143D01*
X8161428Y-14805857D01*
X8432857Y-15148714D02*
X8261428Y-15148714D01*
X8347143Y-15148714D02*
X8347143Y-14848714D01*
X8318571Y-14891571D01*
X8290000Y-14920143D01*
X8261428Y-14934429D01*
X8547143Y-14877286D02*
X8561428Y-14863000D01*
X8590000Y-14848714D01*
X8661428Y-14848714D01*
X8690000Y-14863000D01*
X8704286Y-14877286D01*
X8718571Y-14905857D01*
X8718571Y-14934429D01*
X8704286Y-14977286D01*
X8532857Y-15148714D01*
X8718571Y-15148714D01*
X9075714Y-15148714D02*
X9075714Y-14848714D01*
X9204286Y-15148714D02*
X9204286Y-14991571D01*
X9190000Y-14963000D01*
X9161428Y-14948714D01*
X9118571Y-14948714D01*
X9090000Y-14963000D01*
X9075714Y-14977286D01*
X9390000Y-15148714D02*
X9361428Y-15134429D01*
X9347143Y-15120143D01*
X9332857Y-15091571D01*
X9332857Y-15005857D01*
X9347143Y-14977286D01*
X9361428Y-14963000D01*
X9390000Y-14948714D01*
X9432857Y-14948714D01*
X9461428Y-14963000D01*
X9475714Y-14977286D01*
X9490000Y-15005857D01*
X9490000Y-15091571D01*
X9475714Y-15120143D01*
X9461428Y-15134429D01*
X9432857Y-15148714D01*
X9390000Y-15148714D01*
X9661428Y-15148714D02*
X9632857Y-15134429D01*
X9618571Y-15105857D01*
X9618571Y-14848714D01*
X9890000Y-15134429D02*
X9861428Y-15148714D01*
X9804286Y-15148714D01*
X9775714Y-15134429D01*
X9761428Y-15105857D01*
X9761428Y-14991571D01*
X9775714Y-14963000D01*
X9804286Y-14948714D01*
X9861428Y-14948714D01*
X9890000Y-14963000D01*
X9904286Y-14991571D01*
X9904286Y-15020143D01*
X9761428Y-15048714D01*
X10018571Y-15134429D02*
X10047143Y-15148714D01*
X10104286Y-15148714D01*
X10132857Y-15134429D01*
X10147143Y-15105857D01*
X10147143Y-15091571D01*
X10132857Y-15063000D01*
X10104286Y-15048714D01*
X10061428Y-15048714D01*
X10032857Y-15034429D01*
X10018571Y-15005857D01*
X10018571Y-14991571D01*
X10032857Y-14963000D01*
X10061428Y-14948714D01*
X10104286Y-14948714D01*
X10132857Y-14963000D01*
X10247143Y-15263000D02*
X10261428Y-15248714D01*
X10290000Y-15205857D01*
X10304286Y-15177286D01*
X10318571Y-15134429D01*
X10332857Y-15063000D01*
X10332857Y-15005857D01*
X10318571Y-14934429D01*
X10304286Y-14891571D01*
X10290000Y-14863000D01*
X10261428Y-14820143D01*
X10247143Y-14805857D01*
X3430000Y-15454000D02*
X3475000Y-15409000D01*
X3430000Y-15364000D01*
X3385000Y-15409000D01*
X3430000Y-15454000D01*
X3818571Y-15244714D02*
X3847143Y-15244714D01*
X3875714Y-15259000D01*
X3890000Y-15273286D01*
X3904286Y-15301857D01*
X3918571Y-15359000D01*
X3918571Y-15430429D01*
X3904286Y-15487571D01*
X3890000Y-15516143D01*
X3875714Y-15530429D01*
X3847143Y-15544714D01*
X3818571Y-15544714D01*
X3790000Y-15530429D01*
X3775714Y-15516143D01*
X3761428Y-15487571D01*
X3747143Y-15430429D01*
X3747143Y-15359000D01*
X3761428Y-15301857D01*
X3775714Y-15273286D01*
X3790000Y-15259000D01*
X3818571Y-15244714D01*
X4047143Y-15516143D02*
X4061428Y-15530429D01*
X4047143Y-15544714D01*
X4032857Y-15530429D01*
X4047143Y-15516143D01*
X4047143Y-15544714D01*
X4204286Y-15544714D02*
X4261428Y-15544714D01*
X4290000Y-15530429D01*
X4304286Y-15516143D01*
X4332857Y-15473286D01*
X4347143Y-15416143D01*
X4347143Y-15301857D01*
X4332857Y-15273286D01*
X4318571Y-15259000D01*
X4290000Y-15244714D01*
X4232857Y-15244714D01*
X4204286Y-15259000D01*
X4190000Y-15273286D01*
X4175714Y-15301857D01*
X4175714Y-15373286D01*
X4190000Y-15401857D01*
X4204286Y-15416143D01*
X4232857Y-15430429D01*
X4290000Y-15430429D01*
X4318571Y-15416143D01*
X4332857Y-15401857D01*
X4347143Y-15373286D01*
X4532857Y-15244714D02*
X4561428Y-15244714D01*
X4590000Y-15259000D01*
X4604286Y-15273286D01*
X4618571Y-15301857D01*
X4632857Y-15359000D01*
X4632857Y-15430429D01*
X4618571Y-15487571D01*
X4604286Y-15516143D01*
X4590000Y-15530429D01*
X4561428Y-15544714D01*
X4532857Y-15544714D01*
X4504286Y-15530429D01*
X4490000Y-15516143D01*
X4475714Y-15487571D01*
X4461428Y-15430429D01*
X4461428Y-15359000D01*
X4475714Y-15301857D01*
X4490000Y-15273286D01*
X4504286Y-15259000D01*
X4532857Y-15244714D01*
X4761428Y-15544714D02*
X4761428Y-15344714D01*
X4761428Y-15373286D02*
X4775714Y-15359000D01*
X4804286Y-15344714D01*
X4847143Y-15344714D01*
X4875714Y-15359000D01*
X4890000Y-15387571D01*
X4890000Y-15544714D01*
X4890000Y-15387571D02*
X4904286Y-15359000D01*
X4932857Y-15344714D01*
X4975714Y-15344714D01*
X5004286Y-15359000D01*
X5018571Y-15387571D01*
X5018571Y-15544714D01*
X5161428Y-15544714D02*
X5161428Y-15344714D01*
X5161428Y-15373286D02*
X5175714Y-15359000D01*
X5204286Y-15344714D01*
X5247143Y-15344714D01*
X5275714Y-15359000D01*
X5290000Y-15387571D01*
X5290000Y-15544714D01*
X5290000Y-15387571D02*
X5304286Y-15359000D01*
X5332857Y-15344714D01*
X5375714Y-15344714D01*
X5404286Y-15359000D01*
X5418571Y-15387571D01*
X5418571Y-15544714D01*
X6004286Y-15230429D02*
X5747143Y-15616143D01*
X6390000Y-15244714D02*
X6418571Y-15244714D01*
X6447143Y-15259000D01*
X6461428Y-15273286D01*
X6475714Y-15301857D01*
X6490000Y-15359000D01*
X6490000Y-15430429D01*
X6475714Y-15487571D01*
X6461428Y-15516143D01*
X6447143Y-15530429D01*
X6418571Y-15544714D01*
X6390000Y-15544714D01*
X6361428Y-15530429D01*
X6347143Y-15516143D01*
X6332857Y-15487571D01*
X6318571Y-15430429D01*
X6318571Y-15359000D01*
X6332857Y-15301857D01*
X6347143Y-15273286D01*
X6361428Y-15259000D01*
X6390000Y-15244714D01*
X6618571Y-15516143D02*
X6632857Y-15530429D01*
X6618571Y-15544714D01*
X6604286Y-15530429D01*
X6618571Y-15516143D01*
X6618571Y-15544714D01*
X6818571Y-15244714D02*
X6847143Y-15244714D01*
X6875714Y-15259000D01*
X6890000Y-15273286D01*
X6904286Y-15301857D01*
X6918571Y-15359000D01*
X6918571Y-15430429D01*
X6904286Y-15487571D01*
X6890000Y-15516143D01*
X6875714Y-15530429D01*
X6847143Y-15544714D01*
X6818571Y-15544714D01*
X6790000Y-15530429D01*
X6775714Y-15516143D01*
X6761428Y-15487571D01*
X6747143Y-15430429D01*
X6747143Y-15359000D01*
X6761428Y-15301857D01*
X6775714Y-15273286D01*
X6790000Y-15259000D01*
X6818571Y-15244714D01*
X7018571Y-15244714D02*
X7204286Y-15244714D01*
X7104286Y-15359000D01*
X7147143Y-15359000D01*
X7175714Y-15373286D01*
X7190000Y-15387571D01*
X7204286Y-15416143D01*
X7204286Y-15487571D01*
X7190000Y-15516143D01*
X7175714Y-15530429D01*
X7147143Y-15544714D01*
X7061428Y-15544714D01*
X7032857Y-15530429D01*
X7018571Y-15516143D01*
X7475714Y-15244714D02*
X7332857Y-15244714D01*
X7318571Y-15387571D01*
X7332857Y-15373286D01*
X7361428Y-15359000D01*
X7432857Y-15359000D01*
X7461428Y-15373286D01*
X7475714Y-15387571D01*
X7490000Y-15416143D01*
X7490000Y-15487571D01*
X7475714Y-15516143D01*
X7461428Y-15530429D01*
X7432857Y-15544714D01*
X7361428Y-15544714D01*
X7332857Y-15530429D01*
X7318571Y-15516143D01*
X7604286Y-15244714D02*
X7604286Y-15301857D01*
X7718571Y-15244714D02*
X7718571Y-15301857D01*
X8161428Y-15659000D02*
X8147143Y-15644714D01*
X8118571Y-15601857D01*
X8104286Y-15573286D01*
X8090000Y-15530429D01*
X8075714Y-15459000D01*
X8075714Y-15401857D01*
X8090000Y-15330429D01*
X8104286Y-15287571D01*
X8118571Y-15259000D01*
X8147143Y-15216143D01*
X8161428Y-15201857D01*
X8432857Y-15544714D02*
X8261428Y-15544714D01*
X8347143Y-15544714D02*
X8347143Y-15244714D01*
X8318571Y-15287571D01*
X8290000Y-15316143D01*
X8261428Y-15330429D01*
X8547143Y-15273286D02*
X8561428Y-15259000D01*
X8590000Y-15244714D01*
X8661428Y-15244714D01*
X8690000Y-15259000D01*
X8704286Y-15273286D01*
X8718571Y-15301857D01*
X8718571Y-15330429D01*
X8704286Y-15373286D01*
X8532857Y-15544714D01*
X8718571Y-15544714D01*
X9075714Y-15544714D02*
X9075714Y-15244714D01*
X9204286Y-15544714D02*
X9204286Y-15387571D01*
X9190000Y-15359000D01*
X9161428Y-15344714D01*
X9118571Y-15344714D01*
X9090000Y-15359000D01*
X9075714Y-15373286D01*
X9390000Y-15544714D02*
X9361428Y-15530429D01*
X9347143Y-15516143D01*
X9332857Y-15487571D01*
X9332857Y-15401857D01*
X9347143Y-15373286D01*
X9361428Y-15359000D01*
X9390000Y-15344714D01*
X9432857Y-15344714D01*
X9461428Y-15359000D01*
X9475714Y-15373286D01*
X9490000Y-15401857D01*
X9490000Y-15487571D01*
X9475714Y-15516143D01*
X9461428Y-15530429D01*
X9432857Y-15544714D01*
X9390000Y-15544714D01*
X9661428Y-15544714D02*
X9632857Y-15530429D01*
X9618571Y-15501857D01*
X9618571Y-15244714D01*
X9890000Y-15530429D02*
X9861428Y-15544714D01*
X9804286Y-15544714D01*
X9775714Y-15530429D01*
X9761428Y-15501857D01*
X9761428Y-15387571D01*
X9775714Y-15359000D01*
X9804286Y-15344714D01*
X9861428Y-15344714D01*
X9890000Y-15359000D01*
X9904286Y-15387571D01*
X9904286Y-15416143D01*
X9761428Y-15444714D01*
X10018571Y-15530429D02*
X10047143Y-15544714D01*
X10104286Y-15544714D01*
X10132857Y-15530429D01*
X10147143Y-15501857D01*
X10147143Y-15487571D01*
X10132857Y-15459000D01*
X10104286Y-15444714D01*
X10061428Y-15444714D01*
X10032857Y-15430429D01*
X10018571Y-15401857D01*
X10018571Y-15387571D01*
X10032857Y-15359000D01*
X10061428Y-15344714D01*
X10104286Y-15344714D01*
X10132857Y-15359000D01*
X10247143Y-15659000D02*
X10261428Y-15644714D01*
X10290000Y-15601857D01*
X10304286Y-15573286D01*
X10318571Y-15530429D01*
X10332857Y-15459000D01*
X10332857Y-15401857D01*
X10318571Y-15330429D01*
X10304286Y-15287571D01*
X10290000Y-15259000D01*
X10261428Y-15216143D01*
X10247143Y-15201857D01*
X3380000Y-15757500D02*
X3475000Y-15852500D01*
X3475000Y-15757500D02*
X3380000Y-15852500D01*
X3475000Y-15805000D02*
G75*
G03X3475000Y-15805000I-47500J0D01*
G01*
X3818571Y-15640714D02*
X3847143Y-15640714D01*
X3875714Y-15655000D01*
X3890000Y-15669286D01*
X3904286Y-15697857D01*
X3918571Y-15755000D01*
X3918571Y-15826429D01*
X3904286Y-15883571D01*
X3890000Y-15912143D01*
X3875714Y-15926429D01*
X3847143Y-15940714D01*
X3818571Y-15940714D01*
X3790000Y-15926429D01*
X3775714Y-15912143D01*
X3761428Y-15883571D01*
X3747143Y-15826429D01*
X3747143Y-15755000D01*
X3761428Y-15697857D01*
X3775714Y-15669286D01*
X3790000Y-15655000D01*
X3818571Y-15640714D01*
X4047143Y-15912143D02*
X4061428Y-15926429D01*
X4047143Y-15940714D01*
X4032857Y-15926429D01*
X4047143Y-15912143D01*
X4047143Y-15940714D01*
X4204286Y-15940714D02*
X4261428Y-15940714D01*
X4290000Y-15926429D01*
X4304286Y-15912143D01*
X4332857Y-15869286D01*
X4347143Y-15812143D01*
X4347143Y-15697857D01*
X4332857Y-15669286D01*
X4318571Y-15655000D01*
X4290000Y-15640714D01*
X4232857Y-15640714D01*
X4204286Y-15655000D01*
X4190000Y-15669286D01*
X4175714Y-15697857D01*
X4175714Y-15769286D01*
X4190000Y-15797857D01*
X4204286Y-15812143D01*
X4232857Y-15826429D01*
X4290000Y-15826429D01*
X4318571Y-15812143D01*
X4332857Y-15797857D01*
X4347143Y-15769286D01*
X4618571Y-15640714D02*
X4475714Y-15640714D01*
X4461428Y-15783571D01*
X4475714Y-15769286D01*
X4504286Y-15755000D01*
X4575714Y-15755000D01*
X4604286Y-15769286D01*
X4618571Y-15783571D01*
X4632857Y-15812143D01*
X4632857Y-15883571D01*
X4618571Y-15912143D01*
X4604286Y-15926429D01*
X4575714Y-15940714D01*
X4504286Y-15940714D01*
X4475714Y-15926429D01*
X4461428Y-15912143D01*
X4761428Y-15940714D02*
X4761428Y-15740714D01*
X4761428Y-15769286D02*
X4775714Y-15755000D01*
X4804286Y-15740714D01*
X4847143Y-15740714D01*
X4875714Y-15755000D01*
X4890000Y-15783571D01*
X4890000Y-15940714D01*
X4890000Y-15783571D02*
X4904286Y-15755000D01*
X4932857Y-15740714D01*
X4975714Y-15740714D01*
X5004286Y-15755000D01*
X5018571Y-15783571D01*
X5018571Y-15940714D01*
X5161428Y-15940714D02*
X5161428Y-15740714D01*
X5161428Y-15769286D02*
X5175714Y-15755000D01*
X5204286Y-15740714D01*
X5247143Y-15740714D01*
X5275714Y-15755000D01*
X5290000Y-15783571D01*
X5290000Y-15940714D01*
X5290000Y-15783571D02*
X5304286Y-15755000D01*
X5332857Y-15740714D01*
X5375714Y-15740714D01*
X5404286Y-15755000D01*
X5418571Y-15783571D01*
X5418571Y-15940714D01*
X6004286Y-15626429D02*
X5747143Y-16012143D01*
X6390000Y-15640714D02*
X6418571Y-15640714D01*
X6447143Y-15655000D01*
X6461428Y-15669286D01*
X6475714Y-15697857D01*
X6490000Y-15755000D01*
X6490000Y-15826429D01*
X6475714Y-15883571D01*
X6461428Y-15912143D01*
X6447143Y-15926429D01*
X6418571Y-15940714D01*
X6390000Y-15940714D01*
X6361428Y-15926429D01*
X6347143Y-15912143D01*
X6332857Y-15883571D01*
X6318571Y-15826429D01*
X6318571Y-15755000D01*
X6332857Y-15697857D01*
X6347143Y-15669286D01*
X6361428Y-15655000D01*
X6390000Y-15640714D01*
X6618571Y-15912143D02*
X6632857Y-15926429D01*
X6618571Y-15940714D01*
X6604286Y-15926429D01*
X6618571Y-15912143D01*
X6618571Y-15940714D01*
X6818571Y-15640714D02*
X6847143Y-15640714D01*
X6875714Y-15655000D01*
X6890000Y-15669286D01*
X6904286Y-15697857D01*
X6918571Y-15755000D01*
X6918571Y-15826429D01*
X6904286Y-15883571D01*
X6890000Y-15912143D01*
X6875714Y-15926429D01*
X6847143Y-15940714D01*
X6818571Y-15940714D01*
X6790000Y-15926429D01*
X6775714Y-15912143D01*
X6761428Y-15883571D01*
X6747143Y-15826429D01*
X6747143Y-15755000D01*
X6761428Y-15697857D01*
X6775714Y-15669286D01*
X6790000Y-15655000D01*
X6818571Y-15640714D01*
X7018571Y-15640714D02*
X7204286Y-15640714D01*
X7104286Y-15755000D01*
X7147143Y-15755000D01*
X7175714Y-15769286D01*
X7190000Y-15783571D01*
X7204286Y-15812143D01*
X7204286Y-15883571D01*
X7190000Y-15912143D01*
X7175714Y-15926429D01*
X7147143Y-15940714D01*
X7061428Y-15940714D01*
X7032857Y-15926429D01*
X7018571Y-15912143D01*
X7304286Y-15640714D02*
X7504286Y-15640714D01*
X7375714Y-15940714D01*
X7604286Y-15640714D02*
X7604286Y-15697857D01*
X7718571Y-15640714D02*
X7718571Y-15697857D01*
X8161428Y-16055000D02*
X8147143Y-16040714D01*
X8118571Y-15997857D01*
X8104286Y-15969286D01*
X8090000Y-15926429D01*
X8075714Y-15855000D01*
X8075714Y-15797857D01*
X8090000Y-15726429D01*
X8104286Y-15683571D01*
X8118571Y-15655000D01*
X8147143Y-15612143D01*
X8161428Y-15597857D01*
X8418571Y-15640714D02*
X8275714Y-15640714D01*
X8261428Y-15783571D01*
X8275714Y-15769286D01*
X8304286Y-15755000D01*
X8375714Y-15755000D01*
X8404286Y-15769286D01*
X8418571Y-15783571D01*
X8432857Y-15812143D01*
X8432857Y-15883571D01*
X8418571Y-15912143D01*
X8404286Y-15926429D01*
X8375714Y-15940714D01*
X8304286Y-15940714D01*
X8275714Y-15926429D01*
X8261428Y-15912143D01*
X8790000Y-15940714D02*
X8790000Y-15640714D01*
X8918571Y-15940714D02*
X8918571Y-15783571D01*
X8904286Y-15755000D01*
X8875714Y-15740714D01*
X8832857Y-15740714D01*
X8804286Y-15755000D01*
X8790000Y-15769286D01*
X9104286Y-15940714D02*
X9075714Y-15926429D01*
X9061428Y-15912143D01*
X9047143Y-15883571D01*
X9047143Y-15797857D01*
X9061428Y-15769286D01*
X9075714Y-15755000D01*
X9104286Y-15740714D01*
X9147143Y-15740714D01*
X9175714Y-15755000D01*
X9190000Y-15769286D01*
X9204286Y-15797857D01*
X9204286Y-15883571D01*
X9190000Y-15912143D01*
X9175714Y-15926429D01*
X9147143Y-15940714D01*
X9104286Y-15940714D01*
X9375714Y-15940714D02*
X9347143Y-15926429D01*
X9332857Y-15897857D01*
X9332857Y-15640714D01*
X9604286Y-15926429D02*
X9575714Y-15940714D01*
X9518571Y-15940714D01*
X9490000Y-15926429D01*
X9475714Y-15897857D01*
X9475714Y-15783571D01*
X9490000Y-15755000D01*
X9518571Y-15740714D01*
X9575714Y-15740714D01*
X9604286Y-15755000D01*
X9618571Y-15783571D01*
X9618571Y-15812143D01*
X9475714Y-15840714D01*
X9732857Y-15926429D02*
X9761428Y-15940714D01*
X9818571Y-15940714D01*
X9847143Y-15926429D01*
X9861428Y-15897857D01*
X9861428Y-15883571D01*
X9847143Y-15855000D01*
X9818571Y-15840714D01*
X9775714Y-15840714D01*
X9747143Y-15826429D01*
X9732857Y-15797857D01*
X9732857Y-15783571D01*
X9747143Y-15755000D01*
X9775714Y-15740714D01*
X9818571Y-15740714D01*
X9847143Y-15755000D01*
X9961428Y-16055000D02*
X9975714Y-16040714D01*
X10004286Y-15997857D01*
X10018571Y-15969286D01*
X10032857Y-15926429D01*
X10047143Y-15855000D01*
X10047143Y-15797857D01*
X10032857Y-15726429D01*
X10018571Y-15683571D01*
X10004286Y-15655000D01*
X9975714Y-15612143D01*
X9961428Y-15597857D01*
X3375000Y-16151000D02*
X3475000Y-16251000D01*
X3475000Y-16151000D02*
X3375000Y-16251000D01*
X3425000Y-16151000D02*
X3425000Y-16251000D01*
X3375000Y-16201000D02*
X3475000Y-16201000D01*
X3918571Y-16336714D02*
X3747143Y-16336714D01*
X3832857Y-16336714D02*
X3832857Y-16036714D01*
X3804286Y-16079571D01*
X3775714Y-16108143D01*
X3747143Y-16122429D01*
X4047143Y-16308143D02*
X4061428Y-16322429D01*
X4047143Y-16336714D01*
X4032857Y-16322429D01*
X4047143Y-16308143D01*
X4047143Y-16336714D01*
X4247143Y-16036714D02*
X4275714Y-16036714D01*
X4304286Y-16051000D01*
X4318571Y-16065286D01*
X4332857Y-16093857D01*
X4347143Y-16151000D01*
X4347143Y-16222429D01*
X4332857Y-16279571D01*
X4318571Y-16308143D01*
X4304286Y-16322429D01*
X4275714Y-16336714D01*
X4247143Y-16336714D01*
X4218571Y-16322429D01*
X4204286Y-16308143D01*
X4190000Y-16279571D01*
X4175714Y-16222429D01*
X4175714Y-16151000D01*
X4190000Y-16093857D01*
X4204286Y-16065286D01*
X4218571Y-16051000D01*
X4247143Y-16036714D01*
X4532857Y-16036714D02*
X4561428Y-16036714D01*
X4590000Y-16051000D01*
X4604286Y-16065286D01*
X4618571Y-16093857D01*
X4632857Y-16151000D01*
X4632857Y-16222429D01*
X4618571Y-16279571D01*
X4604286Y-16308143D01*
X4590000Y-16322429D01*
X4561428Y-16336714D01*
X4532857Y-16336714D01*
X4504286Y-16322429D01*
X4490000Y-16308143D01*
X4475714Y-16279571D01*
X4461428Y-16222429D01*
X4461428Y-16151000D01*
X4475714Y-16093857D01*
X4490000Y-16065286D01*
X4504286Y-16051000D01*
X4532857Y-16036714D01*
X4761428Y-16336714D02*
X4761428Y-16136714D01*
X4761428Y-16165286D02*
X4775714Y-16151000D01*
X4804286Y-16136714D01*
X4847143Y-16136714D01*
X4875714Y-16151000D01*
X4890000Y-16179571D01*
X4890000Y-16336714D01*
X4890000Y-16179571D02*
X4904286Y-16151000D01*
X4932857Y-16136714D01*
X4975714Y-16136714D01*
X5004286Y-16151000D01*
X5018571Y-16179571D01*
X5018571Y-16336714D01*
X5161428Y-16336714D02*
X5161428Y-16136714D01*
X5161428Y-16165286D02*
X5175714Y-16151000D01*
X5204286Y-16136714D01*
X5247143Y-16136714D01*
X5275714Y-16151000D01*
X5290000Y-16179571D01*
X5290000Y-16336714D01*
X5290000Y-16179571D02*
X5304286Y-16151000D01*
X5332857Y-16136714D01*
X5375714Y-16136714D01*
X5404286Y-16151000D01*
X5418571Y-16179571D01*
X5418571Y-16336714D01*
X6004286Y-16022429D02*
X5747143Y-16408143D01*
X6390000Y-16036714D02*
X6418571Y-16036714D01*
X6447143Y-16051000D01*
X6461428Y-16065286D01*
X6475714Y-16093857D01*
X6490000Y-16151000D01*
X6490000Y-16222429D01*
X6475714Y-16279571D01*
X6461428Y-16308143D01*
X6447143Y-16322429D01*
X6418571Y-16336714D01*
X6390000Y-16336714D01*
X6361428Y-16322429D01*
X6347143Y-16308143D01*
X6332857Y-16279571D01*
X6318571Y-16222429D01*
X6318571Y-16151000D01*
X6332857Y-16093857D01*
X6347143Y-16065286D01*
X6361428Y-16051000D01*
X6390000Y-16036714D01*
X6618571Y-16308143D02*
X6632857Y-16322429D01*
X6618571Y-16336714D01*
X6604286Y-16322429D01*
X6618571Y-16308143D01*
X6618571Y-16336714D01*
X6818571Y-16036714D02*
X6847143Y-16036714D01*
X6875714Y-16051000D01*
X6890000Y-16065286D01*
X6904286Y-16093857D01*
X6918571Y-16151000D01*
X6918571Y-16222429D01*
X6904286Y-16279571D01*
X6890000Y-16308143D01*
X6875714Y-16322429D01*
X6847143Y-16336714D01*
X6818571Y-16336714D01*
X6790000Y-16322429D01*
X6775714Y-16308143D01*
X6761428Y-16279571D01*
X6747143Y-16222429D01*
X6747143Y-16151000D01*
X6761428Y-16093857D01*
X6775714Y-16065286D01*
X6790000Y-16051000D01*
X6818571Y-16036714D01*
X7018571Y-16036714D02*
X7204286Y-16036714D01*
X7104286Y-16151000D01*
X7147143Y-16151000D01*
X7175714Y-16165286D01*
X7190000Y-16179571D01*
X7204286Y-16208143D01*
X7204286Y-16279571D01*
X7190000Y-16308143D01*
X7175714Y-16322429D01*
X7147143Y-16336714D01*
X7061428Y-16336714D01*
X7032857Y-16322429D01*
X7018571Y-16308143D01*
X7347143Y-16336714D02*
X7404286Y-16336714D01*
X7432857Y-16322429D01*
X7447143Y-16308143D01*
X7475714Y-16265286D01*
X7490000Y-16208143D01*
X7490000Y-16093857D01*
X7475714Y-16065286D01*
X7461428Y-16051000D01*
X7432857Y-16036714D01*
X7375714Y-16036714D01*
X7347143Y-16051000D01*
X7332857Y-16065286D01*
X7318571Y-16093857D01*
X7318571Y-16165286D01*
X7332857Y-16193857D01*
X7347143Y-16208143D01*
X7375714Y-16222429D01*
X7432857Y-16222429D01*
X7461428Y-16208143D01*
X7475714Y-16193857D01*
X7490000Y-16165286D01*
X7604286Y-16036714D02*
X7604286Y-16093857D01*
X7718571Y-16036714D02*
X7718571Y-16093857D01*
X8161428Y-16451000D02*
X8147143Y-16436714D01*
X8118571Y-16393857D01*
X8104286Y-16365286D01*
X8090000Y-16322429D01*
X8075714Y-16251000D01*
X8075714Y-16193857D01*
X8090000Y-16122429D01*
X8104286Y-16079571D01*
X8118571Y-16051000D01*
X8147143Y-16008143D01*
X8161428Y-15993857D01*
X8432857Y-16336714D02*
X8261428Y-16336714D01*
X8347143Y-16336714D02*
X8347143Y-16036714D01*
X8318571Y-16079571D01*
X8290000Y-16108143D01*
X8261428Y-16122429D01*
X8718571Y-16336714D02*
X8547143Y-16336714D01*
X8632857Y-16336714D02*
X8632857Y-16036714D01*
X8604286Y-16079571D01*
X8575714Y-16108143D01*
X8547143Y-16122429D01*
X8832857Y-16065286D02*
X8847143Y-16051000D01*
X8875714Y-16036714D01*
X8947143Y-16036714D01*
X8975714Y-16051000D01*
X8990000Y-16065286D01*
X9004286Y-16093857D01*
X9004286Y-16122429D01*
X8990000Y-16165286D01*
X8818571Y-16336714D01*
X9004286Y-16336714D01*
X9361428Y-16336714D02*
X9361428Y-16036714D01*
X9490000Y-16336714D02*
X9490000Y-16179571D01*
X9475714Y-16151000D01*
X9447143Y-16136714D01*
X9404286Y-16136714D01*
X9375714Y-16151000D01*
X9361428Y-16165286D01*
X9675714Y-16336714D02*
X9647143Y-16322429D01*
X9632857Y-16308143D01*
X9618571Y-16279571D01*
X9618571Y-16193857D01*
X9632857Y-16165286D01*
X9647143Y-16151000D01*
X9675714Y-16136714D01*
X9718571Y-16136714D01*
X9747143Y-16151000D01*
X9761428Y-16165286D01*
X9775714Y-16193857D01*
X9775714Y-16279571D01*
X9761428Y-16308143D01*
X9747143Y-16322429D01*
X9718571Y-16336714D01*
X9675714Y-16336714D01*
X9947143Y-16336714D02*
X9918571Y-16322429D01*
X9904286Y-16293857D01*
X9904286Y-16036714D01*
X10175714Y-16322429D02*
X10147143Y-16336714D01*
X10090000Y-16336714D01*
X10061428Y-16322429D01*
X10047143Y-16293857D01*
X10047143Y-16179571D01*
X10061428Y-16151000D01*
X10090000Y-16136714D01*
X10147143Y-16136714D01*
X10175714Y-16151000D01*
X10190000Y-16179571D01*
X10190000Y-16208143D01*
X10047143Y-16236714D01*
X10304286Y-16322429D02*
X10332857Y-16336714D01*
X10390000Y-16336714D01*
X10418571Y-16322429D01*
X10432857Y-16293857D01*
X10432857Y-16279571D01*
X10418571Y-16251000D01*
X10390000Y-16236714D01*
X10347143Y-16236714D01*
X10318571Y-16222429D01*
X10304286Y-16193857D01*
X10304286Y-16179571D01*
X10318571Y-16151000D01*
X10347143Y-16136714D01*
X10390000Y-16136714D01*
X10418571Y-16151000D01*
X10532857Y-16451000D02*
X10547143Y-16436714D01*
X10575714Y-16393857D01*
X10590000Y-16365286D01*
X10604286Y-16322429D01*
X10618571Y-16251000D01*
X10618571Y-16193857D01*
X10604286Y-16122429D01*
X10590000Y-16079571D01*
X10575714Y-16051000D01*
X10547143Y-16008143D01*
X10532857Y-15993857D01*
X3373400Y-16546200D02*
X3475000Y-16647800D01*
X3475000Y-16546200D02*
X3373400Y-16647800D01*
X3460121Y-16632921D02*
X3460121Y-16561079D01*
X3388278Y-16561079D01*
X3388278Y-16632921D01*
X3460121Y-16632921D01*
X3918571Y-16732714D02*
X3747143Y-16732714D01*
X3832857Y-16732714D02*
X3832857Y-16432714D01*
X3804286Y-16475571D01*
X3775714Y-16504143D01*
X3747143Y-16518429D01*
X4047143Y-16704143D02*
X4061428Y-16718429D01*
X4047143Y-16732714D01*
X4032857Y-16718429D01*
X4047143Y-16704143D01*
X4047143Y-16732714D01*
X4247143Y-16432714D02*
X4275714Y-16432714D01*
X4304286Y-16447000D01*
X4318571Y-16461286D01*
X4332857Y-16489857D01*
X4347143Y-16547000D01*
X4347143Y-16618429D01*
X4332857Y-16675571D01*
X4318571Y-16704143D01*
X4304286Y-16718429D01*
X4275714Y-16732714D01*
X4247143Y-16732714D01*
X4218571Y-16718429D01*
X4204286Y-16704143D01*
X4190000Y-16675571D01*
X4175714Y-16618429D01*
X4175714Y-16547000D01*
X4190000Y-16489857D01*
X4204286Y-16461286D01*
X4218571Y-16447000D01*
X4247143Y-16432714D01*
X4461428Y-16461286D02*
X4475714Y-16447000D01*
X4504286Y-16432714D01*
X4575714Y-16432714D01*
X4604286Y-16447000D01*
X4618571Y-16461286D01*
X4632857Y-16489857D01*
X4632857Y-16518429D01*
X4618571Y-16561286D01*
X4447143Y-16732714D01*
X4632857Y-16732714D01*
X4761428Y-16732714D02*
X4761428Y-16532714D01*
X4761428Y-16561286D02*
X4775714Y-16547000D01*
X4804286Y-16532714D01*
X4847143Y-16532714D01*
X4875714Y-16547000D01*
X4890000Y-16575571D01*
X4890000Y-16732714D01*
X4890000Y-16575571D02*
X4904286Y-16547000D01*
X4932857Y-16532714D01*
X4975714Y-16532714D01*
X5004286Y-16547000D01*
X5018571Y-16575571D01*
X5018571Y-16732714D01*
X5161428Y-16732714D02*
X5161428Y-16532714D01*
X5161428Y-16561286D02*
X5175714Y-16547000D01*
X5204286Y-16532714D01*
X5247143Y-16532714D01*
X5275714Y-16547000D01*
X5290000Y-16575571D01*
X5290000Y-16732714D01*
X5290000Y-16575571D02*
X5304286Y-16547000D01*
X5332857Y-16532714D01*
X5375714Y-16532714D01*
X5404286Y-16547000D01*
X5418571Y-16575571D01*
X5418571Y-16732714D01*
X6004286Y-16418429D02*
X5747143Y-16804143D01*
X6390000Y-16432714D02*
X6418571Y-16432714D01*
X6447143Y-16447000D01*
X6461428Y-16461286D01*
X6475714Y-16489857D01*
X6490000Y-16547000D01*
X6490000Y-16618429D01*
X6475714Y-16675571D01*
X6461428Y-16704143D01*
X6447143Y-16718429D01*
X6418571Y-16732714D01*
X6390000Y-16732714D01*
X6361428Y-16718429D01*
X6347143Y-16704143D01*
X6332857Y-16675571D01*
X6318571Y-16618429D01*
X6318571Y-16547000D01*
X6332857Y-16489857D01*
X6347143Y-16461286D01*
X6361428Y-16447000D01*
X6390000Y-16432714D01*
X6618571Y-16704143D02*
X6632857Y-16718429D01*
X6618571Y-16732714D01*
X6604286Y-16718429D01*
X6618571Y-16704143D01*
X6618571Y-16732714D01*
X6818571Y-16432714D02*
X6847143Y-16432714D01*
X6875714Y-16447000D01*
X6890000Y-16461286D01*
X6904286Y-16489857D01*
X6918571Y-16547000D01*
X6918571Y-16618429D01*
X6904286Y-16675571D01*
X6890000Y-16704143D01*
X6875714Y-16718429D01*
X6847143Y-16732714D01*
X6818571Y-16732714D01*
X6790000Y-16718429D01*
X6775714Y-16704143D01*
X6761428Y-16675571D01*
X6747143Y-16618429D01*
X6747143Y-16547000D01*
X6761428Y-16489857D01*
X6775714Y-16461286D01*
X6790000Y-16447000D01*
X6818571Y-16432714D01*
X7175714Y-16532714D02*
X7175714Y-16732714D01*
X7104286Y-16418429D02*
X7032857Y-16632714D01*
X7218571Y-16632714D01*
X7390000Y-16432714D02*
X7418571Y-16432714D01*
X7447143Y-16447000D01*
X7461428Y-16461286D01*
X7475714Y-16489857D01*
X7490000Y-16547000D01*
X7490000Y-16618429D01*
X7475714Y-16675571D01*
X7461428Y-16704143D01*
X7447143Y-16718429D01*
X7418571Y-16732714D01*
X7390000Y-16732714D01*
X7361428Y-16718429D01*
X7347143Y-16704143D01*
X7332857Y-16675571D01*
X7318571Y-16618429D01*
X7318571Y-16547000D01*
X7332857Y-16489857D01*
X7347143Y-16461286D01*
X7361428Y-16447000D01*
X7390000Y-16432714D01*
X7604286Y-16432714D02*
X7604286Y-16489857D01*
X7718571Y-16432714D02*
X7718571Y-16489857D01*
X8161428Y-16847000D02*
X8147143Y-16832714D01*
X8118571Y-16789857D01*
X8104286Y-16761286D01*
X8090000Y-16718429D01*
X8075714Y-16647000D01*
X8075714Y-16589857D01*
X8090000Y-16518429D01*
X8104286Y-16475571D01*
X8118571Y-16447000D01*
X8147143Y-16404143D01*
X8161428Y-16389857D01*
X8404286Y-16532714D02*
X8404286Y-16732714D01*
X8332857Y-16418429D02*
X8261428Y-16632714D01*
X8447143Y-16632714D01*
X8604286Y-16561286D02*
X8575714Y-16547000D01*
X8561428Y-16532714D01*
X8547143Y-16504143D01*
X8547143Y-16489857D01*
X8561428Y-16461286D01*
X8575714Y-16447000D01*
X8604286Y-16432714D01*
X8661428Y-16432714D01*
X8690000Y-16447000D01*
X8704286Y-16461286D01*
X8718571Y-16489857D01*
X8718571Y-16504143D01*
X8704286Y-16532714D01*
X8690000Y-16547000D01*
X8661428Y-16561286D01*
X8604286Y-16561286D01*
X8575714Y-16575571D01*
X8561428Y-16589857D01*
X8547143Y-16618429D01*
X8547143Y-16675571D01*
X8561428Y-16704143D01*
X8575714Y-16718429D01*
X8604286Y-16732714D01*
X8661428Y-16732714D01*
X8690000Y-16718429D01*
X8704286Y-16704143D01*
X8718571Y-16675571D01*
X8718571Y-16618429D01*
X8704286Y-16589857D01*
X8690000Y-16575571D01*
X8661428Y-16561286D01*
X9075714Y-16732714D02*
X9075714Y-16432714D01*
X9204286Y-16732714D02*
X9204286Y-16575571D01*
X9190000Y-16547000D01*
X9161428Y-16532714D01*
X9118571Y-16532714D01*
X9090000Y-16547000D01*
X9075714Y-16561286D01*
X9390000Y-16732714D02*
X9361428Y-16718429D01*
X9347143Y-16704143D01*
X9332857Y-16675571D01*
X9332857Y-16589857D01*
X9347143Y-16561286D01*
X9361428Y-16547000D01*
X9390000Y-16532714D01*
X9432857Y-16532714D01*
X9461428Y-16547000D01*
X9475714Y-16561286D01*
X9490000Y-16589857D01*
X9490000Y-16675571D01*
X9475714Y-16704143D01*
X9461428Y-16718429D01*
X9432857Y-16732714D01*
X9390000Y-16732714D01*
X9661428Y-16732714D02*
X9632857Y-16718429D01*
X9618571Y-16689857D01*
X9618571Y-16432714D01*
X9890000Y-16718429D02*
X9861428Y-16732714D01*
X9804286Y-16732714D01*
X9775714Y-16718429D01*
X9761428Y-16689857D01*
X9761428Y-16575571D01*
X9775714Y-16547000D01*
X9804286Y-16532714D01*
X9861428Y-16532714D01*
X9890000Y-16547000D01*
X9904286Y-16575571D01*
X9904286Y-16604143D01*
X9761428Y-16632714D01*
X10018571Y-16718429D02*
X10047143Y-16732714D01*
X10104286Y-16732714D01*
X10132857Y-16718429D01*
X10147143Y-16689857D01*
X10147143Y-16675571D01*
X10132857Y-16647000D01*
X10104286Y-16632714D01*
X10061428Y-16632714D01*
X10032857Y-16618429D01*
X10018571Y-16589857D01*
X10018571Y-16575571D01*
X10032857Y-16547000D01*
X10061428Y-16532714D01*
X10104286Y-16532714D01*
X10132857Y-16547000D01*
X10247143Y-16847000D02*
X10261428Y-16832714D01*
X10290000Y-16789857D01*
X10304286Y-16761286D01*
X10318571Y-16718429D01*
X10332857Y-16647000D01*
X10332857Y-16589857D01*
X10318571Y-16518429D01*
X10304286Y-16475571D01*
X10290000Y-16447000D01*
X10261428Y-16404143D01*
X10247143Y-16389857D01*
X3365000Y-16938000D02*
X3475000Y-17048000D01*
X3475000Y-16938000D02*
X3365000Y-17048000D01*
X3420000Y-17048000D02*
X3475000Y-16993000D01*
X3420000Y-16938000D01*
X3365000Y-16993000D01*
X3420000Y-17048000D01*
X3918571Y-17128714D02*
X3747143Y-17128714D01*
X3832857Y-17128714D02*
X3832857Y-16828714D01*
X3804286Y-16871572D01*
X3775714Y-16900143D01*
X3747143Y-16914429D01*
X4047143Y-17100143D02*
X4061428Y-17114429D01*
X4047143Y-17128714D01*
X4032857Y-17114429D01*
X4047143Y-17100143D01*
X4047143Y-17128714D01*
X4347143Y-17128714D02*
X4175714Y-17128714D01*
X4261428Y-17128714D02*
X4261428Y-16828714D01*
X4232857Y-16871572D01*
X4204286Y-16900143D01*
X4175714Y-16914429D01*
X4532857Y-16828714D02*
X4561428Y-16828714D01*
X4590000Y-16843000D01*
X4604286Y-16857286D01*
X4618571Y-16885857D01*
X4632857Y-16943000D01*
X4632857Y-17014429D01*
X4618571Y-17071572D01*
X4604286Y-17100143D01*
X4590000Y-17114429D01*
X4561428Y-17128714D01*
X4532857Y-17128714D01*
X4504286Y-17114429D01*
X4490000Y-17100143D01*
X4475714Y-17071572D01*
X4461428Y-17014429D01*
X4461428Y-16943000D01*
X4475714Y-16885857D01*
X4490000Y-16857286D01*
X4504286Y-16843000D01*
X4532857Y-16828714D01*
X4761428Y-17128714D02*
X4761428Y-16928714D01*
X4761428Y-16957286D02*
X4775714Y-16943000D01*
X4804286Y-16928714D01*
X4847143Y-16928714D01*
X4875714Y-16943000D01*
X4890000Y-16971572D01*
X4890000Y-17128714D01*
X4890000Y-16971572D02*
X4904286Y-16943000D01*
X4932857Y-16928714D01*
X4975714Y-16928714D01*
X5004286Y-16943000D01*
X5018571Y-16971572D01*
X5018571Y-17128714D01*
X5161428Y-17128714D02*
X5161428Y-16928714D01*
X5161428Y-16957286D02*
X5175714Y-16943000D01*
X5204286Y-16928714D01*
X5247143Y-16928714D01*
X5275714Y-16943000D01*
X5290000Y-16971572D01*
X5290000Y-17128714D01*
X5290000Y-16971572D02*
X5304286Y-16943000D01*
X5332857Y-16928714D01*
X5375714Y-16928714D01*
X5404286Y-16943000D01*
X5418571Y-16971572D01*
X5418571Y-17128714D01*
X6004286Y-16814429D02*
X5747143Y-17200143D01*
X6390000Y-16828714D02*
X6418571Y-16828714D01*
X6447143Y-16843000D01*
X6461428Y-16857286D01*
X6475714Y-16885857D01*
X6490000Y-16943000D01*
X6490000Y-17014429D01*
X6475714Y-17071572D01*
X6461428Y-17100143D01*
X6447143Y-17114429D01*
X6418571Y-17128714D01*
X6390000Y-17128714D01*
X6361428Y-17114429D01*
X6347143Y-17100143D01*
X6332857Y-17071572D01*
X6318571Y-17014429D01*
X6318571Y-16943000D01*
X6332857Y-16885857D01*
X6347143Y-16857286D01*
X6361428Y-16843000D01*
X6390000Y-16828714D01*
X6618571Y-17100143D02*
X6632857Y-17114429D01*
X6618571Y-17128714D01*
X6604286Y-17114429D01*
X6618571Y-17100143D01*
X6618571Y-17128714D01*
X6818571Y-16828714D02*
X6847143Y-16828714D01*
X6875714Y-16843000D01*
X6890000Y-16857286D01*
X6904286Y-16885857D01*
X6918571Y-16943000D01*
X6918571Y-17014429D01*
X6904286Y-17071572D01*
X6890000Y-17100143D01*
X6875714Y-17114429D01*
X6847143Y-17128714D01*
X6818571Y-17128714D01*
X6790000Y-17114429D01*
X6775714Y-17100143D01*
X6761428Y-17071572D01*
X6747143Y-17014429D01*
X6747143Y-16943000D01*
X6761428Y-16885857D01*
X6775714Y-16857286D01*
X6790000Y-16843000D01*
X6818571Y-16828714D01*
X7175714Y-16928714D02*
X7175714Y-17128714D01*
X7104286Y-16814429D02*
X7032857Y-17028714D01*
X7218571Y-17028714D01*
X7304286Y-16828714D02*
X7490000Y-16828714D01*
X7390000Y-16943000D01*
X7432857Y-16943000D01*
X7461428Y-16957286D01*
X7475714Y-16971572D01*
X7490000Y-17000143D01*
X7490000Y-17071572D01*
X7475714Y-17100143D01*
X7461428Y-17114429D01*
X7432857Y-17128714D01*
X7347143Y-17128714D01*
X7318571Y-17114429D01*
X7304286Y-17100143D01*
X7604286Y-16828714D02*
X7604286Y-16885857D01*
X7718571Y-16828714D02*
X7718571Y-16885857D01*
X8161428Y-17243000D02*
X8147143Y-17228714D01*
X8118571Y-17185857D01*
X8104286Y-17157286D01*
X8090000Y-17114429D01*
X8075714Y-17043000D01*
X8075714Y-16985857D01*
X8090000Y-16914429D01*
X8104286Y-16871572D01*
X8118571Y-16843000D01*
X8147143Y-16800143D01*
X8161428Y-16785857D01*
X8404286Y-16828714D02*
X8347143Y-16828714D01*
X8318571Y-16843000D01*
X8304286Y-16857286D01*
X8275714Y-16900143D01*
X8261428Y-16957286D01*
X8261428Y-17071572D01*
X8275714Y-17100143D01*
X8290000Y-17114429D01*
X8318571Y-17128714D01*
X8375714Y-17128714D01*
X8404286Y-17114429D01*
X8418571Y-17100143D01*
X8432857Y-17071572D01*
X8432857Y-17000143D01*
X8418571Y-16971572D01*
X8404286Y-16957286D01*
X8375714Y-16943000D01*
X8318571Y-16943000D01*
X8290000Y-16957286D01*
X8275714Y-16971572D01*
X8261428Y-17000143D01*
X8790000Y-17128714D02*
X8790000Y-16828714D01*
X8918571Y-17128714D02*
X8918571Y-16971572D01*
X8904286Y-16943000D01*
X8875714Y-16928714D01*
X8832857Y-16928714D01*
X8804286Y-16943000D01*
X8790000Y-16957286D01*
X9104286Y-17128714D02*
X9075714Y-17114429D01*
X9061428Y-17100143D01*
X9047143Y-17071572D01*
X9047143Y-16985857D01*
X9061428Y-16957286D01*
X9075714Y-16943000D01*
X9104286Y-16928714D01*
X9147143Y-16928714D01*
X9175714Y-16943000D01*
X9190000Y-16957286D01*
X9204286Y-16985857D01*
X9204286Y-17071572D01*
X9190000Y-17100143D01*
X9175714Y-17114429D01*
X9147143Y-17128714D01*
X9104286Y-17128714D01*
X9375714Y-17128714D02*
X9347143Y-17114429D01*
X9332857Y-17085857D01*
X9332857Y-16828714D01*
X9604286Y-17114429D02*
X9575714Y-17128714D01*
X9518571Y-17128714D01*
X9490000Y-17114429D01*
X9475714Y-17085857D01*
X9475714Y-16971572D01*
X9490000Y-16943000D01*
X9518571Y-16928714D01*
X9575714Y-16928714D01*
X9604286Y-16943000D01*
X9618571Y-16971572D01*
X9618571Y-17000143D01*
X9475714Y-17028714D01*
X9732857Y-17114429D02*
X9761428Y-17128714D01*
X9818571Y-17128714D01*
X9847143Y-17114429D01*
X9861428Y-17085857D01*
X9861428Y-17071572D01*
X9847143Y-17043000D01*
X9818571Y-17028714D01*
X9775714Y-17028714D01*
X9747143Y-17014429D01*
X9732857Y-16985857D01*
X9732857Y-16971572D01*
X9747143Y-16943000D01*
X9775714Y-16928714D01*
X9818571Y-16928714D01*
X9847143Y-16943000D01*
X9961428Y-17243000D02*
X9975714Y-17228714D01*
X10004286Y-17185857D01*
X10018571Y-17157286D01*
X10032857Y-17114429D01*
X10047143Y-17043000D01*
X10047143Y-16985857D01*
X10032857Y-16914429D01*
X10018571Y-16871572D01*
X10004286Y-16843000D01*
X9975714Y-16800143D01*
X9961428Y-16785857D01*
X3415000Y-17329000D02*
X3415000Y-17449000D01*
X3355000Y-17389000D02*
X3475000Y-17389000D01*
X3475000Y-17389000D02*
G75*
G03X3475000Y-17389000I-60000J0D01*
G01*
X3918571Y-17524714D02*
X3747143Y-17524714D01*
X3832857Y-17524714D02*
X3832857Y-17224714D01*
X3804286Y-17267572D01*
X3775714Y-17296143D01*
X3747143Y-17310429D01*
X4047143Y-17496143D02*
X4061428Y-17510429D01*
X4047143Y-17524714D01*
X4032857Y-17510429D01*
X4047143Y-17496143D01*
X4047143Y-17524714D01*
X4175714Y-17253286D02*
X4190000Y-17239000D01*
X4218571Y-17224714D01*
X4290000Y-17224714D01*
X4318571Y-17239000D01*
X4332857Y-17253286D01*
X4347143Y-17281857D01*
X4347143Y-17310429D01*
X4332857Y-17353286D01*
X4161428Y-17524714D01*
X4347143Y-17524714D01*
X4532857Y-17224714D02*
X4561428Y-17224714D01*
X4590000Y-17239000D01*
X4604286Y-17253286D01*
X4618571Y-17281857D01*
X4632857Y-17339000D01*
X4632857Y-17410429D01*
X4618571Y-17467572D01*
X4604286Y-17496143D01*
X4590000Y-17510429D01*
X4561428Y-17524714D01*
X4532857Y-17524714D01*
X4504286Y-17510429D01*
X4490000Y-17496143D01*
X4475714Y-17467572D01*
X4461428Y-17410429D01*
X4461428Y-17339000D01*
X4475714Y-17281857D01*
X4490000Y-17253286D01*
X4504286Y-17239000D01*
X4532857Y-17224714D01*
X4761428Y-17524714D02*
X4761428Y-17324714D01*
X4761428Y-17353286D02*
X4775714Y-17339000D01*
X4804286Y-17324714D01*
X4847143Y-17324714D01*
X4875714Y-17339000D01*
X4890000Y-17367572D01*
X4890000Y-17524714D01*
X4890000Y-17367572D02*
X4904286Y-17339000D01*
X4932857Y-17324714D01*
X4975714Y-17324714D01*
X5004286Y-17339000D01*
X5018571Y-17367572D01*
X5018571Y-17524714D01*
X5161428Y-17524714D02*
X5161428Y-17324714D01*
X5161428Y-17353286D02*
X5175714Y-17339000D01*
X5204286Y-17324714D01*
X5247143Y-17324714D01*
X5275714Y-17339000D01*
X5290000Y-17367572D01*
X5290000Y-17524714D01*
X5290000Y-17367572D02*
X5304286Y-17339000D01*
X5332857Y-17324714D01*
X5375714Y-17324714D01*
X5404286Y-17339000D01*
X5418571Y-17367572D01*
X5418571Y-17524714D01*
X6004286Y-17210429D02*
X5747143Y-17596143D01*
X6390000Y-17224714D02*
X6418571Y-17224714D01*
X6447143Y-17239000D01*
X6461428Y-17253286D01*
X6475714Y-17281857D01*
X6490000Y-17339000D01*
X6490000Y-17410429D01*
X6475714Y-17467572D01*
X6461428Y-17496143D01*
X6447143Y-17510429D01*
X6418571Y-17524714D01*
X6390000Y-17524714D01*
X6361428Y-17510429D01*
X6347143Y-17496143D01*
X6332857Y-17467572D01*
X6318571Y-17410429D01*
X6318571Y-17339000D01*
X6332857Y-17281857D01*
X6347143Y-17253286D01*
X6361428Y-17239000D01*
X6390000Y-17224714D01*
X6618571Y-17496143D02*
X6632857Y-17510429D01*
X6618571Y-17524714D01*
X6604286Y-17510429D01*
X6618571Y-17496143D01*
X6618571Y-17524714D01*
X6818571Y-17224714D02*
X6847143Y-17224714D01*
X6875714Y-17239000D01*
X6890000Y-17253286D01*
X6904286Y-17281857D01*
X6918571Y-17339000D01*
X6918571Y-17410429D01*
X6904286Y-17467572D01*
X6890000Y-17496143D01*
X6875714Y-17510429D01*
X6847143Y-17524714D01*
X6818571Y-17524714D01*
X6790000Y-17510429D01*
X6775714Y-17496143D01*
X6761428Y-17467572D01*
X6747143Y-17410429D01*
X6747143Y-17339000D01*
X6761428Y-17281857D01*
X6775714Y-17253286D01*
X6790000Y-17239000D01*
X6818571Y-17224714D01*
X7175714Y-17324714D02*
X7175714Y-17524714D01*
X7104286Y-17210429D02*
X7032857Y-17424714D01*
X7218571Y-17424714D01*
X7304286Y-17224714D02*
X7504286Y-17224714D01*
X7375714Y-17524714D01*
X7604286Y-17224714D02*
X7604286Y-17281857D01*
X7718571Y-17224714D02*
X7718571Y-17281857D01*
X8161428Y-17639000D02*
X8147143Y-17624714D01*
X8118571Y-17581857D01*
X8104286Y-17553286D01*
X8090000Y-17510429D01*
X8075714Y-17439000D01*
X8075714Y-17381857D01*
X8090000Y-17310429D01*
X8104286Y-17267572D01*
X8118571Y-17239000D01*
X8147143Y-17196143D01*
X8161428Y-17181857D01*
X8404286Y-17224714D02*
X8347143Y-17224714D01*
X8318571Y-17239000D01*
X8304286Y-17253286D01*
X8275714Y-17296143D01*
X8261428Y-17353286D01*
X8261428Y-17467572D01*
X8275714Y-17496143D01*
X8290000Y-17510429D01*
X8318571Y-17524714D01*
X8375714Y-17524714D01*
X8404286Y-17510429D01*
X8418571Y-17496143D01*
X8432857Y-17467572D01*
X8432857Y-17396143D01*
X8418571Y-17367572D01*
X8404286Y-17353286D01*
X8375714Y-17339000D01*
X8318571Y-17339000D01*
X8290000Y-17353286D01*
X8275714Y-17367572D01*
X8261428Y-17396143D01*
X8547143Y-17253286D02*
X8561428Y-17239000D01*
X8590000Y-17224714D01*
X8661428Y-17224714D01*
X8690000Y-17239000D01*
X8704286Y-17253286D01*
X8718571Y-17281857D01*
X8718571Y-17310429D01*
X8704286Y-17353286D01*
X8532857Y-17524714D01*
X8718571Y-17524714D01*
X9075714Y-17524714D02*
X9075714Y-17224714D01*
X9204286Y-17524714D02*
X9204286Y-17367572D01*
X9190000Y-17339000D01*
X9161428Y-17324714D01*
X9118571Y-17324714D01*
X9090000Y-17339000D01*
X9075714Y-17353286D01*
X9390000Y-17524714D02*
X9361428Y-17510429D01*
X9347143Y-17496143D01*
X9332857Y-17467572D01*
X9332857Y-17381857D01*
X9347143Y-17353286D01*
X9361428Y-17339000D01*
X9390000Y-17324714D01*
X9432857Y-17324714D01*
X9461428Y-17339000D01*
X9475714Y-17353286D01*
X9490000Y-17381857D01*
X9490000Y-17467572D01*
X9475714Y-17496143D01*
X9461428Y-17510429D01*
X9432857Y-17524714D01*
X9390000Y-17524714D01*
X9661428Y-17524714D02*
X9632857Y-17510429D01*
X9618571Y-17481857D01*
X9618571Y-17224714D01*
X9890000Y-17510429D02*
X9861428Y-17524714D01*
X9804286Y-17524714D01*
X9775714Y-17510429D01*
X9761428Y-17481857D01*
X9761428Y-17367572D01*
X9775714Y-17339000D01*
X9804286Y-17324714D01*
X9861428Y-17324714D01*
X9890000Y-17339000D01*
X9904286Y-17367572D01*
X9904286Y-17396143D01*
X9761428Y-17424714D01*
X10018571Y-17510429D02*
X10047143Y-17524714D01*
X10104286Y-17524714D01*
X10132857Y-17510429D01*
X10147143Y-17481857D01*
X10147143Y-17467572D01*
X10132857Y-17439000D01*
X10104286Y-17424714D01*
X10061428Y-17424714D01*
X10032857Y-17410429D01*
X10018571Y-17381857D01*
X10018571Y-17367572D01*
X10032857Y-17339000D01*
X10061428Y-17324714D01*
X10104286Y-17324714D01*
X10132857Y-17339000D01*
X10247143Y-17639000D02*
X10261428Y-17624714D01*
X10290000Y-17581857D01*
X10304286Y-17553286D01*
X10318571Y-17510429D01*
X10332857Y-17439000D01*
X10332857Y-17381857D01*
X10318571Y-17310429D01*
X10304286Y-17267572D01*
X10290000Y-17239000D01*
X10261428Y-17196143D01*
X10247143Y-17181857D01*
X3455962Y-17830963D02*
X3455962Y-17739038D01*
X3364037Y-17739038D01*
X3364037Y-17830963D01*
X3455962Y-17830963D01*
X3475000Y-17785000D02*
G75*
G03X3475000Y-17785000I-65000J0D01*
G01*
X3918571Y-17920714D02*
X3747143Y-17920714D01*
X3832857Y-17920714D02*
X3832857Y-17620714D01*
X3804286Y-17663572D01*
X3775714Y-17692143D01*
X3747143Y-17706429D01*
X4047143Y-17892143D02*
X4061428Y-17906429D01*
X4047143Y-17920714D01*
X4032857Y-17906429D01*
X4047143Y-17892143D01*
X4047143Y-17920714D01*
X4161428Y-17620714D02*
X4347143Y-17620714D01*
X4247143Y-17735000D01*
X4290000Y-17735000D01*
X4318571Y-17749286D01*
X4332857Y-17763572D01*
X4347143Y-17792143D01*
X4347143Y-17863572D01*
X4332857Y-17892143D01*
X4318571Y-17906429D01*
X4290000Y-17920714D01*
X4204286Y-17920714D01*
X4175714Y-17906429D01*
X4161428Y-17892143D01*
X4532857Y-17620714D02*
X4561428Y-17620714D01*
X4590000Y-17635000D01*
X4604286Y-17649286D01*
X4618571Y-17677857D01*
X4632857Y-17735000D01*
X4632857Y-17806429D01*
X4618571Y-17863572D01*
X4604286Y-17892143D01*
X4590000Y-17906429D01*
X4561428Y-17920714D01*
X4532857Y-17920714D01*
X4504286Y-17906429D01*
X4490000Y-17892143D01*
X4475714Y-17863572D01*
X4461428Y-17806429D01*
X4461428Y-17735000D01*
X4475714Y-17677857D01*
X4490000Y-17649286D01*
X4504286Y-17635000D01*
X4532857Y-17620714D01*
X4761428Y-17920714D02*
X4761428Y-17720714D01*
X4761428Y-17749286D02*
X4775714Y-17735000D01*
X4804286Y-17720714D01*
X4847143Y-17720714D01*
X4875714Y-17735000D01*
X4890000Y-17763572D01*
X4890000Y-17920714D01*
X4890000Y-17763572D02*
X4904286Y-17735000D01*
X4932857Y-17720714D01*
X4975714Y-17720714D01*
X5004286Y-17735000D01*
X5018571Y-17763572D01*
X5018571Y-17920714D01*
X5161428Y-17920714D02*
X5161428Y-17720714D01*
X5161428Y-17749286D02*
X5175714Y-17735000D01*
X5204286Y-17720714D01*
X5247143Y-17720714D01*
X5275714Y-17735000D01*
X5290000Y-17763572D01*
X5290000Y-17920714D01*
X5290000Y-17763572D02*
X5304286Y-17735000D01*
X5332857Y-17720714D01*
X5375714Y-17720714D01*
X5404286Y-17735000D01*
X5418571Y-17763572D01*
X5418571Y-17920714D01*
X6004286Y-17606429D02*
X5747143Y-17992143D01*
X6390000Y-17620714D02*
X6418571Y-17620714D01*
X6447143Y-17635000D01*
X6461428Y-17649286D01*
X6475714Y-17677857D01*
X6490000Y-17735000D01*
X6490000Y-17806429D01*
X6475714Y-17863572D01*
X6461428Y-17892143D01*
X6447143Y-17906429D01*
X6418571Y-17920714D01*
X6390000Y-17920714D01*
X6361428Y-17906429D01*
X6347143Y-17892143D01*
X6332857Y-17863572D01*
X6318571Y-17806429D01*
X6318571Y-17735000D01*
X6332857Y-17677857D01*
X6347143Y-17649286D01*
X6361428Y-17635000D01*
X6390000Y-17620714D01*
X6618571Y-17892143D02*
X6632857Y-17906429D01*
X6618571Y-17920714D01*
X6604286Y-17906429D01*
X6618571Y-17892143D01*
X6618571Y-17920714D01*
X6818571Y-17620714D02*
X6847143Y-17620714D01*
X6875714Y-17635000D01*
X6890000Y-17649286D01*
X6904286Y-17677857D01*
X6918571Y-17735000D01*
X6918571Y-17806429D01*
X6904286Y-17863572D01*
X6890000Y-17892143D01*
X6875714Y-17906429D01*
X6847143Y-17920714D01*
X6818571Y-17920714D01*
X6790000Y-17906429D01*
X6775714Y-17892143D01*
X6761428Y-17863572D01*
X6747143Y-17806429D01*
X6747143Y-17735000D01*
X6761428Y-17677857D01*
X6775714Y-17649286D01*
X6790000Y-17635000D01*
X6818571Y-17620714D01*
X7190000Y-17620714D02*
X7047143Y-17620714D01*
X7032857Y-17763572D01*
X7047143Y-17749286D01*
X7075714Y-17735000D01*
X7147143Y-17735000D01*
X7175714Y-17749286D01*
X7190000Y-17763572D01*
X7204286Y-17792143D01*
X7204286Y-17863572D01*
X7190000Y-17892143D01*
X7175714Y-17906429D01*
X7147143Y-17920714D01*
X7075714Y-17920714D01*
X7047143Y-17906429D01*
X7032857Y-17892143D01*
X7490000Y-17920714D02*
X7318571Y-17920714D01*
X7404286Y-17920714D02*
X7404286Y-17620714D01*
X7375714Y-17663572D01*
X7347143Y-17692143D01*
X7318571Y-17706429D01*
X7604286Y-17620714D02*
X7604286Y-17677857D01*
X7718571Y-17620714D02*
X7718571Y-17677857D01*
X8161428Y-18035000D02*
X8147143Y-18020714D01*
X8118571Y-17977857D01*
X8104286Y-17949286D01*
X8090000Y-17906429D01*
X8075714Y-17835000D01*
X8075714Y-17777857D01*
X8090000Y-17706429D01*
X8104286Y-17663572D01*
X8118571Y-17635000D01*
X8147143Y-17592143D01*
X8161428Y-17577857D01*
X8261428Y-17649286D02*
X8275714Y-17635000D01*
X8304286Y-17620714D01*
X8375714Y-17620714D01*
X8404286Y-17635000D01*
X8418571Y-17649286D01*
X8432857Y-17677857D01*
X8432857Y-17706429D01*
X8418571Y-17749286D01*
X8247143Y-17920714D01*
X8432857Y-17920714D01*
X8790000Y-17920714D02*
X8790000Y-17620714D01*
X8918571Y-17920714D02*
X8918571Y-17763572D01*
X8904286Y-17735000D01*
X8875714Y-17720714D01*
X8832857Y-17720714D01*
X8804286Y-17735000D01*
X8790000Y-17749286D01*
X9104286Y-17920714D02*
X9075714Y-17906429D01*
X9061428Y-17892143D01*
X9047143Y-17863572D01*
X9047143Y-17777857D01*
X9061428Y-17749286D01*
X9075714Y-17735000D01*
X9104286Y-17720714D01*
X9147143Y-17720714D01*
X9175714Y-17735000D01*
X9190000Y-17749286D01*
X9204286Y-17777857D01*
X9204286Y-17863572D01*
X9190000Y-17892143D01*
X9175714Y-17906429D01*
X9147143Y-17920714D01*
X9104286Y-17920714D01*
X9375714Y-17920714D02*
X9347143Y-17906429D01*
X9332857Y-17877857D01*
X9332857Y-17620714D01*
X9604286Y-17906429D02*
X9575714Y-17920714D01*
X9518571Y-17920714D01*
X9490000Y-17906429D01*
X9475714Y-17877857D01*
X9475714Y-17763572D01*
X9490000Y-17735000D01*
X9518571Y-17720714D01*
X9575714Y-17720714D01*
X9604286Y-17735000D01*
X9618571Y-17763572D01*
X9618571Y-17792143D01*
X9475714Y-17820714D01*
X9732857Y-17906429D02*
X9761428Y-17920714D01*
X9818571Y-17920714D01*
X9847143Y-17906429D01*
X9861428Y-17877857D01*
X9861428Y-17863572D01*
X9847143Y-17835000D01*
X9818571Y-17820714D01*
X9775714Y-17820714D01*
X9747143Y-17806429D01*
X9732857Y-17777857D01*
X9732857Y-17763572D01*
X9747143Y-17735000D01*
X9775714Y-17720714D01*
X9818571Y-17720714D01*
X9847143Y-17735000D01*
X9961428Y-18035000D02*
X9975714Y-18020714D01*
X10004286Y-17977857D01*
X10018571Y-17949286D01*
X10032857Y-17906429D01*
X10047143Y-17835000D01*
X10047143Y-17777857D01*
X10032857Y-17706429D01*
X10018571Y-17663572D01*
X10004286Y-17635000D01*
X9975714Y-17592143D01*
X9961428Y-17577857D01*
X3315000Y-18341000D02*
X3475000Y-18181000D01*
X3315000Y-18021000D01*
X3155000Y-18181000D01*
X3315000Y-18341000D01*
X3475000Y-18181000D02*
G75*
G03X3475000Y-18181000I-160000J0D01*
G01*
X3732857Y-18016714D02*
X3918571Y-18016714D01*
X3818571Y-18131000D01*
X3861428Y-18131000D01*
X3890000Y-18145286D01*
X3904286Y-18159572D01*
X3918571Y-18188143D01*
X3918571Y-18259572D01*
X3904286Y-18288143D01*
X3890000Y-18302429D01*
X3861428Y-18316714D01*
X3775714Y-18316714D01*
X3747143Y-18302429D01*
X3732857Y-18288143D01*
X4047143Y-18288143D02*
X4061428Y-18302429D01*
X4047143Y-18316714D01*
X4032857Y-18302429D01*
X4047143Y-18288143D01*
X4047143Y-18316714D01*
X4175714Y-18045286D02*
X4190000Y-18031000D01*
X4218571Y-18016714D01*
X4290000Y-18016714D01*
X4318571Y-18031000D01*
X4332857Y-18045286D01*
X4347143Y-18073857D01*
X4347143Y-18102429D01*
X4332857Y-18145286D01*
X4161428Y-18316714D01*
X4347143Y-18316714D01*
X4532857Y-18016714D02*
X4561428Y-18016714D01*
X4590000Y-18031000D01*
X4604286Y-18045286D01*
X4618571Y-18073857D01*
X4632857Y-18131000D01*
X4632857Y-18202429D01*
X4618571Y-18259572D01*
X4604286Y-18288143D01*
X4590000Y-18302429D01*
X4561428Y-18316714D01*
X4532857Y-18316714D01*
X4504286Y-18302429D01*
X4490000Y-18288143D01*
X4475714Y-18259572D01*
X4461428Y-18202429D01*
X4461428Y-18131000D01*
X4475714Y-18073857D01*
X4490000Y-18045286D01*
X4504286Y-18031000D01*
X4532857Y-18016714D01*
X4761428Y-18316714D02*
X4761428Y-18116714D01*
X4761428Y-18145286D02*
X4775714Y-18131000D01*
X4804286Y-18116714D01*
X4847143Y-18116714D01*
X4875714Y-18131000D01*
X4890000Y-18159572D01*
X4890000Y-18316714D01*
X4890000Y-18159572D02*
X4904286Y-18131000D01*
X4932857Y-18116714D01*
X4975714Y-18116714D01*
X5004286Y-18131000D01*
X5018571Y-18159572D01*
X5018571Y-18316714D01*
X5161428Y-18316714D02*
X5161428Y-18116714D01*
X5161428Y-18145286D02*
X5175714Y-18131000D01*
X5204286Y-18116714D01*
X5247143Y-18116714D01*
X5275714Y-18131000D01*
X5290000Y-18159572D01*
X5290000Y-18316714D01*
X5290000Y-18159572D02*
X5304286Y-18131000D01*
X5332857Y-18116714D01*
X5375714Y-18116714D01*
X5404286Y-18131000D01*
X5418571Y-18159572D01*
X5418571Y-18316714D01*
X6004286Y-18002429D02*
X5747143Y-18388143D01*
X6390000Y-18016714D02*
X6418571Y-18016714D01*
X6447143Y-18031000D01*
X6461428Y-18045286D01*
X6475714Y-18073857D01*
X6490000Y-18131000D01*
X6490000Y-18202429D01*
X6475714Y-18259572D01*
X6461428Y-18288143D01*
X6447143Y-18302429D01*
X6418571Y-18316714D01*
X6390000Y-18316714D01*
X6361428Y-18302429D01*
X6347143Y-18288143D01*
X6332857Y-18259572D01*
X6318571Y-18202429D01*
X6318571Y-18131000D01*
X6332857Y-18073857D01*
X6347143Y-18045286D01*
X6361428Y-18031000D01*
X6390000Y-18016714D01*
X6618571Y-18288143D02*
X6632857Y-18302429D01*
X6618571Y-18316714D01*
X6604286Y-18302429D01*
X6618571Y-18288143D01*
X6618571Y-18316714D01*
X6918571Y-18316714D02*
X6747143Y-18316714D01*
X6832857Y-18316714D02*
X6832857Y-18016714D01*
X6804286Y-18059572D01*
X6775714Y-18088143D01*
X6747143Y-18102429D01*
X7032857Y-18045286D02*
X7047143Y-18031000D01*
X7075714Y-18016714D01*
X7147143Y-18016714D01*
X7175714Y-18031000D01*
X7190000Y-18045286D01*
X7204286Y-18073857D01*
X7204286Y-18102429D01*
X7190000Y-18145286D01*
X7018571Y-18316714D01*
X7204286Y-18316714D01*
X7461428Y-18016714D02*
X7404286Y-18016714D01*
X7375714Y-18031000D01*
X7361428Y-18045286D01*
X7332857Y-18088143D01*
X7318571Y-18145286D01*
X7318571Y-18259572D01*
X7332857Y-18288143D01*
X7347143Y-18302429D01*
X7375714Y-18316714D01*
X7432857Y-18316714D01*
X7461428Y-18302429D01*
X7475714Y-18288143D01*
X7490000Y-18259572D01*
X7490000Y-18188143D01*
X7475714Y-18159572D01*
X7461428Y-18145286D01*
X7432857Y-18131000D01*
X7375714Y-18131000D01*
X7347143Y-18145286D01*
X7332857Y-18159572D01*
X7318571Y-18188143D01*
X7604286Y-18016714D02*
X7604286Y-18073857D01*
X7718571Y-18016714D02*
X7718571Y-18073857D01*
X8161428Y-18431000D02*
X8147143Y-18416714D01*
X8118571Y-18373857D01*
X8104286Y-18345286D01*
X8090000Y-18302429D01*
X8075714Y-18231000D01*
X8075714Y-18173857D01*
X8090000Y-18102429D01*
X8104286Y-18059572D01*
X8118571Y-18031000D01*
X8147143Y-17988143D01*
X8161428Y-17973857D01*
X8418571Y-18016714D02*
X8275714Y-18016714D01*
X8261428Y-18159572D01*
X8275714Y-18145286D01*
X8304286Y-18131000D01*
X8375714Y-18131000D01*
X8404286Y-18145286D01*
X8418571Y-18159572D01*
X8432857Y-18188143D01*
X8432857Y-18259572D01*
X8418571Y-18288143D01*
X8404286Y-18302429D01*
X8375714Y-18316714D01*
X8304286Y-18316714D01*
X8275714Y-18302429D01*
X8261428Y-18288143D01*
X8790000Y-18316714D02*
X8790000Y-18016714D01*
X8918571Y-18316714D02*
X8918571Y-18159572D01*
X8904286Y-18131000D01*
X8875714Y-18116714D01*
X8832857Y-18116714D01*
X8804286Y-18131000D01*
X8790000Y-18145286D01*
X9104286Y-18316714D02*
X9075714Y-18302429D01*
X9061428Y-18288143D01*
X9047143Y-18259572D01*
X9047143Y-18173857D01*
X9061428Y-18145286D01*
X9075714Y-18131000D01*
X9104286Y-18116714D01*
X9147143Y-18116714D01*
X9175714Y-18131000D01*
X9190000Y-18145286D01*
X9204286Y-18173857D01*
X9204286Y-18259572D01*
X9190000Y-18288143D01*
X9175714Y-18302429D01*
X9147143Y-18316714D01*
X9104286Y-18316714D01*
X9375714Y-18316714D02*
X9347143Y-18302429D01*
X9332857Y-18273857D01*
X9332857Y-18016714D01*
X9604286Y-18302429D02*
X9575714Y-18316714D01*
X9518571Y-18316714D01*
X9490000Y-18302429D01*
X9475714Y-18273857D01*
X9475714Y-18159572D01*
X9490000Y-18131000D01*
X9518571Y-18116714D01*
X9575714Y-18116714D01*
X9604286Y-18131000D01*
X9618571Y-18159572D01*
X9618571Y-18188143D01*
X9475714Y-18216714D01*
X9732857Y-18302429D02*
X9761428Y-18316714D01*
X9818571Y-18316714D01*
X9847143Y-18302429D01*
X9861428Y-18273857D01*
X9861428Y-18259572D01*
X9847143Y-18231000D01*
X9818571Y-18216714D01*
X9775714Y-18216714D01*
X9747143Y-18202429D01*
X9732857Y-18173857D01*
X9732857Y-18159572D01*
X9747143Y-18131000D01*
X9775714Y-18116714D01*
X9818571Y-18116714D01*
X9847143Y-18131000D01*
X9961428Y-18431000D02*
X9975714Y-18416714D01*
X10004286Y-18373857D01*
X10018571Y-18345286D01*
X10032857Y-18302429D01*
X10047143Y-18231000D01*
X10047143Y-18173857D01*
X10032857Y-18102429D01*
X10018571Y-18059572D01*
X10004286Y-18031000D01*
X9975714Y-17988143D01*
X9961428Y-17973857D01*
X3425000Y-18581000D02*
X3425000Y-18681000D01*
X3375000Y-18631000D02*
X3475000Y-18631000D01*
X3460356Y-18666356D02*
X3460356Y-18595644D01*
X3389644Y-18595644D01*
X3389644Y-18666356D01*
X3460356Y-18666356D01*
X3918571Y-18766714D02*
X3747143Y-18766714D01*
X3832857Y-18766714D02*
X3832857Y-18466714D01*
X3804286Y-18509572D01*
X3775714Y-18538143D01*
X3747143Y-18552429D01*
X4047143Y-18738143D02*
X4061428Y-18752429D01*
X4047143Y-18766714D01*
X4032857Y-18752429D01*
X4047143Y-18738143D01*
X4047143Y-18766714D01*
X4247143Y-18466714D02*
X4275714Y-18466714D01*
X4304286Y-18481000D01*
X4318571Y-18495286D01*
X4332857Y-18523857D01*
X4347143Y-18581000D01*
X4347143Y-18652429D01*
X4332857Y-18709572D01*
X4318571Y-18738143D01*
X4304286Y-18752429D01*
X4275714Y-18766714D01*
X4247143Y-18766714D01*
X4218571Y-18752429D01*
X4204286Y-18738143D01*
X4190000Y-18709572D01*
X4175714Y-18652429D01*
X4175714Y-18581000D01*
X4190000Y-18523857D01*
X4204286Y-18495286D01*
X4218571Y-18481000D01*
X4247143Y-18466714D01*
X4532857Y-18466714D02*
X4561428Y-18466714D01*
X4590000Y-18481000D01*
X4604286Y-18495286D01*
X4618571Y-18523857D01*
X4632857Y-18581000D01*
X4632857Y-18652429D01*
X4618571Y-18709572D01*
X4604286Y-18738143D01*
X4590000Y-18752429D01*
X4561428Y-18766714D01*
X4532857Y-18766714D01*
X4504286Y-18752429D01*
X4490000Y-18738143D01*
X4475714Y-18709572D01*
X4461428Y-18652429D01*
X4461428Y-18581000D01*
X4475714Y-18523857D01*
X4490000Y-18495286D01*
X4504286Y-18481000D01*
X4532857Y-18466714D01*
X4761428Y-18766714D02*
X4761428Y-18566714D01*
X4761428Y-18595286D02*
X4775714Y-18581000D01*
X4804286Y-18566714D01*
X4847143Y-18566714D01*
X4875714Y-18581000D01*
X4890000Y-18609572D01*
X4890000Y-18766714D01*
X4890000Y-18609572D02*
X4904286Y-18581000D01*
X4932857Y-18566714D01*
X4975714Y-18566714D01*
X5004286Y-18581000D01*
X5018571Y-18609572D01*
X5018571Y-18766714D01*
X5161428Y-18766714D02*
X5161428Y-18566714D01*
X5161428Y-18595286D02*
X5175714Y-18581000D01*
X5204286Y-18566714D01*
X5247143Y-18566714D01*
X5275714Y-18581000D01*
X5290000Y-18609572D01*
X5290000Y-18766714D01*
X5290000Y-18609572D02*
X5304286Y-18581000D01*
X5332857Y-18566714D01*
X5375714Y-18566714D01*
X5404286Y-18581000D01*
X5418571Y-18609572D01*
X5418571Y-18766714D01*
X6004286Y-18452429D02*
X5747143Y-18838143D01*
X6390000Y-18466714D02*
X6418571Y-18466714D01*
X6447143Y-18481000D01*
X6461428Y-18495286D01*
X6475714Y-18523857D01*
X6490000Y-18581000D01*
X6490000Y-18652429D01*
X6475714Y-18709572D01*
X6461428Y-18738143D01*
X6447143Y-18752429D01*
X6418571Y-18766714D01*
X6390000Y-18766714D01*
X6361428Y-18752429D01*
X6347143Y-18738143D01*
X6332857Y-18709572D01*
X6318571Y-18652429D01*
X6318571Y-18581000D01*
X6332857Y-18523857D01*
X6347143Y-18495286D01*
X6361428Y-18481000D01*
X6390000Y-18466714D01*
X6618571Y-18738143D02*
X6632857Y-18752429D01*
X6618571Y-18766714D01*
X6604286Y-18752429D01*
X6618571Y-18738143D01*
X6618571Y-18766714D01*
X6818571Y-18466714D02*
X6847143Y-18466714D01*
X6875714Y-18481000D01*
X6890000Y-18495286D01*
X6904286Y-18523857D01*
X6918571Y-18581000D01*
X6918571Y-18652429D01*
X6904286Y-18709572D01*
X6890000Y-18738143D01*
X6875714Y-18752429D01*
X6847143Y-18766714D01*
X6818571Y-18766714D01*
X6790000Y-18752429D01*
X6775714Y-18738143D01*
X6761428Y-18709572D01*
X6747143Y-18652429D01*
X6747143Y-18581000D01*
X6761428Y-18523857D01*
X6775714Y-18495286D01*
X6790000Y-18481000D01*
X6818571Y-18466714D01*
X7018571Y-18466714D02*
X7204286Y-18466714D01*
X7104286Y-18581000D01*
X7147143Y-18581000D01*
X7175714Y-18595286D01*
X7190000Y-18609572D01*
X7204286Y-18638143D01*
X7204286Y-18709572D01*
X7190000Y-18738143D01*
X7175714Y-18752429D01*
X7147143Y-18766714D01*
X7061428Y-18766714D01*
X7032857Y-18752429D01*
X7018571Y-18738143D01*
X7347143Y-18766714D02*
X7404286Y-18766714D01*
X7432857Y-18752429D01*
X7447143Y-18738143D01*
X7475714Y-18695286D01*
X7490000Y-18638143D01*
X7490000Y-18523857D01*
X7475714Y-18495286D01*
X7461428Y-18481000D01*
X7432857Y-18466714D01*
X7375714Y-18466714D01*
X7347143Y-18481000D01*
X7332857Y-18495286D01*
X7318571Y-18523857D01*
X7318571Y-18595286D01*
X7332857Y-18623857D01*
X7347143Y-18638143D01*
X7375714Y-18652429D01*
X7432857Y-18652429D01*
X7461428Y-18638143D01*
X7475714Y-18623857D01*
X7490000Y-18595286D01*
X7604286Y-18466714D02*
X7604286Y-18523857D01*
X7718571Y-18466714D02*
X7718571Y-18523857D01*
X8161428Y-18881000D02*
X8147143Y-18866714D01*
X8118571Y-18823857D01*
X8104286Y-18795286D01*
X8090000Y-18752429D01*
X8075714Y-18681000D01*
X8075714Y-18623857D01*
X8090000Y-18552429D01*
X8104286Y-18509572D01*
X8118571Y-18481000D01*
X8147143Y-18438143D01*
X8161428Y-18423857D01*
X8404286Y-18566714D02*
X8404286Y-18766714D01*
X8332857Y-18452429D02*
X8261428Y-18666714D01*
X8447143Y-18666714D01*
X8790000Y-18766714D02*
X8790000Y-18466714D01*
X8918571Y-18766714D02*
X8918571Y-18609572D01*
X8904286Y-18581000D01*
X8875714Y-18566714D01*
X8832857Y-18566714D01*
X8804286Y-18581000D01*
X8790000Y-18595286D01*
X9104286Y-18766714D02*
X9075714Y-18752429D01*
X9061428Y-18738143D01*
X9047143Y-18709572D01*
X9047143Y-18623857D01*
X9061428Y-18595286D01*
X9075714Y-18581000D01*
X9104286Y-18566714D01*
X9147143Y-18566714D01*
X9175714Y-18581000D01*
X9190000Y-18595286D01*
X9204286Y-18623857D01*
X9204286Y-18709572D01*
X9190000Y-18738143D01*
X9175714Y-18752429D01*
X9147143Y-18766714D01*
X9104286Y-18766714D01*
X9375714Y-18766714D02*
X9347143Y-18752429D01*
X9332857Y-18723857D01*
X9332857Y-18466714D01*
X9604286Y-18752429D02*
X9575714Y-18766714D01*
X9518571Y-18766714D01*
X9490000Y-18752429D01*
X9475714Y-18723857D01*
X9475714Y-18609572D01*
X9490000Y-18581000D01*
X9518571Y-18566714D01*
X9575714Y-18566714D01*
X9604286Y-18581000D01*
X9618571Y-18609572D01*
X9618571Y-18638143D01*
X9475714Y-18666714D01*
X9732857Y-18752429D02*
X9761428Y-18766714D01*
X9818571Y-18766714D01*
X9847143Y-18752429D01*
X9861428Y-18723857D01*
X9861428Y-18709572D01*
X9847143Y-18681000D01*
X9818571Y-18666714D01*
X9775714Y-18666714D01*
X9747143Y-18652429D01*
X9732857Y-18623857D01*
X9732857Y-18609572D01*
X9747143Y-18581000D01*
X9775714Y-18566714D01*
X9818571Y-18566714D01*
X9847143Y-18581000D01*
X9961428Y-18881000D02*
X9975714Y-18866714D01*
X10004286Y-18823857D01*
X10018571Y-18795286D01*
X10032857Y-18752429D01*
X10047143Y-18681000D01*
X10047143Y-18623857D01*
X10032857Y-18552429D01*
X10018571Y-18509572D01*
X10004286Y-18481000D01*
X9975714Y-18438143D01*
X9961428Y-18423857D01*
X10504286Y-18881000D02*
X10490000Y-18866714D01*
X10461428Y-18823857D01*
X10447143Y-18795286D01*
X10432857Y-18752429D01*
X10418571Y-18681000D01*
X10418571Y-18623857D01*
X10432857Y-18552429D01*
X10447143Y-18509572D01*
X10461428Y-18481000D01*
X10490000Y-18438143D01*
X10504286Y-18423857D01*
X10618571Y-18566714D02*
X10618571Y-18766714D01*
X10618571Y-18595286D02*
X10632857Y-18581000D01*
X10661428Y-18566714D01*
X10704286Y-18566714D01*
X10732857Y-18581000D01*
X10747143Y-18609572D01*
X10747143Y-18766714D01*
X10932857Y-18766714D02*
X10904286Y-18752429D01*
X10890000Y-18738143D01*
X10875714Y-18709572D01*
X10875714Y-18623857D01*
X10890000Y-18595286D01*
X10904286Y-18581000D01*
X10932857Y-18566714D01*
X10975714Y-18566714D01*
X11004286Y-18581000D01*
X11018571Y-18595286D01*
X11032857Y-18623857D01*
X11032857Y-18709572D01*
X11018571Y-18738143D01*
X11004286Y-18752429D01*
X10975714Y-18766714D01*
X10932857Y-18766714D01*
X11118571Y-18566714D02*
X11232857Y-18566714D01*
X11161428Y-18466714D02*
X11161428Y-18723857D01*
X11175714Y-18752429D01*
X11204286Y-18766714D01*
X11232857Y-18766714D01*
X11561428Y-18566714D02*
X11561428Y-18866714D01*
X11561428Y-18581000D02*
X11590000Y-18566714D01*
X11647143Y-18566714D01*
X11675714Y-18581000D01*
X11690000Y-18595286D01*
X11704286Y-18623857D01*
X11704286Y-18709572D01*
X11690000Y-18738143D01*
X11675714Y-18752429D01*
X11647143Y-18766714D01*
X11590000Y-18766714D01*
X11561428Y-18752429D01*
X11875714Y-18766714D02*
X11847143Y-18752429D01*
X11832857Y-18723857D01*
X11832857Y-18466714D01*
X12118571Y-18766714D02*
X12118571Y-18609572D01*
X12104286Y-18581000D01*
X12075714Y-18566714D01*
X12018571Y-18566714D01*
X11990000Y-18581000D01*
X12118571Y-18752429D02*
X12090000Y-18766714D01*
X12018571Y-18766714D01*
X11990000Y-18752429D01*
X11975714Y-18723857D01*
X11975714Y-18695286D01*
X11990000Y-18666714D01*
X12018571Y-18652429D01*
X12090000Y-18652429D01*
X12118571Y-18638143D01*
X12218571Y-18566714D02*
X12332857Y-18566714D01*
X12261428Y-18466714D02*
X12261428Y-18723857D01*
X12275714Y-18752429D01*
X12304286Y-18766714D01*
X12332857Y-18766714D01*
X12547143Y-18752429D02*
X12518571Y-18766714D01*
X12461428Y-18766714D01*
X12432857Y-18752429D01*
X12418571Y-18723857D01*
X12418571Y-18609572D01*
X12432857Y-18581000D01*
X12461428Y-18566714D01*
X12518571Y-18566714D01*
X12547143Y-18581000D01*
X12561428Y-18609572D01*
X12561428Y-18638143D01*
X12418571Y-18666714D01*
X12818571Y-18766714D02*
X12818571Y-18466714D01*
X12818571Y-18752429D02*
X12790000Y-18766714D01*
X12732857Y-18766714D01*
X12704286Y-18752429D01*
X12690000Y-18738143D01*
X12675714Y-18709572D01*
X12675714Y-18623857D01*
X12690000Y-18595286D01*
X12704286Y-18581000D01*
X12732857Y-18566714D01*
X12790000Y-18566714D01*
X12818571Y-18581000D01*
X12932857Y-18881000D02*
X12947143Y-18866714D01*
X12975714Y-18823857D01*
X12990000Y-18795286D01*
X13004286Y-18752429D01*
X13018571Y-18681000D01*
X13018571Y-18623857D01*
X13004286Y-18552429D01*
X12990000Y-18509572D01*
X12975714Y-18481000D01*
X12947143Y-18438143D01*
X12932857Y-18423857D01*
M02*
