M48
; DRILL file {KiCad (5.1.4-83-g4f57de968)-1} date 08.04.2020 14:10:54
; FORMAT={-:-/ absolute / metric / decimal}
; #@! TF.CreationDate,2020-04-08T14:10:54+03:00
; #@! TF.GenerationSoftware,Kicad,Pcbnew,(5.1.4-83-g4f57de968)-1
FMAT,2
METRIC
T1C0.300
T2C0.400
T3C0.500
T4C0.800
T5C0.900
T6C0.950
T7C1.000
T8C1.016
T9C1.100
T10C1.200
T11C1.300
T12C3.200
T13C1.000
%
G90
G05
T1
X99.666Y-33.865
X99.666Y-35.066
X99.666Y-36.365
X99.666Y-37.465
X100.866Y-33.865
X100.866Y-35.066
X100.866Y-36.365
X100.866Y-37.465
X99.791Y-53.171
X99.791Y-54.371
X99.791Y-55.671
X99.791Y-56.771
X100.991Y-53.171
X100.991Y-54.371
X100.991Y-55.671
X100.991Y-56.771
T2
X37.62Y-27.92
X37.62Y-33.0
X37.62Y-38.08
X37.62Y-43.16
X37.62Y-48.24
X37.62Y-53.32
X37.62Y-58.4
X37.62Y-63.48
X39.398Y-87.229
X39.398Y-103.739
X39.398Y-81.514
X39.398Y-77.704
X39.398Y-85.324
X39.398Y-91.039
X39.398Y-94.849
X39.398Y-101.834
X39.398Y-105.644
X39.398Y-109.454
X39.398Y-111.359
X39.398Y-115.169
X39.398Y-117.074
X39.398Y-118.979
X39.398Y-75.799
X39.398Y-113.264
X39.398Y-79.609
X39.398Y-83.419
X39.398Y-89.134
X39.398Y-92.944
X39.398Y-99.929
X39.398Y-107.549
X40.033Y-96.754
X40.033Y-98.024
X40.16Y-25.38
X40.16Y-35.54
X40.16Y-45.7
X40.16Y-55.86
X40.16Y-66.02
X40.668Y-74.529
X40.668Y-120.249
X41.938Y-97.389
X41.938Y-97.389
X42.573Y-74.529
X42.573Y-120.249
X42.7Y-40.62
X42.7Y-50.78
X42.7Y-60.94
X43.843Y-97.389
X43.843Y-97.389
X44.478Y-120.249
X44.478Y-74.529
X45.24Y-25.38
X45.24Y-35.54
X45.24Y-45.7
X45.24Y-55.86
X45.24Y-66.02
X47.78Y-30.46
X47.78Y-40.62
X47.78Y-50.78
X47.78Y-60.94
X50.32Y-25.38
X50.32Y-35.54
X50.32Y-45.7
X50.32Y-55.86
X50.32Y-66.02
X52.098Y-97.389
X52.832Y-50.8
X52.86Y-30.46
X52.86Y-40.62
X52.86Y-60.94
X53.05Y-119.297
X53.051Y-75.482
X54.003Y-77.069
X54.003Y-78.974
X54.003Y-97.389
X54.003Y-115.804
X54.003Y-117.709
X55.4Y-25.38
X55.4Y-35.54
X55.4Y-45.7
X55.4Y-55.86
X55.4Y-66.02
X55.908Y-97.389
X57.813Y-97.389
X57.94Y-30.46
X57.94Y-40.62
X57.94Y-50.78
X57.94Y-60.94
X59.718Y-112.502
X59.718Y-99.167
X59.718Y-104.882
X59.718Y-97.389
X59.718Y-108.692
X59.718Y-110.597
X59.718Y-101.072
X59.718Y-102.977
X59.718Y-106.787
X59.718Y-114.407
X60.48Y-45.7
X60.48Y-55.86
X60.48Y-66.02
X61.242Y-115.423
X61.623Y-97.389
X62.893Y-96.119
X63.02Y-50.78
X63.02Y-60.94
X63.147Y-115.423
X64.163Y-91.039
X64.163Y-92.944
X64.163Y-94.849
X64.164Y-114.154
X64.925Y-26.015
X65.56Y-33.0
X65.56Y-36.81
X65.56Y-45.7
X65.56Y-55.86
X65.56Y-66.02
X68.1Y-50.78
X68.862Y-32.746
X69.37Y-29.19
X69.962Y-37.318
X70.64Y-26.015
X70.64Y-45.7
X70.64Y-55.86
X70.64Y-66.02
X71.11Y-36.194
X72.164Y-40.874
X72.545Y-29.19
X73.18Y-60.94
X75.085Y-46.97
X75.72Y-26.015
X75.72Y-33.635
X75.72Y-55.86
X75.72Y-66.02
X76.355Y-49.51
X76.99Y-41.255
X78.26Y-60.94
X78.895Y-47.605
X78.895Y-51.415
X80.8Y-66.02
X81.816Y-45.954
X82.07Y-25.38
X82.07Y-30.714
X84.102Y-63.48
X84.292Y-44.747
X84.292Y-50.59
X84.292Y-54.717
X84.356Y-76.688
X85.499Y-89.007
X85.753Y-113.645
X86.325Y-36.175
X86.515Y-25.38
X87.15Y-84.562
X88.42Y-79.736
X88.674Y-58.464
X88.674Y-59.464
X88.674Y-60.464
X88.674Y-61.464
X88.674Y-62.464
X88.674Y-63.48
X89.055Y-71.1
X90.452Y-63.988
X90.452Y-65.004
X90.452Y-66.02
X90.96Y-25.38
X90.96Y-69.195
X90.96Y-73.005
X90.96Y-111.74
X90.96Y-116.82
X90.96Y-121.9
X90.96Y-126.98
X91.341Y-42.779
X91.341Y-44.557
X91.341Y-46.589
X91.341Y-48.367
X91.341Y-50.145
X91.341Y-51.923
X91.341Y-53.701
X93.5Y-114.28
X93.5Y-119.36
X94.77Y-63.226
X94.77Y-71.1
X95.405Y-25.38
X95.532Y-63.988
X95.532Y-65.004
X95.532Y-66.02
X95.786Y-32.111
X95.8Y-36.998
X96.04Y-121.9
X96.04Y-126.98
X96.352Y-56.112
X96.421Y-51.161
X96.675Y-69.195
X97.31Y-124.44
X97.945Y-86.975
X98.008Y-47.478
X98.58Y-73.64
X98.58Y-76.815
X99.469Y-42.462
X99.85Y-25.38
X100.675Y-66.846
X101.12Y-120.63
X101.755Y-84.435
X101.755Y-87.61
X103.152Y-49.319
X103.533Y-66.846
X103.66Y-123.17
X104.168Y-61.892
X104.295Y-25.38
X104.414Y-35.02
X104.498Y-54.301
X106.835Y-86.975
X107.152Y-66.846
X108.232Y-39.413
X108.74Y-25.38
X108.74Y-120.63
X108.93Y-73.703
X109.057Y-57.956
X109.248Y-80.117
X109.375Y-45.065
X109.883Y-66.846
X109.947Y-63.162
X110.01Y-116.82
X110.391Y-40.366
X110.391Y-59.416
X110.645Y-109.835
X112.55Y-120.63
X112.614Y-66.846
X113.185Y-25.38
X113.82Y-48.24
X113.82Y-55.225
X114.455Y-31.095
X114.455Y-34.905
X114.932Y-117.083
X115.28Y-66.846
X116.995Y-87.61
X118.011Y-40.366
X118.056Y-59.371
X119.247Y-79.389
X119.535Y-74.275
X119.535Y-87.61
X119.979Y-78.624
X120.17Y-72.37
X120.297Y-62.972
X120.614Y-79.386
X120.805Y-74.275
X121.249Y-78.624
X121.313Y-45.827
X121.412Y-80.264
X121.44Y-48.748
X121.44Y-54.336
X121.44Y-58.4
X121.44Y-69.83
X121.886Y-79.386
X122.075Y-72.37
X122.075Y-74.275
X122.49Y-78.627
X122.49Y-80.151
X122.71Y-44.938
X122.837Y-61.511
X123.125Y-79.389
X123.345Y-69.83
X123.599Y-99.296
X123.603Y-96.785
X123.603Y-98.055
X123.76Y-78.627
X123.76Y-80.151
X124.361Y-98.659
X124.361Y-99.931
X124.365Y-97.42
X124.615Y-54.59
X124.615Y-57.765
X124.615Y-66.02
X124.615Y-69.83
X125.123Y-99.296
X125.127Y-96.785
X125.127Y-98.055
X125.25Y-33.635
X125.25Y-36.175
X125.25Y-38.715
X125.25Y-115.55
X125.25Y-120.63
X125.631Y-42.203
X125.885Y-66.135
X125.885Y-69.83
X126.012Y-44.176
X126.266Y-29.425
X126.52Y-35.032
X126.52Y-56.114
X127.028Y-69.83
X127.155Y-38.08
X127.528Y-28.675
X127.536Y-34.016
X127.79Y-113.01
X127.79Y-118.09
X128.298Y-47.478
X128.425Y-36.81
X128.425Y-39.985
X128.552Y-28.174
X128.552Y-33.254
X129.06Y-60.94
X129.314Y-59.67
X129.568Y-83.038
X130.33Y-52.157
X130.33Y-91.42
X130.33Y-99.04
X130.33Y-102.85
X130.33Y-106.66
X130.33Y-110.47
X130.33Y-115.55
X130.33Y-120.63
X131.346Y-52.05
X131.346Y-63.734
X131.473Y-49.891
X131.473Y-50.907
X131.6Y-29.19
X132.235Y-100.945
X132.235Y-104.755
X132.235Y-108.565
X132.523Y-69.737
X132.743Y-42.203
X132.87Y-113.01
X132.87Y-118.09
X133.505Y-93.325
X133.505Y-97.135
X133.886Y-36.556
X134.121Y-45.885
X134.14Y-27.92
X134.18Y-46.883
X134.648Y-83.038
X135.08Y-44.913
X135.08Y-103.536
X135.41Y-115.55
X135.41Y-120.63
X135.98Y-45.903
X135.98Y-46.903
X136.426Y-69.576
X136.553Y-104.247
X136.934Y-58.908
X136.934Y-62.635
X136.934Y-63.635
X136.934Y-64.635
X137.315Y-61.575
X137.696Y-107.676
X137.95Y-73.132
X137.95Y-76.688
X137.95Y-118.09
X138.458Y-37.826
X138.621Y-82.185
X138.712Y-44.908
X139.22Y-48.494
X139.855Y-27.92
X140.052Y-47.694
X140.236Y-94.531
X140.49Y-120.63
X140.998Y-45.7
X141.052Y-47.694
X141.125Y-67.925
X141.125Y-69.835
X141.125Y-73.335
X141.125Y-76.815
X141.506Y-113.518
X141.76Y-59.924
X141.76Y-110.216
X142.522Y-43.668
X143.03Y-34.905
X143.03Y-67.925
X143.284Y-40.874
X143.339Y-58.515
X143.387Y-56.515
X143.411Y-48.494
X143.538Y-82.022
X144.122Y-86.137
X144.3Y-27.92
X144.808Y-67.29
X144.808Y-108.946
X144.935Y-33.0
X144.942Y-82.039
X145.062Y-50.526
X145.651Y-68.148
X145.824Y-69.576
X146.078Y-102.469
X146.078Y-116.566
X146.205Y-94.849
X146.459Y-45.065
X146.459Y-46.603
X146.459Y-66.655
X146.522Y-78.212
X146.522Y-80.625
X146.696Y-72.525
X147.067Y-53.955
X147.067Y-57.13
X147.602Y-63.226
X147.819Y-69.579
X147.856Y-58.515
X147.856Y-59.515
X147.856Y-60.515
X147.856Y-62.015
X148.11Y-36.81
X148.567Y-51.542
X148.567Y-67.853
X148.618Y-119.36
X148.718Y-90.378
X148.745Y-27.92
X148.802Y-87.309
X148.872Y-44.684
X148.872Y-109.2
X149.38Y-57.13
X149.38Y-68.56
X149.567Y-52.049
X149.634Y-87.864
X149.634Y-89.68
X149.888Y-46.716
X150.038Y-53.134
X150.067Y-48.494
X150.13Y-54.705
X150.396Y-44.684
X150.523Y-63.861
X150.535Y-68.04
X150.587Y-95.039
X150.65Y-69.54
X151.072Y-99.307
X151.13Y-54.705
X151.221Y-72.497
X151.221Y-78.212
X151.221Y-80.117
X151.221Y-74.402
X151.221Y-76.307
X151.412Y-102.596
X151.434Y-51.818
X151.517Y-66.879
X151.666Y-45.065
X151.73Y-97.325
X152.06Y-90.531
X152.084Y-99.294
X152.555Y-36.81
X152.682Y-56.114
X152.682Y-108.946
X152.859Y-89.883
X152.859Y-80.104
X152.936Y-51.796
X153.19Y-27.92
X153.19Y-119.868
X153.507Y-101.453
X153.698Y-116.566
X153.76Y-106.181
X153.825Y-55.86
X153.825Y-60.305
X153.825Y-92.547
X153.888Y-81.387
X153.888Y-87.165
X154.46Y-120.884
X154.714Y-63.988
X154.904Y-78.212
X154.904Y-88.88
X154.968Y-95.23
X155.538Y-107.927
X155.704Y-76.345
X155.704Y-88.156
X155.73Y-52.558
X155.73Y-121.684
X156.238Y-61.702
X156.504Y-74.351
X156.504Y-87.432
X156.578Y-43.414
X156.619Y-100.818
X156.838Y-48.24
X156.936Y-56.05
X157.0Y-36.81
X157.0Y-62.464
X157.127Y-97.706
X157.304Y-86.708
X157.305Y-72.484
X157.635Y-27.92
X157.762Y-63.226
X158.016Y-48.24
X158.016Y-116.82
X158.067Y-67.29
X158.27Y-60.305
X158.422Y-53.559
X158.45Y-101.326
X158.45Y-102.596
X158.803Y-72.26
X159.162Y-62.73
X159.198Y-55.764
X159.277Y-48.239
X159.28Y-46.206
X159.304Y-47.206
X159.413Y-85.197
X159.525Y-120.884
X159.54Y-57.765
X159.794Y-68.04
X160.048Y-66.528
X160.048Y-69.576
X160.556Y-46.208
X160.81Y-65.695
X160.81Y-68.814
X160.81Y-121.684
X161.127Y-100.945
X161.572Y-45.446
X161.588Y-64.895
X162.334Y-70.34
X162.334Y-109.454
X162.524Y-94.277
X162.564Y-56.085
X162.588Y-117.836
X162.588Y-64.895
X162.992Y-57.284
X163.096Y-32.746
X163.604Y-64.895
X163.728Y-57.961
X163.846Y-72.624
X163.846Y-73.624
X163.846Y-74.624
X164.112Y-66.528
X164.112Y-77.958
X164.524Y-58.904
X164.62Y-121.138
X165.128Y-115.296
X165.636Y-79.99
X165.89Y-66.655
X165.89Y-76.18
X166.024Y-57.297
X166.029Y-64.242
X166.906Y-32.746
X166.906Y-72.116
X166.956Y-57.658
X166.957Y-59.606
X167.033Y-94.214
X167.46Y-111.607
X167.795Y-28.555
X167.89Y-64.242
X167.89Y-66.527
X167.922Y-70.846
X167.922Y-121.138
X168.176Y-42.398
X168.176Y-45.065
X168.938Y-79.99
X168.938Y-116.312
X169.192Y-64.895
X169.446Y-72.116
X170.023Y-56.107
X170.208Y-54.844
X170.704Y-88.118
X170.704Y-89.134
X170.716Y-98.278
X170.716Y-106.406
X170.815Y-90.305
X170.915Y-54.094
X170.97Y-67.544
X170.97Y-118.09
X170.97Y-121.138
X171.478Y-93.452
X171.478Y-112.301
X171.605Y-28.555
X171.65Y-53.344
X171.732Y-109.454
X172.24Y-82.53
X172.393Y-52.594
X172.94Y-51.757
X173.759Y-51.007
X174.018Y-72.116
X174.018Y-102.596
X174.526Y-85.832
X174.78Y-96.5
X175.034Y-38.842
X175.288Y-116.058
X175.325Y-50.257
X175.415Y-28.555
X175.796Y-106.406
X176.05Y-42.525
X176.304Y-111.232
X176.304Y-113.01
X176.468Y-116.566
X176.558Y-97.262
X177.066Y-76.942
X177.193Y-112.121
X177.32Y-82.53
X177.32Y-88.118
X177.32Y-121.138
X177.574Y-100.056
X177.918Y-116.566
X178.082Y-111.232
X178.082Y-113.01
X178.336Y-66.401
X178.59Y-41.89
X178.59Y-50.78
X178.844Y-103.866
X178.907Y-65.448
X179.098Y-116.058
X179.225Y-28.555
X179.225Y-60.305
X179.492Y-64.466
X179.86Y-31.222
X179.86Y-98.278
X180.114Y-63.48
X180.495Y-48.875
X180.495Y-52.685
X180.622Y-38.842
X180.876Y-100.564
X180.876Y-107.676
X181.13Y-31.222
X181.13Y-110.47
X181.384Y-66.782
X181.384Y-71.1
X181.384Y-74.656
X181.384Y-78.72
X181.384Y-82.784
X181.384Y-86.848
X181.384Y-90.658
X181.708Y-101.326
X182.4Y-45.446
X182.4Y-46.97
X182.4Y-48.494
X182.4Y-53.066
X182.4Y-54.59
X182.4Y-56.114
X182.4Y-104.755
X182.654Y-102.088
X182.978Y-117.224
X183.162Y-121.138
X183.416Y-103.358
X183.67Y-25.38
X183.67Y-66.782
X183.67Y-71.1
X183.924Y-49.51
X183.924Y-50.78
X183.924Y-52.05
X183.924Y-55.606
X183.924Y-89.642
X185.194Y-77.45
X187.515Y-70.046
X187.734Y-98.278
X188.062Y-69.209
X188.115Y-77.45
X188.305Y-32.555
X188.496Y-109.962
X188.75Y-68.306
X188.94Y-35.032
X189.385Y-59.67
X189.385Y-73.132
X189.385Y-91.42
X189.512Y-67.29
X189.512Y-104.12
X190.02Y-26.142
X190.067Y-66.458
X190.621Y-65.626
X190.655Y-49.51
X190.655Y-81.26
X191.036Y-113.518
X191.036Y-119.868
X191.176Y-64.794
X191.48Y-32.555
X191.731Y-63.962
X191.925Y-73.132
X192.052Y-104.12
X192.306Y-35.032
X193.195Y-91.42
X194.338Y-113.518
X194.338Y-119.868
X194.465Y-32.682
X194.465Y-35.54
X194.465Y-49.51
X194.465Y-59.67
X194.465Y-72.941
X194.465Y-81.26
X194.846Y-104.12
X195.862Y-26.142
X196.116Y-98.151
X197.132Y-32.809
X197.132Y-104.12
X197.386Y-71.862
X197.45Y-35.032
X197.64Y-49.51
X197.64Y-81.26
X197.64Y-91.42
X197.64Y-113.518
X197.894Y-119.868
X197.941Y-71.03
X198.656Y-70.084
X198.91Y-59.67
X198.91Y-98.151
X199.545Y-33.0
X199.545Y-72.941
X199.672Y-103.866
X199.926Y-68.306
X200.18Y-35.54
X200.481Y-67.474
X200.815Y-89.045
X200.815Y-57.295
X201.704Y-98.024
X201.958Y-114.788
X202.212Y-119.868
X202.72Y-33.0
X202.72Y-53.955
X202.72Y-97.262
X202.72Y-99.802
X203.355Y-88.245
X203.355Y-56.495
X203.355Y-59.67
X203.355Y-91.42
X203.355Y-27.92
X203.99Y-25.126
X203.99Y-79.355
X204.022Y-71.068
X204.244Y-98.024
X204.752Y-44.938
X205.006Y-117.328
X205.26Y-53.955
X205.26Y-88.245
X207.419Y-77.45
X207.8Y-33.0
X208.816Y-116.566
X210.086Y-100.564
X210.086Y-110.216
X210.34Y-44.938
X210.34Y-78.72
X210.34Y-77.45
X211.61Y-25.126
X211.61Y-33.0
X212.88Y-49.51
X212.88Y-56.495
X212.88Y-81.895
X212.88Y-88.245
X212.88Y-113.264
X213.134Y-119.868
X213.642Y-97.072
X215.166Y-70.338
X215.674Y-101.834
X216.436Y-113.264
X216.69Y-49.51
X216.69Y-56.495
X216.69Y-81.895
X216.69Y-88.245
X216.69Y-119.868
X217.452Y-97.072
X217.96Y-58.4
X217.96Y-90.15
X217.96Y-26.65
X219.23Y-104.882
X219.738Y-70.338
X219.865Y-49.51
X219.865Y-56.495
X219.865Y-81.895
X219.865Y-88.245
X219.992Y-113.264
X219.992Y-119.868
X220.5Y-33.0
X220.5Y-102.596
X221.262Y-97.072
X221.77Y-72.37
X221.77Y-104.882
X222.024Y-25.126
X223.04Y-88.88
X223.675Y-33.0
X223.675Y-56.495
X223.675Y-82.53
X224.056Y-114.788
X224.056Y-119.868
X224.31Y-104.882
X224.945Y-85.705
X224.945Y-91.42
X225.326Y-66.782
X225.326Y-98.532
X225.58Y-46.97
X225.58Y-50.78
X225.58Y-54.59
X225.58Y-59.035
X225.58Y-78.72
X225.58Y-82.53
X225.58Y-114.28
X225.58Y-110.47
X226.215Y-88.245
X226.85Y-73.386
X226.85Y-104.882
X226.85Y-117.836
X227.104Y-56.876
X227.485Y-51.415
X227.485Y-101.58
X227.485Y-69.83
X227.485Y-114.915
X227.485Y-83.165
X227.866Y-27.158
X228.12Y-46.335
X228.12Y-78.085
X228.374Y-109.962
X228.755Y-54.59
X228.755Y-59.035
X228.755Y-86.34
X228.755Y-90.785
X229.136Y-64.496
X229.39Y-51.415
X229.39Y-69.83
X229.39Y-96.5
X229.39Y-101.58
X229.39Y-114.915
X229.39Y-83.165
X229.644Y-122.916
X230.025Y-38.08
X231.93Y-38.715
X231.93Y-121.011
X231.93Y-122.154
X231.93Y-123.297
X231.93Y-31.984
X231.93Y-124.44
X233.2Y-25.126
T3
X203.0Y-48.748
X203.703Y-47.051
X203.703Y-50.445
X205.4Y-46.348
X205.4Y-51.148
X207.097Y-47.051
X207.097Y-50.445
X207.8Y-48.748
X39.4Y-30.6
X40.103Y-28.903
X40.103Y-32.297
X41.8Y-28.2
X41.8Y-33.0
X43.497Y-28.903
X43.497Y-32.297
X44.2Y-30.6
X129.4Y-87.6
X130.103Y-85.903
X130.103Y-89.297
X131.8Y-85.2
X131.8Y-90.0
X133.497Y-85.903
X133.497Y-89.297
X134.2Y-87.6
X203.0Y-112.1
X203.703Y-110.403
X203.703Y-113.797
X205.4Y-109.7
X205.4Y-114.5
X207.097Y-110.403
X207.097Y-113.797
X207.8Y-112.1
X74.4Y-120.6
X75.103Y-118.903
X75.103Y-122.297
X76.8Y-118.2
X76.8Y-123.0
X78.497Y-118.903
X78.497Y-122.297
X79.2Y-120.6
T4
X73.053Y-81.514
X73.053Y-84.054
X73.053Y-86.594
X80.673Y-81.514
X80.673Y-84.054
X80.673Y-86.594
X73.18Y-108.565
X73.18Y-111.105
X73.18Y-113.645
X80.8Y-108.565
X80.8Y-111.105
X80.8Y-113.645
T5
X59.845Y-31.095
X59.845Y-33.635
X59.845Y-36.175
X59.845Y-38.715
X59.845Y-41.255
X59.845Y-43.795
X80.165Y-31.095
X80.165Y-33.635
X80.165Y-36.175
X80.165Y-38.715
X80.165Y-41.255
X80.165Y-43.795
T6
X150.095Y-33.635
X152.595Y-33.635
X155.095Y-33.635
X157.595Y-33.635
X160.095Y-33.635
T7
X205.232Y-85.344
X188.115Y-30.46
X188.115Y-43.16
X190.655Y-30.46
X190.655Y-43.16
X193.195Y-30.46
X193.195Y-43.16
X195.735Y-30.46
X195.735Y-43.16
X198.275Y-30.46
X198.275Y-43.16
X200.815Y-30.46
X200.815Y-43.16
X203.355Y-30.46
X203.355Y-43.16
X205.895Y-30.46
X205.895Y-35.54
X205.895Y-43.16
X210.34Y-62.21
X210.34Y-74.91
X212.88Y-62.21
X212.88Y-74.91
X215.42Y-62.21
X215.42Y-74.91
X217.96Y-62.21
X217.96Y-74.91
X220.5Y-62.21
X220.5Y-74.91
X223.04Y-62.21
X223.04Y-74.91
X225.58Y-62.21
X225.58Y-74.91
X228.12Y-62.21
X228.12Y-67.29
X228.12Y-74.91
X168.148Y-119.38
X144.78Y-36.576
X68.105Y-60.996
X188.115Y-93.96
X188.115Y-106.66
X190.655Y-93.96
X190.655Y-106.66
X193.195Y-93.96
X193.195Y-106.66
X195.735Y-93.96
X195.735Y-106.66
X198.275Y-93.96
X198.275Y-106.66
X200.815Y-93.96
X200.815Y-106.66
X203.355Y-93.96
X203.355Y-106.66
X205.895Y-93.96
X205.895Y-99.04
X205.895Y-106.66
X210.34Y-30.46
X210.34Y-43.16
X212.88Y-30.46
X212.88Y-43.16
X215.42Y-30.46
X215.42Y-43.16
X217.96Y-30.46
X217.96Y-43.16
X220.5Y-30.46
X220.5Y-43.16
X223.04Y-30.46
X223.04Y-43.16
X225.58Y-30.46
X225.58Y-43.16
X228.12Y-30.46
X228.12Y-35.54
X228.12Y-43.16
X210.34Y-93.96
X210.34Y-106.66
X212.88Y-93.96
X212.88Y-106.66
X215.42Y-93.96
X215.42Y-106.66
X217.96Y-93.96
X217.96Y-106.66
X220.5Y-93.96
X220.5Y-106.66
X223.04Y-93.96
X223.04Y-106.66
X225.58Y-93.96
X225.58Y-106.66
X228.12Y-93.96
X228.12Y-99.04
X228.12Y-106.66
X188.115Y-62.21
X188.115Y-74.91
X190.655Y-62.21
X190.655Y-74.91
X193.195Y-62.21
X193.195Y-74.91
X195.735Y-62.21
X195.735Y-74.91
X198.275Y-62.21
X198.275Y-74.91
X200.815Y-62.21
X200.815Y-74.91
X203.355Y-62.21
X203.355Y-74.91
X205.895Y-62.21
X205.895Y-67.29
X205.895Y-74.91
X98.044Y-44.196
X130.556Y-94.996
X205.74Y-56.388
X159.512Y-89.916
X205.74Y-118.872
X93.472Y-124.46
T8
X170.335Y-33.635
X170.335Y-36.175
X170.335Y-38.715
X170.335Y-41.255
X170.335Y-43.795
X170.335Y-46.335
X172.875Y-33.635
X172.875Y-36.175
X172.875Y-38.715
X172.875Y-41.255
X172.875Y-43.795
X172.875Y-46.335
X144.935Y-111.74
X144.935Y-114.28
X147.475Y-111.74
X147.475Y-114.28
X150.015Y-111.74
X150.015Y-114.28
X152.555Y-111.74
X152.555Y-114.28
X155.095Y-111.74
X155.095Y-114.28
X157.635Y-111.74
X157.635Y-114.28
X160.175Y-111.74
X160.175Y-114.28
X162.715Y-111.74
X162.715Y-114.28
X96.548Y-92.182
X96.548Y-94.722
X99.088Y-92.182
X99.088Y-94.722
X101.628Y-92.182
X101.628Y-94.722
X104.168Y-92.182
X104.168Y-94.722
X106.708Y-92.182
X106.708Y-94.722
X109.248Y-92.182
X109.248Y-94.722
X111.788Y-92.182
X111.788Y-94.722
X114.328Y-92.182
X114.328Y-94.722
X116.868Y-92.182
X116.868Y-94.722
X119.408Y-92.182
X119.408Y-94.722
T9
X64.163Y-106.66
X64.163Y-109.2
X64.163Y-111.74
X64.163Y-83.419
X64.163Y-85.959
X64.163Y-88.499
T10
X173.891Y-56.114
X173.891Y-59.614
X189.045Y-85.07
X192.545Y-85.07
X196.045Y-85.07
X199.545Y-85.07
X125.25Y-47.28
X125.25Y-50.78
X211.27Y-53.32
X214.77Y-53.32
X218.27Y-53.32
X221.77Y-53.32
X189.045Y-53.32
X192.545Y-53.32
X196.045Y-53.32
X199.545Y-53.32
X141.569Y-84.547
X141.569Y-88.047
X141.569Y-91.547
X173.881Y-75.22
X173.881Y-78.72
X46.383Y-120.249
X49.883Y-120.249
X173.881Y-65.695
X173.881Y-69.195
X46.383Y-74.529
X49.883Y-74.529
X211.27Y-116.82
X214.77Y-116.82
X218.27Y-116.82
X221.77Y-116.82
X72.799Y-93.833
X72.799Y-101.333
X96.04Y-116.185
X99.54Y-116.185
X103.04Y-116.185
X106.54Y-116.185
X117.051Y-116.185
X120.551Y-116.185
X165.064Y-84.547
X165.064Y-88.047
X165.064Y-91.547
X165.064Y-97.262
X165.064Y-100.762
X165.064Y-104.262
X46.383Y-97.389
X49.883Y-97.389
X141.57Y-97.247
X141.57Y-100.747
X141.57Y-104.247
X137.823Y-67.91
X137.823Y-71.41
X137.823Y-74.91
X137.823Y-78.41
X211.27Y-85.07
X214.77Y-85.07
X218.27Y-85.07
X221.77Y-85.07
X189.045Y-116.82
X192.545Y-116.82
X196.045Y-116.82
X199.545Y-116.82
T11
X64.29Y-76.18
X69.37Y-76.18
T12
X205.4Y-48.748
X41.8Y-30.6
X131.8Y-87.6
X205.4Y-112.1
X76.8Y-120.6
T13
X66.962Y-28.3
X74.962Y-28.3
X174.993Y-121.171
X179.393Y-121.171
T0
M30
