G04 #@! TF.GenerationSoftware,KiCad,Pcbnew,(5.1.8)-1*
G04 #@! TF.CreationDate,2021-04-24T13:59:01+03:00*
G04 #@! TF.ProjectId,3d_print_main,33645f70-7269-46e7-945f-6d61696e2e6b,rev?*
G04 #@! TF.SameCoordinates,Original*
G04 #@! TF.FileFunction,Profile,NP*
%FSLAX46Y46*%
G04 Gerber Fmt 4.6, Leading zero omitted, Abs format (unit mm)*
G04 Created by KiCad (PCBNEW (5.1.8)-1) date 2021-04-24 13:59:01*
%MOMM*%
%LPD*%
G01*
G04 APERTURE LIST*
G04 #@! TA.AperFunction,Profile*
%ADD10C,0.100000*%
G04 #@! TD*
G04 APERTURE END LIST*
D10*
X34800000Y-23600000D02*
X234800000Y-23600000D01*
X34800000Y-128600000D02*
X34800000Y-23600000D01*
X234800000Y-128600000D02*
X34800000Y-128600000D01*
X234800000Y-23600000D02*
X234800000Y-128600000D01*
X86896000Y-94976000D02*
G75*
G02*
X87912000Y-95992000I0J-1016000D01*
G01*
X87912000Y-101326000D02*
G75*
G02*
X86896000Y-101326000I-508000J0D01*
G01*
X87912000Y-95992000D02*
X87912000Y-101326000D01*
X86896000Y-95992000D02*
X86896000Y-101326000D01*
X81054000Y-95992000D02*
G75*
G02*
X81054000Y-94976000I0J508000D01*
G01*
X86896000Y-95992000D02*
X81054000Y-95992000D01*
X81054000Y-94976000D02*
X86896000Y-94976000D01*
X76354998Y-106024998D02*
G75*
G02*
X77296302Y-104798272I1270002J-2D01*
G01*
X85334658Y-102617640D02*
G75*
G02*
X85663348Y-103844362I164345J-613361D01*
G01*
X77296301Y-104798275D02*
X85334650Y-102617636D01*
X77625000Y-106025000D02*
X85663348Y-103844362D01*
X77625002Y-115550002D02*
G75*
G02*
X76355000Y-115549998I-635001J2D01*
G01*
X76354999Y-106025002D02*
X76355000Y-115549998D01*
X77625001Y-115550002D02*
X77625000Y-106025000D01*
X76354998Y-79355002D02*
G75*
G02*
X77625000Y-79355000I635001J1D01*
G01*
X77625003Y-88880005D02*
G75*
G02*
X76355001Y-88879999I-635001J3D01*
G01*
X76355000Y-79355002D02*
X76355001Y-88879999D01*
X77625000Y-88880000D02*
X77625000Y-79355000D01*
M02*
