G04 #@! TF.GenerationSoftware,KiCad,Pcbnew,(5.1.4-83-g4f57de968)-1*
G04 #@! TF.CreationDate,2020-04-08T14:11:41+03:00*
G04 #@! TF.ProjectId,3d_print_main,33645f70-7269-46e7-945f-6d61696e2e6b,rev?*
G04 #@! TF.SameCoordinates,Original*
G04 #@! TF.FileFunction,Legend,Bot*
G04 #@! TF.FilePolarity,Positive*
%FSLAX46Y46*%
G04 Gerber Fmt 4.6, Leading zero omitted, Abs format (unit mm)*
G04 Created by KiCad (PCBNEW (5.1.4-83-g4f57de968)-1) date 2020-04-08 14:11:41*
%MOMM*%
%LPD*%
G04 APERTURE LIST*
%ADD10C,0.120000*%
%ADD11C,0.150000*%
%ADD12C,0.100000*%
%ADD13C,1.602000*%
%ADD14R,1.602000X2.102000*%
%ADD15C,1.102000*%
%ADD16C,1.902000*%
%ADD17C,2.102000*%
%ADD18O,2.102000X2.007000*%
%ADD19R,2.102000X2.007000*%
%ADD20C,1.852000*%
%ADD21R,1.802000X1.802000*%
%ADD22C,6.502000*%
%ADD23C,0.902000*%
%ADD24O,1.902000X3.702000*%
%ADD25O,2.702000X2.702000*%
%ADD26R,2.702000X2.702000*%
%ADD27O,1.702000X1.702000*%
%ADD28R,1.702000X1.702000*%
%ADD29O,3.702000X1.902000*%
%ADD30O,1.829200X1.829200*%
%ADD31R,1.829200X1.829200*%
%ADD32O,1.802000X2.052000*%
%ADD33C,1.802000*%
%ADD34C,2.502000*%
%ADD35R,2.502000X2.502000*%
G04 APERTURE END LIST*
D10*
X156553833Y-106750527D02*
X156553833Y-105610527D01*
X151665833Y-107450527D02*
X155853833Y-107450527D01*
X150965833Y-105672527D02*
X150965833Y-106750527D01*
X155853833Y-104910527D02*
X151665833Y-104910527D01*
X151665833Y-104910527D02*
G75*
G03X150965833Y-105610527I0J-700000D01*
G01*
X150965833Y-106750527D02*
G75*
G03X151665833Y-107450527I700000J0D01*
G01*
X155853833Y-107450527D02*
G75*
G03X156553833Y-106750527I0J700000D01*
G01*
X156553833Y-105610527D02*
G75*
G03X155853833Y-104910527I-700000J0D01*
G01*
D11*
X151031000Y-57195000D02*
X151031000Y-58335000D01*
X155919000Y-56495000D02*
X151731000Y-56495000D01*
X156619000Y-58273000D02*
X156619000Y-57195000D01*
X151731000Y-59035000D02*
X155919000Y-59035000D01*
X155919000Y-59035000D02*
G75*
G03X156619000Y-58335000I0J700000D01*
G01*
X156619000Y-57195000D02*
G75*
G03X155919000Y-56495000I-700000J0D01*
G01*
X151731000Y-56495000D02*
G75*
G03X151031000Y-57195000I0J-700000D01*
G01*
X151031000Y-58335000D02*
G75*
G03X151731000Y-59035000I700000J0D01*
G01*
X154593166Y-102632907D02*
X154593166Y-103347193D01*
X154640785Y-103490050D01*
X154736023Y-103585288D01*
X154878880Y-103632907D01*
X154974118Y-103632907D01*
X154116975Y-103632907D02*
X154116975Y-102632907D01*
X153736023Y-102632907D01*
X153640785Y-102680527D01*
X153593166Y-102728146D01*
X153545547Y-102823384D01*
X153545547Y-102966241D01*
X153593166Y-103061479D01*
X153640785Y-103109098D01*
X153736023Y-103156717D01*
X154116975Y-103156717D01*
X153164594Y-102728146D02*
X153116975Y-102680527D01*
X153021737Y-102632907D01*
X152783642Y-102632907D01*
X152688404Y-102680527D01*
X152640785Y-102728146D01*
X152593166Y-102823384D01*
X152593166Y-102918622D01*
X152640785Y-103061479D01*
X153212213Y-103632907D01*
X152593166Y-103632907D01*
X150593166Y-105632907D02*
X149974118Y-105632907D01*
X150307452Y-106013860D01*
X150164594Y-106013860D01*
X150069356Y-106061479D01*
X150021737Y-106109098D01*
X149974118Y-106204336D01*
X149974118Y-106442431D01*
X150021737Y-106537669D01*
X150069356Y-106585288D01*
X150164594Y-106632907D01*
X150450309Y-106632907D01*
X150545547Y-106585288D01*
X150593166Y-106537669D01*
X156974118Y-106632907D02*
X157545547Y-106632907D01*
X157259833Y-106632907D02*
X157259833Y-105632907D01*
X157355071Y-105775765D01*
X157450309Y-105871003D01*
X157545547Y-105918622D01*
X154658333Y-60217380D02*
X154658333Y-60931666D01*
X154705952Y-61074523D01*
X154801190Y-61169761D01*
X154944047Y-61217380D01*
X155039285Y-61217380D01*
X154182142Y-61217380D02*
X154182142Y-60217380D01*
X153801190Y-60217380D01*
X153705952Y-60265000D01*
X153658333Y-60312619D01*
X153610714Y-60407857D01*
X153610714Y-60550714D01*
X153658333Y-60645952D01*
X153705952Y-60693571D01*
X153801190Y-60741190D01*
X154182142Y-60741190D01*
X152658333Y-61217380D02*
X153229761Y-61217380D01*
X152944047Y-61217380D02*
X152944047Y-60217380D01*
X153039285Y-60360238D01*
X153134523Y-60455476D01*
X153229761Y-60503095D01*
X157658333Y-57217380D02*
X157039285Y-57217380D01*
X157372619Y-57598333D01*
X157229761Y-57598333D01*
X157134523Y-57645952D01*
X157086904Y-57693571D01*
X157039285Y-57788809D01*
X157039285Y-58026904D01*
X157086904Y-58122142D01*
X157134523Y-58169761D01*
X157229761Y-58217380D01*
X157515476Y-58217380D01*
X157610714Y-58169761D01*
X157658333Y-58122142D01*
X150039285Y-58217380D02*
X150610714Y-58217380D01*
X150325000Y-58217380D02*
X150325000Y-57217380D01*
X150420238Y-57360238D01*
X150515476Y-57455476D01*
X150610714Y-57503095D01*
%LPC*%
D12*
G36*
X152421589Y-105131456D02*
G01*
X152460467Y-105137222D01*
X152498592Y-105146772D01*
X152535598Y-105160013D01*
X152571127Y-105176818D01*
X152604839Y-105197023D01*
X152636408Y-105220436D01*
X152665529Y-105246831D01*
X152691924Y-105275952D01*
X152715337Y-105307521D01*
X152735542Y-105341233D01*
X152752347Y-105376762D01*
X152765588Y-105413768D01*
X152775138Y-105451893D01*
X152780904Y-105490771D01*
X152782833Y-105530027D01*
X152782833Y-106831027D01*
X152780904Y-106870283D01*
X152775138Y-106909161D01*
X152765588Y-106947286D01*
X152752347Y-106984292D01*
X152735542Y-107019821D01*
X152715337Y-107053533D01*
X152691924Y-107085102D01*
X152665529Y-107114223D01*
X152636408Y-107140618D01*
X152604839Y-107164031D01*
X152571127Y-107184236D01*
X152535598Y-107201041D01*
X152498592Y-107214282D01*
X152460467Y-107223832D01*
X152421589Y-107229598D01*
X152382333Y-107231527D01*
X151581333Y-107231527D01*
X151542077Y-107229598D01*
X151503199Y-107223832D01*
X151465074Y-107214282D01*
X151428068Y-107201041D01*
X151392539Y-107184236D01*
X151358827Y-107164031D01*
X151327258Y-107140618D01*
X151298137Y-107114223D01*
X151271742Y-107085102D01*
X151248329Y-107053533D01*
X151228124Y-107019821D01*
X151211319Y-106984292D01*
X151198078Y-106947286D01*
X151188528Y-106909161D01*
X151182762Y-106870283D01*
X151180833Y-106831027D01*
X151180833Y-105530027D01*
X151182762Y-105490771D01*
X151188528Y-105451893D01*
X151198078Y-105413768D01*
X151211319Y-105376762D01*
X151228124Y-105341233D01*
X151248329Y-105307521D01*
X151271742Y-105275952D01*
X151298137Y-105246831D01*
X151327258Y-105220436D01*
X151358827Y-105197023D01*
X151392539Y-105176818D01*
X151428068Y-105160013D01*
X151465074Y-105146772D01*
X151503199Y-105137222D01*
X151542077Y-105131456D01*
X151581333Y-105129527D01*
X152382333Y-105129527D01*
X152421589Y-105131456D01*
X152421589Y-105131456D01*
G37*
D13*
X151981833Y-106180527D03*
D12*
G36*
X155977589Y-105131456D02*
G01*
X156016467Y-105137222D01*
X156054592Y-105146772D01*
X156091598Y-105160013D01*
X156127127Y-105176818D01*
X156160839Y-105197023D01*
X156192408Y-105220436D01*
X156221529Y-105246831D01*
X156247924Y-105275952D01*
X156271337Y-105307521D01*
X156291542Y-105341233D01*
X156308347Y-105376762D01*
X156321588Y-105413768D01*
X156331138Y-105451893D01*
X156336904Y-105490771D01*
X156338833Y-105530027D01*
X156338833Y-106831027D01*
X156336904Y-106870283D01*
X156331138Y-106909161D01*
X156321588Y-106947286D01*
X156308347Y-106984292D01*
X156291542Y-107019821D01*
X156271337Y-107053533D01*
X156247924Y-107085102D01*
X156221529Y-107114223D01*
X156192408Y-107140618D01*
X156160839Y-107164031D01*
X156127127Y-107184236D01*
X156091598Y-107201041D01*
X156054592Y-107214282D01*
X156016467Y-107223832D01*
X155977589Y-107229598D01*
X155938333Y-107231527D01*
X155137333Y-107231527D01*
X155098077Y-107229598D01*
X155059199Y-107223832D01*
X155021074Y-107214282D01*
X154984068Y-107201041D01*
X154948539Y-107184236D01*
X154914827Y-107164031D01*
X154883258Y-107140618D01*
X154854137Y-107114223D01*
X154827742Y-107085102D01*
X154804329Y-107053533D01*
X154784124Y-107019821D01*
X154767319Y-106984292D01*
X154754078Y-106947286D01*
X154744528Y-106909161D01*
X154738762Y-106870283D01*
X154736833Y-106831027D01*
X154736833Y-105530027D01*
X154738762Y-105490771D01*
X154744528Y-105451893D01*
X154754078Y-105413768D01*
X154767319Y-105376762D01*
X154784124Y-105341233D01*
X154804329Y-105307521D01*
X154827742Y-105275952D01*
X154854137Y-105246831D01*
X154883258Y-105220436D01*
X154914827Y-105197023D01*
X154948539Y-105176818D01*
X154984068Y-105160013D01*
X155021074Y-105146772D01*
X155059199Y-105137222D01*
X155098077Y-105131456D01*
X155137333Y-105129527D01*
X155938333Y-105129527D01*
X155977589Y-105131456D01*
X155977589Y-105131456D01*
G37*
D13*
X155537833Y-106180527D03*
D14*
X153759833Y-106180527D03*
D12*
G36*
X156042756Y-56715929D02*
G01*
X156081634Y-56721695D01*
X156119759Y-56731245D01*
X156156765Y-56744486D01*
X156192294Y-56761291D01*
X156226006Y-56781496D01*
X156257575Y-56804909D01*
X156286696Y-56831304D01*
X156313091Y-56860425D01*
X156336504Y-56891994D01*
X156356709Y-56925706D01*
X156373514Y-56961235D01*
X156386755Y-56998241D01*
X156396305Y-57036366D01*
X156402071Y-57075244D01*
X156404000Y-57114500D01*
X156404000Y-58415500D01*
X156402071Y-58454756D01*
X156396305Y-58493634D01*
X156386755Y-58531759D01*
X156373514Y-58568765D01*
X156356709Y-58604294D01*
X156336504Y-58638006D01*
X156313091Y-58669575D01*
X156286696Y-58698696D01*
X156257575Y-58725091D01*
X156226006Y-58748504D01*
X156192294Y-58768709D01*
X156156765Y-58785514D01*
X156119759Y-58798755D01*
X156081634Y-58808305D01*
X156042756Y-58814071D01*
X156003500Y-58816000D01*
X155202500Y-58816000D01*
X155163244Y-58814071D01*
X155124366Y-58808305D01*
X155086241Y-58798755D01*
X155049235Y-58785514D01*
X155013706Y-58768709D01*
X154979994Y-58748504D01*
X154948425Y-58725091D01*
X154919304Y-58698696D01*
X154892909Y-58669575D01*
X154869496Y-58638006D01*
X154849291Y-58604294D01*
X154832486Y-58568765D01*
X154819245Y-58531759D01*
X154809695Y-58493634D01*
X154803929Y-58454756D01*
X154802000Y-58415500D01*
X154802000Y-57114500D01*
X154803929Y-57075244D01*
X154809695Y-57036366D01*
X154819245Y-56998241D01*
X154832486Y-56961235D01*
X154849291Y-56925706D01*
X154869496Y-56891994D01*
X154892909Y-56860425D01*
X154919304Y-56831304D01*
X154948425Y-56804909D01*
X154979994Y-56781496D01*
X155013706Y-56761291D01*
X155049235Y-56744486D01*
X155086241Y-56731245D01*
X155124366Y-56721695D01*
X155163244Y-56715929D01*
X155202500Y-56714000D01*
X156003500Y-56714000D01*
X156042756Y-56715929D01*
X156042756Y-56715929D01*
G37*
D13*
X155603000Y-57765000D03*
D12*
G36*
X152486756Y-56715929D02*
G01*
X152525634Y-56721695D01*
X152563759Y-56731245D01*
X152600765Y-56744486D01*
X152636294Y-56761291D01*
X152670006Y-56781496D01*
X152701575Y-56804909D01*
X152730696Y-56831304D01*
X152757091Y-56860425D01*
X152780504Y-56891994D01*
X152800709Y-56925706D01*
X152817514Y-56961235D01*
X152830755Y-56998241D01*
X152840305Y-57036366D01*
X152846071Y-57075244D01*
X152848000Y-57114500D01*
X152848000Y-58415500D01*
X152846071Y-58454756D01*
X152840305Y-58493634D01*
X152830755Y-58531759D01*
X152817514Y-58568765D01*
X152800709Y-58604294D01*
X152780504Y-58638006D01*
X152757091Y-58669575D01*
X152730696Y-58698696D01*
X152701575Y-58725091D01*
X152670006Y-58748504D01*
X152636294Y-58768709D01*
X152600765Y-58785514D01*
X152563759Y-58798755D01*
X152525634Y-58808305D01*
X152486756Y-58814071D01*
X152447500Y-58816000D01*
X151646500Y-58816000D01*
X151607244Y-58814071D01*
X151568366Y-58808305D01*
X151530241Y-58798755D01*
X151493235Y-58785514D01*
X151457706Y-58768709D01*
X151423994Y-58748504D01*
X151392425Y-58725091D01*
X151363304Y-58698696D01*
X151336909Y-58669575D01*
X151313496Y-58638006D01*
X151293291Y-58604294D01*
X151276486Y-58568765D01*
X151263245Y-58531759D01*
X151253695Y-58493634D01*
X151247929Y-58454756D01*
X151246000Y-58415500D01*
X151246000Y-57114500D01*
X151247929Y-57075244D01*
X151253695Y-57036366D01*
X151263245Y-56998241D01*
X151276486Y-56961235D01*
X151293291Y-56925706D01*
X151313496Y-56891994D01*
X151336909Y-56860425D01*
X151363304Y-56831304D01*
X151392425Y-56804909D01*
X151423994Y-56781496D01*
X151457706Y-56761291D01*
X151493235Y-56744486D01*
X151530241Y-56731245D01*
X151568366Y-56721695D01*
X151607244Y-56715929D01*
X151646500Y-56714000D01*
X152447500Y-56714000D01*
X152486756Y-56715929D01*
X152486756Y-56715929D01*
G37*
D13*
X152047000Y-57765000D03*
D14*
X153825000Y-57765000D03*
D15*
X66962000Y-28300000D03*
X74962000Y-28300000D03*
D16*
X205895002Y-35540000D03*
D17*
X205895002Y-43160000D03*
X203355002Y-43160000D03*
X200815002Y-43160000D03*
X198275002Y-43160000D03*
X195735002Y-43160000D03*
X193195002Y-43160000D03*
X190655002Y-43160000D03*
X188115002Y-43160000D03*
X188115002Y-30460000D03*
X190655002Y-30460000D03*
X193195002Y-30460000D03*
X195735002Y-30460000D03*
X198275002Y-30460000D03*
X200815002Y-30460000D03*
X203355002Y-30460000D03*
X205895002Y-30460000D03*
D16*
X205895000Y-67290000D03*
D17*
X205895000Y-74910000D03*
X203355000Y-74910000D03*
X200815000Y-74910000D03*
X198275000Y-74910000D03*
X195735000Y-74910000D03*
X193195000Y-74910000D03*
X190655000Y-74910000D03*
X188115000Y-74910000D03*
X188115000Y-62210000D03*
X190655000Y-62210000D03*
X193195000Y-62210000D03*
X195735000Y-62210000D03*
X198275000Y-62210000D03*
X200815000Y-62210000D03*
X203355000Y-62210000D03*
X205895000Y-62210000D03*
D16*
X228120000Y-35540000D03*
D17*
X228120000Y-43160000D03*
X225580000Y-43160000D03*
X223040000Y-43160000D03*
X220500000Y-43160000D03*
X217960000Y-43160000D03*
X215420000Y-43160000D03*
X212880000Y-43160000D03*
X210340000Y-43160000D03*
X210340000Y-30460000D03*
X212880000Y-30460000D03*
X215420000Y-30460000D03*
X217960000Y-30460000D03*
X220500000Y-30460000D03*
X223040000Y-30460000D03*
X225580000Y-30460000D03*
X228120000Y-30460000D03*
D16*
X205895002Y-99040002D03*
D17*
X205895002Y-106660002D03*
X203355002Y-106660002D03*
X200815002Y-106660002D03*
X198275002Y-106660002D03*
X195735002Y-106660002D03*
X193195002Y-106660002D03*
X190655002Y-106660002D03*
X188115002Y-106660002D03*
X188115002Y-93960002D03*
X190655002Y-93960002D03*
X193195002Y-93960002D03*
X195735002Y-93960002D03*
X198275002Y-93960002D03*
X200815002Y-93960002D03*
X203355002Y-93960002D03*
X205895002Y-93960002D03*
D16*
X228119998Y-99040000D03*
D17*
X228119998Y-106660000D03*
X225579998Y-106660000D03*
X223039998Y-106660000D03*
X220499998Y-106660000D03*
X217959998Y-106660000D03*
X215419998Y-106660000D03*
X212879998Y-106660000D03*
X210339998Y-106660000D03*
X210339998Y-93960000D03*
X212879998Y-93960000D03*
X215419998Y-93960000D03*
X217959998Y-93960000D03*
X220499998Y-93960000D03*
X223039998Y-93960000D03*
X225579998Y-93960000D03*
X228119998Y-93960000D03*
D16*
X228120000Y-67290000D03*
D17*
X228120000Y-74910000D03*
X225580000Y-74910000D03*
X223040000Y-74910000D03*
X220500000Y-74910000D03*
X217960000Y-74910000D03*
X215420000Y-74910000D03*
X212880000Y-74910000D03*
X210340000Y-74910000D03*
X210340000Y-62210000D03*
X212880000Y-62210000D03*
X215420000Y-62210000D03*
X217960000Y-62210000D03*
X220500000Y-62210000D03*
X223040000Y-62210000D03*
X225580000Y-62210000D03*
X228120000Y-62210000D03*
D18*
X64163000Y-106660000D03*
X64163000Y-109200000D03*
D19*
X64163000Y-111740000D03*
D18*
X64162998Y-83419000D03*
X64162998Y-85959000D03*
D19*
X64162998Y-88499000D03*
D20*
X80165000Y-31095000D03*
X80165000Y-33635000D03*
X80165000Y-36175000D03*
X80165000Y-38715000D03*
X80165000Y-41255000D03*
X80165000Y-43795000D03*
X59845000Y-43795000D03*
X59845000Y-41255000D03*
X59845000Y-38715000D03*
X59845000Y-36175000D03*
X59845000Y-33635000D03*
X59845000Y-31095000D03*
D21*
X205740000Y-56388000D03*
X205232000Y-85344000D03*
X205740000Y-118872000D03*
X68105396Y-60995595D03*
X93472000Y-124460000D03*
X98044000Y-44196000D03*
X130556000Y-94996000D03*
X144780000Y-36576000D03*
X168148000Y-119380000D03*
X159512000Y-89916000D03*
D22*
X76800000Y-120600000D03*
D23*
X79200000Y-120600000D03*
X78497056Y-122297056D03*
X76800000Y-123000000D03*
X75102944Y-122297056D03*
X74400000Y-120600000D03*
X75102944Y-118902944D03*
X76800000Y-118200000D03*
X78497056Y-118902944D03*
D22*
X131800000Y-87600000D03*
D23*
X134200000Y-87600000D03*
X133497056Y-89297056D03*
X131800000Y-90000000D03*
X130102944Y-89297056D03*
X129400000Y-87600000D03*
X130102944Y-85902944D03*
X131800000Y-85200000D03*
X133497056Y-85902944D03*
D22*
X205400000Y-48748000D03*
D23*
X207800000Y-48748000D03*
X207097056Y-50445056D03*
X205400000Y-51148000D03*
X203702944Y-50445056D03*
X203000000Y-48748000D03*
X203702944Y-47050944D03*
X205400000Y-46348000D03*
X207097056Y-47050944D03*
D22*
X205400000Y-112100000D03*
D23*
X207800000Y-112100000D03*
X207097056Y-113797056D03*
X205400000Y-114500000D03*
X203702944Y-113797056D03*
X203000000Y-112100000D03*
X203702944Y-110402944D03*
X205400000Y-109700000D03*
X207097056Y-110402944D03*
X43497056Y-28902944D03*
X41800000Y-28200000D03*
X40102944Y-28902944D03*
X39400000Y-30600000D03*
X40102944Y-32297056D03*
X41800000Y-33000000D03*
X43497056Y-32297056D03*
X44200000Y-30600000D03*
D22*
X41800000Y-30600000D03*
D12*
G36*
X107252727Y-114335272D02*
G01*
X107278370Y-114339076D01*
X107303517Y-114345375D01*
X107327926Y-114354108D01*
X107351361Y-114365192D01*
X107373597Y-114378520D01*
X107394419Y-114393963D01*
X107413628Y-114411372D01*
X107431037Y-114430581D01*
X107446480Y-114451403D01*
X107459808Y-114473639D01*
X107470892Y-114497074D01*
X107479625Y-114521483D01*
X107485924Y-114546630D01*
X107489728Y-114572273D01*
X107491000Y-114598166D01*
X107491000Y-117771834D01*
X107489728Y-117797727D01*
X107485924Y-117823370D01*
X107479625Y-117848517D01*
X107470892Y-117872926D01*
X107459808Y-117896361D01*
X107446480Y-117918597D01*
X107431037Y-117939419D01*
X107413628Y-117958628D01*
X107394419Y-117976037D01*
X107373597Y-117991480D01*
X107351361Y-118004808D01*
X107327926Y-118015892D01*
X107303517Y-118024625D01*
X107278370Y-118030924D01*
X107252727Y-118034728D01*
X107226834Y-118036000D01*
X105853166Y-118036000D01*
X105827273Y-118034728D01*
X105801630Y-118030924D01*
X105776483Y-118024625D01*
X105752074Y-118015892D01*
X105728639Y-118004808D01*
X105706403Y-117991480D01*
X105685581Y-117976037D01*
X105666372Y-117958628D01*
X105648963Y-117939419D01*
X105633520Y-117918597D01*
X105620192Y-117896361D01*
X105609108Y-117872926D01*
X105600375Y-117848517D01*
X105594076Y-117823370D01*
X105590272Y-117797727D01*
X105589000Y-117771834D01*
X105589000Y-114598166D01*
X105590272Y-114572273D01*
X105594076Y-114546630D01*
X105600375Y-114521483D01*
X105609108Y-114497074D01*
X105620192Y-114473639D01*
X105633520Y-114451403D01*
X105648963Y-114430581D01*
X105666372Y-114411372D01*
X105685581Y-114393963D01*
X105706403Y-114378520D01*
X105728639Y-114365192D01*
X105752074Y-114354108D01*
X105776483Y-114345375D01*
X105801630Y-114339076D01*
X105827273Y-114335272D01*
X105853166Y-114334000D01*
X107226834Y-114334000D01*
X107252727Y-114335272D01*
X107252727Y-114335272D01*
G37*
D16*
X106540000Y-116185000D03*
D24*
X103040000Y-116185000D03*
X99540000Y-116185000D03*
X96040000Y-116185000D03*
D25*
X69370000Y-76180000D03*
D26*
X64290000Y-76180000D03*
D27*
X73180000Y-113645000D03*
X80800000Y-108565000D03*
X73180000Y-111105000D03*
X80800000Y-111105000D03*
X73180000Y-108565000D03*
D28*
X80800000Y-113645000D03*
D12*
G36*
X50595727Y-118399274D02*
G01*
X50621370Y-118403078D01*
X50646517Y-118409377D01*
X50670926Y-118418110D01*
X50694361Y-118429194D01*
X50716597Y-118442522D01*
X50737419Y-118457965D01*
X50756628Y-118475374D01*
X50774037Y-118494583D01*
X50789480Y-118515405D01*
X50802808Y-118537641D01*
X50813892Y-118561076D01*
X50822625Y-118585485D01*
X50828924Y-118610632D01*
X50832728Y-118636275D01*
X50834000Y-118662168D01*
X50834000Y-121835836D01*
X50832728Y-121861729D01*
X50828924Y-121887372D01*
X50822625Y-121912519D01*
X50813892Y-121936928D01*
X50802808Y-121960363D01*
X50789480Y-121982599D01*
X50774037Y-122003421D01*
X50756628Y-122022630D01*
X50737419Y-122040039D01*
X50716597Y-122055482D01*
X50694361Y-122068810D01*
X50670926Y-122079894D01*
X50646517Y-122088627D01*
X50621370Y-122094926D01*
X50595727Y-122098730D01*
X50569834Y-122100002D01*
X49196166Y-122100002D01*
X49170273Y-122098730D01*
X49144630Y-122094926D01*
X49119483Y-122088627D01*
X49095074Y-122079894D01*
X49071639Y-122068810D01*
X49049403Y-122055482D01*
X49028581Y-122040039D01*
X49009372Y-122022630D01*
X48991963Y-122003421D01*
X48976520Y-121982599D01*
X48963192Y-121960363D01*
X48952108Y-121936928D01*
X48943375Y-121912519D01*
X48937076Y-121887372D01*
X48933272Y-121861729D01*
X48932000Y-121835836D01*
X48932000Y-118662168D01*
X48933272Y-118636275D01*
X48937076Y-118610632D01*
X48943375Y-118585485D01*
X48952108Y-118561076D01*
X48963192Y-118537641D01*
X48976520Y-118515405D01*
X48991963Y-118494583D01*
X49009372Y-118475374D01*
X49028581Y-118457965D01*
X49049403Y-118442522D01*
X49071639Y-118429194D01*
X49095074Y-118418110D01*
X49119483Y-118409377D01*
X49144630Y-118403078D01*
X49170273Y-118399274D01*
X49196166Y-118398002D01*
X50569834Y-118398002D01*
X50595727Y-118399274D01*
X50595727Y-118399274D01*
G37*
D16*
X49883000Y-120249002D03*
D24*
X46383000Y-120249002D03*
D12*
G36*
X222482725Y-51470274D02*
G01*
X222508368Y-51474078D01*
X222533515Y-51480377D01*
X222557924Y-51489110D01*
X222581359Y-51500194D01*
X222603595Y-51513522D01*
X222624417Y-51528965D01*
X222643626Y-51546374D01*
X222661035Y-51565583D01*
X222676478Y-51586405D01*
X222689806Y-51608641D01*
X222700890Y-51632076D01*
X222709623Y-51656485D01*
X222715922Y-51681632D01*
X222719726Y-51707275D01*
X222720998Y-51733168D01*
X222720998Y-54906836D01*
X222719726Y-54932729D01*
X222715922Y-54958372D01*
X222709623Y-54983519D01*
X222700890Y-55007928D01*
X222689806Y-55031363D01*
X222676478Y-55053599D01*
X222661035Y-55074421D01*
X222643626Y-55093630D01*
X222624417Y-55111039D01*
X222603595Y-55126482D01*
X222581359Y-55139810D01*
X222557924Y-55150894D01*
X222533515Y-55159627D01*
X222508368Y-55165926D01*
X222482725Y-55169730D01*
X222456832Y-55171002D01*
X221083164Y-55171002D01*
X221057271Y-55169730D01*
X221031628Y-55165926D01*
X221006481Y-55159627D01*
X220982072Y-55150894D01*
X220958637Y-55139810D01*
X220936401Y-55126482D01*
X220915579Y-55111039D01*
X220896370Y-55093630D01*
X220878961Y-55074421D01*
X220863518Y-55053599D01*
X220850190Y-55031363D01*
X220839106Y-55007928D01*
X220830373Y-54983519D01*
X220824074Y-54958372D01*
X220820270Y-54932729D01*
X220818998Y-54906836D01*
X220818998Y-51733168D01*
X220820270Y-51707275D01*
X220824074Y-51681632D01*
X220830373Y-51656485D01*
X220839106Y-51632076D01*
X220850190Y-51608641D01*
X220863518Y-51586405D01*
X220878961Y-51565583D01*
X220896370Y-51546374D01*
X220915579Y-51528965D01*
X220936401Y-51513522D01*
X220958637Y-51500194D01*
X220982072Y-51489110D01*
X221006481Y-51480377D01*
X221031628Y-51474078D01*
X221057271Y-51470274D01*
X221083164Y-51469002D01*
X222456832Y-51469002D01*
X222482725Y-51470274D01*
X222482725Y-51470274D01*
G37*
D16*
X221769998Y-53320002D03*
D24*
X218269998Y-53320002D03*
X214769998Y-53320002D03*
X211269998Y-53320002D03*
D12*
G36*
X200257728Y-114970274D02*
G01*
X200283371Y-114974078D01*
X200308518Y-114980377D01*
X200332927Y-114989110D01*
X200356362Y-115000194D01*
X200378598Y-115013522D01*
X200399420Y-115028965D01*
X200418629Y-115046374D01*
X200436038Y-115065583D01*
X200451481Y-115086405D01*
X200464809Y-115108641D01*
X200475893Y-115132076D01*
X200484626Y-115156485D01*
X200490925Y-115181632D01*
X200494729Y-115207275D01*
X200496001Y-115233168D01*
X200496001Y-118406836D01*
X200494729Y-118432729D01*
X200490925Y-118458372D01*
X200484626Y-118483519D01*
X200475893Y-118507928D01*
X200464809Y-118531363D01*
X200451481Y-118553599D01*
X200436038Y-118574421D01*
X200418629Y-118593630D01*
X200399420Y-118611039D01*
X200378598Y-118626482D01*
X200356362Y-118639810D01*
X200332927Y-118650894D01*
X200308518Y-118659627D01*
X200283371Y-118665926D01*
X200257728Y-118669730D01*
X200231835Y-118671002D01*
X198858167Y-118671002D01*
X198832274Y-118669730D01*
X198806631Y-118665926D01*
X198781484Y-118659627D01*
X198757075Y-118650894D01*
X198733640Y-118639810D01*
X198711404Y-118626482D01*
X198690582Y-118611039D01*
X198671373Y-118593630D01*
X198653964Y-118574421D01*
X198638521Y-118553599D01*
X198625193Y-118531363D01*
X198614109Y-118507928D01*
X198605376Y-118483519D01*
X198599077Y-118458372D01*
X198595273Y-118432729D01*
X198594001Y-118406836D01*
X198594001Y-115233168D01*
X198595273Y-115207275D01*
X198599077Y-115181632D01*
X198605376Y-115156485D01*
X198614109Y-115132076D01*
X198625193Y-115108641D01*
X198638521Y-115086405D01*
X198653964Y-115065583D01*
X198671373Y-115046374D01*
X198690582Y-115028965D01*
X198711404Y-115013522D01*
X198733640Y-115000194D01*
X198757075Y-114989110D01*
X198781484Y-114980377D01*
X198806631Y-114974078D01*
X198832274Y-114970274D01*
X198858167Y-114969002D01*
X200231835Y-114969002D01*
X200257728Y-114970274D01*
X200257728Y-114970274D01*
G37*
D16*
X199545001Y-116820002D03*
D24*
X196045001Y-116820002D03*
X192545001Y-116820002D03*
X189045001Y-116820002D03*
D12*
G36*
X222482725Y-114970272D02*
G01*
X222508368Y-114974076D01*
X222533515Y-114980375D01*
X222557924Y-114989108D01*
X222581359Y-115000192D01*
X222603595Y-115013520D01*
X222624417Y-115028963D01*
X222643626Y-115046372D01*
X222661035Y-115065581D01*
X222676478Y-115086403D01*
X222689806Y-115108639D01*
X222700890Y-115132074D01*
X222709623Y-115156483D01*
X222715922Y-115181630D01*
X222719726Y-115207273D01*
X222720998Y-115233166D01*
X222720998Y-118406834D01*
X222719726Y-118432727D01*
X222715922Y-118458370D01*
X222709623Y-118483517D01*
X222700890Y-118507926D01*
X222689806Y-118531361D01*
X222676478Y-118553597D01*
X222661035Y-118574419D01*
X222643626Y-118593628D01*
X222624417Y-118611037D01*
X222603595Y-118626480D01*
X222581359Y-118639808D01*
X222557924Y-118650892D01*
X222533515Y-118659625D01*
X222508368Y-118665924D01*
X222482725Y-118669728D01*
X222456832Y-118671000D01*
X221083164Y-118671000D01*
X221057271Y-118669728D01*
X221031628Y-118665924D01*
X221006481Y-118659625D01*
X220982072Y-118650892D01*
X220958637Y-118639808D01*
X220936401Y-118626480D01*
X220915579Y-118611037D01*
X220896370Y-118593628D01*
X220878961Y-118574419D01*
X220863518Y-118553597D01*
X220850190Y-118531361D01*
X220839106Y-118507926D01*
X220830373Y-118483517D01*
X220824074Y-118458370D01*
X220820270Y-118432727D01*
X220818998Y-118406834D01*
X220818998Y-115233166D01*
X220820270Y-115207273D01*
X220824074Y-115181630D01*
X220830373Y-115156483D01*
X220839106Y-115132074D01*
X220850190Y-115108639D01*
X220863518Y-115086403D01*
X220878961Y-115065581D01*
X220896370Y-115046372D01*
X220915579Y-115028963D01*
X220936401Y-115013520D01*
X220958637Y-115000192D01*
X220982072Y-114989108D01*
X221006481Y-114980375D01*
X221031628Y-114974076D01*
X221057271Y-114970272D01*
X221083164Y-114969000D01*
X222456832Y-114969000D01*
X222482725Y-114970272D01*
X222482725Y-114970272D01*
G37*
D16*
X221769998Y-116820000D03*
D24*
X218269998Y-116820000D03*
X214769998Y-116820000D03*
X211269998Y-116820000D03*
D12*
G36*
X200257727Y-83220273D02*
G01*
X200283370Y-83224077D01*
X200308517Y-83230376D01*
X200332926Y-83239109D01*
X200356361Y-83250193D01*
X200378597Y-83263521D01*
X200399419Y-83278964D01*
X200418628Y-83296373D01*
X200436037Y-83315582D01*
X200451480Y-83336404D01*
X200464808Y-83358640D01*
X200475892Y-83382075D01*
X200484625Y-83406484D01*
X200490924Y-83431631D01*
X200494728Y-83457274D01*
X200496000Y-83483167D01*
X200496000Y-86656835D01*
X200494728Y-86682728D01*
X200490924Y-86708371D01*
X200484625Y-86733518D01*
X200475892Y-86757927D01*
X200464808Y-86781362D01*
X200451480Y-86803598D01*
X200436037Y-86824420D01*
X200418628Y-86843629D01*
X200399419Y-86861038D01*
X200378597Y-86876481D01*
X200356361Y-86889809D01*
X200332926Y-86900893D01*
X200308517Y-86909626D01*
X200283370Y-86915925D01*
X200257727Y-86919729D01*
X200231834Y-86921001D01*
X198858166Y-86921001D01*
X198832273Y-86919729D01*
X198806630Y-86915925D01*
X198781483Y-86909626D01*
X198757074Y-86900893D01*
X198733639Y-86889809D01*
X198711403Y-86876481D01*
X198690581Y-86861038D01*
X198671372Y-86843629D01*
X198653963Y-86824420D01*
X198638520Y-86803598D01*
X198625192Y-86781362D01*
X198614108Y-86757927D01*
X198605375Y-86733518D01*
X198599076Y-86708371D01*
X198595272Y-86682728D01*
X198594000Y-86656835D01*
X198594000Y-83483167D01*
X198595272Y-83457274D01*
X198599076Y-83431631D01*
X198605375Y-83406484D01*
X198614108Y-83382075D01*
X198625192Y-83358640D01*
X198638520Y-83336404D01*
X198653963Y-83315582D01*
X198671372Y-83296373D01*
X198690581Y-83278964D01*
X198711403Y-83263521D01*
X198733639Y-83250193D01*
X198757074Y-83239109D01*
X198781483Y-83230376D01*
X198806630Y-83224077D01*
X198832273Y-83220273D01*
X198858166Y-83219001D01*
X200231834Y-83219001D01*
X200257727Y-83220273D01*
X200257727Y-83220273D01*
G37*
D16*
X199545000Y-85070001D03*
D24*
X196045000Y-85070001D03*
X192545000Y-85070001D03*
X189045000Y-85070001D03*
D12*
G36*
X200257727Y-51470272D02*
G01*
X200283370Y-51474076D01*
X200308517Y-51480375D01*
X200332926Y-51489108D01*
X200356361Y-51500192D01*
X200378597Y-51513520D01*
X200399419Y-51528963D01*
X200418628Y-51546372D01*
X200436037Y-51565581D01*
X200451480Y-51586403D01*
X200464808Y-51608639D01*
X200475892Y-51632074D01*
X200484625Y-51656483D01*
X200490924Y-51681630D01*
X200494728Y-51707273D01*
X200496000Y-51733166D01*
X200496000Y-54906834D01*
X200494728Y-54932727D01*
X200490924Y-54958370D01*
X200484625Y-54983517D01*
X200475892Y-55007926D01*
X200464808Y-55031361D01*
X200451480Y-55053597D01*
X200436037Y-55074419D01*
X200418628Y-55093628D01*
X200399419Y-55111037D01*
X200378597Y-55126480D01*
X200356361Y-55139808D01*
X200332926Y-55150892D01*
X200308517Y-55159625D01*
X200283370Y-55165924D01*
X200257727Y-55169728D01*
X200231834Y-55171000D01*
X198858166Y-55171000D01*
X198832273Y-55169728D01*
X198806630Y-55165924D01*
X198781483Y-55159625D01*
X198757074Y-55150892D01*
X198733639Y-55139808D01*
X198711403Y-55126480D01*
X198690581Y-55111037D01*
X198671372Y-55093628D01*
X198653963Y-55074419D01*
X198638520Y-55053597D01*
X198625192Y-55031361D01*
X198614108Y-55007926D01*
X198605375Y-54983517D01*
X198599076Y-54958370D01*
X198595272Y-54932727D01*
X198594000Y-54906834D01*
X198594000Y-51733166D01*
X198595272Y-51707273D01*
X198599076Y-51681630D01*
X198605375Y-51656483D01*
X198614108Y-51632074D01*
X198625192Y-51608639D01*
X198638520Y-51586403D01*
X198653963Y-51565581D01*
X198671372Y-51546372D01*
X198690581Y-51528963D01*
X198711403Y-51513520D01*
X198733639Y-51500192D01*
X198757074Y-51489108D01*
X198781483Y-51480375D01*
X198806630Y-51474076D01*
X198832273Y-51470272D01*
X198858166Y-51469000D01*
X200231834Y-51469000D01*
X200257727Y-51470272D01*
X200257727Y-51470272D01*
G37*
D16*
X199545000Y-53320000D03*
D24*
X196045000Y-53320000D03*
X192545000Y-53320000D03*
X189045000Y-53320000D03*
D12*
G36*
X222482726Y-83220270D02*
G01*
X222508369Y-83224074D01*
X222533516Y-83230373D01*
X222557925Y-83239106D01*
X222581360Y-83250190D01*
X222603596Y-83263518D01*
X222624418Y-83278961D01*
X222643627Y-83296370D01*
X222661036Y-83315579D01*
X222676479Y-83336401D01*
X222689807Y-83358637D01*
X222700891Y-83382072D01*
X222709624Y-83406481D01*
X222715923Y-83431628D01*
X222719727Y-83457271D01*
X222720999Y-83483164D01*
X222720999Y-86656832D01*
X222719727Y-86682725D01*
X222715923Y-86708368D01*
X222709624Y-86733515D01*
X222700891Y-86757924D01*
X222689807Y-86781359D01*
X222676479Y-86803595D01*
X222661036Y-86824417D01*
X222643627Y-86843626D01*
X222624418Y-86861035D01*
X222603596Y-86876478D01*
X222581360Y-86889806D01*
X222557925Y-86900890D01*
X222533516Y-86909623D01*
X222508369Y-86915922D01*
X222482726Y-86919726D01*
X222456833Y-86920998D01*
X221083165Y-86920998D01*
X221057272Y-86919726D01*
X221031629Y-86915922D01*
X221006482Y-86909623D01*
X220982073Y-86900890D01*
X220958638Y-86889806D01*
X220936402Y-86876478D01*
X220915580Y-86861035D01*
X220896371Y-86843626D01*
X220878962Y-86824417D01*
X220863519Y-86803595D01*
X220850191Y-86781359D01*
X220839107Y-86757924D01*
X220830374Y-86733515D01*
X220824075Y-86708368D01*
X220820271Y-86682725D01*
X220818999Y-86656832D01*
X220818999Y-83483164D01*
X220820271Y-83457271D01*
X220824075Y-83431628D01*
X220830374Y-83406481D01*
X220839107Y-83382072D01*
X220850191Y-83358637D01*
X220863519Y-83336401D01*
X220878962Y-83315579D01*
X220896371Y-83296370D01*
X220915580Y-83278961D01*
X220936402Y-83263518D01*
X220958638Y-83250190D01*
X220982073Y-83239106D01*
X221006482Y-83230373D01*
X221031629Y-83224074D01*
X221057272Y-83220270D01*
X221083165Y-83218998D01*
X222456833Y-83218998D01*
X222482726Y-83220270D01*
X222482726Y-83220270D01*
G37*
D16*
X221769999Y-85069998D03*
D24*
X218269999Y-85069998D03*
X214769999Y-85069998D03*
X211269999Y-85069998D03*
D12*
G36*
X139435726Y-66960275D02*
G01*
X139461369Y-66964079D01*
X139486516Y-66970378D01*
X139510925Y-66979111D01*
X139534360Y-66990195D01*
X139556596Y-67003523D01*
X139577418Y-67018966D01*
X139596627Y-67036375D01*
X139614036Y-67055584D01*
X139629479Y-67076406D01*
X139642807Y-67098642D01*
X139653891Y-67122077D01*
X139662624Y-67146486D01*
X139668923Y-67171633D01*
X139672727Y-67197276D01*
X139673999Y-67223169D01*
X139673999Y-68596837D01*
X139672727Y-68622730D01*
X139668923Y-68648373D01*
X139662624Y-68673520D01*
X139653891Y-68697929D01*
X139642807Y-68721364D01*
X139629479Y-68743600D01*
X139614036Y-68764422D01*
X139596627Y-68783631D01*
X139577418Y-68801040D01*
X139556596Y-68816483D01*
X139534360Y-68829811D01*
X139510925Y-68840895D01*
X139486516Y-68849628D01*
X139461369Y-68855927D01*
X139435726Y-68859731D01*
X139409833Y-68861003D01*
X136236165Y-68861003D01*
X136210272Y-68859731D01*
X136184629Y-68855927D01*
X136159482Y-68849628D01*
X136135073Y-68840895D01*
X136111638Y-68829811D01*
X136089402Y-68816483D01*
X136068580Y-68801040D01*
X136049371Y-68783631D01*
X136031962Y-68764422D01*
X136016519Y-68743600D01*
X136003191Y-68721364D01*
X135992107Y-68697929D01*
X135983374Y-68673520D01*
X135977075Y-68648373D01*
X135973271Y-68622730D01*
X135971999Y-68596837D01*
X135971999Y-67223169D01*
X135973271Y-67197276D01*
X135977075Y-67171633D01*
X135983374Y-67146486D01*
X135992107Y-67122077D01*
X136003191Y-67098642D01*
X136016519Y-67076406D01*
X136031962Y-67055584D01*
X136049371Y-67036375D01*
X136068580Y-67018966D01*
X136089402Y-67003523D01*
X136111638Y-66990195D01*
X136135073Y-66979111D01*
X136159482Y-66970378D01*
X136184629Y-66964079D01*
X136210272Y-66960275D01*
X136236165Y-66959003D01*
X139409833Y-66959003D01*
X139435726Y-66960275D01*
X139435726Y-66960275D01*
G37*
D16*
X137822999Y-67910003D03*
D29*
X137822999Y-71410003D03*
X137822999Y-74910003D03*
X137822999Y-78410003D03*
D12*
G36*
X143182227Y-96297274D02*
G01*
X143207870Y-96301078D01*
X143233017Y-96307377D01*
X143257426Y-96316110D01*
X143280861Y-96327194D01*
X143303097Y-96340522D01*
X143323919Y-96355965D01*
X143343128Y-96373374D01*
X143360537Y-96392583D01*
X143375980Y-96413405D01*
X143389308Y-96435641D01*
X143400392Y-96459076D01*
X143409125Y-96483485D01*
X143415424Y-96508632D01*
X143419228Y-96534275D01*
X143420500Y-96560168D01*
X143420500Y-97933836D01*
X143419228Y-97959729D01*
X143415424Y-97985372D01*
X143409125Y-98010519D01*
X143400392Y-98034928D01*
X143389308Y-98058363D01*
X143375980Y-98080599D01*
X143360537Y-98101421D01*
X143343128Y-98120630D01*
X143323919Y-98138039D01*
X143303097Y-98153482D01*
X143280861Y-98166810D01*
X143257426Y-98177894D01*
X143233017Y-98186627D01*
X143207870Y-98192926D01*
X143182227Y-98196730D01*
X143156334Y-98198002D01*
X139982666Y-98198002D01*
X139956773Y-98196730D01*
X139931130Y-98192926D01*
X139905983Y-98186627D01*
X139881574Y-98177894D01*
X139858139Y-98166810D01*
X139835903Y-98153482D01*
X139815081Y-98138039D01*
X139795872Y-98120630D01*
X139778463Y-98101421D01*
X139763020Y-98080599D01*
X139749692Y-98058363D01*
X139738608Y-98034928D01*
X139729875Y-98010519D01*
X139723576Y-97985372D01*
X139719772Y-97959729D01*
X139718500Y-97933836D01*
X139718500Y-96560168D01*
X139719772Y-96534275D01*
X139723576Y-96508632D01*
X139729875Y-96483485D01*
X139738608Y-96459076D01*
X139749692Y-96435641D01*
X139763020Y-96413405D01*
X139778463Y-96392583D01*
X139795872Y-96373374D01*
X139815081Y-96355965D01*
X139835903Y-96340522D01*
X139858139Y-96327194D01*
X139881574Y-96316110D01*
X139905983Y-96307377D01*
X139931130Y-96301078D01*
X139956773Y-96297274D01*
X139982666Y-96296002D01*
X143156334Y-96296002D01*
X143182227Y-96297274D01*
X143182227Y-96297274D01*
G37*
D16*
X141569500Y-97247002D03*
D29*
X141569500Y-100747002D03*
X141569500Y-104247002D03*
D12*
G36*
X143182224Y-83597270D02*
G01*
X143207867Y-83601074D01*
X143233014Y-83607373D01*
X143257423Y-83616106D01*
X143280858Y-83627190D01*
X143303094Y-83640518D01*
X143323916Y-83655961D01*
X143343125Y-83673370D01*
X143360534Y-83692579D01*
X143375977Y-83713401D01*
X143389305Y-83735637D01*
X143400389Y-83759072D01*
X143409122Y-83783481D01*
X143415421Y-83808628D01*
X143419225Y-83834271D01*
X143420497Y-83860164D01*
X143420497Y-85233832D01*
X143419225Y-85259725D01*
X143415421Y-85285368D01*
X143409122Y-85310515D01*
X143400389Y-85334924D01*
X143389305Y-85358359D01*
X143375977Y-85380595D01*
X143360534Y-85401417D01*
X143343125Y-85420626D01*
X143323916Y-85438035D01*
X143303094Y-85453478D01*
X143280858Y-85466806D01*
X143257423Y-85477890D01*
X143233014Y-85486623D01*
X143207867Y-85492922D01*
X143182224Y-85496726D01*
X143156331Y-85497998D01*
X139982663Y-85497998D01*
X139956770Y-85496726D01*
X139931127Y-85492922D01*
X139905980Y-85486623D01*
X139881571Y-85477890D01*
X139858136Y-85466806D01*
X139835900Y-85453478D01*
X139815078Y-85438035D01*
X139795869Y-85420626D01*
X139778460Y-85401417D01*
X139763017Y-85380595D01*
X139749689Y-85358359D01*
X139738605Y-85334924D01*
X139729872Y-85310515D01*
X139723573Y-85285368D01*
X139719769Y-85259725D01*
X139718497Y-85233832D01*
X139718497Y-83860164D01*
X139719769Y-83834271D01*
X139723573Y-83808628D01*
X139729872Y-83783481D01*
X139738605Y-83759072D01*
X139749689Y-83735637D01*
X139763017Y-83713401D01*
X139778460Y-83692579D01*
X139795869Y-83673370D01*
X139815078Y-83655961D01*
X139835900Y-83640518D01*
X139858136Y-83627190D01*
X139881571Y-83616106D01*
X139905980Y-83607373D01*
X139931127Y-83601074D01*
X139956770Y-83597270D01*
X139982663Y-83595998D01*
X143156331Y-83595998D01*
X143182224Y-83597270D01*
X143182224Y-83597270D01*
G37*
D16*
X141569497Y-84546998D03*
D29*
X141569497Y-88046998D03*
X141569497Y-91546998D03*
D12*
G36*
X166677227Y-96312273D02*
G01*
X166702870Y-96316077D01*
X166728017Y-96322376D01*
X166752426Y-96331109D01*
X166775861Y-96342193D01*
X166798097Y-96355521D01*
X166818919Y-96370964D01*
X166838128Y-96388373D01*
X166855537Y-96407582D01*
X166870980Y-96428404D01*
X166884308Y-96450640D01*
X166895392Y-96474075D01*
X166904125Y-96498484D01*
X166910424Y-96523631D01*
X166914228Y-96549274D01*
X166915500Y-96575167D01*
X166915500Y-97948835D01*
X166914228Y-97974728D01*
X166910424Y-98000371D01*
X166904125Y-98025518D01*
X166895392Y-98049927D01*
X166884308Y-98073362D01*
X166870980Y-98095598D01*
X166855537Y-98116420D01*
X166838128Y-98135629D01*
X166818919Y-98153038D01*
X166798097Y-98168481D01*
X166775861Y-98181809D01*
X166752426Y-98192893D01*
X166728017Y-98201626D01*
X166702870Y-98207925D01*
X166677227Y-98211729D01*
X166651334Y-98213001D01*
X163477666Y-98213001D01*
X163451773Y-98211729D01*
X163426130Y-98207925D01*
X163400983Y-98201626D01*
X163376574Y-98192893D01*
X163353139Y-98181809D01*
X163330903Y-98168481D01*
X163310081Y-98153038D01*
X163290872Y-98135629D01*
X163273463Y-98116420D01*
X163258020Y-98095598D01*
X163244692Y-98073362D01*
X163233608Y-98049927D01*
X163224875Y-98025518D01*
X163218576Y-98000371D01*
X163214772Y-97974728D01*
X163213500Y-97948835D01*
X163213500Y-96575167D01*
X163214772Y-96549274D01*
X163218576Y-96523631D01*
X163224875Y-96498484D01*
X163233608Y-96474075D01*
X163244692Y-96450640D01*
X163258020Y-96428404D01*
X163273463Y-96407582D01*
X163290872Y-96388373D01*
X163310081Y-96370964D01*
X163330903Y-96355521D01*
X163353139Y-96342193D01*
X163376574Y-96331109D01*
X163400983Y-96322376D01*
X163426130Y-96316077D01*
X163451773Y-96312273D01*
X163477666Y-96311001D01*
X166651334Y-96311001D01*
X166677227Y-96312273D01*
X166677227Y-96312273D01*
G37*
D16*
X165064500Y-97262001D03*
D29*
X165064500Y-100762001D03*
X165064500Y-104262001D03*
D12*
G36*
X166677227Y-83597272D02*
G01*
X166702870Y-83601076D01*
X166728017Y-83607375D01*
X166752426Y-83616108D01*
X166775861Y-83627192D01*
X166798097Y-83640520D01*
X166818919Y-83655963D01*
X166838128Y-83673372D01*
X166855537Y-83692581D01*
X166870980Y-83713403D01*
X166884308Y-83735639D01*
X166895392Y-83759074D01*
X166904125Y-83783483D01*
X166910424Y-83808630D01*
X166914228Y-83834273D01*
X166915500Y-83860166D01*
X166915500Y-85233834D01*
X166914228Y-85259727D01*
X166910424Y-85285370D01*
X166904125Y-85310517D01*
X166895392Y-85334926D01*
X166884308Y-85358361D01*
X166870980Y-85380597D01*
X166855537Y-85401419D01*
X166838128Y-85420628D01*
X166818919Y-85438037D01*
X166798097Y-85453480D01*
X166775861Y-85466808D01*
X166752426Y-85477892D01*
X166728017Y-85486625D01*
X166702870Y-85492924D01*
X166677227Y-85496728D01*
X166651334Y-85498000D01*
X163477666Y-85498000D01*
X163451773Y-85496728D01*
X163426130Y-85492924D01*
X163400983Y-85486625D01*
X163376574Y-85477892D01*
X163353139Y-85466808D01*
X163330903Y-85453480D01*
X163310081Y-85438037D01*
X163290872Y-85420628D01*
X163273463Y-85401419D01*
X163258020Y-85380597D01*
X163244692Y-85358361D01*
X163233608Y-85334926D01*
X163224875Y-85310517D01*
X163218576Y-85285370D01*
X163214772Y-85259727D01*
X163213500Y-85233834D01*
X163213500Y-83860166D01*
X163214772Y-83834273D01*
X163218576Y-83808630D01*
X163224875Y-83783483D01*
X163233608Y-83759074D01*
X163244692Y-83735639D01*
X163258020Y-83713403D01*
X163273463Y-83692581D01*
X163290872Y-83673372D01*
X163310081Y-83655963D01*
X163330903Y-83640520D01*
X163353139Y-83627192D01*
X163376574Y-83616108D01*
X163400983Y-83607375D01*
X163426130Y-83601076D01*
X163451773Y-83597272D01*
X163477666Y-83596000D01*
X166651334Y-83596000D01*
X166677227Y-83597272D01*
X166677227Y-83597272D01*
G37*
D16*
X165064500Y-84547000D03*
D29*
X165064500Y-88047000D03*
X165064500Y-91547000D03*
D12*
G36*
X47095727Y-72679274D02*
G01*
X47121370Y-72683078D01*
X47146517Y-72689377D01*
X47170926Y-72698110D01*
X47194361Y-72709194D01*
X47216597Y-72722522D01*
X47237419Y-72737965D01*
X47256628Y-72755374D01*
X47274037Y-72774583D01*
X47289480Y-72795405D01*
X47302808Y-72817641D01*
X47313892Y-72841076D01*
X47322625Y-72865485D01*
X47328924Y-72890632D01*
X47332728Y-72916275D01*
X47334000Y-72942168D01*
X47334000Y-76115836D01*
X47332728Y-76141729D01*
X47328924Y-76167372D01*
X47322625Y-76192519D01*
X47313892Y-76216928D01*
X47302808Y-76240363D01*
X47289480Y-76262599D01*
X47274037Y-76283421D01*
X47256628Y-76302630D01*
X47237419Y-76320039D01*
X47216597Y-76335482D01*
X47194361Y-76348810D01*
X47170926Y-76359894D01*
X47146517Y-76368627D01*
X47121370Y-76374926D01*
X47095727Y-76378730D01*
X47069834Y-76380002D01*
X45696166Y-76380002D01*
X45670273Y-76378730D01*
X45644630Y-76374926D01*
X45619483Y-76368627D01*
X45595074Y-76359894D01*
X45571639Y-76348810D01*
X45549403Y-76335482D01*
X45528581Y-76320039D01*
X45509372Y-76302630D01*
X45491963Y-76283421D01*
X45476520Y-76262599D01*
X45463192Y-76240363D01*
X45452108Y-76216928D01*
X45443375Y-76192519D01*
X45437076Y-76167372D01*
X45433272Y-76141729D01*
X45432000Y-76115836D01*
X45432000Y-72942168D01*
X45433272Y-72916275D01*
X45437076Y-72890632D01*
X45443375Y-72865485D01*
X45452108Y-72841076D01*
X45463192Y-72817641D01*
X45476520Y-72795405D01*
X45491963Y-72774583D01*
X45509372Y-72755374D01*
X45528581Y-72737965D01*
X45549403Y-72722522D01*
X45571639Y-72709194D01*
X45595074Y-72698110D01*
X45619483Y-72689377D01*
X45644630Y-72683078D01*
X45670273Y-72679274D01*
X45696166Y-72678002D01*
X47069834Y-72678002D01*
X47095727Y-72679274D01*
X47095727Y-72679274D01*
G37*
D16*
X46383000Y-74529002D03*
D24*
X49883000Y-74529002D03*
D12*
G36*
X175493725Y-74270273D02*
G01*
X175519368Y-74274077D01*
X175544515Y-74280376D01*
X175568924Y-74289109D01*
X175592359Y-74300193D01*
X175614595Y-74313521D01*
X175635417Y-74328964D01*
X175654626Y-74346373D01*
X175672035Y-74365582D01*
X175687478Y-74386404D01*
X175700806Y-74408640D01*
X175711890Y-74432075D01*
X175720623Y-74456484D01*
X175726922Y-74481631D01*
X175730726Y-74507274D01*
X175731998Y-74533167D01*
X175731998Y-75906835D01*
X175730726Y-75932728D01*
X175726922Y-75958371D01*
X175720623Y-75983518D01*
X175711890Y-76007927D01*
X175700806Y-76031362D01*
X175687478Y-76053598D01*
X175672035Y-76074420D01*
X175654626Y-76093629D01*
X175635417Y-76111038D01*
X175614595Y-76126481D01*
X175592359Y-76139809D01*
X175568924Y-76150893D01*
X175544515Y-76159626D01*
X175519368Y-76165925D01*
X175493725Y-76169729D01*
X175467832Y-76171001D01*
X172294164Y-76171001D01*
X172268271Y-76169729D01*
X172242628Y-76165925D01*
X172217481Y-76159626D01*
X172193072Y-76150893D01*
X172169637Y-76139809D01*
X172147401Y-76126481D01*
X172126579Y-76111038D01*
X172107370Y-76093629D01*
X172089961Y-76074420D01*
X172074518Y-76053598D01*
X172061190Y-76031362D01*
X172050106Y-76007927D01*
X172041373Y-75983518D01*
X172035074Y-75958371D01*
X172031270Y-75932728D01*
X172029998Y-75906835D01*
X172029998Y-74533167D01*
X172031270Y-74507274D01*
X172035074Y-74481631D01*
X172041373Y-74456484D01*
X172050106Y-74432075D01*
X172061190Y-74408640D01*
X172074518Y-74386404D01*
X172089961Y-74365582D01*
X172107370Y-74346373D01*
X172126579Y-74328964D01*
X172147401Y-74313521D01*
X172169637Y-74300193D01*
X172193072Y-74289109D01*
X172217481Y-74280376D01*
X172242628Y-74274077D01*
X172268271Y-74270273D01*
X172294164Y-74269001D01*
X175467832Y-74269001D01*
X175493725Y-74270273D01*
X175493725Y-74270273D01*
G37*
D16*
X173880998Y-75220001D03*
D29*
X173880998Y-78720001D03*
D12*
G36*
X175493728Y-64745271D02*
G01*
X175519371Y-64749075D01*
X175544518Y-64755374D01*
X175568927Y-64764107D01*
X175592362Y-64775191D01*
X175614598Y-64788519D01*
X175635420Y-64803962D01*
X175654629Y-64821371D01*
X175672038Y-64840580D01*
X175687481Y-64861402D01*
X175700809Y-64883638D01*
X175711893Y-64907073D01*
X175720626Y-64931482D01*
X175726925Y-64956629D01*
X175730729Y-64982272D01*
X175732001Y-65008165D01*
X175732001Y-66381833D01*
X175730729Y-66407726D01*
X175726925Y-66433369D01*
X175720626Y-66458516D01*
X175711893Y-66482925D01*
X175700809Y-66506360D01*
X175687481Y-66528596D01*
X175672038Y-66549418D01*
X175654629Y-66568627D01*
X175635420Y-66586036D01*
X175614598Y-66601479D01*
X175592362Y-66614807D01*
X175568927Y-66625891D01*
X175544518Y-66634624D01*
X175519371Y-66640923D01*
X175493728Y-66644727D01*
X175467835Y-66645999D01*
X172294167Y-66645999D01*
X172268274Y-66644727D01*
X172242631Y-66640923D01*
X172217484Y-66634624D01*
X172193075Y-66625891D01*
X172169640Y-66614807D01*
X172147404Y-66601479D01*
X172126582Y-66586036D01*
X172107373Y-66568627D01*
X172089964Y-66549418D01*
X172074521Y-66528596D01*
X172061193Y-66506360D01*
X172050109Y-66482925D01*
X172041376Y-66458516D01*
X172035077Y-66433369D01*
X172031273Y-66407726D01*
X172030001Y-66381833D01*
X172030001Y-65008165D01*
X172031273Y-64982272D01*
X172035077Y-64956629D01*
X172041376Y-64931482D01*
X172050109Y-64907073D01*
X172061193Y-64883638D01*
X172074521Y-64861402D01*
X172089964Y-64840580D01*
X172107373Y-64821371D01*
X172126582Y-64803962D01*
X172147404Y-64788519D01*
X172169640Y-64775191D01*
X172193075Y-64764107D01*
X172217484Y-64755374D01*
X172242631Y-64749075D01*
X172268274Y-64745271D01*
X172294167Y-64743999D01*
X175467835Y-64743999D01*
X175493728Y-64745271D01*
X175493728Y-64745271D01*
G37*
D16*
X173881001Y-65694999D03*
D29*
X173881001Y-69194999D03*
D12*
G36*
X50595727Y-95539272D02*
G01*
X50621370Y-95543076D01*
X50646517Y-95549375D01*
X50670926Y-95558108D01*
X50694361Y-95569192D01*
X50716597Y-95582520D01*
X50737419Y-95597963D01*
X50756628Y-95615372D01*
X50774037Y-95634581D01*
X50789480Y-95655403D01*
X50802808Y-95677639D01*
X50813892Y-95701074D01*
X50822625Y-95725483D01*
X50828924Y-95750630D01*
X50832728Y-95776273D01*
X50834000Y-95802166D01*
X50834000Y-98975834D01*
X50832728Y-99001727D01*
X50828924Y-99027370D01*
X50822625Y-99052517D01*
X50813892Y-99076926D01*
X50802808Y-99100361D01*
X50789480Y-99122597D01*
X50774037Y-99143419D01*
X50756628Y-99162628D01*
X50737419Y-99180037D01*
X50716597Y-99195480D01*
X50694361Y-99208808D01*
X50670926Y-99219892D01*
X50646517Y-99228625D01*
X50621370Y-99234924D01*
X50595727Y-99238728D01*
X50569834Y-99240000D01*
X49196166Y-99240000D01*
X49170273Y-99238728D01*
X49144630Y-99234924D01*
X49119483Y-99228625D01*
X49095074Y-99219892D01*
X49071639Y-99208808D01*
X49049403Y-99195480D01*
X49028581Y-99180037D01*
X49009372Y-99162628D01*
X48991963Y-99143419D01*
X48976520Y-99122597D01*
X48963192Y-99100361D01*
X48952108Y-99076926D01*
X48943375Y-99052517D01*
X48937076Y-99027370D01*
X48933272Y-99001727D01*
X48932000Y-98975834D01*
X48932000Y-95802166D01*
X48933272Y-95776273D01*
X48937076Y-95750630D01*
X48943375Y-95725483D01*
X48952108Y-95701074D01*
X48963192Y-95677639D01*
X48976520Y-95655403D01*
X48991963Y-95634581D01*
X49009372Y-95615372D01*
X49028581Y-95597963D01*
X49049403Y-95582520D01*
X49071639Y-95569192D01*
X49095074Y-95558108D01*
X49119483Y-95549375D01*
X49144630Y-95543076D01*
X49170273Y-95539272D01*
X49196166Y-95538000D01*
X50569834Y-95538000D01*
X50595727Y-95539272D01*
X50595727Y-95539272D01*
G37*
D16*
X49883000Y-97389000D03*
D24*
X46383000Y-97389000D03*
D12*
G36*
X121263727Y-114335272D02*
G01*
X121289370Y-114339076D01*
X121314517Y-114345375D01*
X121338926Y-114354108D01*
X121362361Y-114365192D01*
X121384597Y-114378520D01*
X121405419Y-114393963D01*
X121424628Y-114411372D01*
X121442037Y-114430581D01*
X121457480Y-114451403D01*
X121470808Y-114473639D01*
X121481892Y-114497074D01*
X121490625Y-114521483D01*
X121496924Y-114546630D01*
X121500728Y-114572273D01*
X121502000Y-114598166D01*
X121502000Y-117771834D01*
X121500728Y-117797727D01*
X121496924Y-117823370D01*
X121490625Y-117848517D01*
X121481892Y-117872926D01*
X121470808Y-117896361D01*
X121457480Y-117918597D01*
X121442037Y-117939419D01*
X121424628Y-117958628D01*
X121405419Y-117976037D01*
X121384597Y-117991480D01*
X121362361Y-118004808D01*
X121338926Y-118015892D01*
X121314517Y-118024625D01*
X121289370Y-118030924D01*
X121263727Y-118034728D01*
X121237834Y-118036000D01*
X119864166Y-118036000D01*
X119838273Y-118034728D01*
X119812630Y-118030924D01*
X119787483Y-118024625D01*
X119763074Y-118015892D01*
X119739639Y-118004808D01*
X119717403Y-117991480D01*
X119696581Y-117976037D01*
X119677372Y-117958628D01*
X119659963Y-117939419D01*
X119644520Y-117918597D01*
X119631192Y-117896361D01*
X119620108Y-117872926D01*
X119611375Y-117848517D01*
X119605076Y-117823370D01*
X119601272Y-117797727D01*
X119600000Y-117771834D01*
X119600000Y-114598166D01*
X119601272Y-114572273D01*
X119605076Y-114546630D01*
X119611375Y-114521483D01*
X119620108Y-114497074D01*
X119631192Y-114473639D01*
X119644520Y-114451403D01*
X119659963Y-114430581D01*
X119677372Y-114411372D01*
X119696581Y-114393963D01*
X119717403Y-114378520D01*
X119739639Y-114365192D01*
X119763074Y-114354108D01*
X119787483Y-114345375D01*
X119812630Y-114339076D01*
X119838273Y-114335272D01*
X119864166Y-114334000D01*
X121237834Y-114334000D01*
X121263727Y-114335272D01*
X121263727Y-114335272D01*
G37*
D16*
X120551000Y-116185000D03*
D24*
X117051000Y-116185000D03*
D12*
G36*
X126862727Y-46330274D02*
G01*
X126888370Y-46334078D01*
X126913517Y-46340377D01*
X126937926Y-46349110D01*
X126961361Y-46360194D01*
X126983597Y-46373522D01*
X127004419Y-46388965D01*
X127023628Y-46406374D01*
X127041037Y-46425583D01*
X127056480Y-46446405D01*
X127069808Y-46468641D01*
X127080892Y-46492076D01*
X127089625Y-46516485D01*
X127095924Y-46541632D01*
X127099728Y-46567275D01*
X127101000Y-46593168D01*
X127101000Y-47966836D01*
X127099728Y-47992729D01*
X127095924Y-48018372D01*
X127089625Y-48043519D01*
X127080892Y-48067928D01*
X127069808Y-48091363D01*
X127056480Y-48113599D01*
X127041037Y-48134421D01*
X127023628Y-48153630D01*
X127004419Y-48171039D01*
X126983597Y-48186482D01*
X126961361Y-48199810D01*
X126937926Y-48210894D01*
X126913517Y-48219627D01*
X126888370Y-48225926D01*
X126862727Y-48229730D01*
X126836834Y-48231002D01*
X123663166Y-48231002D01*
X123637273Y-48229730D01*
X123611630Y-48225926D01*
X123586483Y-48219627D01*
X123562074Y-48210894D01*
X123538639Y-48199810D01*
X123516403Y-48186482D01*
X123495581Y-48171039D01*
X123476372Y-48153630D01*
X123458963Y-48134421D01*
X123443520Y-48113599D01*
X123430192Y-48091363D01*
X123419108Y-48067928D01*
X123410375Y-48043519D01*
X123404076Y-48018372D01*
X123400272Y-47992729D01*
X123399000Y-47966836D01*
X123399000Y-46593168D01*
X123400272Y-46567275D01*
X123404076Y-46541632D01*
X123410375Y-46516485D01*
X123419108Y-46492076D01*
X123430192Y-46468641D01*
X123443520Y-46446405D01*
X123458963Y-46425583D01*
X123476372Y-46406374D01*
X123495581Y-46388965D01*
X123516403Y-46373522D01*
X123538639Y-46360194D01*
X123562074Y-46349110D01*
X123586483Y-46340377D01*
X123611630Y-46334078D01*
X123637273Y-46330274D01*
X123663166Y-46329002D01*
X126836834Y-46329002D01*
X126862727Y-46330274D01*
X126862727Y-46330274D01*
G37*
D16*
X125250000Y-47280002D03*
D29*
X125250000Y-50780002D03*
D12*
G36*
X175503728Y-55164273D02*
G01*
X175529371Y-55168077D01*
X175554518Y-55174376D01*
X175578927Y-55183109D01*
X175602362Y-55194193D01*
X175624598Y-55207521D01*
X175645420Y-55222964D01*
X175664629Y-55240373D01*
X175682038Y-55259582D01*
X175697481Y-55280404D01*
X175710809Y-55302640D01*
X175721893Y-55326075D01*
X175730626Y-55350484D01*
X175736925Y-55375631D01*
X175740729Y-55401274D01*
X175742001Y-55427167D01*
X175742001Y-56800835D01*
X175740729Y-56826728D01*
X175736925Y-56852371D01*
X175730626Y-56877518D01*
X175721893Y-56901927D01*
X175710809Y-56925362D01*
X175697481Y-56947598D01*
X175682038Y-56968420D01*
X175664629Y-56987629D01*
X175645420Y-57005038D01*
X175624598Y-57020481D01*
X175602362Y-57033809D01*
X175578927Y-57044893D01*
X175554518Y-57053626D01*
X175529371Y-57059925D01*
X175503728Y-57063729D01*
X175477835Y-57065001D01*
X172304167Y-57065001D01*
X172278274Y-57063729D01*
X172252631Y-57059925D01*
X172227484Y-57053626D01*
X172203075Y-57044893D01*
X172179640Y-57033809D01*
X172157404Y-57020481D01*
X172136582Y-57005038D01*
X172117373Y-56987629D01*
X172099964Y-56968420D01*
X172084521Y-56947598D01*
X172071193Y-56925362D01*
X172060109Y-56901927D01*
X172051376Y-56877518D01*
X172045077Y-56852371D01*
X172041273Y-56826728D01*
X172040001Y-56800835D01*
X172040001Y-55427167D01*
X172041273Y-55401274D01*
X172045077Y-55375631D01*
X172051376Y-55350484D01*
X172060109Y-55326075D01*
X172071193Y-55302640D01*
X172084521Y-55280404D01*
X172099964Y-55259582D01*
X172117373Y-55240373D01*
X172136582Y-55222964D01*
X172157404Y-55207521D01*
X172179640Y-55194193D01*
X172203075Y-55183109D01*
X172227484Y-55174376D01*
X172252631Y-55168077D01*
X172278274Y-55164273D01*
X172304167Y-55163001D01*
X175477835Y-55163001D01*
X175503728Y-55164273D01*
X175503728Y-55164273D01*
G37*
D16*
X173891001Y-56114001D03*
D29*
X173891001Y-59614001D03*
D15*
X174993000Y-121171000D03*
X179393000Y-121171000D03*
D30*
X119408000Y-92182000D03*
X119408000Y-94722000D03*
X116868000Y-92182000D03*
X116868000Y-94722000D03*
X114328000Y-92182000D03*
X114328000Y-94722000D03*
X111788000Y-92182000D03*
X111788000Y-94722000D03*
X109248000Y-92182000D03*
X109248000Y-94722000D03*
X106708000Y-92182000D03*
X106708000Y-94722000D03*
X104168000Y-92182000D03*
X104168000Y-94722000D03*
X101628000Y-92182000D03*
X101628000Y-94722000D03*
X99088000Y-92182000D03*
X99088000Y-94722000D03*
X96548000Y-92182000D03*
D31*
X96548000Y-94722000D03*
D28*
X80673000Y-86594000D03*
D27*
X73053000Y-81514000D03*
X80673000Y-84054000D03*
X73053000Y-84054000D03*
X80673000Y-81514000D03*
X73053000Y-86594000D03*
D30*
X144935001Y-114280000D03*
X144935001Y-111740000D03*
X147475001Y-114280000D03*
X147475001Y-111740000D03*
X150015001Y-114280000D03*
X150015001Y-111740000D03*
X152555001Y-114280000D03*
X152555001Y-111740000D03*
X155095001Y-114280000D03*
X155095001Y-111740000D03*
X157635001Y-114280000D03*
X157635001Y-111740000D03*
X160175001Y-114280000D03*
X160175001Y-111740000D03*
X162715001Y-114280000D03*
D31*
X162715001Y-111740000D03*
D32*
X160095000Y-33635000D03*
X157595000Y-33635000D03*
X155095000Y-33635000D03*
X152595000Y-33635000D03*
D12*
G36*
X150756975Y-32610276D02*
G01*
X150782699Y-32614092D01*
X150807925Y-32620411D01*
X150832411Y-32629172D01*
X150855920Y-32640291D01*
X150878226Y-32653661D01*
X150899114Y-32669152D01*
X150918383Y-32686617D01*
X150935848Y-32705886D01*
X150951339Y-32726774D01*
X150964709Y-32749080D01*
X150975828Y-32772589D01*
X150984589Y-32797075D01*
X150990908Y-32822301D01*
X150994724Y-32848025D01*
X150996000Y-32874000D01*
X150996000Y-34396000D01*
X150994724Y-34421975D01*
X150990908Y-34447699D01*
X150984589Y-34472925D01*
X150975828Y-34497411D01*
X150964709Y-34520920D01*
X150951339Y-34543226D01*
X150935848Y-34564114D01*
X150918383Y-34583383D01*
X150899114Y-34600848D01*
X150878226Y-34616339D01*
X150855920Y-34629709D01*
X150832411Y-34640828D01*
X150807925Y-34649589D01*
X150782699Y-34655908D01*
X150756975Y-34659724D01*
X150731000Y-34661000D01*
X149459000Y-34661000D01*
X149433025Y-34659724D01*
X149407301Y-34655908D01*
X149382075Y-34649589D01*
X149357589Y-34640828D01*
X149334080Y-34629709D01*
X149311774Y-34616339D01*
X149290886Y-34600848D01*
X149271617Y-34583383D01*
X149254152Y-34564114D01*
X149238661Y-34543226D01*
X149225291Y-34520920D01*
X149214172Y-34497411D01*
X149205411Y-34472925D01*
X149199092Y-34447699D01*
X149195276Y-34421975D01*
X149194000Y-34396000D01*
X149194000Y-32874000D01*
X149195276Y-32848025D01*
X149199092Y-32822301D01*
X149205411Y-32797075D01*
X149214172Y-32772589D01*
X149225291Y-32749080D01*
X149238661Y-32726774D01*
X149254152Y-32705886D01*
X149271617Y-32686617D01*
X149290886Y-32669152D01*
X149311774Y-32653661D01*
X149334080Y-32640291D01*
X149357589Y-32629172D01*
X149382075Y-32620411D01*
X149407301Y-32614092D01*
X149433025Y-32610276D01*
X149459000Y-32609000D01*
X150731000Y-32609000D01*
X150756975Y-32610276D01*
X150756975Y-32610276D01*
G37*
D33*
X150095000Y-33635000D03*
D30*
X170335000Y-33635000D03*
X172875000Y-33635000D03*
X170335000Y-36175000D03*
X172875000Y-36175000D03*
X170335000Y-38715000D03*
X172875000Y-38715000D03*
X170335000Y-41255000D03*
X172875000Y-41255000D03*
X170335000Y-43795000D03*
X172875000Y-43795000D03*
X170335000Y-46335000D03*
D31*
X172875000Y-46335000D03*
D34*
X72799000Y-101332998D03*
D35*
X72799000Y-93832998D03*
M02*
