G04 #@! TF.GenerationSoftware,KiCad,Pcbnew,(5.1.4-83-g4f57de968)-1*
G04 #@! TF.CreationDate,2020-04-08T14:11:41+03:00*
G04 #@! TF.ProjectId,3d_print_main,33645f70-7269-46e7-945f-6d61696e2e6b,rev?*
G04 #@! TF.SameCoordinates,Original*
G04 #@! TF.FileFunction,Profile,NP*
%FSLAX46Y46*%
G04 Gerber Fmt 4.6, Leading zero omitted, Abs format (unit mm)*
G04 Created by KiCad (PCBNEW (5.1.4-83-g4f57de968)-1) date 2020-04-08 14:11:41*
%MOMM*%
%LPD*%
G04 APERTURE LIST*
%ADD10C,0.100000*%
G04 APERTURE END LIST*
D10*
X45517000Y-77650998D02*
G75*
G02X45517000Y-78650998I0J-500000D01*
G01*
X42767000Y-77650998D02*
X45517000Y-77650998D01*
X42967000Y-78650998D02*
X45517000Y-78650998D01*
X42967000Y-93650998D02*
G75*
G02X42767000Y-93450998I0J200000D01*
G01*
X42767000Y-78850998D02*
G75*
G02X42967000Y-78650998I200000J0D01*
G01*
X47667000Y-93650998D02*
G75*
G02X48667000Y-94650998I0J-1000000D01*
G01*
X47467000Y-94650998D02*
G75*
G02X47667000Y-94850998I0J-200000D01*
G01*
X42767000Y-94650998D02*
G75*
G02X41767000Y-93650998I0J1000000D01*
G01*
X41767000Y-78650998D02*
G75*
G02X42767000Y-77650998I1000000J0D01*
G01*
X42767000Y-93450998D02*
X42767000Y-78850998D01*
X41767000Y-93650998D02*
X41767000Y-78650998D01*
X47467000Y-94650998D02*
X42767000Y-94650998D01*
X47667000Y-93650998D02*
X42967000Y-93650998D01*
X48667000Y-94650998D02*
X48667000Y-99650998D01*
X48667000Y-99650998D02*
G75*
G02X47667000Y-99650998I-500000J0D01*
G01*
X47667000Y-94850998D02*
X47667000Y-99650998D01*
X42750000Y-101700000D02*
G75*
G02X42950000Y-101500000I200000J0D01*
G01*
X42950000Y-116500000D02*
G75*
G02X42750000Y-116300000I0J200000D01*
G01*
X47450000Y-117500000D02*
G75*
G02X47650000Y-117700000I0J-200000D01*
G01*
X47650000Y-116500000D02*
G75*
G02X48650000Y-117500000I0J-1000000D01*
G01*
X42750000Y-117500000D02*
G75*
G02X41750000Y-116500000I0J1000000D01*
G01*
X41750000Y-101500000D02*
G75*
G02X42750000Y-100500000I1000000J0D01*
G01*
X45500000Y-100500000D02*
G75*
G02X45500000Y-101500000I0J-500000D01*
G01*
X42750000Y-100500000D02*
X45500000Y-100500000D01*
X42950000Y-101500000D02*
X45500000Y-101500000D01*
X41750000Y-116500000D02*
X41750000Y-101500000D01*
X42750000Y-116300000D02*
X42750000Y-101700000D01*
X47650000Y-116500000D02*
X42950000Y-116500000D01*
X47450000Y-117500000D02*
X42750000Y-117500000D01*
X48650000Y-122500000D02*
G75*
G02X47650000Y-122500000I-500000J0D01*
G01*
X48650000Y-117500000D02*
X48650000Y-122500000D01*
X47650000Y-117700000D02*
X47650000Y-122500000D01*
X34800000Y-23600000D02*
X234800000Y-23600000D01*
X34800000Y-128600000D02*
X34800000Y-23600000D01*
X234800000Y-128600000D02*
X34800000Y-128600000D01*
X234800000Y-23600000D02*
X234800000Y-128600000D01*
X86896000Y-94976000D02*
G75*
G02X87912000Y-95992000I0J-1016000D01*
G01*
X87912000Y-101326000D02*
G75*
G02X86896000Y-101326000I-508000J0D01*
G01*
X87912000Y-95992000D02*
X87912000Y-101326000D01*
X86896000Y-95992000D02*
X86896000Y-101326000D01*
X81054000Y-95992000D02*
G75*
G02X81054000Y-94976000I0J508000D01*
G01*
X86896000Y-95992000D02*
X81054000Y-95992000D01*
X81054000Y-94976000D02*
X86896000Y-94976000D01*
X76354998Y-106024998D02*
G75*
G02X77296302Y-104798272I1270002J-2D01*
G01*
X85334658Y-102617640D02*
G75*
G02X85663348Y-103844362I164345J-613361D01*
G01*
X77296301Y-104798275D02*
X85334650Y-102617636D01*
X77625000Y-106025000D02*
X85663348Y-103844362D01*
X77625002Y-115550002D02*
G75*
G02X76355000Y-115549998I-635001J2D01*
G01*
X76354999Y-106025002D02*
X76355000Y-115549998D01*
X77625001Y-115550002D02*
X77625000Y-106025000D01*
X76354998Y-79355002D02*
G75*
G02X77625000Y-79355000I635001J1D01*
G01*
X77625003Y-88880005D02*
G75*
G02X76355001Y-88879999I-635001J3D01*
G01*
X76355000Y-79355002D02*
X76355001Y-88879999D01*
X77625000Y-88880000D02*
X77625000Y-79355000D01*
M02*
